ISO-10303-21;
HEADER;
/* Generated by software containing ST-Developer
 * from STEP Tools, Inc. (www.steptools.com) 
 */
/* OPTION: using custom schema-name function */

FILE_DESCRIPTION(
/* description */ (''),
/* implementation_level */ '2;1');

FILE_NAME(
/* name */ 'A06_Drehrollen-Halterung.stp',
/* time_stamp */ '2026-09-06T09:25:42+02:00',
/* author */ (''),
/* organization */ (''),
/* preprocessor_version */ 'ST-DEVELOPER v20',
/* originating_system */ 'SIEMENS PLM Software NX2406.3002',
/* authorisation */ '');

FILE_SCHEMA (('AUTOMOTIVE_DESIGN { 1 0 10303 214 3 1 1 1 }'));
ENDSEC;

DATA;
#10=SHAPE_REPRESENTATION_RELATIONSHIP('None',
'relationship between A06_Drehrollen-Halterung-None and A06_Drehrollen
-Halterung-None',#22,#11);
#11=ADVANCED_BREP_SHAPE_REPRESENTATION('A06_Drehrollen-Halterung-None',
(#32),#1109);
#12=SHAPE_DEFINITION_REPRESENTATION(#13,#22);
#13=PRODUCT_DEFINITION_SHAPE('','',#14);
#14=PRODUCT_DEFINITION(' ','',#16,#15);
#15=PRODUCT_DEFINITION_CONTEXT('part definition',#21,'design');
#16=PRODUCT_DEFINITION_FORMATION_WITH_SPECIFIED_SOURCE(' ',' ',#18,
 .NOT_KNOWN.);
#17=PRODUCT_RELATED_PRODUCT_CATEGORY('part','',(#18));
#18=PRODUCT('A06_Drehrollen-Halterung','A06_Drehrollen-Halterung',' ',(#19));
#19=PRODUCT_CONTEXT(' ',#21,'mechanical');
#20=APPLICATION_PROTOCOL_DEFINITION('international standard',
'automotive_design',2010,#21);
#21=APPLICATION_CONTEXT(
'core data for automotive mechanical design processes');
#22=SHAPE_REPRESENTATION('A06_Drehrollen-Halterung-None',(#608),#1109);
#23=PRESENTATION_LAYER_ASSIGNMENT('1','Layer 1',(#32));
#24=STYLED_ITEM('',(#25),#32);
#25=PRESENTATION_STYLE_ASSIGNMENT((#26));
#26=SURFACE_STYLE_USAGE(.BOTH.,#27);
#27=SURFACE_SIDE_STYLE('',(#28));
#28=SURFACE_STYLE_FILL_AREA(#29);
#29=FILL_AREA_STYLE('',(#30));
#30=FILL_AREA_STYLE_COLOUR('',#31);
#31=COLOUR_RGB('medium steel',0.596078431372549,0.666666666666667,0.686274509803922);
#32=MANIFOLD_SOLID_BREP('CHAMFER1',#33);
#33=CLOSED_SHELL('',(#92,#93,#94,#95,#96,#97,#98,#99,#100,#101,#102,#103,
#104,#105,#106,#107,#108,#109,#110,#111,#112,#113,#114,#115,#116,#117,#118,
#119,#120,#121,#122,#123,#124,#125));
#34=SURFACE_OF_LINEAR_EXTRUSION('',#52,#593);
#35=SURFACE_OF_LINEAR_EXTRUSION('',#53,#596);
#36=SURFACE_OF_LINEAR_EXTRUSION('',#54,#598);
#37=SURFACE_OF_LINEAR_EXTRUSION('',#55,#601);
#38=SURFACE_OF_LINEAR_EXTRUSION('',#56,#604);
#39=SURFACE_OF_LINEAR_EXTRUSION('',#57,#607);
#40=B_SPLINE_CURVE_WITH_KNOTS('',3,(#912,#913,#914,#915,#916,#917,#918,
#919),.UNSPECIFIED.,.F.,.F.,(4,1,1,1,1,4),(0.,0.305817819098461,0.417572291815552,
0.826104153557043,0.891982842319995,1.),.UNSPECIFIED.);
#41=B_SPLINE_CURVE_WITH_KNOTS('',3,(#923,#924,#925,#926),.UNSPECIFIED.,
 .F.,.F.,(4,4),(0.,1.),.UNSPECIFIED.);
#42=B_SPLINE_CURVE_WITH_KNOTS('',3,(#930,#931,#932,#933,#934,#935,#936),
 .UNSPECIFIED.,.F.,.F.,(4,1,1,1,4),(0.,0.138004403883685,0.258898542310393,
0.917655393590043,1.),.UNSPECIFIED.);
#43=B_SPLINE_CURVE_WITH_KNOTS('',3,(#942,#943,#944,#945,#946,#947,#948,
#949),.UNSPECIFIED.,.F.,.F.,(4,1,1,1,1,4),(0.,0.305817819098527,0.417572291815603,
0.826104153557042,0.891982842319985,1.),.UNSPECIFIED.);
#44=B_SPLINE_CURVE_WITH_KNOTS('',3,(#953,#954,#955,#956,#957,#958,#959),
 .UNSPECIFIED.,.F.,.F.,(4,1,1,1,4),(0.,0.13800440388368,0.258898542310389,
0.917655393590042,1.),.UNSPECIFIED.);
#45=B_SPLINE_CURVE_WITH_KNOTS('',3,(#963,#964,#965,#966),.UNSPECIFIED.,
 .F.,.F.,(4,4),(0.,1.),.UNSPECIFIED.);
#46=B_SPLINE_CURVE_WITH_KNOTS('',3,(#979,#980,#981,#982,#983,#984,#985,
#986),.UNSPECIFIED.,.F.,.F.,(4,1,1,1,1,4),(0.,0.305817819098461,0.417572291815552,
0.826104153557043,0.891982842319995,1.),.UNSPECIFIED.);
#47=B_SPLINE_CURVE_WITH_KNOTS('',3,(#991,#992,#993,#994,#995,#996,#997),
 .UNSPECIFIED.,.F.,.F.,(4,1,1,1,4),(0.,0.138004403883685,0.258898542310393,
0.917655393590043,1.),.UNSPECIFIED.);
#48=B_SPLINE_CURVE_WITH_KNOTS('',3,(#1001,#1002,#1003,#1004),
 .UNSPECIFIED.,.F.,.F.,(4,4),(0.,1.),.UNSPECIFIED.);
#49=B_SPLINE_CURVE_WITH_KNOTS('',3,(#1006,#1007,#1008,#1009),
 .UNSPECIFIED.,.F.,.F.,(4,4),(0.,1.),.UNSPECIFIED.);
#50=B_SPLINE_CURVE_WITH_KNOTS('',3,(#1013,#1014,#1015,#1016,#1017,#1018,
#1019),.UNSPECIFIED.,.F.,.F.,(4,1,1,1,4),(0.,0.13800440388368,0.258898542310389,
0.917655393590042,1.),.UNSPECIFIED.);
#51=B_SPLINE_CURVE_WITH_KNOTS('',3,(#1023,#1024,#1025,#1026,#1027,#1028,
#1029,#1030),.UNSPECIFIED.,.F.,.F.,(4,1,1,1,1,4),(0.,0.305817819098527,
0.417572291815603,0.826104153557042,0.891982842319985,1.),.UNSPECIFIED.);
#52=B_SPLINE_CURVE_WITH_KNOTS('',3,(#1048,#1049,#1050,#1051,#1052,#1053,
#1054),.UNSPECIFIED.,.F.,.F.,(4,1,1,1,4),(0.,0.138004403883685,0.258898542310393,
0.917655393590043,1.),.UNSPECIFIED.);
#53=B_SPLINE_CURVE_WITH_KNOTS('',3,(#1058,#1059,#1060,#1061),
 .UNSPECIFIED.,.F.,.F.,(4,4),(0.,1.),.UNSPECIFIED.);
#54=B_SPLINE_CURVE_WITH_KNOTS('',3,(#1063,#1064,#1065,#1066),
 .UNSPECIFIED.,.F.,.F.,(4,4),(0.,1.),.UNSPECIFIED.);
#55=B_SPLINE_CURVE_WITH_KNOTS('',3,(#1070,#1071,#1072,#1073,#1074,#1075,
#1076),.UNSPECIFIED.,.F.,.F.,(4,1,1,1,4),(0.,0.13800440388368,0.258898542310389,
0.917655393590042,1.),.UNSPECIFIED.);
#56=B_SPLINE_CURVE_WITH_KNOTS('',3,(#1080,#1081,#1082,#1083,#1084,#1085,
#1086,#1087),.UNSPECIFIED.,.F.,.F.,(4,1,1,1,1,4),(0.,0.305817819098788,
0.417572291815822,0.826104153557107,0.891982842320026,1.),.UNSPECIFIED.);
#57=B_SPLINE_CURVE_WITH_KNOTS('',3,(#1091,#1092,#1093,#1094,#1095,#1096,
#1097,#1098),.UNSPECIFIED.,.F.,.F.,(4,1,1,1,1,4),(0.,0.305817819098722,
0.41757229181577,0.826104153557108,0.891982842320035,1.),.UNSPECIFIED.);
#58=FACE_BOUND('',#168,.T.);
#59=FACE_BOUND('',#169,.T.);
#60=FACE_BOUND('',#170,.T.);
#61=FACE_BOUND('',#171,.T.);
#62=FACE_BOUND('',#172,.T.);
#63=FACE_BOUND('',#173,.T.);
#64=FACE_BOUND('',#174,.T.);
#65=FACE_BOUND('',#177,.T.);
#66=FACE_BOUND('',#178,.T.);
#67=FACE_BOUND('',#179,.T.);
#68=PLANE('',#621);
#69=PLANE('',#625);
#70=PLANE('',#631);
#71=PLANE('',#636);
#72=PLANE('',#641);
#73=PLANE('',#644);
#74=PLANE('',#647);
#75=PLANE('',#656);
#76=CYLINDRICAL_SURFACE('',#617,1.6);
#77=CYLINDRICAL_SURFACE('',#620,1.6);
#78=CYLINDRICAL_SURFACE('',#624,7.6);
#79=CYLINDRICAL_SURFACE('',#628,7.6);
#80=CYLINDRICAL_SURFACE('',#657,1.);
#81=CYLINDRICAL_SURFACE('',#658,2.8);
#82=CYLINDRICAL_SURFACE('',#659,1.);
#83=CYLINDRICAL_SURFACE('',#660,7.6);
#84=CYLINDRICAL_SURFACE('',#661,7.6);
#85=CYLINDRICAL_SURFACE('',#662,2.8);
#86=CYLINDRICAL_SURFACE('',#663,7.6);
#87=CYLINDRICAL_SURFACE('',#664,7.6);
#88=CYLINDRICAL_SURFACE('',#666,1.);
#89=CYLINDRICAL_SURFACE('',#668,1.);
#90=CYLINDRICAL_SURFACE('',#669,1.6);
#91=CYLINDRICAL_SURFACE('',#670,1.6);
#92=ADVANCED_FACE('NONE',(#130),#126,.F.);
#93=ADVANCED_FACE('NONE',(#131),#127,.F.);
#94=ADVANCED_FACE('NONE',(#132),#76,.F.);
#95=ADVANCED_FACE('NONE',(#133),#77,.F.);
#96=ADVANCED_FACE('NONE',(#134),#68,.F.);
#97=ADVANCED_FACE('NONE',(#135),#78,.T.);
#98=ADVANCED_FACE('NONE',(#136),#69,.F.);
#99=ADVANCED_FACE('NONE',(#137),#79,.T.);
#100=ADVANCED_FACE('NONE',(#58,#59,#60),#70,.T.);
#101=ADVANCED_FACE('NONE',(#61,#62),#71,.F.);
#102=ADVANCED_FACE('NONE',(#63,#64),#72,.F.);
#103=ADVANCED_FACE('NONE',(#138),#73,.F.);
#104=ADVANCED_FACE('NONE',(#139),#74,.F.);
#105=ADVANCED_FACE('NONE',(#65,#66,#67),#75,.F.);
#106=ADVANCED_FACE('NONE',(#140),#80,.F.);
#107=ADVANCED_FACE('NONE',(#141),#81,.T.);
#108=ADVANCED_FACE('NONE',(#142),#82,.F.);
#109=ADVANCED_FACE('NONE',(#143),#34,.T.);
#110=ADVANCED_FACE('NONE',(#144),#83,.T.);
#111=ADVANCED_FACE('NONE',(#145),#35,.T.);
#112=ADVANCED_FACE('NONE',(#146),#36,.F.);
#113=ADVANCED_FACE('NONE',(#147),#84,.T.);
#114=ADVANCED_FACE('NONE',(#148),#37,.F.);
#115=ADVANCED_FACE('NONE',(#149),#85,.T.);
#116=ADVANCED_FACE('NONE',(#150),#38,.F.);
#117=ADVANCED_FACE('NONE',(#151),#86,.T.);
#118=ADVANCED_FACE('NONE',(#152),#39,.T.);
#119=ADVANCED_FACE('NONE',(#153),#87,.T.);
#120=ADVANCED_FACE('NONE',(#154),#88,.F.);
#121=ADVANCED_FACE('NONE',(#155),#89,.F.);
#122=ADVANCED_FACE('NONE',(#156),#90,.F.);
#123=ADVANCED_FACE('NONE',(#157),#91,.F.);
#124=ADVANCED_FACE('NONE',(#158),#128,.F.);
#125=ADVANCED_FACE('NONE',(#159),#129,.F.);
#126=CONICAL_SURFACE('',#611,1.,45.0000000000002);
#127=CONICAL_SURFACE('',#614,1.49999999999997,44.9999999999999);
#128=CONICAL_SURFACE('',#671,1.49999999999997,44.9999999999999);
#129=CONICAL_SURFACE('',#672,1.,45.0000000000002);
#130=FACE_OUTER_BOUND('',#160,.T.);
#131=FACE_OUTER_BOUND('',#161,.T.);
#132=FACE_OUTER_BOUND('',#162,.T.);
#133=FACE_OUTER_BOUND('',#163,.T.);
#134=FACE_OUTER_BOUND('',#164,.T.);
#135=FACE_OUTER_BOUND('',#165,.T.);
#136=FACE_OUTER_BOUND('',#166,.T.);
#137=FACE_OUTER_BOUND('',#167,.T.);
#138=FACE_OUTER_BOUND('',#175,.T.);
#139=FACE_OUTER_BOUND('',#176,.T.);
#140=FACE_OUTER_BOUND('',#180,.T.);
#141=FACE_OUTER_BOUND('',#181,.T.);
#142=FACE_OUTER_BOUND('',#182,.T.);
#143=FACE_OUTER_BOUND('',#183,.T.);
#144=FACE_OUTER_BOUND('',#184,.T.);
#145=FACE_OUTER_BOUND('',#185,.T.);
#146=FACE_OUTER_BOUND('',#186,.T.);
#147=FACE_OUTER_BOUND('',#187,.T.);
#148=FACE_OUTER_BOUND('',#188,.T.);
#149=FACE_OUTER_BOUND('',#189,.T.);
#150=FACE_OUTER_BOUND('',#190,.T.);
#151=FACE_OUTER_BOUND('',#191,.T.);
#152=FACE_OUTER_BOUND('',#192,.T.);
#153=FACE_OUTER_BOUND('',#193,.T.);
#154=FACE_OUTER_BOUND('',#194,.T.);
#155=FACE_OUTER_BOUND('',#195,.T.);
#156=FACE_OUTER_BOUND('',#196,.T.);
#157=FACE_OUTER_BOUND('',#197,.T.);
#158=FACE_OUTER_BOUND('',#198,.T.);
#159=FACE_OUTER_BOUND('',#199,.T.);
#160=EDGE_LOOP('',(#236,#237,#238,#239));
#161=EDGE_LOOP('',(#240,#241,#242,#243));
#162=EDGE_LOOP('',(#244,#245,#246,#247));
#163=EDGE_LOOP('',(#248,#249,#250,#251));
#164=EDGE_LOOP('',(#252,#253,#254,#255,#256));
#165=EDGE_LOOP('',(#257,#258,#259,#260));
#166=EDGE_LOOP('',(#261,#262,#263,#264,#265));
#167=EDGE_LOOP('',(#266,#267,#268,#269));
#168=EDGE_LOOP('',(#270,#271));
#169=EDGE_LOOP('',(#272,#273,#274,#275));
#170=EDGE_LOOP('',(#276,#277));
#171=EDGE_LOOP('',(#278,#279));
#172=EDGE_LOOP('',(#280,#281,#282,#283,#284,#285,#286,#287,#288));
#173=EDGE_LOOP('',(#289,#290,#291,#292,#293,#294,#295,#296,#297));
#174=EDGE_LOOP('',(#298,#299));
#175=EDGE_LOOP('',(#300,#301));
#176=EDGE_LOOP('',(#302,#303));
#177=EDGE_LOOP('',(#304,#305,#306,#307,#308,#309,#310,#311,#312,#313,#314,
#315));
#178=EDGE_LOOP('',(#316,#317));
#179=EDGE_LOOP('',(#318,#319));
#180=EDGE_LOOP('',(#320,#321,#322,#323));
#181=EDGE_LOOP('',(#324,#325,#326,#327));
#182=EDGE_LOOP('',(#328,#329,#330,#331));
#183=EDGE_LOOP('',(#332,#333,#334,#335));
#184=EDGE_LOOP('',(#336,#337,#338,#339));
#185=EDGE_LOOP('',(#340,#341,#342,#343));
#186=EDGE_LOOP('',(#344,#345,#346,#347));
#187=EDGE_LOOP('',(#348,#349,#350,#351));
#188=EDGE_LOOP('',(#352,#353,#354,#355));
#189=EDGE_LOOP('',(#356,#357,#358,#359));
#190=EDGE_LOOP('',(#360,#361,#362,#363));
#191=EDGE_LOOP('',(#364,#365,#366,#367));
#192=EDGE_LOOP('',(#368,#369,#370,#371));
#193=EDGE_LOOP('',(#372,#373,#374,#375));
#194=EDGE_LOOP('',(#376,#377,#378,#379));
#195=EDGE_LOOP('',(#380,#381,#382,#383));
#196=EDGE_LOOP('',(#384,#385,#386,#387));
#197=EDGE_LOOP('',(#388,#389,#390,#391));
#198=EDGE_LOOP('',(#392,#393,#394,#395));
#199=EDGE_LOOP('',(#396,#397,#398,#399));
#200=CIRCLE('',#609,1.);
#201=CIRCLE('',#610,1.50000000000003);
#202=CIRCLE('',#612,1.);
#203=CIRCLE('',#613,1.49999999999997);
#204=CIRCLE('',#615,1.6);
#205=CIRCLE('',#616,1.6);
#206=CIRCLE('',#618,1.6);
#207=CIRCLE('',#619,1.6);
#208=CIRCLE('',#622,7.6);
#209=CIRCLE('',#623,7.6);
#210=CIRCLE('',#626,7.6);
#211=CIRCLE('',#627,7.6);
#212=CIRCLE('',#629,1.6);
#213=CIRCLE('',#630,1.6);
#214=CIRCLE('',#632,1.6);
#215=CIRCLE('',#633,7.6);
#216=CIRCLE('',#634,7.6);
#217=CIRCLE('',#635,2.8);
#218=CIRCLE('',#637,7.6);
#219=CIRCLE('',#638,2.8);
#220=CIRCLE('',#639,7.6);
#221=CIRCLE('',#640,1.6);
#222=CIRCLE('',#642,1.);
#223=CIRCLE('',#643,1.);
#224=CIRCLE('',#645,1.);
#225=CIRCLE('',#646,1.);
#226=CIRCLE('',#648,2.8);
#227=CIRCLE('',#649,7.6);
#228=CIRCLE('',#650,7.6);
#229=CIRCLE('',#651,2.8);
#230=CIRCLE('',#652,7.6);
#231=CIRCLE('',#653,7.6);
#232=CIRCLE('',#654,1.50000000000003);
#233=CIRCLE('',#655,1.49999999999997);
#234=CIRCLE('',#665,1.);
#235=CIRCLE('',#667,1.);
#236=ORIENTED_EDGE('',*,*,#452,.F.);
#237=ORIENTED_EDGE('',*,*,#453,.F.);
#238=ORIENTED_EDGE('',*,*,#454,.T.);
#239=ORIENTED_EDGE('',*,*,#455,.F.);
#240=ORIENTED_EDGE('',*,*,#456,.F.);
#241=ORIENTED_EDGE('',*,*,#457,.F.);
#242=ORIENTED_EDGE('',*,*,#458,.T.);
#243=ORIENTED_EDGE('',*,*,#459,.F.);
#244=ORIENTED_EDGE('',*,*,#460,.F.);
#245=ORIENTED_EDGE('',*,*,#461,.T.);
#246=ORIENTED_EDGE('',*,*,#462,.T.);
#247=ORIENTED_EDGE('',*,*,#463,.F.);
#248=ORIENTED_EDGE('',*,*,#464,.F.);
#249=ORIENTED_EDGE('',*,*,#465,.T.);
#250=ORIENTED_EDGE('',*,*,#466,.T.);
#251=ORIENTED_EDGE('',*,*,#467,.F.);
#252=ORIENTED_EDGE('',*,*,#468,.T.);
#253=ORIENTED_EDGE('',*,*,#469,.T.);
#254=ORIENTED_EDGE('',*,*,#470,.F.);
#255=ORIENTED_EDGE('',*,*,#471,.F.);
#256=ORIENTED_EDGE('',*,*,#472,.T.);
#257=ORIENTED_EDGE('',*,*,#473,.T.);
#258=ORIENTED_EDGE('',*,*,#472,.F.);
#259=ORIENTED_EDGE('',*,*,#474,.F.);
#260=ORIENTED_EDGE('',*,*,#475,.T.);
#261=ORIENTED_EDGE('',*,*,#476,.T.);
#262=ORIENTED_EDGE('',*,*,#477,.T.);
#263=ORIENTED_EDGE('',*,*,#475,.F.);
#264=ORIENTED_EDGE('',*,*,#478,.F.);
#265=ORIENTED_EDGE('',*,*,#479,.T.);
#266=ORIENTED_EDGE('',*,*,#480,.T.);
#267=ORIENTED_EDGE('',*,*,#479,.F.);
#268=ORIENTED_EDGE('',*,*,#481,.F.);
#269=ORIENTED_EDGE('',*,*,#470,.T.);
#270=ORIENTED_EDGE('',*,*,#482,.F.);
#271=ORIENTED_EDGE('',*,*,#461,.F.);
#272=ORIENTED_EDGE('',*,*,#481,.T.);
#273=ORIENTED_EDGE('',*,*,#478,.T.);
#274=ORIENTED_EDGE('',*,*,#474,.T.);
#275=ORIENTED_EDGE('',*,*,#471,.T.);
#276=ORIENTED_EDGE('',*,*,#483,.F.);
#277=ORIENTED_EDGE('',*,*,#465,.F.);
#278=ORIENTED_EDGE('',*,*,#484,.T.);
#279=ORIENTED_EDGE('',*,*,#463,.T.);
#280=ORIENTED_EDGE('',*,*,#485,.F.);
#281=ORIENTED_EDGE('',*,*,#486,.T.);
#282=ORIENTED_EDGE('',*,*,#468,.F.);
#283=ORIENTED_EDGE('',*,*,#473,.F.);
#284=ORIENTED_EDGE('',*,*,#477,.F.);
#285=ORIENTED_EDGE('',*,*,#487,.F.);
#286=ORIENTED_EDGE('',*,*,#488,.F.);
#287=ORIENTED_EDGE('',*,*,#489,.F.);
#288=ORIENTED_EDGE('',*,*,#490,.T.);
#289=ORIENTED_EDGE('',*,*,#469,.F.);
#290=ORIENTED_EDGE('',*,*,#491,.T.);
#291=ORIENTED_EDGE('',*,*,#492,.T.);
#292=ORIENTED_EDGE('',*,*,#493,.F.);
#293=ORIENTED_EDGE('',*,*,#494,.T.);
#294=ORIENTED_EDGE('',*,*,#495,.F.);
#295=ORIENTED_EDGE('',*,*,#496,.T.);
#296=ORIENTED_EDGE('',*,*,#476,.F.);
#297=ORIENTED_EDGE('',*,*,#480,.F.);
#298=ORIENTED_EDGE('',*,*,#497,.T.);
#299=ORIENTED_EDGE('',*,*,#467,.T.);
#300=ORIENTED_EDGE('',*,*,#498,.F.);
#301=ORIENTED_EDGE('',*,*,#499,.F.);
#302=ORIENTED_EDGE('',*,*,#500,.T.);
#303=ORIENTED_EDGE('',*,*,#501,.T.);
#304=ORIENTED_EDGE('',*,*,#502,.T.);
#305=ORIENTED_EDGE('',*,*,#503,.F.);
#306=ORIENTED_EDGE('',*,*,#504,.T.);
#307=ORIENTED_EDGE('',*,*,#505,.T.);
#308=ORIENTED_EDGE('',*,*,#506,.T.);
#309=ORIENTED_EDGE('',*,*,#507,.F.);
#310=ORIENTED_EDGE('',*,*,#508,.T.);
#311=ORIENTED_EDGE('',*,*,#509,.F.);
#312=ORIENTED_EDGE('',*,*,#510,.T.);
#313=ORIENTED_EDGE('',*,*,#511,.F.);
#314=ORIENTED_EDGE('',*,*,#512,.F.);
#315=ORIENTED_EDGE('',*,*,#513,.F.);
#316=ORIENTED_EDGE('',*,*,#514,.T.);
#317=ORIENTED_EDGE('',*,*,#455,.T.);
#318=ORIENTED_EDGE('',*,*,#515,.T.);
#319=ORIENTED_EDGE('',*,*,#459,.T.);
#320=ORIENTED_EDGE('',*,*,#516,.F.);
#321=ORIENTED_EDGE('',*,*,#500,.F.);
#322=ORIENTED_EDGE('',*,*,#517,.T.);
#323=ORIENTED_EDGE('',*,*,#453,.T.);
#324=ORIENTED_EDGE('',*,*,#503,.T.);
#325=ORIENTED_EDGE('',*,*,#518,.F.);
#326=ORIENTED_EDGE('',*,*,#490,.F.);
#327=ORIENTED_EDGE('',*,*,#519,.T.);
#328=ORIENTED_EDGE('',*,*,#520,.F.);
#329=ORIENTED_EDGE('',*,*,#499,.T.);
#330=ORIENTED_EDGE('',*,*,#521,.T.);
#331=ORIENTED_EDGE('',*,*,#457,.T.);
#332=ORIENTED_EDGE('',*,*,#504,.F.);
#333=ORIENTED_EDGE('',*,*,#519,.F.);
#334=ORIENTED_EDGE('',*,*,#489,.T.);
#335=ORIENTED_EDGE('',*,*,#522,.T.);
#336=ORIENTED_EDGE('',*,*,#505,.F.);
#337=ORIENTED_EDGE('',*,*,#522,.F.);
#338=ORIENTED_EDGE('',*,*,#488,.T.);
#339=ORIENTED_EDGE('',*,*,#523,.T.);
#340=ORIENTED_EDGE('',*,*,#506,.F.);
#341=ORIENTED_EDGE('',*,*,#523,.F.);
#342=ORIENTED_EDGE('',*,*,#487,.T.);
#343=ORIENTED_EDGE('',*,*,#524,.T.);
#344=ORIENTED_EDGE('',*,*,#507,.T.);
#345=ORIENTED_EDGE('',*,*,#524,.F.);
#346=ORIENTED_EDGE('',*,*,#496,.F.);
#347=ORIENTED_EDGE('',*,*,#525,.T.);
#348=ORIENTED_EDGE('',*,*,#508,.F.);
#349=ORIENTED_EDGE('',*,*,#525,.F.);
#350=ORIENTED_EDGE('',*,*,#495,.T.);
#351=ORIENTED_EDGE('',*,*,#526,.T.);
#352=ORIENTED_EDGE('',*,*,#509,.T.);
#353=ORIENTED_EDGE('',*,*,#526,.F.);
#354=ORIENTED_EDGE('',*,*,#494,.F.);
#355=ORIENTED_EDGE('',*,*,#527,.T.);
#356=ORIENTED_EDGE('',*,*,#510,.F.);
#357=ORIENTED_EDGE('',*,*,#527,.F.);
#358=ORIENTED_EDGE('',*,*,#493,.T.);
#359=ORIENTED_EDGE('',*,*,#528,.T.);
#360=ORIENTED_EDGE('',*,*,#511,.T.);
#361=ORIENTED_EDGE('',*,*,#528,.F.);
#362=ORIENTED_EDGE('',*,*,#492,.F.);
#363=ORIENTED_EDGE('',*,*,#529,.T.);
#364=ORIENTED_EDGE('',*,*,#530,.F.);
#365=ORIENTED_EDGE('',*,*,#486,.F.);
#366=ORIENTED_EDGE('',*,*,#531,.T.);
#367=ORIENTED_EDGE('',*,*,#513,.T.);
#368=ORIENTED_EDGE('',*,*,#502,.F.);
#369=ORIENTED_EDGE('',*,*,#531,.F.);
#370=ORIENTED_EDGE('',*,*,#485,.T.);
#371=ORIENTED_EDGE('',*,*,#518,.T.);
#372=ORIENTED_EDGE('',*,*,#491,.F.);
#373=ORIENTED_EDGE('',*,*,#530,.T.);
#374=ORIENTED_EDGE('',*,*,#512,.T.);
#375=ORIENTED_EDGE('',*,*,#529,.F.);
#376=ORIENTED_EDGE('',*,*,#498,.T.);
#377=ORIENTED_EDGE('',*,*,#520,.T.);
#378=ORIENTED_EDGE('',*,*,#532,.T.);
#379=ORIENTED_EDGE('',*,*,#521,.F.);
#380=ORIENTED_EDGE('',*,*,#501,.F.);
#381=ORIENTED_EDGE('',*,*,#516,.T.);
#382=ORIENTED_EDGE('',*,*,#533,.T.);
#383=ORIENTED_EDGE('',*,*,#517,.F.);
#384=ORIENTED_EDGE('',*,*,#483,.T.);
#385=ORIENTED_EDGE('',*,*,#464,.T.);
#386=ORIENTED_EDGE('',*,*,#497,.F.);
#387=ORIENTED_EDGE('',*,*,#466,.F.);
#388=ORIENTED_EDGE('',*,*,#482,.T.);
#389=ORIENTED_EDGE('',*,*,#460,.T.);
#390=ORIENTED_EDGE('',*,*,#484,.F.);
#391=ORIENTED_EDGE('',*,*,#462,.F.);
#392=ORIENTED_EDGE('',*,*,#532,.F.);
#393=ORIENTED_EDGE('',*,*,#456,.T.);
#394=ORIENTED_EDGE('',*,*,#515,.F.);
#395=ORIENTED_EDGE('',*,*,#458,.F.);
#396=ORIENTED_EDGE('',*,*,#533,.F.);
#397=ORIENTED_EDGE('',*,*,#452,.T.);
#398=ORIENTED_EDGE('',*,*,#514,.F.);
#399=ORIENTED_EDGE('',*,*,#454,.F.);
#400=VERTEX_POINT('',#845);
#401=VERTEX_POINT('',#846);
#402=VERTEX_POINT('',#848);
#403=VERTEX_POINT('',#850);
#404=VERTEX_POINT('',#854);
#405=VERTEX_POINT('',#855);
#406=VERTEX_POINT('',#857);
#407=VERTEX_POINT('',#859);
#408=VERTEX_POINT('',#863);
#409=VERTEX_POINT('',#864);
#410=VERTEX_POINT('',#866);
#411=VERTEX_POINT('',#868);
#412=VERTEX_POINT('',#872);
#413=VERTEX_POINT('',#873);
#414=VERTEX_POINT('',#875);
#415=VERTEX_POINT('',#877);
#416=VERTEX_POINT('',#881);
#417=VERTEX_POINT('',#882);
#418=VERTEX_POINT('',#884);
#419=VERTEX_POINT('',#886);
#420=VERTEX_POINT('',#888);
#421=VERTEX_POINT('',#892);
#422=VERTEX_POINT('',#894);
#423=VERTEX_POINT('',#898);
#424=VERTEX_POINT('',#899);
#425=VERTEX_POINT('',#902);
#426=VERTEX_POINT('',#920);
#427=VERTEX_POINT('',#921);
#428=VERTEX_POINT('',#927);
#429=VERTEX_POINT('',#929);
#430=VERTEX_POINT('',#937);
#431=VERTEX_POINT('',#941);
#432=VERTEX_POINT('',#950);
#433=VERTEX_POINT('',#952);
#434=VERTEX_POINT('',#960);
#435=VERTEX_POINT('',#962);
#436=VERTEX_POINT('',#970);
#437=VERTEX_POINT('',#971);
#438=VERTEX_POINT('',#975);
#439=VERTEX_POINT('',#976);
#440=VERTEX_POINT('',#987);
#441=VERTEX_POINT('',#988);
#442=VERTEX_POINT('',#990);
#443=VERTEX_POINT('',#998);
#444=VERTEX_POINT('',#1000);
#445=VERTEX_POINT('',#1005);
#446=VERTEX_POINT('',#1010);
#447=VERTEX_POINT('',#1012);
#448=VERTEX_POINT('',#1020);
#449=VERTEX_POINT('',#1022);
#450=VERTEX_POINT('',#1031);
#451=VERTEX_POINT('',#1033);
#452=EDGE_CURVE('NONE',#400,#401,#534,.T.);
#453=EDGE_CURVE('NONE',#402,#400,#200,.T.);
#454=EDGE_CURVE('NONE',#402,#403,#535,.T.);
#455=EDGE_CURVE('NONE',#401,#403,#201,.T.);
#456=EDGE_CURVE('NONE',#404,#405,#536,.T.);
#457=EDGE_CURVE('NONE',#406,#404,#202,.T.);
#458=EDGE_CURVE('NONE',#406,#407,#537,.T.);
#459=EDGE_CURVE('NONE',#405,#407,#203,.T.);
#460=EDGE_CURVE('NONE',#408,#409,#538,.T.);
#461=EDGE_CURVE('NONE',#408,#410,#204,.T.);
#462=EDGE_CURVE('NONE',#410,#411,#539,.T.);
#463=EDGE_CURVE('NONE',#409,#411,#205,.T.);
#464=EDGE_CURVE('NONE',#412,#413,#540,.T.);
#465=EDGE_CURVE('NONE',#412,#414,#206,.T.);
#466=EDGE_CURVE('NONE',#414,#415,#541,.T.);
#467=EDGE_CURVE('NONE',#413,#415,#207,.T.);
#468=EDGE_CURVE('NONE',#416,#417,#542,.T.);
#469=EDGE_CURVE('NONE',#417,#418,#543,.T.);
#470=EDGE_CURVE('NONE',#419,#418,#544,.T.);
#471=EDGE_CURVE('NONE',#420,#419,#545,.T.);
#472=EDGE_CURVE('NONE',#420,#416,#546,.T.);
#473=EDGE_CURVE('NONE',#421,#416,#208,.T.);
#474=EDGE_CURVE('NONE',#422,#420,#209,.T.);
#475=EDGE_CURVE('NONE',#422,#421,#547,.T.);
#476=EDGE_CURVE('NONE',#423,#424,#548,.T.);
#477=EDGE_CURVE('NONE',#424,#421,#549,.T.);
#478=EDGE_CURVE('NONE',#425,#422,#550,.T.);
#479=EDGE_CURVE('NONE',#425,#423,#551,.T.);
#480=EDGE_CURVE('NONE',#418,#423,#210,.T.);
#481=EDGE_CURVE('NONE',#419,#425,#211,.T.);
#482=EDGE_CURVE('NONE',#410,#408,#212,.T.);
#483=EDGE_CURVE('NONE',#414,#412,#213,.T.);
#484=EDGE_CURVE('NONE',#411,#409,#214,.T.);
#485=EDGE_CURVE('NONE',#426,#427,#40,.T.);
#486=EDGE_CURVE('NONE',#426,#417,#215,.T.);
#487=EDGE_CURVE('NONE',#428,#424,#41,.T.);
#488=EDGE_CURVE('NONE',#429,#428,#216,.T.);
#489=EDGE_CURVE('NONE',#430,#429,#42,.T.);
#490=EDGE_CURVE('NONE',#430,#427,#217,.T.);
#491=EDGE_CURVE('NONE',#417,#431,#218,.T.);
#492=EDGE_CURVE('NONE',#431,#432,#43,.T.);
#493=EDGE_CURVE('NONE',#433,#432,#219,.T.);
#494=EDGE_CURVE('NONE',#433,#434,#44,.T.);
#495=EDGE_CURVE('NONE',#435,#434,#220,.T.);
#496=EDGE_CURVE('NONE',#435,#424,#45,.T.);
#497=EDGE_CURVE('NONE',#415,#413,#221,.T.);
#498=EDGE_CURVE('NONE',#436,#437,#222,.T.);
#499=EDGE_CURVE('NONE',#437,#436,#223,.T.);
#500=EDGE_CURVE('NONE',#438,#439,#224,.T.);
#501=EDGE_CURVE('NONE',#439,#438,#225,.T.);
#502=EDGE_CURVE('NONE',#440,#441,#46,.T.);
#503=EDGE_CURVE('NONE',#442,#441,#226,.T.);
#504=EDGE_CURVE('NONE',#442,#443,#47,.T.);
#505=EDGE_CURVE('NONE',#443,#444,#227,.T.);
#506=EDGE_CURVE('NONE',#444,#445,#48,.T.);
#507=EDGE_CURVE('NONE',#446,#445,#49,.T.);
#508=EDGE_CURVE('NONE',#446,#447,#228,.T.);
#509=EDGE_CURVE('NONE',#448,#447,#50,.T.);
#510=EDGE_CURVE('NONE',#448,#449,#229,.T.);
#511=EDGE_CURVE('NONE',#450,#449,#51,.T.);
#512=EDGE_CURVE('NONE',#451,#450,#230,.T.);
#513=EDGE_CURVE('NONE',#440,#451,#231,.T.);
#514=EDGE_CURVE('NONE',#403,#401,#232,.T.);
#515=EDGE_CURVE('NONE',#407,#405,#233,.T.);
#516=EDGE_CURVE('NONE',#439,#400,#552,.T.);
#517=EDGE_CURVE('NONE',#438,#402,#553,.T.);
#518=EDGE_CURVE('NONE',#427,#441,#554,.T.);
#519=EDGE_CURVE('NONE',#430,#442,#555,.T.);
#520=EDGE_CURVE('NONE',#437,#404,#556,.T.);
#521=EDGE_CURVE('NONE',#436,#406,#557,.T.);
#522=EDGE_CURVE('NONE',#429,#443,#558,.T.);
#523=EDGE_CURVE('NONE',#428,#444,#559,.T.);
#524=EDGE_CURVE('NONE',#424,#445,#560,.T.);
#525=EDGE_CURVE('NONE',#435,#446,#561,.T.);
#526=EDGE_CURVE('NONE',#434,#447,#562,.T.);
#527=EDGE_CURVE('NONE',#433,#448,#563,.T.);
#528=EDGE_CURVE('NONE',#432,#449,#564,.T.);
#529=EDGE_CURVE('NONE',#431,#450,#565,.T.);
#530=EDGE_CURVE('NONE',#417,#451,#566,.T.);
#531=EDGE_CURVE('NONE',#426,#440,#567,.T.);
#532=EDGE_CURVE('NONE',#404,#406,#234,.T.);
#533=EDGE_CURVE('NONE',#400,#402,#235,.T.);
#534=LINE('',#844,#568);
#535=LINE('',#849,#569);
#536=LINE('',#853,#570);
#537=LINE('',#858,#571);
#538=LINE('',#862,#572);
#539=LINE('',#867,#573);
#540=LINE('',#871,#574);
#541=LINE('',#876,#575);
#542=LINE('',#880,#576);
#543=LINE('',#883,#577);
#544=LINE('',#885,#578);
#545=LINE('',#887,#579);
#546=LINE('',#889,#580);
#547=LINE('',#895,#581);
#548=LINE('',#897,#582);
#549=LINE('',#900,#583);
#550=LINE('',#901,#584);
#551=LINE('',#903,#585);
#552=LINE('',#1038,#586);
#553=LINE('',#1039,#587);
#554=LINE('',#1041,#588);
#555=LINE('',#1042,#589);
#556=LINE('',#1044,#590);
#557=LINE('',#1045,#591);
#558=LINE('',#1047,#592);
#559=LINE('',#1055,#594);
#560=LINE('',#1057,#595);
#561=LINE('',#1062,#597);
#562=LINE('',#1067,#599);
#563=LINE('',#1069,#600);
#564=LINE('',#1077,#602);
#565=LINE('',#1079,#603);
#566=LINE('',#1088,#605);
#567=LINE('',#1089,#606);
#568=VECTOR('',#675,1.);
#569=VECTOR('',#678,1.);
#570=VECTOR('',#683,1.);
#571=VECTOR('',#686,1.);
#572=VECTOR('',#691,1.);
#573=VECTOR('',#694,1.);
#574=VECTOR('',#699,1.);
#575=VECTOR('',#702,1.);
#576=VECTOR('',#707,1.);
#577=VECTOR('',#708,1.);
#578=VECTOR('',#709,1.);
#579=VECTOR('',#710,1.);
#580=VECTOR('',#711,1.);
#581=VECTOR('',#718,1.);
#582=VECTOR('',#721,1.);
#583=VECTOR('',#722,1.);
#584=VECTOR('',#723,1.);
#585=VECTOR('',#724,1.);
#586=VECTOR('',#789,1.);
#587=VECTOR('',#790,1.);
#588=VECTOR('',#793,1.);
#589=VECTOR('',#794,1.);
#590=VECTOR('',#797,1.);
#591=VECTOR('',#798,1.);
#592=VECTOR('',#801,1.);
#593=VECTOR('',#802,1.);
#594=VECTOR('',#803,1.);
#595=VECTOR('',#806,1.);
#596=VECTOR('',#807,1.);
#597=VECTOR('',#808,1.);
#598=VECTOR('',#809,1.);
#599=VECTOR('',#810,1.);
#600=VECTOR('',#813,1.);
#601=VECTOR('',#814,1.);
#602=VECTOR('',#815,1.);
#603=VECTOR('',#818,1.);
#604=VECTOR('',#819,1.);
#605=VECTOR('',#820,1.);
#606=VECTOR('',#821,1.);
#607=VECTOR('',#824,1.);
#608=AXIS2_PLACEMENT_3D('',#843,#673,#674);
#609=AXIS2_PLACEMENT_3D('',#847,#676,#677);
#610=AXIS2_PLACEMENT_3D('',#851,#679,#680);
#611=AXIS2_PLACEMENT_3D('',#852,#681,#682);
#612=AXIS2_PLACEMENT_3D('',#856,#684,#685);
#613=AXIS2_PLACEMENT_3D('',#860,#687,#688);
#614=AXIS2_PLACEMENT_3D('',#861,#689,#690);
#615=AXIS2_PLACEMENT_3D('',#865,#692,#693);
#616=AXIS2_PLACEMENT_3D('',#869,#695,#696);
#617=AXIS2_PLACEMENT_3D('',#870,#697,#698);
#618=AXIS2_PLACEMENT_3D('',#874,#700,#701);
#619=AXIS2_PLACEMENT_3D('',#878,#703,#704);
#620=AXIS2_PLACEMENT_3D('',#879,#705,#706);
#621=AXIS2_PLACEMENT_3D('',#890,#712,#713);
#622=AXIS2_PLACEMENT_3D('',#891,#714,#715);
#623=AXIS2_PLACEMENT_3D('',#893,#716,#717);
#624=AXIS2_PLACEMENT_3D('',#896,#719,#720);
#625=AXIS2_PLACEMENT_3D('',#904,#725,#726);
#626=AXIS2_PLACEMENT_3D('',#905,#727,#728);
#627=AXIS2_PLACEMENT_3D('',#906,#729,#730);
#628=AXIS2_PLACEMENT_3D('',#907,#731,#732);
#629=AXIS2_PLACEMENT_3D('',#908,#733,#734);
#630=AXIS2_PLACEMENT_3D('',#909,#735,#736);
#631=AXIS2_PLACEMENT_3D('',#910,#737,#738);
#632=AXIS2_PLACEMENT_3D('',#911,#739,#740);
#633=AXIS2_PLACEMENT_3D('',#922,#741,#742);
#634=AXIS2_PLACEMENT_3D('',#928,#743,#744);
#635=AXIS2_PLACEMENT_3D('',#938,#745,#746);
#636=AXIS2_PLACEMENT_3D('',#939,#747,#748);
#637=AXIS2_PLACEMENT_3D('',#940,#749,#750);
#638=AXIS2_PLACEMENT_3D('',#951,#751,#752);
#639=AXIS2_PLACEMENT_3D('',#961,#753,#754);
#640=AXIS2_PLACEMENT_3D('',#967,#755,#756);
#641=AXIS2_PLACEMENT_3D('',#968,#757,#758);
#642=AXIS2_PLACEMENT_3D('',#969,#759,#760);
#643=AXIS2_PLACEMENT_3D('',#972,#761,#762);
#644=AXIS2_PLACEMENT_3D('',#973,#763,#764);
#645=AXIS2_PLACEMENT_3D('',#974,#765,#766);
#646=AXIS2_PLACEMENT_3D('',#977,#767,#768);
#647=AXIS2_PLACEMENT_3D('',#978,#769,#770);
#648=AXIS2_PLACEMENT_3D('',#989,#771,#772);
#649=AXIS2_PLACEMENT_3D('',#999,#773,#774);
#650=AXIS2_PLACEMENT_3D('',#1011,#775,#776);
#651=AXIS2_PLACEMENT_3D('',#1021,#777,#778);
#652=AXIS2_PLACEMENT_3D('',#1032,#779,#780);
#653=AXIS2_PLACEMENT_3D('',#1034,#781,#782);
#654=AXIS2_PLACEMENT_3D('',#1035,#783,#784);
#655=AXIS2_PLACEMENT_3D('',#1036,#785,#786);
#656=AXIS2_PLACEMENT_3D('',#1037,#787,#788);
#657=AXIS2_PLACEMENT_3D('',#1040,#791,#792);
#658=AXIS2_PLACEMENT_3D('',#1043,#795,#796);
#659=AXIS2_PLACEMENT_3D('',#1046,#799,#800);
#660=AXIS2_PLACEMENT_3D('',#1056,#804,#805);
#661=AXIS2_PLACEMENT_3D('',#1068,#811,#812);
#662=AXIS2_PLACEMENT_3D('',#1078,#816,#817);
#663=AXIS2_PLACEMENT_3D('',#1090,#822,#823);
#664=AXIS2_PLACEMENT_3D('',#1099,#825,#826);
#665=AXIS2_PLACEMENT_3D('',#1100,#827,#828);
#666=AXIS2_PLACEMENT_3D('',#1101,#829,#830);
#667=AXIS2_PLACEMENT_3D('',#1102,#831,#832);
#668=AXIS2_PLACEMENT_3D('',#1103,#833,#834);
#669=AXIS2_PLACEMENT_3D('',#1104,#835,#836);
#670=AXIS2_PLACEMENT_3D('',#1105,#837,#838);
#671=AXIS2_PLACEMENT_3D('',#1106,#839,#840);
#672=AXIS2_PLACEMENT_3D('',#1107,#841,#842);
#673=DIRECTION('',(0.,0.,1.));
#674=DIRECTION('',(1.,0.,0.));
#675=DIRECTION('',(8.65956056235496E-17,-0.707106781186545,0.70710678118655));
#676=DIRECTION('',(0.,-1.,0.));
#677=DIRECTION('',(0.,0.,1.));
#678=DIRECTION('',(0.,-0.707106781186545,-0.70710678118655));
#679=DIRECTION('',(0.,1.,0.));
#680=DIRECTION('',(0.,0.,1.));
#681=DIRECTION('',(0.,-1.,0.));
#682=DIRECTION('',(0.,3.11938287388435E-17,-1.));
#683=DIRECTION('',(8.65956056235491E-17,-0.707106781186549,0.707106781186546));
#684=DIRECTION('',(0.,-1.,0.));
#685=DIRECTION('',(0.,0.,1.));
#686=DIRECTION('',(0.,-0.707106781186549,-0.707106781186546));
#687=DIRECTION('',(0.,1.,0.));
#688=DIRECTION('',(0.,0.,1.));
#689=DIRECTION('',(0.,-1.,0.));
#690=DIRECTION('',(0.,0.,-1.));
#691=DIRECTION('',(0.,-1.,0.));
#692=DIRECTION('',(0.,1.,0.));
#693=DIRECTION('',(0.,0.,1.));
#694=DIRECTION('',(0.,-1.,0.));
#695=DIRECTION('',(0.,1.,0.));
#696=DIRECTION('',(0.,0.,1.));
#697=DIRECTION('',(0.,-1.,0.));
#698=DIRECTION('',(0.,0.,-1.));
#699=DIRECTION('',(0.,-1.,0.));
#700=DIRECTION('',(0.,1.,0.));
#701=DIRECTION('',(0.,0.,1.));
#702=DIRECTION('',(0.,-1.,0.));
#703=DIRECTION('',(0.,1.,0.));
#704=DIRECTION('',(0.,0.,1.));
#705=DIRECTION('',(0.,-1.,0.));
#706=DIRECTION('',(0.,0.,-1.));
#707=DIRECTION('',(-1.,0.,1.92747052886312E-16));
#708=DIRECTION('',(-1.,0.,1.92747052886312E-16));
#709=DIRECTION('',(0.,-1.,0.));
#710=DIRECTION('',(-1.,0.,1.92747052886312E-16));
#711=DIRECTION('',(0.,-1.,0.));
#712=DIRECTION('',(1.92747052886312E-16,0.,1.));
#713=DIRECTION('',(1.,0.,-1.92554305833426E-16));
#714=DIRECTION('',(0.,1.,0.));
#715=DIRECTION('',(0.,0.,1.));
#716=DIRECTION('',(0.,1.,0.));
#717=DIRECTION('',(0.,0.,1.));
#718=DIRECTION('',(0.,-1.,0.));
#719=DIRECTION('',(0.,-1.,0.));
#720=DIRECTION('',(0.,0.,-1.));
#721=DIRECTION('',(1.,0.,-1.92747052886312E-16));
#722=DIRECTION('',(1.,0.,-1.92747052886312E-16));
#723=DIRECTION('',(1.,0.,-1.92747052886312E-16));
#724=DIRECTION('',(0.,-1.,0.));
#725=DIRECTION('',(-1.92747052886312E-16,0.,-1.));
#726=DIRECTION('',(-1.,0.,1.92554305833426E-16));
#727=DIRECTION('',(0.,1.,0.));
#728=DIRECTION('',(0.,0.,1.));
#729=DIRECTION('',(0.,1.,0.));
#730=DIRECTION('',(0.,0.,1.));
#731=DIRECTION('',(0.,-1.,0.));
#732=DIRECTION('',(0.,0.,-1.));
#733=DIRECTION('',(0.,1.,0.));
#734=DIRECTION('',(0.,0.,1.));
#735=DIRECTION('',(0.,1.,0.));
#736=DIRECTION('',(0.,0.,1.));
#737=DIRECTION('',(0.,1.,0.));
#738=DIRECTION('',(0.,0.,1.));
#739=DIRECTION('',(0.,1.,0.));
#740=DIRECTION('',(0.,0.,1.));
#741=DIRECTION('',(0.,1.,0.));
#742=DIRECTION('',(0.,0.,1.));
#743=DIRECTION('',(0.,-1.,0.));
#744=DIRECTION('',(-7.99360577730113E-15,0.,1.));
#745=DIRECTION('',(0.,1.,0.));
#746=DIRECTION('',(0.,0.,1.));
#747=DIRECTION('',(0.,1.,0.));
#748=DIRECTION('',(0.,0.,1.));
#749=DIRECTION('',(0.,1.,0.));
#750=DIRECTION('',(0.,0.,1.));
#751=DIRECTION('',(0.,-1.,0.));
#752=DIRECTION('',(9.29316147844717E-16,0.,1.));
#753=DIRECTION('',(0.,-1.,0.));
#754=DIRECTION('',(0.,0.,1.));
#755=DIRECTION('',(0.,1.,0.));
#756=DIRECTION('',(0.,0.,1.));
#757=DIRECTION('',(0.,1.,0.));
#758=DIRECTION('',(0.,0.,1.));
#759=DIRECTION('',(0.,1.,0.));
#760=DIRECTION('',(0.,0.,1.));
#761=DIRECTION('',(0.,1.,0.));
#762=DIRECTION('',(0.,0.,1.));
#763=DIRECTION('',(0.,1.,0.));
#764=DIRECTION('',(0.,0.,1.));
#765=DIRECTION('',(0.,-1.,0.));
#766=DIRECTION('',(0.,0.,1.));
#767=DIRECTION('',(0.,-1.,0.));
#768=DIRECTION('',(0.,0.,1.));
#769=DIRECTION('',(0.,1.,0.));
#770=DIRECTION('',(0.,0.,1.));
#771=DIRECTION('',(0.,1.,0.));
#772=DIRECTION('',(0.,0.,1.));
#773=DIRECTION('',(0.,-1.,0.));
#774=DIRECTION('',(-7.99360577730113E-15,0.,1.));
#775=DIRECTION('',(0.,-1.,0.));
#776=DIRECTION('',(0.,0.,1.));
#777=DIRECTION('',(0.,-1.,0.));
#778=DIRECTION('',(9.29316147844717E-16,0.,1.));
#779=DIRECTION('',(0.,1.,0.));
#780=DIRECTION('',(0.,0.,1.));
#781=DIRECTION('',(0.,1.,0.));
#782=DIRECTION('',(0.,0.,1.));
#783=DIRECTION('',(0.,1.,0.));
#784=DIRECTION('',(0.,0.,1.));
#785=DIRECTION('',(0.,1.,0.));
#786=DIRECTION('',(0.,0.,1.));
#787=DIRECTION('',(0.,1.,0.));
#788=DIRECTION('',(0.,0.,1.));
#789=DIRECTION('',(0.,-1.,0.));
#790=DIRECTION('',(0.,-1.,0.));
#791=DIRECTION('',(0.,-1.,0.));
#792=DIRECTION('',(0.,0.,-1.));
#793=DIRECTION('',(0.,-1.,0.));
#794=DIRECTION('',(0.,-1.,0.));
#795=DIRECTION('',(0.,-1.,0.));
#796=DIRECTION('',(0.,0.,-1.));
#797=DIRECTION('',(0.,-1.,0.));
#798=DIRECTION('',(0.,-1.,0.));
#799=DIRECTION('',(0.,-1.,0.));
#800=DIRECTION('',(0.,0.,-1.));
#801=DIRECTION('',(0.,-1.,0.));
#802=DIRECTION('',(-6.14778374728046E-18,-1.,-1.53694593682012E-18));
#803=DIRECTION('',(0.,-1.,0.));
#804=DIRECTION('',(0.,-1.,0.));
#805=DIRECTION('',(0.,0.,-1.));
#806=DIRECTION('',(0.,-1.,0.));
#807=DIRECTION('',(-2.47817639425258E-18,-1.,-1.12947654891897E-17));
#808=DIRECTION('',(0.,-1.,0.));
#809=DIRECTION('',(7.4464434923454E-19,-1.,-2.38286191754959E-19));
#810=DIRECTION('',(0.,-1.,0.));
#811=DIRECTION('',(0.,-1.,0.));
#812=DIRECTION('',(0.,0.,-1.));
#813=DIRECTION('',(0.,-1.,0.));
#814=DIRECTION('',(2.19223296414661E-18,-1.,-1.6084317943466E-18));
#815=DIRECTION('',(0.,-1.,0.));
#816=DIRECTION('',(0.,-1.,0.));
#817=DIRECTION('',(0.,0.,-1.));
#818=DIRECTION('',(0.,-1.,0.));
#819=DIRECTION('',(1.11994510124878E-18,-1.,2.18031865455877E-18));
#820=DIRECTION('',(0.,-1.,0.));
#821=DIRECTION('',(0.,-1.,0.));
#822=DIRECTION('',(0.,-1.,0.));
#823=DIRECTION('',(0.,0.,-1.));
#824=DIRECTION('',(-8.816589094937E-19,-1.,1.6680033422854E-19));
#825=DIRECTION('',(0.,-1.,0.));
#826=DIRECTION('',(0.,0.,-1.));
#827=DIRECTION('',(0.,-1.,0.));
#828=DIRECTION('',(0.,0.,1.));
#829=DIRECTION('',(0.,-1.,0.));
#830=DIRECTION('',(0.,0.,-1.));
#831=DIRECTION('',(0.,-1.,0.));
#832=DIRECTION('',(0.,0.,1.));
#833=DIRECTION('',(0.,-1.,0.));
#834=DIRECTION('',(0.,0.,-1.));
#835=DIRECTION('',(0.,-1.,0.));
#836=DIRECTION('',(0.,0.,-1.));
#837=DIRECTION('',(0.,-1.,0.));
#838=DIRECTION('',(0.,0.,-1.));
#839=DIRECTION('',(0.,-1.,0.));
#840=DIRECTION('',(0.,0.,-1.));
#841=DIRECTION('',(0.,-1.,0.));
#842=DIRECTION('',(0.,3.11938287388435E-17,-1.));
#843=CARTESIAN_POINT('',(0.,0.,0.));
#844=CARTESIAN_POINT('',(7.35,0.500000000000025,1.));
#845=CARTESIAN_POINT('',(7.35,0.500000000000025,1.));
#846=CARTESIAN_POINT('',(7.35,0.,1.50000000000003));
#847=CARTESIAN_POINT('',(7.35,0.500000000000025,0.));
#848=CARTESIAN_POINT('',(7.35,0.500000000000025,-1.));
#849=CARTESIAN_POINT('',(7.35,0.500000000000025,-1.));
#850=CARTESIAN_POINT('',(7.35,0.,-1.50000000000003));
#851=CARTESIAN_POINT('',(7.35,0.,0.));
#852=CARTESIAN_POINT('',(7.35,0.500000000000025,0.));
#853=CARTESIAN_POINT('',(-7.35,0.,1.49999999999997));
#854=CARTESIAN_POINT('',(-7.35,0.499999999999969,1.));
#855=CARTESIAN_POINT('',(-7.35,0.,1.49999999999997));
#856=CARTESIAN_POINT('',(-7.35,0.499999999999969,0.));
#857=CARTESIAN_POINT('',(-7.35,0.499999999999969,-1.));
#858=CARTESIAN_POINT('',(-7.35,0.,-1.49999999999997));
#859=CARTESIAN_POINT('',(-7.35,0.,-1.49999999999997));
#860=CARTESIAN_POINT('',(-7.35,0.,0.));
#861=CARTESIAN_POINT('',(-7.35,0.,0.));
#862=CARTESIAN_POINT('',(22.5,16.,6.7));
#863=CARTESIAN_POINT('',(22.5,16.,6.7));
#864=CARTESIAN_POINT('',(22.5,13.,6.7));
#865=CARTESIAN_POINT('',(22.5,16.,5.1));
#866=CARTESIAN_POINT('',(22.5,16.,3.5));
#867=CARTESIAN_POINT('',(22.5,16.,3.5));
#868=CARTESIAN_POINT('',(22.5,13.,3.5));
#869=CARTESIAN_POINT('',(22.5,13.,5.1));
#870=CARTESIAN_POINT('',(22.5,16.,5.1));
#871=CARTESIAN_POINT('',(-22.5,16.,6.7));
#872=CARTESIAN_POINT('',(-22.5,16.,6.7));
#873=CARTESIAN_POINT('',(-22.5,13.,6.7));
#874=CARTESIAN_POINT('',(-22.5,16.,5.1));
#875=CARTESIAN_POINT('',(-22.5,16.,3.5));
#876=CARTESIAN_POINT('',(-22.5,16.,3.5));
#877=CARTESIAN_POINT('',(-22.5,13.,3.5));
#878=CARTESIAN_POINT('',(-22.5,13.,5.1));
#879=CARTESIAN_POINT('',(-22.5,16.,5.1));
#880=CARTESIAN_POINT('',(-22.5,13.,-7.6));
#881=CARTESIAN_POINT('',(22.5,13.,-7.60000000000001));
#882=CARTESIAN_POINT('',(-1.46487760193597E-15,13.,-7.6));
#883=CARTESIAN_POINT('',(-22.5,13.,-7.6));
#884=CARTESIAN_POINT('',(-22.5,13.,-7.6));
#885=CARTESIAN_POINT('',(-22.5,16.,-7.6));
#886=CARTESIAN_POINT('',(-22.5,16.,-7.6));
#887=CARTESIAN_POINT('',(-22.5,16.,-7.6));
#888=CARTESIAN_POINT('',(22.5,16.,-7.60000000000001));
#889=CARTESIAN_POINT('',(22.5,16.,-7.60000000000001));
#890=CARTESIAN_POINT('',(-22.5,16.,-7.6));
#891=CARTESIAN_POINT('',(22.5,13.,-8.26636589424464E-15));
#892=CARTESIAN_POINT('',(22.5,13.,7.59999999999999));
#893=CARTESIAN_POINT('',(22.5,16.,-8.26636589424464E-15));
#894=CARTESIAN_POINT('',(22.5,16.,7.59999999999999));
#895=CARTESIAN_POINT('',(22.5,16.,7.59999999999999));
#896=CARTESIAN_POINT('',(22.5,16.,-8.26636589424464E-15));
#897=CARTESIAN_POINT('',(-22.5,13.,7.6));
#898=CARTESIAN_POINT('',(-22.5,13.,7.6));
#899=CARTESIAN_POINT('',(1.03782484871948E-13,13.,7.6));
#900=CARTESIAN_POINT('',(-22.5,13.,7.6));
#901=CARTESIAN_POINT('',(-22.5,16.,7.6));
#902=CARTESIAN_POINT('',(-22.5,16.,7.6));
#903=CARTESIAN_POINT('',(-22.5,16.,7.6));
#904=CARTESIAN_POINT('',(-22.5,16.,7.6));
#905=CARTESIAN_POINT('',(-22.5,13.,0.));
#906=CARTESIAN_POINT('',(-22.5,16.,0.));
#907=CARTESIAN_POINT('',(-22.5,16.,0.));
#908=CARTESIAN_POINT('',(22.5,16.,5.1));
#909=CARTESIAN_POINT('',(-22.5,16.,5.1));
#910=CARTESIAN_POINT('',(-22.5,16.,0.));
#911=CARTESIAN_POINT('',(22.5,13.,5.1));
#912=CARTESIAN_POINT('',(2.27845278073882,13.,-7.25042432730275));
#913=CARTESIAN_POINT('',(3.20381743108909,13.,-6.95390898437172));
#914=CARTESIAN_POINT('',(4.39508528194689,13.,-6.29144946181896));
#915=CARTESIAN_POINT('',(6.54419225464881,13.,-4.28477832219905));
#916=CARTESIAN_POINT('',(8.24440257498501,13.,-2.64885727077065));
#917=CARTESIAN_POINT('',(8.7659694188527,13.,-2.45292008823047));
#918=CARTESIAN_POINT('',(9.84570136203232,13.,-1.53530840374504));
#919=CARTESIAN_POINT('',(10.0713316904129,13.,-0.659055256222321));
#920=CARTESIAN_POINT('',(2.27845278073882,13.,-7.25042432730275));
#921=CARTESIAN_POINT('',(10.0713316904129,13.,-0.659055256222321));
#922=CARTESIAN_POINT('',(0.,13.,0.));
#923=CARTESIAN_POINT('',(4.08160031869217,13.,6.41097019478737));
#924=CARTESIAN_POINT('',(3.0865488732588,13.,7.03617406854172));
#925=CARTESIAN_POINT('',(1.68865924930839,13.,7.60000000000008));
#926=CARTESIAN_POINT('',(1.03581869080842E-13,13.,7.6));
#927=CARTESIAN_POINT('',(4.08160031869217,13.,6.41097019478737));
#928=CARTESIAN_POINT('',(0.,13.,0.));
#929=CARTESIAN_POINT('',(5.37401153701777,13.,5.37401153701776));
#930=CARTESIAN_POINT('',(9.55235287541632,13.,1.72905807078463));
#931=CARTESIAN_POINT('',(9.33897139861728,13.,1.97367498711475));
#932=CARTESIAN_POINT('',(8.89632307021598,13.,2.30387308682903));
#933=CARTESIAN_POINT('',(7.82078866116801,13.,3.17842328329137));
#934=CARTESIAN_POINT('',(6.36312898572492,13.,4.32049535087064));
#935=CARTESIAN_POINT('',(5.47950134839189,13.,5.26611521154912));
#936=CARTESIAN_POINT('',(5.37401153701777,13.,5.37401153701776));
#937=CARTESIAN_POINT('',(9.55235287541632,13.,1.72905807078463));
#938=CARTESIAN_POINT('',(7.35,13.,0.));
#939=CARTESIAN_POINT('',(-22.5,13.,0.));
#940=CARTESIAN_POINT('',(0.,13.,0.));
#941=CARTESIAN_POINT('',(-2.27845278073786,13.,-7.25042432730305));
#942=CARTESIAN_POINT('',(-2.27845278073786,13.,-7.25042432730305));
#943=CARTESIAN_POINT('',(-3.20381743108849,13.,-6.95390898437205));
#944=CARTESIAN_POINT('',(-4.39508528194662,13.,-6.2914494618192));
#945=CARTESIAN_POINT('',(-6.54419225464881,13.,-4.28477832219906));
#946=CARTESIAN_POINT('',(-8.24440257498497,13.,-2.64885727077064));
#947=CARTESIAN_POINT('',(-8.76596941885273,13.,-2.45292008823046));
#948=CARTESIAN_POINT('',(-9.84570136203259,13.,-1.53530840374479));
#949=CARTESIAN_POINT('',(-10.0713316904131,13.,-0.659055256221756));
#950=CARTESIAN_POINT('',(-10.0713316904131,13.,-0.659055256221756));
#951=CARTESIAN_POINT('',(-7.35,13.,0.));
#952=CARTESIAN_POINT('',(-9.5523528754163,13.,1.72905807078466));
#953=CARTESIAN_POINT('',(-9.5523528754163,13.,1.72905807078466));
#954=CARTESIAN_POINT('',(-9.33897139861726,13.,1.97367498711477));
#955=CARTESIAN_POINT('',(-8.89632307021597,13.,2.30387308682903));
#956=CARTESIAN_POINT('',(-7.82078866116807,13.,3.17842328329137));
#957=CARTESIAN_POINT('',(-6.36312898572491,13.,4.32049535087062));
#958=CARTESIAN_POINT('',(-5.47950134839189,13.,5.26611521154912));
#959=CARTESIAN_POINT('',(-5.37401153701777,13.,5.37401153701776));
#960=CARTESIAN_POINT('',(-5.37401153701777,13.,5.37401153701776));
#961=CARTESIAN_POINT('',(0.,13.,0.));
#962=CARTESIAN_POINT('',(-4.08160031869553,13.,6.41097019478523));
#963=CARTESIAN_POINT('',(-4.08160031869553,13.,6.41097019478523));
#964=CARTESIAN_POINT('',(-3.08654887326192,13.,7.03617406854041));
#965=CARTESIAN_POINT('',(-1.68865924931023,13.,7.60000000000003));
#966=CARTESIAN_POINT('',(1.03581869080842E-13,13.,7.6));
#967=CARTESIAN_POINT('',(-22.5,13.,5.1));
#968=CARTESIAN_POINT('',(-22.5,13.,0.));
#969=CARTESIAN_POINT('',(-7.35,13.,0.));
#970=CARTESIAN_POINT('',(-7.35,13.,-1.));
#971=CARTESIAN_POINT('',(-7.35,13.,1.));
#972=CARTESIAN_POINT('',(-7.35,13.,0.));
#973=CARTESIAN_POINT('',(-22.5,13.,0.));
#974=CARTESIAN_POINT('',(7.35,13.,0.));
#975=CARTESIAN_POINT('',(7.35,13.,-1.));
#976=CARTESIAN_POINT('',(7.35,13.,1.));
#977=CARTESIAN_POINT('',(7.35,13.,0.));
#978=CARTESIAN_POINT('',(-22.5,13.,0.));
#979=CARTESIAN_POINT('',(2.27845278073882,0.,-7.25042432730275));
#980=CARTESIAN_POINT('',(3.20381743108909,-1.6940658945086E-18,-6.95390898437172));
#981=CARTESIAN_POINT('',(4.39508528194689,-1.6940658945086E-18,-6.29144946181896));
#982=CARTESIAN_POINT('',(6.54419225464881,-1.6940658945086E-18,-4.28477832219905));
#983=CARTESIAN_POINT('',(8.24440257498501,-1.6940658945086E-18,-2.64885727077065));
#984=CARTESIAN_POINT('',(8.7659694188527,-1.6940658945086E-18,-2.45292008823047));
#985=CARTESIAN_POINT('',(9.84570136203232,-1.6940658945086E-18,-1.53530840374504));
#986=CARTESIAN_POINT('',(10.0713316904129,0.,-0.659055256222321));
#987=CARTESIAN_POINT('',(2.27845278073882,0.,-7.25042432730275));
#988=CARTESIAN_POINT('',(10.0713316904129,0.,-0.659055256222321));
#989=CARTESIAN_POINT('',(7.35,0.,0.));
#990=CARTESIAN_POINT('',(9.55235287541632,0.,1.72905807078463));
#991=CARTESIAN_POINT('',(9.55235287541632,0.,1.72905807078463));
#992=CARTESIAN_POINT('',(9.33897139861728,-1.6940658945086E-18,1.97367498711475));
#993=CARTESIAN_POINT('',(8.89632307021598,-1.6940658945086E-18,2.30387308682903));
#994=CARTESIAN_POINT('',(7.82078866116801,-1.6940658945086E-18,3.17842328329137));
#995=CARTESIAN_POINT('',(6.36312898572492,-1.6940658945086E-18,4.32049535087064));
#996=CARTESIAN_POINT('',(5.47950134839189,-1.6940658945086E-18,5.26611521154912));
#997=CARTESIAN_POINT('',(5.37401153701777,0.,5.37401153701776));
#998=CARTESIAN_POINT('',(5.37401153701777,0.,5.37401153701776));
#999=CARTESIAN_POINT('',(0.,0.,0.));
#1000=CARTESIAN_POINT('',(4.08160031869217,0.,6.41097019478737));
#1001=CARTESIAN_POINT('',(4.08160031869217,0.,6.41097019478737));
#1002=CARTESIAN_POINT('',(3.0865488732588,-1.6940658945086E-18,7.03617406854172));
#1003=CARTESIAN_POINT('',(1.68865924930839,-1.6940658945086E-18,7.60000000000008));
#1004=CARTESIAN_POINT('',(1.03581869080842E-13,0.,7.6));
#1005=CARTESIAN_POINT('',(-1.19180191482827E-6,-1.19561715819194E-24,7.59999999999972));
#1006=CARTESIAN_POINT('',(-4.08160031869553,0.,6.41097019478523));
#1007=CARTESIAN_POINT('',(-3.08654887326192,-1.6940658945086E-18,7.03617406854041));
#1008=CARTESIAN_POINT('',(-1.68865924931023,-1.6940658945086E-18,7.60000000000003));
#1009=CARTESIAN_POINT('',(1.03581869080842E-13,0.,7.6));
#1010=CARTESIAN_POINT('',(-4.08160031869553,0.,6.41097019478523));
#1011=CARTESIAN_POINT('',(0.,0.,0.));
#1012=CARTESIAN_POINT('',(-5.37401153701777,0.,5.37401153701776));
#1013=CARTESIAN_POINT('',(-9.5523528754163,0.,1.72905807078466));
#1014=CARTESIAN_POINT('',(-9.33897139861726,-1.6940658945086E-18,1.97367498711477));
#1015=CARTESIAN_POINT('',(-8.89632307021597,-1.6940658945086E-18,2.30387308682903));
#1016=CARTESIAN_POINT('',(-7.82078866116807,-1.6940658945086E-18,3.17842328329137));
#1017=CARTESIAN_POINT('',(-6.36312898572491,-1.6940658945086E-18,4.32049535087062));
#1018=CARTESIAN_POINT('',(-5.47950134839189,-1.6940658945086E-18,5.26611521154912));
#1019=CARTESIAN_POINT('',(-5.37401153701777,0.,5.37401153701776));
#1020=CARTESIAN_POINT('',(-9.5523528754163,0.,1.72905807078466));
#1021=CARTESIAN_POINT('',(-7.35,0.,0.));
#1022=CARTESIAN_POINT('',(-10.0713316904131,0.,-0.659055256221756));
#1023=CARTESIAN_POINT('',(-2.27845278073786,0.,-7.25042432730305));
#1024=CARTESIAN_POINT('',(-3.20381743108849,-1.6940658945086E-18,-6.95390898437205));
#1025=CARTESIAN_POINT('',(-4.39508528194662,-1.6940658945086E-18,-6.2914494618192));
#1026=CARTESIAN_POINT('',(-6.54419225464881,-1.6940658945086E-18,-4.28477832219906));
#1027=CARTESIAN_POINT('',(-8.24440257498497,-1.6940658945086E-18,-2.64885727077064));
#1028=CARTESIAN_POINT('',(-8.76596941885273,-1.6940658945086E-18,-2.45292008823046));
#1029=CARTESIAN_POINT('',(-9.84570136203259,-1.6940658945086E-18,-1.53530840374479));
#1030=CARTESIAN_POINT('',(-10.0713316904131,0.,-0.659055256221756));
#1031=CARTESIAN_POINT('',(-2.27845278073786,0.,-7.25042432730305));
#1032=CARTESIAN_POINT('',(0.,0.,0.));
#1033=CARTESIAN_POINT('',(0.,0.,-7.6));
#1034=CARTESIAN_POINT('',(0.,0.,0.));
#1035=CARTESIAN_POINT('',(7.35,0.,0.));
#1036=CARTESIAN_POINT('',(-7.35,0.,0.));
#1037=CARTESIAN_POINT('',(0.,0.,0.));
#1038=CARTESIAN_POINT('',(7.35,13.,1.));
#1039=CARTESIAN_POINT('',(7.35,13.,-1.));
#1040=CARTESIAN_POINT('',(7.35,13.,0.));
#1041=CARTESIAN_POINT('',(10.0713316904129,13.,-0.659055256222321));
#1042=CARTESIAN_POINT('',(9.55235287541632,13.,1.72905807078463));
#1043=CARTESIAN_POINT('',(7.35,13.,0.));
#1044=CARTESIAN_POINT('',(-7.35,13.,1.));
#1045=CARTESIAN_POINT('',(-7.35,13.,-1.));
#1046=CARTESIAN_POINT('',(-7.35,13.,0.));
#1047=CARTESIAN_POINT('',(5.37401153701777,13.,5.37401153701776));
#1048=CARTESIAN_POINT('',(9.55235287541634,6.5,1.72905807078464));
#1049=CARTESIAN_POINT('',(9.33897139861728,6.5,1.97367498711475));
#1050=CARTESIAN_POINT('',(8.89632307021598,6.5,2.30387308682903));
#1051=CARTESIAN_POINT('',(7.82078866116801,6.5,3.17842328329137));
#1052=CARTESIAN_POINT('',(6.36312898572492,6.5,4.32049535087064));
#1053=CARTESIAN_POINT('',(5.47950134839189,6.5,5.26611521154912));
#1054=CARTESIAN_POINT('',(5.37401153701777,6.5,5.37401153701776));
#1055=CARTESIAN_POINT('',(4.08160031869217,13.,6.41097019478737));
#1056=CARTESIAN_POINT('',(0.,13.,0.));
#1057=CARTESIAN_POINT('',(1.03581869080842E-13,13.,7.6));
#1058=CARTESIAN_POINT('',(4.08160031870017,6.5,6.41097019478234));
#1059=CARTESIAN_POINT('',(3.08654887326629,6.5,7.03617406853869));
#1060=CARTESIAN_POINT('',(1.68865924931292,6.5,7.60000000000008));
#1061=CARTESIAN_POINT('',(-1.00893685080029E-13,6.5,7.6));
#1062=CARTESIAN_POINT('',(-4.08160031869553,13.,6.41097019478523));
#1063=CARTESIAN_POINT('',(-4.08160031870354,6.5,6.4109701947802));
#1064=CARTESIAN_POINT('',(-3.08654887326942,6.5,7.03617406853738));
#1065=CARTESIAN_POINT('',(-1.68865924931476,6.5,7.60000000000003));
#1066=CARTESIAN_POINT('',(1.03581869080842E-13,6.5,7.6));
#1067=CARTESIAN_POINT('',(-5.37401153701777,13.,5.37401153701776));
#1068=CARTESIAN_POINT('',(0.,13.,0.));
#1069=CARTESIAN_POINT('',(-9.5523528754163,13.,1.72905807078466));
#1070=CARTESIAN_POINT('',(-9.55235287541632,6.5,1.72905807078467));
#1071=CARTESIAN_POINT('',(-9.33897139861726,6.5,1.97367498711477));
#1072=CARTESIAN_POINT('',(-8.89632307021597,6.5,2.30387308682903));
#1073=CARTESIAN_POINT('',(-7.82078866116807,6.5,3.17842328329137));
#1074=CARTESIAN_POINT('',(-6.36312898572491,6.5,4.32049535087062));
#1075=CARTESIAN_POINT('',(-5.47950134839189,6.5,5.26611521154912));
#1076=CARTESIAN_POINT('',(-5.37401153701776,6.5,5.37401153701776));
#1077=CARTESIAN_POINT('',(-10.0713316904131,13.,-0.659055256221756));
#1078=CARTESIAN_POINT('',(-7.35,13.,0.));
#1079=CARTESIAN_POINT('',(-2.27845278073786,13.,-7.25042432730305));
#1080=CARTESIAN_POINT('',(-2.27845278073445,6.5,-7.25042432730415));
#1081=CARTESIAN_POINT('',(-3.20381743108634,6.5,-6.95390898437324));
#1082=CARTESIAN_POINT('',(-4.39508528194564,6.5,-6.29144946182011));
#1083=CARTESIAN_POINT('',(-6.54419225464881,6.5,-4.28477832219906));
#1084=CARTESIAN_POINT('',(-8.24440257498497,6.5,-2.64885727077064));
#1085=CARTESIAN_POINT('',(-8.76596941885273,6.5,-2.45292008823046));
#1086=CARTESIAN_POINT('',(-9.84570136203259,6.5,-1.53530840374479));
#1087=CARTESIAN_POINT('',(-10.0713316904131,6.5,-0.659055256221756));
#1088=CARTESIAN_POINT('',(0.,13.,-7.6));
#1089=CARTESIAN_POINT('',(2.27845278073882,13.,-7.25042432730275));
#1090=CARTESIAN_POINT('',(0.,13.,0.));
#1091=CARTESIAN_POINT('',(2.27845278073541,6.5,-7.25042432730385));
#1092=CARTESIAN_POINT('',(3.20381743108695,6.5,-6.95390898437292));
#1093=CARTESIAN_POINT('',(4.39508528194592,6.5,-6.29144946181987));
#1094=CARTESIAN_POINT('',(6.54419225464881,6.5,-4.28477832219905));
#1095=CARTESIAN_POINT('',(8.24440257498501,6.5,-2.64885727077065));
#1096=CARTESIAN_POINT('',(8.7659694188527,6.5,-2.45292008823047));
#1097=CARTESIAN_POINT('',(9.84570136203232,6.5,-1.53530840374504));
#1098=CARTESIAN_POINT('',(10.0713316904129,6.5,-0.659055256222322));
#1099=CARTESIAN_POINT('',(0.,13.,0.));
#1100=CARTESIAN_POINT('',(-7.35,0.499999999999969,0.));
#1101=CARTESIAN_POINT('',(-7.35,13.,0.));
#1102=CARTESIAN_POINT('',(7.35,0.500000000000025,0.));
#1103=CARTESIAN_POINT('',(7.35,13.,0.));
#1104=CARTESIAN_POINT('',(-22.5,16.,5.1));
#1105=CARTESIAN_POINT('',(22.5,16.,5.1));
#1106=CARTESIAN_POINT('',(-7.35,0.,0.));
#1107=CARTESIAN_POINT('',(7.35,0.500000000000025,0.));
#1108=MECHANICAL_DESIGN_GEOMETRIC_PRESENTATION_REPRESENTATION('',(#24),
#1109);
#1109=(
GEOMETRIC_REPRESENTATION_CONTEXT(3)
GLOBAL_UNCERTAINTY_ASSIGNED_CONTEXT((#1110))
GLOBAL_UNIT_ASSIGNED_CONTEXT((#1116,#1112,#1111))
REPRESENTATION_CONTEXT('A06_Drehrollen-Halterung',
'TOP_LEVEL_ASSEMBLY_PART')
);
#1110=UNCERTAINTY_MEASURE_WITH_UNIT(LENGTH_MEASURE(0.001),#1116,
'DISTANCE_ACCURACY_VALUE','Maximum Tolerance applied to model');
#1111=(
NAMED_UNIT(*)
SI_UNIT($,.STERADIAN.)
SOLID_ANGLE_UNIT()
);
#1112=(
CONVERSION_BASED_UNIT('DEGREE',#1114)
NAMED_UNIT(#1113)
PLANE_ANGLE_UNIT()
);
#1113=DIMENSIONAL_EXPONENTS(0.,0.,0.,0.,0.,0.,0.);
#1114=PLANE_ANGLE_MEASURE_WITH_UNIT(PLANE_ANGLE_MEASURE(0.0174532925),#1115);
#1115=(
NAMED_UNIT(*)
PLANE_ANGLE_UNIT()
SI_UNIT($,.RADIAN.)
);
#1116=(
LENGTH_UNIT()
NAMED_UNIT(*)
SI_UNIT(.MILLI.,.METRE.)
);
ENDSEC;
END-ISO-10303-21;
