ISO-10303-21;
HEADER;
/* Generated by software containing ST-Developer
 * from STEP Tools, Inc. (www.steptools.com) 
 */
/* OPTION: using custom schema-name function */

FILE_DESCRIPTION(
/* description */ (''),
/* implementation_level */ '2;1');

FILE_NAME(
/* name */ 'A09_Sensor-Rahmen.stp',
/* time_stamp */ '2026-09-06T09:25:51+02:00',
/* author */ (''),
/* organization */ (''),
/* preprocessor_version */ 'ST-DEVELOPER v20',
/* originating_system */ 'SIEMENS PLM Software NX2406.3002',
/* authorisation */ '');

FILE_SCHEMA (('AUTOMOTIVE_DESIGN { 1 0 10303 214 3 1 1 1 }'));
ENDSEC;

DATA;
#10=SHAPE_REPRESENTATION_RELATIONSHIP('None',
'relationship between A09_Sensor-Rahmen-None and A09_Sensor-Rahmen-Non
e',#22,#11);
#11=ADVANCED_BREP_SHAPE_REPRESENTATION('A09_Sensor-Rahmen-None',(#32),#1025);
#12=SHAPE_DEFINITION_REPRESENTATION(#13,#22);
#13=PRODUCT_DEFINITION_SHAPE('','',#14);
#14=PRODUCT_DEFINITION(' ','',#16,#15);
#15=PRODUCT_DEFINITION_CONTEXT('part definition',#21,'design');
#16=PRODUCT_DEFINITION_FORMATION_WITH_SPECIFIED_SOURCE(' ',' ',#18,
 .NOT_KNOWN.);
#17=PRODUCT_RELATED_PRODUCT_CATEGORY('part','',(#18));
#18=PRODUCT('A09_Sensor-Rahmen','A09_Sensor-Rahmen',' ',(#19));
#19=PRODUCT_CONTEXT(' ',#21,'mechanical');
#20=APPLICATION_PROTOCOL_DEFINITION('international standard',
'automotive_design',2010,#21);
#21=APPLICATION_CONTEXT(
'core data for automotive mechanical design processes');
#22=SHAPE_REPRESENTATION('A09_Sensor-Rahmen-None',(#648),#1025);
#23=PRESENTATION_LAYER_ASSIGNMENT('1','Layer 1',(#32));
#24=STYLED_ITEM('',(#25),#32);
#25=PRESENTATION_STYLE_ASSIGNMENT((#26));
#26=SURFACE_STYLE_USAGE(.BOTH.,#27);
#27=SURFACE_SIDE_STYLE('',(#28));
#28=SURFACE_STYLE_FILL_AREA(#29);
#29=FILL_AREA_STYLE('',(#30));
#30=FILL_AREA_STYLE_COLOUR('',#31);
#31=COLOUR_RGB('medium steel',0.596078431372549,0.666666666666667,0.686274509803922);
#32=MANIFOLD_SOLID_BREP('',#33);
#33=CLOSED_SHELL('',(#52,#53,#54,#55,#56,#57,#58,#59,#60,#61,#62,#63,#64,
#65,#66,#67,#68,#69,#70,#71,#72,#73,#74,#75,#76,#77,#78,#79,#80,#81,#82,
#83));
#34=FACE_BOUND('',#165,.T.);
#35=FACE_BOUND('',#166,.T.);
#36=FACE_BOUND('',#167,.T.);
#37=FACE_BOUND('',#168,.T.);
#38=FACE_BOUND('',#169,.T.);
#39=FACE_BOUND('',#170,.T.);
#40=CYLINDRICAL_SURFACE('',#661,1.);
#41=CYLINDRICAL_SURFACE('',#665,0.999999999999993);
#42=CYLINDRICAL_SURFACE('',#669,1.);
#43=CYLINDRICAL_SURFACE('',#677,1.);
#44=CIRCLE('',#659,1.);
#45=CIRCLE('',#660,1.);
#46=CIRCLE('',#663,0.999999999999993);
#47=CIRCLE('',#664,0.999999999999993);
#48=CIRCLE('',#667,1.);
#49=CIRCLE('',#668,1.);
#50=CIRCLE('',#675,1.);
#51=CIRCLE('',#676,1.);
#52=ADVANCED_FACE('',(#112),#84,.F.);
#53=ADVANCED_FACE('',(#113),#85,.F.);
#54=ADVANCED_FACE('',(#114),#86,.F.);
#55=ADVANCED_FACE('',(#115),#87,.F.);
#56=ADVANCED_FACE('',(#116),#88,.F.);
#57=ADVANCED_FACE('',(#117),#89,.F.);
#58=ADVANCED_FACE('',(#118),#90,.F.);
#59=ADVANCED_FACE('',(#119),#91,.F.);
#60=ADVANCED_FACE('',(#120),#92,.F.);
#61=ADVANCED_FACE('',(#121),#93,.F.);
#62=ADVANCED_FACE('',(#122),#40,.F.);
#63=ADVANCED_FACE('',(#123),#94,.F.);
#64=ADVANCED_FACE('',(#124),#41,.F.);
#65=ADVANCED_FACE('',(#125),#95,.F.);
#66=ADVANCED_FACE('',(#126),#42,.F.);
#67=ADVANCED_FACE('',(#127),#96,.F.);
#68=ADVANCED_FACE('',(#128),#97,.F.);
#69=ADVANCED_FACE('',(#129),#98,.F.);
#70=ADVANCED_FACE('',(#130),#99,.F.);
#71=ADVANCED_FACE('',(#131),#100,.F.);
#72=ADVANCED_FACE('',(#132),#43,.F.);
#73=ADVANCED_FACE('',(#133),#101,.F.);
#74=ADVANCED_FACE('',(#134),#102,.F.);
#75=ADVANCED_FACE('',(#34,#35,#36),#103,.F.);
#76=ADVANCED_FACE('',(#37,#38,#39),#104,.T.);
#77=ADVANCED_FACE('',(#135),#105,.T.);
#78=ADVANCED_FACE('',(#136),#106,.T.);
#79=ADVANCED_FACE('',(#137),#107,.T.);
#80=ADVANCED_FACE('',(#138),#108,.T.);
#81=ADVANCED_FACE('',(#139),#109,.T.);
#82=ADVANCED_FACE('',(#140),#110,.T.);
#83=ADVANCED_FACE('',(#141),#111,.T.);
#84=PLANE('',#649);
#85=PLANE('',#650);
#86=PLANE('',#651);
#87=PLANE('',#652);
#88=PLANE('',#653);
#89=PLANE('',#654);
#90=PLANE('',#655);
#91=PLANE('',#656);
#92=PLANE('',#657);
#93=PLANE('',#658);
#94=PLANE('',#662);
#95=PLANE('',#666);
#96=PLANE('',#670);
#97=PLANE('',#671);
#98=PLANE('',#672);
#99=PLANE('',#673);
#100=PLANE('',#674);
#101=PLANE('',#678);
#102=PLANE('',#679);
#103=PLANE('',#680);
#104=PLANE('',#681);
#105=PLANE('',#682);
#106=PLANE('',#683);
#107=PLANE('',#684);
#108=PLANE('',#685);
#109=PLANE('',#686);
#110=PLANE('',#687);
#111=PLANE('',#688);
#112=FACE_OUTER_BOUND('',#142,.T.);
#113=FACE_OUTER_BOUND('',#143,.T.);
#114=FACE_OUTER_BOUND('',#144,.T.);
#115=FACE_OUTER_BOUND('',#145,.T.);
#116=FACE_OUTER_BOUND('',#146,.T.);
#117=FACE_OUTER_BOUND('',#147,.T.);
#118=FACE_OUTER_BOUND('',#148,.T.);
#119=FACE_OUTER_BOUND('',#149,.T.);
#120=FACE_OUTER_BOUND('',#150,.T.);
#121=FACE_OUTER_BOUND('',#151,.T.);
#122=FACE_OUTER_BOUND('',#152,.T.);
#123=FACE_OUTER_BOUND('',#153,.T.);
#124=FACE_OUTER_BOUND('',#154,.T.);
#125=FACE_OUTER_BOUND('',#155,.T.);
#126=FACE_OUTER_BOUND('',#156,.T.);
#127=FACE_OUTER_BOUND('',#157,.T.);
#128=FACE_OUTER_BOUND('',#158,.T.);
#129=FACE_OUTER_BOUND('',#159,.T.);
#130=FACE_OUTER_BOUND('',#160,.T.);
#131=FACE_OUTER_BOUND('',#161,.T.);
#132=FACE_OUTER_BOUND('',#162,.T.);
#133=FACE_OUTER_BOUND('',#163,.T.);
#134=FACE_OUTER_BOUND('',#164,.T.);
#135=FACE_OUTER_BOUND('',#171,.T.);
#136=FACE_OUTER_BOUND('',#172,.T.);
#137=FACE_OUTER_BOUND('',#173,.T.);
#138=FACE_OUTER_BOUND('',#174,.T.);
#139=FACE_OUTER_BOUND('',#175,.T.);
#140=FACE_OUTER_BOUND('',#176,.T.);
#141=FACE_OUTER_BOUND('',#177,.T.);
#142=EDGE_LOOP('',(#178,#179,#180,#181,#182,#183,#184,#185));
#143=EDGE_LOOP('',(#186,#187,#188,#189));
#144=EDGE_LOOP('',(#190,#191,#192,#193));
#145=EDGE_LOOP('',(#194,#195,#196,#197));
#146=EDGE_LOOP('',(#198,#199,#200,#201));
#147=EDGE_LOOP('',(#202,#203,#204,#205));
#148=EDGE_LOOP('',(#206,#207,#208,#209));
#149=EDGE_LOOP('',(#210,#211,#212,#213,#214,#215,#216,#217));
#150=EDGE_LOOP('',(#218,#219,#220,#221));
#151=EDGE_LOOP('',(#222,#223,#224,#225));
#152=EDGE_LOOP('',(#226,#227,#228,#229));
#153=EDGE_LOOP('',(#230,#231,#232,#233));
#154=EDGE_LOOP('',(#234,#235,#236,#237));
#155=EDGE_LOOP('',(#238,#239,#240,#241));
#156=EDGE_LOOP('',(#242,#243,#244,#245));
#157=EDGE_LOOP('',(#246,#247,#248,#249));
#158=EDGE_LOOP('',(#250,#251,#252,#253));
#159=EDGE_LOOP('',(#254,#255,#256,#257));
#160=EDGE_LOOP('',(#258,#259,#260,#261));
#161=EDGE_LOOP('',(#262,#263,#264,#265));
#162=EDGE_LOOP('',(#266,#267,#268,#269));
#163=EDGE_LOOP('',(#270,#271,#272,#273));
#164=EDGE_LOOP('',(#274,#275,#276,#277));
#165=EDGE_LOOP('',(#278,#279,#280,#281,#282,#283,#284,#285));
#166=EDGE_LOOP('',(#286,#287,#288,#289,#290,#291));
#167=EDGE_LOOP('',(#292,#293,#294,#295,#296,#297));
#168=EDGE_LOOP('',(#298,#299,#300,#301,#302,#303,#304,#305));
#169=EDGE_LOOP('',(#306,#307,#308,#309,#310,#311));
#170=EDGE_LOOP('',(#312,#313,#314,#315,#316,#317));
#171=EDGE_LOOP('',(#318,#319,#320,#321));
#172=EDGE_LOOP('',(#322,#323,#324,#325));
#173=EDGE_LOOP('',(#326,#327,#328,#329));
#174=EDGE_LOOP('',(#330,#331,#332,#333));
#175=EDGE_LOOP('',(#334,#335,#336,#337));
#176=EDGE_LOOP('',(#338,#339,#340,#341,#342,#343,#344,#345));
#177=EDGE_LOOP('',(#346,#347,#348,#349));
#178=ORIENTED_EDGE('',*,*,#406,.F.);
#179=ORIENTED_EDGE('',*,*,#407,.F.);
#180=ORIENTED_EDGE('',*,*,#408,.F.);
#181=ORIENTED_EDGE('',*,*,#409,.F.);
#182=ORIENTED_EDGE('',*,*,#410,.F.);
#183=ORIENTED_EDGE('',*,*,#411,.T.);
#184=ORIENTED_EDGE('',*,*,#412,.T.);
#185=ORIENTED_EDGE('',*,*,#413,.F.);
#186=ORIENTED_EDGE('',*,*,#414,.F.);
#187=ORIENTED_EDGE('',*,*,#413,.T.);
#188=ORIENTED_EDGE('',*,*,#415,.T.);
#189=ORIENTED_EDGE('',*,*,#416,.F.);
#190=ORIENTED_EDGE('',*,*,#417,.T.);
#191=ORIENTED_EDGE('',*,*,#418,.F.);
#192=ORIENTED_EDGE('',*,*,#419,.F.);
#193=ORIENTED_EDGE('',*,*,#409,.T.);
#194=ORIENTED_EDGE('',*,*,#420,.F.);
#195=ORIENTED_EDGE('',*,*,#416,.T.);
#196=ORIENTED_EDGE('',*,*,#421,.T.);
#197=ORIENTED_EDGE('',*,*,#422,.F.);
#198=ORIENTED_EDGE('',*,*,#423,.T.);
#199=ORIENTED_EDGE('',*,*,#424,.F.);
#200=ORIENTED_EDGE('',*,*,#425,.F.);
#201=ORIENTED_EDGE('',*,*,#418,.T.);
#202=ORIENTED_EDGE('',*,*,#426,.F.);
#203=ORIENTED_EDGE('',*,*,#422,.T.);
#204=ORIENTED_EDGE('',*,*,#427,.T.);
#205=ORIENTED_EDGE('',*,*,#428,.F.);
#206=ORIENTED_EDGE('',*,*,#429,.T.);
#207=ORIENTED_EDGE('',*,*,#430,.F.);
#208=ORIENTED_EDGE('',*,*,#431,.F.);
#209=ORIENTED_EDGE('',*,*,#424,.T.);
#210=ORIENTED_EDGE('',*,*,#432,.T.);
#211=ORIENTED_EDGE('',*,*,#428,.T.);
#212=ORIENTED_EDGE('',*,*,#433,.T.);
#213=ORIENTED_EDGE('',*,*,#434,.F.);
#214=ORIENTED_EDGE('',*,*,#435,.F.);
#215=ORIENTED_EDGE('',*,*,#430,.T.);
#216=ORIENTED_EDGE('',*,*,#436,.T.);
#217=ORIENTED_EDGE('',*,*,#437,.T.);
#218=ORIENTED_EDGE('',*,*,#438,.T.);
#219=ORIENTED_EDGE('',*,*,#439,.F.);
#220=ORIENTED_EDGE('',*,*,#440,.F.);
#221=ORIENTED_EDGE('',*,*,#441,.T.);
#222=ORIENTED_EDGE('',*,*,#442,.T.);
#223=ORIENTED_EDGE('',*,*,#443,.F.);
#224=ORIENTED_EDGE('',*,*,#444,.F.);
#225=ORIENTED_EDGE('',*,*,#439,.T.);
#226=ORIENTED_EDGE('',*,*,#445,.T.);
#227=ORIENTED_EDGE('',*,*,#446,.F.);
#228=ORIENTED_EDGE('',*,*,#447,.F.);
#229=ORIENTED_EDGE('',*,*,#443,.T.);
#230=ORIENTED_EDGE('',*,*,#448,.T.);
#231=ORIENTED_EDGE('',*,*,#449,.F.);
#232=ORIENTED_EDGE('',*,*,#450,.F.);
#233=ORIENTED_EDGE('',*,*,#446,.T.);
#234=ORIENTED_EDGE('',*,*,#451,.T.);
#235=ORIENTED_EDGE('',*,*,#452,.F.);
#236=ORIENTED_EDGE('',*,*,#453,.F.);
#237=ORIENTED_EDGE('',*,*,#449,.T.);
#238=ORIENTED_EDGE('',*,*,#454,.T.);
#239=ORIENTED_EDGE('',*,*,#455,.F.);
#240=ORIENTED_EDGE('',*,*,#456,.F.);
#241=ORIENTED_EDGE('',*,*,#457,.T.);
#242=ORIENTED_EDGE('',*,*,#458,.T.);
#243=ORIENTED_EDGE('',*,*,#459,.F.);
#244=ORIENTED_EDGE('',*,*,#460,.F.);
#245=ORIENTED_EDGE('',*,*,#455,.T.);
#246=ORIENTED_EDGE('',*,*,#461,.T.);
#247=ORIENTED_EDGE('',*,*,#462,.F.);
#248=ORIENTED_EDGE('',*,*,#463,.F.);
#249=ORIENTED_EDGE('',*,*,#459,.T.);
#250=ORIENTED_EDGE('',*,*,#464,.T.);
#251=ORIENTED_EDGE('',*,*,#465,.F.);
#252=ORIENTED_EDGE('',*,*,#466,.F.);
#253=ORIENTED_EDGE('',*,*,#462,.T.);
#254=ORIENTED_EDGE('',*,*,#467,.T.);
#255=ORIENTED_EDGE('',*,*,#468,.F.);
#256=ORIENTED_EDGE('',*,*,#469,.F.);
#257=ORIENTED_EDGE('',*,*,#465,.T.);
#258=ORIENTED_EDGE('',*,*,#470,.T.);
#259=ORIENTED_EDGE('',*,*,#411,.F.);
#260=ORIENTED_EDGE('',*,*,#471,.F.);
#261=ORIENTED_EDGE('',*,*,#472,.T.);
#262=ORIENTED_EDGE('',*,*,#473,.T.);
#263=ORIENTED_EDGE('',*,*,#474,.F.);
#264=ORIENTED_EDGE('',*,*,#475,.F.);
#265=ORIENTED_EDGE('',*,*,#434,.T.);
#266=ORIENTED_EDGE('',*,*,#476,.T.);
#267=ORIENTED_EDGE('',*,*,#457,.F.);
#268=ORIENTED_EDGE('',*,*,#477,.F.);
#269=ORIENTED_EDGE('',*,*,#468,.T.);
#270=ORIENTED_EDGE('',*,*,#478,.T.);
#271=ORIENTED_EDGE('',*,*,#472,.F.);
#272=ORIENTED_EDGE('',*,*,#479,.F.);
#273=ORIENTED_EDGE('',*,*,#474,.T.);
#274=ORIENTED_EDGE('',*,*,#480,.T.);
#275=ORIENTED_EDGE('',*,*,#441,.F.);
#276=ORIENTED_EDGE('',*,*,#481,.F.);
#277=ORIENTED_EDGE('',*,*,#452,.T.);
#278=ORIENTED_EDGE('',*,*,#471,.T.);
#279=ORIENTED_EDGE('',*,*,#410,.T.);
#280=ORIENTED_EDGE('',*,*,#419,.T.);
#281=ORIENTED_EDGE('',*,*,#425,.T.);
#282=ORIENTED_EDGE('',*,*,#431,.T.);
#283=ORIENTED_EDGE('',*,*,#435,.T.);
#284=ORIENTED_EDGE('',*,*,#475,.T.);
#285=ORIENTED_EDGE('',*,*,#479,.T.);
#286=ORIENTED_EDGE('',*,*,#456,.T.);
#287=ORIENTED_EDGE('',*,*,#460,.T.);
#288=ORIENTED_EDGE('',*,*,#463,.T.);
#289=ORIENTED_EDGE('',*,*,#466,.T.);
#290=ORIENTED_EDGE('',*,*,#469,.T.);
#291=ORIENTED_EDGE('',*,*,#477,.T.);
#292=ORIENTED_EDGE('',*,*,#440,.T.);
#293=ORIENTED_EDGE('',*,*,#444,.T.);
#294=ORIENTED_EDGE('',*,*,#447,.T.);
#295=ORIENTED_EDGE('',*,*,#450,.T.);
#296=ORIENTED_EDGE('',*,*,#453,.T.);
#297=ORIENTED_EDGE('',*,*,#481,.T.);
#298=ORIENTED_EDGE('',*,*,#470,.F.);
#299=ORIENTED_EDGE('',*,*,#478,.F.);
#300=ORIENTED_EDGE('',*,*,#473,.F.);
#301=ORIENTED_EDGE('',*,*,#433,.F.);
#302=ORIENTED_EDGE('',*,*,#427,.F.);
#303=ORIENTED_EDGE('',*,*,#421,.F.);
#304=ORIENTED_EDGE('',*,*,#415,.F.);
#305=ORIENTED_EDGE('',*,*,#412,.F.);
#306=ORIENTED_EDGE('',*,*,#454,.F.);
#307=ORIENTED_EDGE('',*,*,#476,.F.);
#308=ORIENTED_EDGE('',*,*,#467,.F.);
#309=ORIENTED_EDGE('',*,*,#464,.F.);
#310=ORIENTED_EDGE('',*,*,#461,.F.);
#311=ORIENTED_EDGE('',*,*,#458,.F.);
#312=ORIENTED_EDGE('',*,*,#438,.F.);
#313=ORIENTED_EDGE('',*,*,#480,.F.);
#314=ORIENTED_EDGE('',*,*,#451,.F.);
#315=ORIENTED_EDGE('',*,*,#448,.F.);
#316=ORIENTED_EDGE('',*,*,#445,.F.);
#317=ORIENTED_EDGE('',*,*,#442,.F.);
#318=ORIENTED_EDGE('',*,*,#482,.T.);
#319=ORIENTED_EDGE('',*,*,#483,.F.);
#320=ORIENTED_EDGE('',*,*,#426,.T.);
#321=ORIENTED_EDGE('',*,*,#432,.F.);
#322=ORIENTED_EDGE('',*,*,#484,.T.);
#323=ORIENTED_EDGE('',*,*,#485,.F.);
#324=ORIENTED_EDGE('',*,*,#482,.F.);
#325=ORIENTED_EDGE('',*,*,#437,.F.);
#326=ORIENTED_EDGE('',*,*,#486,.T.);
#327=ORIENTED_EDGE('',*,*,#487,.F.);
#328=ORIENTED_EDGE('',*,*,#420,.T.);
#329=ORIENTED_EDGE('',*,*,#483,.T.);
#330=ORIENTED_EDGE('',*,*,#488,.T.);
#331=ORIENTED_EDGE('',*,*,#406,.T.);
#332=ORIENTED_EDGE('',*,*,#414,.T.);
#333=ORIENTED_EDGE('',*,*,#487,.T.);
#334=ORIENTED_EDGE('',*,*,#489,.T.);
#335=ORIENTED_EDGE('',*,*,#490,.F.);
#336=ORIENTED_EDGE('',*,*,#486,.F.);
#337=ORIENTED_EDGE('',*,*,#485,.T.);
#338=ORIENTED_EDGE('',*,*,#417,.F.);
#339=ORIENTED_EDGE('',*,*,#408,.T.);
#340=ORIENTED_EDGE('',*,*,#491,.F.);
#341=ORIENTED_EDGE('',*,*,#489,.F.);
#342=ORIENTED_EDGE('',*,*,#484,.F.);
#343=ORIENTED_EDGE('',*,*,#436,.F.);
#344=ORIENTED_EDGE('',*,*,#429,.F.);
#345=ORIENTED_EDGE('',*,*,#423,.F.);
#346=ORIENTED_EDGE('',*,*,#491,.T.);
#347=ORIENTED_EDGE('',*,*,#407,.T.);
#348=ORIENTED_EDGE('',*,*,#488,.F.);
#349=ORIENTED_EDGE('',*,*,#490,.T.);
#350=VERTEX_POINT('',#851);
#351=VERTEX_POINT('',#852);
#352=VERTEX_POINT('',#854);
#353=VERTEX_POINT('',#856);
#354=VERTEX_POINT('',#858);
#355=VERTEX_POINT('',#860);
#356=VERTEX_POINT('',#862);
#357=VERTEX_POINT('',#864);
#358=VERTEX_POINT('',#868);
#359=VERTEX_POINT('',#870);
#360=VERTEX_POINT('',#874);
#361=VERTEX_POINT('',#876);
#362=VERTEX_POINT('',#880);
#363=VERTEX_POINT('',#882);
#364=VERTEX_POINT('',#886);
#365=VERTEX_POINT('',#888);
#366=VERTEX_POINT('',#892);
#367=VERTEX_POINT('',#894);
#368=VERTEX_POINT('',#898);
#369=VERTEX_POINT('',#900);
#370=VERTEX_POINT('',#904);
#371=VERTEX_POINT('',#906);
#372=VERTEX_POINT('',#908);
#373=VERTEX_POINT('',#911);
#374=VERTEX_POINT('',#915);
#375=VERTEX_POINT('',#916);
#376=VERTEX_POINT('',#918);
#377=VERTEX_POINT('',#920);
#378=VERTEX_POINT('',#924);
#379=VERTEX_POINT('',#926);
#380=VERTEX_POINT('',#930);
#381=VERTEX_POINT('',#932);
#382=VERTEX_POINT('',#936);
#383=VERTEX_POINT('',#938);
#384=VERTEX_POINT('',#942);
#385=VERTEX_POINT('',#944);
#386=VERTEX_POINT('',#948);
#387=VERTEX_POINT('',#949);
#388=VERTEX_POINT('',#951);
#389=VERTEX_POINT('',#953);
#390=VERTEX_POINT('',#957);
#391=VERTEX_POINT('',#959);
#392=VERTEX_POINT('',#963);
#393=VERTEX_POINT('',#965);
#394=VERTEX_POINT('',#969);
#395=VERTEX_POINT('',#971);
#396=VERTEX_POINT('',#975);
#397=VERTEX_POINT('',#977);
#398=VERTEX_POINT('',#981);
#399=VERTEX_POINT('',#983);
#400=VERTEX_POINT('',#987);
#401=VERTEX_POINT('',#989);
#402=VERTEX_POINT('',#1004);
#403=VERTEX_POINT('',#1008);
#404=VERTEX_POINT('',#1012);
#405=VERTEX_POINT('',#1018);
#406=EDGE_CURVE('',#350,#351,#492,.T.);
#407=EDGE_CURVE('',#352,#350,#493,.T.);
#408=EDGE_CURVE('',#353,#352,#494,.T.);
#409=EDGE_CURVE('',#354,#353,#495,.T.);
#410=EDGE_CURVE('',#355,#354,#496,.T.);
#411=EDGE_CURVE('',#355,#356,#497,.T.);
#412=EDGE_CURVE('',#356,#357,#498,.T.);
#413=EDGE_CURVE('',#351,#357,#499,.T.);
#414=EDGE_CURVE('',#351,#358,#500,.T.);
#415=EDGE_CURVE('',#357,#359,#501,.T.);
#416=EDGE_CURVE('',#358,#359,#502,.T.);
#417=EDGE_CURVE('',#353,#360,#503,.T.);
#418=EDGE_CURVE('',#361,#360,#504,.T.);
#419=EDGE_CURVE('',#354,#361,#505,.T.);
#420=EDGE_CURVE('',#358,#362,#506,.T.);
#421=EDGE_CURVE('',#359,#363,#507,.T.);
#422=EDGE_CURVE('',#362,#363,#508,.T.);
#423=EDGE_CURVE('',#360,#364,#509,.T.);
#424=EDGE_CURVE('',#365,#364,#510,.T.);
#425=EDGE_CURVE('',#361,#365,#511,.T.);
#426=EDGE_CURVE('',#362,#366,#512,.T.);
#427=EDGE_CURVE('',#363,#367,#513,.T.);
#428=EDGE_CURVE('',#366,#367,#514,.T.);
#429=EDGE_CURVE('',#364,#368,#515,.T.);
#430=EDGE_CURVE('',#369,#368,#516,.T.);
#431=EDGE_CURVE('',#365,#369,#517,.T.);
#432=EDGE_CURVE('',#370,#366,#518,.T.);
#433=EDGE_CURVE('',#367,#371,#519,.T.);
#434=EDGE_CURVE('',#372,#371,#520,.T.);
#435=EDGE_CURVE('',#369,#372,#521,.T.);
#436=EDGE_CURVE('',#368,#373,#522,.T.);
#437=EDGE_CURVE('',#373,#370,#523,.T.);
#438=EDGE_CURVE('',#374,#375,#524,.T.);
#439=EDGE_CURVE('',#376,#375,#525,.T.);
#440=EDGE_CURVE('',#377,#376,#526,.T.);
#441=EDGE_CURVE('',#377,#374,#527,.T.);
#442=EDGE_CURVE('',#375,#378,#528,.T.);
#443=EDGE_CURVE('',#379,#378,#529,.T.);
#444=EDGE_CURVE('',#376,#379,#530,.T.);
#445=EDGE_CURVE('',#378,#380,#44,.T.);
#446=EDGE_CURVE('',#381,#380,#531,.T.);
#447=EDGE_CURVE('',#379,#381,#45,.T.);
#448=EDGE_CURVE('',#380,#382,#532,.T.);
#449=EDGE_CURVE('',#383,#382,#533,.T.);
#450=EDGE_CURVE('',#381,#383,#534,.T.);
#451=EDGE_CURVE('',#382,#384,#46,.T.);
#452=EDGE_CURVE('',#385,#384,#535,.T.);
#453=EDGE_CURVE('',#383,#385,#47,.T.);
#454=EDGE_CURVE('',#386,#387,#536,.T.);
#455=EDGE_CURVE('',#388,#387,#537,.T.);
#456=EDGE_CURVE('',#389,#388,#538,.T.);
#457=EDGE_CURVE('',#389,#386,#539,.T.);
#458=EDGE_CURVE('',#387,#390,#48,.T.);
#459=EDGE_CURVE('',#391,#390,#540,.T.);
#460=EDGE_CURVE('',#388,#391,#49,.T.);
#461=EDGE_CURVE('',#390,#392,#541,.T.);
#462=EDGE_CURVE('',#393,#392,#542,.T.);
#463=EDGE_CURVE('',#391,#393,#543,.T.);
#464=EDGE_CURVE('',#392,#394,#544,.T.);
#465=EDGE_CURVE('',#395,#394,#545,.T.);
#466=EDGE_CURVE('',#393,#395,#546,.T.);
#467=EDGE_CURVE('',#394,#396,#547,.T.);
#468=EDGE_CURVE('',#397,#396,#548,.T.);
#469=EDGE_CURVE('',#395,#397,#549,.T.);
#470=EDGE_CURVE('',#398,#356,#550,.T.);
#471=EDGE_CURVE('',#399,#355,#551,.T.);
#472=EDGE_CURVE('',#399,#398,#552,.T.);
#473=EDGE_CURVE('',#371,#400,#553,.T.);
#474=EDGE_CURVE('',#401,#400,#554,.T.);
#475=EDGE_CURVE('',#372,#401,#555,.T.);
#476=EDGE_CURVE('',#396,#386,#50,.T.);
#477=EDGE_CURVE('',#397,#389,#51,.T.);
#478=EDGE_CURVE('',#400,#398,#556,.T.);
#479=EDGE_CURVE('',#401,#399,#557,.T.);
#480=EDGE_CURVE('',#384,#374,#558,.T.);
#481=EDGE_CURVE('',#385,#377,#559,.T.);
#482=EDGE_CURVE('',#370,#402,#560,.T.);
#483=EDGE_CURVE('',#362,#402,#561,.T.);
#484=EDGE_CURVE('',#373,#403,#562,.T.);
#485=EDGE_CURVE('',#402,#403,#563,.T.);
#486=EDGE_CURVE('',#402,#404,#564,.T.);
#487=EDGE_CURVE('',#358,#404,#565,.T.);
#488=EDGE_CURVE('',#404,#350,#566,.T.);
#489=EDGE_CURVE('',#403,#405,#567,.T.);
#490=EDGE_CURVE('',#404,#405,#568,.T.);
#491=EDGE_CURVE('',#405,#352,#569,.T.);
#492=LINE('',#850,#570);
#493=LINE('',#853,#571);
#494=LINE('',#855,#572);
#495=LINE('',#857,#573);
#496=LINE('',#859,#574);
#497=LINE('',#861,#575);
#498=LINE('',#863,#576);
#499=LINE('',#865,#577);
#500=LINE('',#867,#578);
#501=LINE('',#869,#579);
#502=LINE('',#871,#580);
#503=LINE('',#873,#581);
#504=LINE('',#875,#582);
#505=LINE('',#877,#583);
#506=LINE('',#879,#584);
#507=LINE('',#881,#585);
#508=LINE('',#883,#586);
#509=LINE('',#885,#587);
#510=LINE('',#887,#588);
#511=LINE('',#889,#589);
#512=LINE('',#891,#590);
#513=LINE('',#893,#591);
#514=LINE('',#895,#592);
#515=LINE('',#897,#593);
#516=LINE('',#899,#594);
#517=LINE('',#901,#595);
#518=LINE('',#903,#596);
#519=LINE('',#905,#597);
#520=LINE('',#907,#598);
#521=LINE('',#909,#599);
#522=LINE('',#910,#600);
#523=LINE('',#912,#601);
#524=LINE('',#914,#602);
#525=LINE('',#917,#603);
#526=LINE('',#919,#604);
#527=LINE('',#921,#605);
#528=LINE('',#923,#606);
#529=LINE('',#925,#607);
#530=LINE('',#927,#608);
#531=LINE('',#931,#609);
#532=LINE('',#935,#610);
#533=LINE('',#937,#611);
#534=LINE('',#939,#612);
#535=LINE('',#943,#613);
#536=LINE('',#947,#614);
#537=LINE('',#950,#615);
#538=LINE('',#952,#616);
#539=LINE('',#954,#617);
#540=LINE('',#958,#618);
#541=LINE('',#962,#619);
#542=LINE('',#964,#620);
#543=LINE('',#966,#621);
#544=LINE('',#968,#622);
#545=LINE('',#970,#623);
#546=LINE('',#972,#624);
#547=LINE('',#974,#625);
#548=LINE('',#976,#626);
#549=LINE('',#978,#627);
#550=LINE('',#980,#628);
#551=LINE('',#982,#629);
#552=LINE('',#984,#630);
#553=LINE('',#986,#631);
#554=LINE('',#988,#632);
#555=LINE('',#990,#633);
#556=LINE('',#995,#634);
#557=LINE('',#996,#635);
#558=LINE('',#998,#636);
#559=LINE('',#999,#637);
#560=LINE('',#1003,#638);
#561=LINE('',#1005,#639);
#562=LINE('',#1007,#640);
#563=LINE('',#1009,#641);
#564=LINE('',#1011,#642);
#565=LINE('',#1013,#643);
#566=LINE('',#1015,#644);
#567=LINE('',#1017,#645);
#568=LINE('',#1019,#646);
#569=LINE('',#1021,#647);
#570=VECTOR('',#691,1.);
#571=VECTOR('',#692,1.);
#572=VECTOR('',#693,1.);
#573=VECTOR('',#694,1.);
#574=VECTOR('',#695,1.);
#575=VECTOR('',#696,1.);
#576=VECTOR('',#697,1.);
#577=VECTOR('',#698,1.);
#578=VECTOR('',#701,1.);
#579=VECTOR('',#702,1.);
#580=VECTOR('',#703,1.);
#581=VECTOR('',#706,1.);
#582=VECTOR('',#707,1.);
#583=VECTOR('',#708,1.);
#584=VECTOR('',#711,1.);
#585=VECTOR('',#712,1.);
#586=VECTOR('',#713,1.);
#587=VECTOR('',#716,1.);
#588=VECTOR('',#717,1.);
#589=VECTOR('',#718,1.);
#590=VECTOR('',#721,1.);
#591=VECTOR('',#722,1.);
#592=VECTOR('',#723,1.);
#593=VECTOR('',#726,1.);
#594=VECTOR('',#727,1.);
#595=VECTOR('',#728,1.);
#596=VECTOR('',#731,1.);
#597=VECTOR('',#732,1.);
#598=VECTOR('',#733,1.);
#599=VECTOR('',#734,1.);
#600=VECTOR('',#735,1.);
#601=VECTOR('',#736,1.);
#602=VECTOR('',#739,1.);
#603=VECTOR('',#740,1.);
#604=VECTOR('',#741,1.);
#605=VECTOR('',#742,1.);
#606=VECTOR('',#745,1.);
#607=VECTOR('',#746,1.);
#608=VECTOR('',#747,1.);
#609=VECTOR('',#752,1.);
#610=VECTOR('',#757,1.);
#611=VECTOR('',#758,1.);
#612=VECTOR('',#759,1.);
#613=VECTOR('',#764,1.);
#614=VECTOR('',#769,1.);
#615=VECTOR('',#770,1.);
#616=VECTOR('',#771,1.);
#617=VECTOR('',#772,1.);
#618=VECTOR('',#777,1.);
#619=VECTOR('',#782,1.);
#620=VECTOR('',#783,1.);
#621=VECTOR('',#784,1.);
#622=VECTOR('',#787,1.);
#623=VECTOR('',#788,1.);
#624=VECTOR('',#789,1.);
#625=VECTOR('',#792,1.);
#626=VECTOR('',#793,1.);
#627=VECTOR('',#794,1.);
#628=VECTOR('',#797,1.);
#629=VECTOR('',#798,1.);
#630=VECTOR('',#799,1.);
#631=VECTOR('',#802,1.);
#632=VECTOR('',#803,1.);
#633=VECTOR('',#804,1.);
#634=VECTOR('',#813,1.);
#635=VECTOR('',#814,1.);
#636=VECTOR('',#817,1.);
#637=VECTOR('',#818,1.);
#638=VECTOR('',#825,1.);
#639=VECTOR('',#826,1.);
#640=VECTOR('',#829,1.);
#641=VECTOR('',#830,1.);
#642=VECTOR('',#833,1.);
#643=VECTOR('',#834,1.);
#644=VECTOR('',#837,1.);
#645=VECTOR('',#840,1.);
#646=VECTOR('',#841,1.);
#647=VECTOR('',#844,1.);
#648=AXIS2_PLACEMENT_3D('',#849,#689,#690);
#649=AXIS2_PLACEMENT_3D('',#866,#699,#700);
#650=AXIS2_PLACEMENT_3D('',#872,#704,#705);
#651=AXIS2_PLACEMENT_3D('',#878,#709,#710);
#652=AXIS2_PLACEMENT_3D('',#884,#714,#715);
#653=AXIS2_PLACEMENT_3D('',#890,#719,#720);
#654=AXIS2_PLACEMENT_3D('',#896,#724,#725);
#655=AXIS2_PLACEMENT_3D('',#902,#729,#730);
#656=AXIS2_PLACEMENT_3D('',#913,#737,#738);
#657=AXIS2_PLACEMENT_3D('',#922,#743,#744);
#658=AXIS2_PLACEMENT_3D('',#928,#748,#749);
#659=AXIS2_PLACEMENT_3D('',#929,#750,#751);
#660=AXIS2_PLACEMENT_3D('',#933,#753,#754);
#661=AXIS2_PLACEMENT_3D('',#934,#755,#756);
#662=AXIS2_PLACEMENT_3D('',#940,#760,#761);
#663=AXIS2_PLACEMENT_3D('',#941,#762,#763);
#664=AXIS2_PLACEMENT_3D('',#945,#765,#766);
#665=AXIS2_PLACEMENT_3D('',#946,#767,#768);
#666=AXIS2_PLACEMENT_3D('',#955,#773,#774);
#667=AXIS2_PLACEMENT_3D('',#956,#775,#776);
#668=AXIS2_PLACEMENT_3D('',#960,#778,#779);
#669=AXIS2_PLACEMENT_3D('',#961,#780,#781);
#670=AXIS2_PLACEMENT_3D('',#967,#785,#786);
#671=AXIS2_PLACEMENT_3D('',#973,#790,#791);
#672=AXIS2_PLACEMENT_3D('',#979,#795,#796);
#673=AXIS2_PLACEMENT_3D('',#985,#800,#801);
#674=AXIS2_PLACEMENT_3D('',#991,#805,#806);
#675=AXIS2_PLACEMENT_3D('',#992,#807,#808);
#676=AXIS2_PLACEMENT_3D('',#993,#809,#810);
#677=AXIS2_PLACEMENT_3D('',#994,#811,#812);
#678=AXIS2_PLACEMENT_3D('',#997,#815,#816);
#679=AXIS2_PLACEMENT_3D('',#1000,#819,#820);
#680=AXIS2_PLACEMENT_3D('',#1001,#821,#822);
#681=AXIS2_PLACEMENT_3D('',#1002,#823,#824);
#682=AXIS2_PLACEMENT_3D('',#1006,#827,#828);
#683=AXIS2_PLACEMENT_3D('',#1010,#831,#832);
#684=AXIS2_PLACEMENT_3D('',#1014,#835,#836);
#685=AXIS2_PLACEMENT_3D('',#1016,#838,#839);
#686=AXIS2_PLACEMENT_3D('',#1020,#842,#843);
#687=AXIS2_PLACEMENT_3D('',#1022,#845,#846);
#688=AXIS2_PLACEMENT_3D('',#1023,#847,#848);
#689=DIRECTION('',(0.,0.,1.));
#690=DIRECTION('',(1.,0.,0.));
#691=DIRECTION('',(0.707106781186546,2.45326946669341E-15,-0.70710678118655));
#692=DIRECTION('',(0.,0.,-1.));
#693=DIRECTION('',(-1.,0.,0.));
#694=DIRECTION('',(0.,0.,-1.));
#695=DIRECTION('',(1.,0.,0.));
#696=DIRECTION('',(0.,0.,-1.));
#697=DIRECTION('',(1.,0.,0.));
#698=DIRECTION('',(0.,0.,-1.));
#699=DIRECTION('',(0.,1.,0.));
#700=DIRECTION('',(0.,0.,1.));
#701=DIRECTION('',(0.,1.,0.));
#702=DIRECTION('',(0.,1.,0.));
#703=DIRECTION('',(0.,0.,-1.));
#704=DIRECTION('',(-1.,0.,0.));
#705=DIRECTION('',(0.,0.,1.));
#706=DIRECTION('',(0.,1.,0.));
#707=DIRECTION('',(0.,0.,-1.));
#708=DIRECTION('',(0.,1.,0.));
#709=DIRECTION('',(-1.,0.,0.));
#710=DIRECTION('',(0.,0.,1.));
#711=DIRECTION('',(1.,-4.95635278850516E-17,0.));
#712=DIRECTION('',(1.,0.,0.));
#713=DIRECTION('',(0.,0.,-1.));
#714=DIRECTION('',(0.,1.,0.));
#715=DIRECTION('',(0.,0.,1.));
#716=DIRECTION('',(1.,-4.95635278850516E-17,0.));
#717=DIRECTION('',(0.,0.,-1.));
#718=DIRECTION('',(1.,0.,0.));
#719=DIRECTION('',(0.,1.,0.));
#720=DIRECTION('',(0.,0.,1.));
#721=DIRECTION('',(0.,-1.,0.));
#722=DIRECTION('',(0.,-1.,0.));
#723=DIRECTION('',(0.,0.,-1.));
#724=DIRECTION('',(1.,0.,0.));
#725=DIRECTION('',(0.,0.,-1.));
#726=DIRECTION('',(0.,-1.,0.));
#727=DIRECTION('',(0.,0.,-1.));
#728=DIRECTION('',(0.,-1.,0.));
#729=DIRECTION('',(1.,0.,0.));
#730=DIRECTION('',(0.,0.,-1.));
#731=DIRECTION('',(-0.707106781186546,0.,-0.70710678118655));
#732=DIRECTION('',(1.,0.,0.));
#733=DIRECTION('',(0.,0.,-1.));
#734=DIRECTION('',(1.,0.,0.));
#735=DIRECTION('',(1.,0.,0.));
#736=DIRECTION('',(0.,0.,-1.));
#737=DIRECTION('',(0.,1.,0.));
#738=DIRECTION('',(0.,0.,1.));
#739=DIRECTION('',(3.30423519233678E-16,1.,0.));
#740=DIRECTION('',(0.,0.,-1.));
#741=DIRECTION('',(3.30423519233678E-16,1.,0.));
#742=DIRECTION('',(0.,0.,-1.));
#743=DIRECTION('',(-1.,3.30423519233678E-16,0.));
#744=DIRECTION('',(-3.29597460435593E-16,-1.,0.));
#745=DIRECTION('',(1.,-2.89120579329468E-16,0.));
#746=DIRECTION('',(0.,0.,-1.));
#747=DIRECTION('',(1.,-2.89120579329468E-16,0.));
#748=DIRECTION('',(2.89120579329468E-16,1.,0.));
#749=DIRECTION('',(-1.,2.89265139619133E-16,0.));
#750=DIRECTION('',(0.,0.,-1.));
#751=DIRECTION('',(1.,0.,0.));
#752=DIRECTION('',(0.,0.,-1.));
#753=DIRECTION('',(0.,0.,-1.));
#754=DIRECTION('',(1.,0.,0.));
#755=DIRECTION('',(0.,0.,-1.));
#756=DIRECTION('',(-1.,0.,0.));
#757=DIRECTION('',(-3.65204942310907E-16,-1.,0.));
#758=DIRECTION('',(0.,0.,-1.));
#759=DIRECTION('',(-3.65204942310907E-16,-1.,0.));
#760=DIRECTION('',(1.,-3.65204942310907E-16,0.));
#761=DIRECTION('',(3.64291929955129E-16,1.,0.));
#762=DIRECTION('',(0.,0.,-1.));
#763=DIRECTION('',(1.,0.,0.));
#764=DIRECTION('',(0.,0.,-1.));
#765=DIRECTION('',(0.,0.,-1.));
#766=DIRECTION('',(1.,0.,0.));
#767=DIRECTION('',(0.,0.,-1.));
#768=DIRECTION('',(-1.,0.,0.));
#769=DIRECTION('',(-3.65204942310907E-16,1.,0.));
#770=DIRECTION('',(0.,0.,-1.));
#771=DIRECTION('',(-3.65204942310907E-16,1.,0.));
#772=DIRECTION('',(0.,0.,-1.));
#773=DIRECTION('',(-1.,-3.65204942310907E-16,0.));
#774=DIRECTION('',(3.64291929955129E-16,-1.,0.));
#775=DIRECTION('',(0.,0.,-1.));
#776=DIRECTION('',(1.,0.,0.));
#777=DIRECTION('',(0.,0.,-1.));
#778=DIRECTION('',(0.,0.,-1.));
#779=DIRECTION('',(1.,0.,0.));
#780=DIRECTION('',(0.,0.,-1.));
#781=DIRECTION('',(-1.,0.,0.));
#782=DIRECTION('',(1.,2.89120579329468E-16,0.));
#783=DIRECTION('',(0.,0.,-1.));
#784=DIRECTION('',(1.,2.89120579329468E-16,0.));
#785=DIRECTION('',(-2.89120579329468E-16,1.,0.));
#786=DIRECTION('',(-1.,-2.89265139619133E-16,0.));
#787=DIRECTION('',(3.30423519233678E-16,-1.,0.));
#788=DIRECTION('',(0.,0.,-1.));
#789=DIRECTION('',(3.30423519233678E-16,-1.,0.));
#790=DIRECTION('',(1.,3.30423519233678E-16,0.));
#791=DIRECTION('',(-3.29597460435593E-16,1.,0.));
#792=DIRECTION('',(-1.,0.,0.));
#793=DIRECTION('',(0.,0.,-1.));
#794=DIRECTION('',(-1.,0.,0.));
#795=DIRECTION('',(0.,-1.,0.));
#796=DIRECTION('',(0.,0.,-1.));
#797=DIRECTION('',(0.,-1.,0.));
#798=DIRECTION('',(0.,-1.,0.));
#799=DIRECTION('',(0.,0.,-1.));
#800=DIRECTION('',(1.,0.,0.));
#801=DIRECTION('',(0.,0.,-1.));
#802=DIRECTION('',(0.,1.,0.));
#803=DIRECTION('',(0.,0.,-1.));
#804=DIRECTION('',(0.,1.,0.));
#805=DIRECTION('',(-1.,0.,0.));
#806=DIRECTION('',(0.,0.,1.));
#807=DIRECTION('',(0.,0.,-1.));
#808=DIRECTION('',(1.,0.,0.));
#809=DIRECTION('',(0.,0.,-1.));
#810=DIRECTION('',(1.,0.,0.));
#811=DIRECTION('',(0.,0.,-1.));
#812=DIRECTION('',(-1.,0.,0.));
#813=DIRECTION('',(-1.,0.,0.));
#814=DIRECTION('',(-1.,0.,0.));
#815=DIRECTION('',(0.,-1.,0.));
#816=DIRECTION('',(0.,0.,-1.));
#817=DIRECTION('',(-1.,0.,0.));
#818=DIRECTION('',(-1.,0.,0.));
#819=DIRECTION('',(0.,-1.,0.));
#820=DIRECTION('',(0.,0.,-1.));
#821=DIRECTION('',(0.,0.,-1.));
#822=DIRECTION('',(-1.,0.,0.));
#823=DIRECTION('',(0.,0.,-1.));
#824=DIRECTION('',(-1.,0.,0.));
#825=DIRECTION('',(0.,1.,0.));
#826=DIRECTION('',(0.577350269189624,0.577350269189627,0.577350269189627));
#827=DIRECTION('',(-0.707106781186549,0.,0.707106781186546));
#828=DIRECTION('',(0.707106781186546,0.,0.707106781186549));
#829=DIRECTION('',(0.,1.,0.));
#830=DIRECTION('',(0.,0.,1.));
#831=DIRECTION('',(-1.,0.,0.));
#832=DIRECTION('',(0.,0.,1.));
#833=DIRECTION('',(-1.,4.68844182696434E-17,0.));
#834=DIRECTION('',(-0.577350269189624,0.577350269189627,0.577350269189627));
#835=DIRECTION('',(-3.39479450526222E-17,-0.707106781186547,0.707106781186548));
#836=DIRECTION('',(0.,-0.707106781186548,-0.707106781186547));
#837=DIRECTION('',(0.,-1.,0.));
#838=DIRECTION('',(0.707106781186549,0.,0.707106781186546));
#839=DIRECTION('',(0.707106781186546,0.,-0.707106781186549));
#840=DIRECTION('',(-1.,4.68844182696434E-17,0.));
#841=DIRECTION('',(0.,0.,1.));
#842=DIRECTION('',(-4.80096443081149E-17,-1.,0.));
#843=DIRECTION('',(1.,-4.81385764583564E-17,0.));
#844=DIRECTION('',(0.,-1.,0.));
#845=DIRECTION('',(0.,0.,-1.));
#846=DIRECTION('',(-1.,0.,0.));
#847=DIRECTION('',(1.,0.,0.));
#848=DIRECTION('',(0.,0.,-1.));
#849=CARTESIAN_POINT('',(0.,0.,0.));
#850=CARTESIAN_POINT('',(-18.,-25.,1.5));
#851=CARTESIAN_POINT('',(-18.5,-25.,2.));
#852=CARTESIAN_POINT('',(-17.5,-25.,1.));
#853=CARTESIAN_POINT('',(-18.5,-25.,2.5));
#854=CARTESIAN_POINT('',(-18.5,-25.,3.));
#855=CARTESIAN_POINT('',(-18.,-25.,3.));
#856=CARTESIAN_POINT('',(-17.5,-25.,3.));
#857=CARTESIAN_POINT('',(-17.5,-25.,5.));
#858=CARTESIAN_POINT('',(-17.5,-25.,5.));
#859=CARTESIAN_POINT('',(-24.,-25.,5.));
#860=CARTESIAN_POINT('',(-24.,-25.,5.));
#861=CARTESIAN_POINT('',(-24.,-25.,5.));
#862=CARTESIAN_POINT('',(-24.,-25.,0.));
#863=CARTESIAN_POINT('',(-24.,-25.,0.));
#864=CARTESIAN_POINT('',(-17.5,-25.,0.));
#865=CARTESIAN_POINT('',(-17.5,-25.,5.));
#866=CARTESIAN_POINT('',(-24.,-25.,5.));
#867=CARTESIAN_POINT('',(-17.5,-14.,1.));
#868=CARTESIAN_POINT('',(-17.5,-3.,1.));
#869=CARTESIAN_POINT('',(-17.5,-25.,0.));
#870=CARTESIAN_POINT('',(-17.5,-3.,0.));
#871=CARTESIAN_POINT('',(-17.5,-3.,5.));
#872=CARTESIAN_POINT('',(-17.5,-25.,5.));
#873=CARTESIAN_POINT('',(-17.5,-14.,3.));
#874=CARTESIAN_POINT('',(-17.5,-3.,3.));
#875=CARTESIAN_POINT('',(-17.5,-3.,5.));
#876=CARTESIAN_POINT('',(-17.5,-3.,5.));
#877=CARTESIAN_POINT('',(-17.5,-25.,5.));
#878=CARTESIAN_POINT('',(-17.5,-25.,5.));
#879=CARTESIAN_POINT('',(3.46944695195361E-15,-3.,1.));
#880=CARTESIAN_POINT('',(17.5,-3.,1.));
#881=CARTESIAN_POINT('',(-17.5,-3.,0.));
#882=CARTESIAN_POINT('',(17.5,-3.,0.));
#883=CARTESIAN_POINT('',(17.5,-3.,5.));
#884=CARTESIAN_POINT('',(-17.5,-3.,5.));
#885=CARTESIAN_POINT('',(0.,-3.,3.));
#886=CARTESIAN_POINT('',(17.5,-3.,3.));
#887=CARTESIAN_POINT('',(17.5,-3.,5.));
#888=CARTESIAN_POINT('',(17.5,-3.,5.));
#889=CARTESIAN_POINT('',(-17.5,-3.,5.));
#890=CARTESIAN_POINT('',(-17.5,-3.,5.));
#891=CARTESIAN_POINT('',(17.5,-14.,1.));
#892=CARTESIAN_POINT('',(17.5,-25.,1.));
#893=CARTESIAN_POINT('',(17.5,-3.,0.));
#894=CARTESIAN_POINT('',(17.5,-25.,0.));
#895=CARTESIAN_POINT('',(17.5,-25.,5.));
#896=CARTESIAN_POINT('',(17.5,-3.,5.));
#897=CARTESIAN_POINT('',(17.5,-14.,3.));
#898=CARTESIAN_POINT('',(17.5,-25.,3.));
#899=CARTESIAN_POINT('',(17.5,-25.,5.));
#900=CARTESIAN_POINT('',(17.5,-25.,5.));
#901=CARTESIAN_POINT('',(17.5,-3.,5.));
#902=CARTESIAN_POINT('',(17.5,-3.,5.));
#903=CARTESIAN_POINT('',(18.,-25.,1.5));
#904=CARTESIAN_POINT('',(18.5,-25.,2.));
#905=CARTESIAN_POINT('',(17.5,-25.,0.));
#906=CARTESIAN_POINT('',(24.,-25.,0.));
#907=CARTESIAN_POINT('',(24.,-25.,5.));
#908=CARTESIAN_POINT('',(24.,-25.,5.));
#909=CARTESIAN_POINT('',(17.5,-25.,5.));
#910=CARTESIAN_POINT('',(18.,-25.,3.));
#911=CARTESIAN_POINT('',(18.5,-25.,3.));
#912=CARTESIAN_POINT('',(18.5,-25.,2.5));
#913=CARTESIAN_POINT('',(17.5,-25.,5.));
#914=CARTESIAN_POINT('',(19.,-23.,0.));
#915=CARTESIAN_POINT('',(19.,-23.,0.));
#916=CARTESIAN_POINT('',(19.,-2.,0.));
#917=CARTESIAN_POINT('',(19.,-2.,5.));
#918=CARTESIAN_POINT('',(19.,-2.,5.));
#919=CARTESIAN_POINT('',(19.,-23.,5.));
#920=CARTESIAN_POINT('',(19.,-23.,5.));
#921=CARTESIAN_POINT('',(19.,-23.,5.));
#922=CARTESIAN_POINT('',(19.,-23.,5.));
#923=CARTESIAN_POINT('',(19.,-2.,0.));
#924=CARTESIAN_POINT('',(20.5,-2.,0.));
#925=CARTESIAN_POINT('',(20.5,-2.,5.));
#926=CARTESIAN_POINT('',(20.5,-2.,5.));
#927=CARTESIAN_POINT('',(19.,-2.,5.));
#928=CARTESIAN_POINT('',(19.,-2.,5.));
#929=CARTESIAN_POINT('',(21.5,-2.,0.));
#930=CARTESIAN_POINT('',(21.5000000000031,-3.,0.));
#931=CARTESIAN_POINT('',(21.5000000000031,-3.,5.));
#932=CARTESIAN_POINT('',(21.5000000000031,-3.,5.));
#933=CARTESIAN_POINT('',(21.5,-2.,5.));
#934=CARTESIAN_POINT('',(21.5,-2.,5.));
#935=CARTESIAN_POINT('',(21.5,-3.,0.));
#936=CARTESIAN_POINT('',(21.5,-22.,0.));
#937=CARTESIAN_POINT('',(21.5,-22.,5.));
#938=CARTESIAN_POINT('',(21.5,-22.,5.));
#939=CARTESIAN_POINT('',(21.5,-3.,5.));
#940=CARTESIAN_POINT('',(21.5,-3.,5.));
#941=CARTESIAN_POINT('',(21.5,-23.,0.));
#942=CARTESIAN_POINT('',(20.5,-23.,0.));
#943=CARTESIAN_POINT('',(20.5,-23.,5.));
#944=CARTESIAN_POINT('',(20.5,-23.,5.));
#945=CARTESIAN_POINT('',(21.5,-23.,5.));
#946=CARTESIAN_POINT('',(21.5,-23.,5.));
#947=CARTESIAN_POINT('',(-21.5,-22.,0.));
#948=CARTESIAN_POINT('',(-21.5,-22.,0.));
#949=CARTESIAN_POINT('',(-21.5,-3.,0.));
#950=CARTESIAN_POINT('',(-21.5,-3.,5.));
#951=CARTESIAN_POINT('',(-21.5,-3.,5.));
#952=CARTESIAN_POINT('',(-21.5,-22.,5.));
#953=CARTESIAN_POINT('',(-21.5,-22.,5.));
#954=CARTESIAN_POINT('',(-21.5,-22.,5.));
#955=CARTESIAN_POINT('',(-21.5,-22.,5.));
#956=CARTESIAN_POINT('',(-21.5,-2.,0.));
#957=CARTESIAN_POINT('',(-20.5,-2.,0.));
#958=CARTESIAN_POINT('',(-20.5,-2.,5.));
#959=CARTESIAN_POINT('',(-20.5,-2.,5.));
#960=CARTESIAN_POINT('',(-21.5,-2.,5.));
#961=CARTESIAN_POINT('',(-21.5,-2.,5.));
#962=CARTESIAN_POINT('',(-20.5,-2.,0.));
#963=CARTESIAN_POINT('',(-19.,-2.,0.));
#964=CARTESIAN_POINT('',(-19.,-2.,5.));
#965=CARTESIAN_POINT('',(-19.,-2.,5.));
#966=CARTESIAN_POINT('',(-20.5,-2.,5.));
#967=CARTESIAN_POINT('',(-20.5,-2.,5.));
#968=CARTESIAN_POINT('',(-19.,-2.,0.));
#969=CARTESIAN_POINT('',(-19.,-23.,0.));
#970=CARTESIAN_POINT('',(-19.,-23.,5.));
#971=CARTESIAN_POINT('',(-19.,-23.,5.));
#972=CARTESIAN_POINT('',(-19.,-2.,5.));
#973=CARTESIAN_POINT('',(-19.,-2.,5.));
#974=CARTESIAN_POINT('',(-19.,-23.,0.));
#975=CARTESIAN_POINT('',(-20.5,-23.,0.));
#976=CARTESIAN_POINT('',(-20.5,-23.,5.));
#977=CARTESIAN_POINT('',(-20.5,-23.,5.));
#978=CARTESIAN_POINT('',(-19.,-23.,5.));
#979=CARTESIAN_POINT('',(-19.,-23.,5.));
#980=CARTESIAN_POINT('',(-24.,0.,0.));
#981=CARTESIAN_POINT('',(-24.,0.,0.));
#982=CARTESIAN_POINT('',(-24.,0.,5.));
#983=CARTESIAN_POINT('',(-24.,0.,5.));
#984=CARTESIAN_POINT('',(-24.,0.,5.));
#985=CARTESIAN_POINT('',(-24.,0.,5.));
#986=CARTESIAN_POINT('',(24.,-25.,0.));
#987=CARTESIAN_POINT('',(24.,0.,0.));
#988=CARTESIAN_POINT('',(24.,0.,5.));
#989=CARTESIAN_POINT('',(24.,0.,5.));
#990=CARTESIAN_POINT('',(24.,-25.,5.));
#991=CARTESIAN_POINT('',(24.,-25.,5.));
#992=CARTESIAN_POINT('',(-21.5,-23.,0.));
#993=CARTESIAN_POINT('',(-21.5,-23.,5.));
#994=CARTESIAN_POINT('',(-21.5,-23.,5.));
#995=CARTESIAN_POINT('',(24.,0.,0.));
#996=CARTESIAN_POINT('',(24.,0.,5.));
#997=CARTESIAN_POINT('',(24.,0.,5.));
#998=CARTESIAN_POINT('',(20.5,-23.,0.));
#999=CARTESIAN_POINT('',(20.5,-23.,5.));
#1000=CARTESIAN_POINT('',(20.5,-23.,5.));
#1001=CARTESIAN_POINT('',(-21.5,-2.,5.));
#1002=CARTESIAN_POINT('',(-21.5,-2.,0.));
#1003=CARTESIAN_POINT('',(18.5,-13.5,2.));
#1004=CARTESIAN_POINT('',(18.5,-2.,2.));
#1005=CARTESIAN_POINT('',(18.,-2.5,1.5));
#1006=CARTESIAN_POINT('',(18.5,-13.5,2.));
#1007=CARTESIAN_POINT('',(18.5,-13.5,3.));
#1008=CARTESIAN_POINT('',(18.5,-2.,3.));
#1009=CARTESIAN_POINT('',(18.5,-2.,2.5));
#1010=CARTESIAN_POINT('',(18.5,-13.5,2.));
#1011=CARTESIAN_POINT('',(3.46944695195361E-15,-2.,2.));
#1012=CARTESIAN_POINT('',(-18.5,-2.,2.));
#1013=CARTESIAN_POINT('',(-18.,-2.5,1.5));
#1014=CARTESIAN_POINT('',(3.45669439018427E-15,-2.,2.));
#1015=CARTESIAN_POINT('',(-18.5,-13.5,2.));
#1016=CARTESIAN_POINT('',(-18.5,-13.5,2.));
#1017=CARTESIAN_POINT('',(3.46944695195361E-15,-2.,3.));
#1018=CARTESIAN_POINT('',(-18.5,-2.,3.));
#1019=CARTESIAN_POINT('',(-18.5,-2.,2.5));
#1020=CARTESIAN_POINT('',(3.45669439018427E-15,-2.,2.));
#1021=CARTESIAN_POINT('',(-18.5,-13.5,3.));
#1022=CARTESIAN_POINT('',(-18.5,-13.5,3.));
#1023=CARTESIAN_POINT('',(-18.5,-13.5,2.));
#1024=MECHANICAL_DESIGN_GEOMETRIC_PRESENTATION_REPRESENTATION('',(#24),
#1025);
#1025=(
GEOMETRIC_REPRESENTATION_CONTEXT(3)
GLOBAL_UNCERTAINTY_ASSIGNED_CONTEXT((#1026))
GLOBAL_UNIT_ASSIGNED_CONTEXT((#1032,#1028,#1027))
REPRESENTATION_CONTEXT('A09_Sensor-Rahmen','TOP_LEVEL_ASSEMBLY_PART')
);
#1026=UNCERTAINTY_MEASURE_WITH_UNIT(LENGTH_MEASURE(2.E-5),#1032,
'DISTANCE_ACCURACY_VALUE','Maximum Tolerance applied to model');
#1027=(
NAMED_UNIT(*)
SI_UNIT($,.STERADIAN.)
SOLID_ANGLE_UNIT()
);
#1028=(
CONVERSION_BASED_UNIT('DEGREE',#1030)
NAMED_UNIT(#1029)
PLANE_ANGLE_UNIT()
);
#1029=DIMENSIONAL_EXPONENTS(0.,0.,0.,0.,0.,0.,0.);
#1030=PLANE_ANGLE_MEASURE_WITH_UNIT(PLANE_ANGLE_MEASURE(0.0174532925),#1031);
#1031=(
NAMED_UNIT(*)
PLANE_ANGLE_UNIT()
SI_UNIT($,.RADIAN.)
);
#1032=(
LENGTH_UNIT()
NAMED_UNIT(*)
SI_UNIT(.MILLI.,.METRE.)
);
ENDSEC;
END-ISO-10303-21;
