ISO-10303-21;
HEADER;
/* Generated by software containing ST-Developer
 * from STEP Tools, Inc. (www.steptools.com) 
 */
/* OPTION: using custom schema-name function */

FILE_DESCRIPTION(
/* description */ (''),
/* implementation_level */ '2;1');

FILE_NAME(
/* name */ 'A10_Sensor-St\X\FCtze.stp',
/* time_stamp */ '2026-09-06T09:26:11+02:00',
/* author */ (''),
/* organization */ (''),
/* preprocessor_version */ 'ST-DEVELOPER v20',
/* originating_system */ 'SIEMENS PLM Software NX2406.3002',
/* authorisation */ '');

FILE_SCHEMA (('AUTOMOTIVE_DESIGN { 1 0 10303 214 3 1 1 1 }'));
ENDSEC;

DATA;
#10=SHAPE_REPRESENTATION_RELATIONSHIP('None',
'relationship between A10_Sensor-St\X\FCtze-None and A10_Sensor-St\X\FC
tze-None',#22,#11);
#11=ADVANCED_BREP_SHAPE_REPRESENTATION('A10_Sensor-St\X\FCtze-None',(#32),
#2033);
#12=SHAPE_DEFINITION_REPRESENTATION(#13,#22);
#13=PRODUCT_DEFINITION_SHAPE('','',#14);
#14=PRODUCT_DEFINITION(' ','',#16,#15);
#15=PRODUCT_DEFINITION_CONTEXT('part definition',#21,'design');
#16=PRODUCT_DEFINITION_FORMATION_WITH_SPECIFIED_SOURCE(' ',' ',#18,
 .NOT_KNOWN.);
#17=PRODUCT_RELATED_PRODUCT_CATEGORY('part','',(#18));
#18=PRODUCT('A10_Sensor-St\X\FCtze','A10_Sensor-St\X\FCtze',' ',(#19));
#19=PRODUCT_CONTEXT(' ',#21,'mechanical');
#20=APPLICATION_PROTOCOL_DEFINITION('international standard',
'automotive_design',2010,#21);
#21=APPLICATION_CONTEXT(
'core data for automotive mechanical design processes');
#22=SHAPE_REPRESENTATION('A10_Sensor-St\X\FCtze-None',(#1232),#2033);
#23=PRESENTATION_LAYER_ASSIGNMENT('1','Layer 1',(#32));
#24=STYLED_ITEM('',(#25),#32);
#25=PRESENTATION_STYLE_ASSIGNMENT((#26));
#26=SURFACE_STYLE_USAGE(.BOTH.,#27);
#27=SURFACE_SIDE_STYLE('',(#28));
#28=SURFACE_STYLE_FILL_AREA(#29);
#29=FILL_AREA_STYLE('',(#30));
#30=FILL_AREA_STYLE_COLOUR('',#31);
#31=COLOUR_RGB('medium steel',0.596078431372549,0.666666666666667,0.686274509803922);
#32=MANIFOLD_SOLID_BREP('BOSS-EXTRUDE4',#33);
#33=CLOSED_SHELL('',(#104,#105,#106,#107,#108,#109,#110,#111,#112,#113,
#114,#115,#116,#117,#118,#119,#120,#121,#122,#123,#124,#125,#126,#127,#128,
#129,#130,#131,#132,#133,#134,#135,#136,#137,#138,#139,#140,#141,#142,#143,
#144,#145,#146,#147,#148,#149,#150,#151,#152,#153,#154,#155,#156,#157,#158,
#159,#160,#161,#162,#163));
#34=FACE_BOUND('',#300,.T.);
#35=FACE_BOUND('',#301,.T.);
#36=FACE_BOUND('',#302,.T.);
#37=FACE_BOUND('',#322,.T.);
#38=FACE_BOUND('',#323,.T.);
#39=FACE_BOUND('',#324,.T.);
#40=SURFACE_OF_LINEAR_EXTRUSION('',#87,#1171);
#41=SURFACE_OF_LINEAR_EXTRUSION('',#91,#1173);
#42=SURFACE_OF_LINEAR_EXTRUSION('',#98,#1230);
#43=SURFACE_OF_LINEAR_EXTRUSION('',#99,#1231);
#44=CYLINDRICAL_SURFACE('',#1255,1.);
#45=CYLINDRICAL_SURFACE('',#1258,1.);
#46=CYLINDRICAL_SURFACE('',#1261,1.);
#47=CYLINDRICAL_SURFACE('',#1264,1.);
#48=CYLINDRICAL_SURFACE('',#1267,1.);
#49=CYLINDRICAL_SURFACE('',#1270,1.);
#50=CYLINDRICAL_SURFACE('',#1273,1.);
#51=CYLINDRICAL_SURFACE('',#1276,1.);
#52=CYLINDRICAL_SURFACE('',#1288,1.6);
#53=CYLINDRICAL_SURFACE('',#1290,1.6);
#54=CYLINDRICAL_SURFACE('',#1311,1.6);
#55=CYLINDRICAL_SURFACE('',#1312,1.6);
#56=CIRCLE('',#1253,1.);
#57=CIRCLE('',#1254,1.);
#58=CIRCLE('',#1256,1.);
#59=CIRCLE('',#1257,1.);
#60=CIRCLE('',#1259,1.);
#61=CIRCLE('',#1260,1.);
#62=CIRCLE('',#1262,1.);
#63=CIRCLE('',#1263,1.);
#64=CIRCLE('',#1265,1.);
#65=CIRCLE('',#1266,1.);
#66=CIRCLE('',#1268,1.);
#67=CIRCLE('',#1269,1.);
#68=CIRCLE('',#1271,1.);
#69=CIRCLE('',#1272,1.);
#70=CIRCLE('',#1274,1.);
#71=CIRCLE('',#1275,1.);
#72=CIRCLE('',#1281,1.6);
#73=CIRCLE('',#1282,1.6);
#74=CIRCLE('',#1283,1.6);
#75=CIRCLE('',#1284,1.6);
#76=CIRCLE('',#1287,1.6);
#77=CIRCLE('',#1289,1.6);
#78=CIRCLE('',#1307,1.6);
#79=CIRCLE('',#1308,1.6);
#80=(
BOUNDED_CURVE()
B_SPLINE_CURVE(3,(#1710,#1711,#1712,#1713),.UNSPECIFIED.,.F.,.F.)
B_SPLINE_CURVE_WITH_KNOTS((4,4),(0.,1.),.UNSPECIFIED.)
CURVE()
GEOMETRIC_REPRESENTATION_ITEM()
RATIONAL_B_SPLINE_CURVE((1.,0.99998283292614,0.99998283292614,1.))
REPRESENTATION_ITEM('')
);
#81=(
BOUNDED_CURVE()
B_SPLINE_CURVE(3,(#1727,#1728,#1729,#1730),.UNSPECIFIED.,.F.,.F.)
B_SPLINE_CURVE_WITH_KNOTS((4,4),(0.,1.),.UNSPECIFIED.)
CURVE()
GEOMETRIC_REPRESENTATION_ITEM()
RATIONAL_B_SPLINE_CURVE((1.,0.99998283292614,0.99998283292614,1.))
REPRESENTATION_ITEM('')
);
#82=(
BOUNDED_CURVE()
B_SPLINE_CURVE(3,(#1740,#1741,#1742,#1743),.UNSPECIFIED.,.F.,.F.)
B_SPLINE_CURVE_WITH_KNOTS((4,4),(0.,1.),.UNSPECIFIED.)
CURVE()
GEOMETRIC_REPRESENTATION_ITEM()
RATIONAL_B_SPLINE_CURVE((1.,0.99998283292614,0.99998283292614,1.))
REPRESENTATION_ITEM('')
);
#83=(
BOUNDED_CURVE()
B_SPLINE_CURVE(3,(#1757,#1758,#1759,#1760),.UNSPECIFIED.,.F.,.F.)
B_SPLINE_CURVE_WITH_KNOTS((4,4),(0.,1.),.UNSPECIFIED.)
CURVE()
GEOMETRIC_REPRESENTATION_ITEM()
RATIONAL_B_SPLINE_CURVE((1.,0.99998283292614,0.99998283292614,1.))
REPRESENTATION_ITEM('')
);
#84=(
BOUNDED_CURVE()
B_SPLINE_CURVE(3,(#1845,#1846,#1847,#1848),.UNSPECIFIED.,.F.,.F.)
B_SPLINE_CURVE_WITH_KNOTS((4,4),(0.,1.),.UNSPECIFIED.)
CURVE()
GEOMETRIC_REPRESENTATION_ITEM()
RATIONAL_B_SPLINE_CURVE((1.,0.815636653230338,0.815636653230338,1.))
REPRESENTATION_ITEM('')
);
#85=(
BOUNDED_CURVE()
B_SPLINE_CURVE(3,(#1849,#1850,#1851,#1852),.UNSPECIFIED.,.F.,.F.)
B_SPLINE_CURVE_WITH_KNOTS((4,4),(0.,1.),.UNSPECIFIED.)
CURVE()
GEOMETRIC_REPRESENTATION_ITEM()
RATIONAL_B_SPLINE_CURVE((1.,0.983685981819421,0.983685981819421,1.))
REPRESENTATION_ITEM('')
);
#86=(
BOUNDED_CURVE()
B_SPLINE_CURVE(3,(#1853,#1854,#1855,#1856),.UNSPECIFIED.,.F.,.F.)
B_SPLINE_CURVE_WITH_KNOTS((4,4),(0.,1.),.UNSPECIFIED.)
CURVE()
GEOMETRIC_REPRESENTATION_ITEM()
RATIONAL_B_SPLINE_CURVE((1.,0.923044337179504,0.923044337179504,1.))
REPRESENTATION_ITEM('')
);
#87=(
BOUNDED_CURVE()
B_SPLINE_CURVE(3,(#1857,#1858,#1859,#1860),.UNSPECIFIED.,.F.,.F.)
B_SPLINE_CURVE_WITH_KNOTS((4,4),(0.,1.),.UNSPECIFIED.)
CURVE()
GEOMETRIC_REPRESENTATION_ITEM()
RATIONAL_B_SPLINE_CURVE((1.,0.815636653230338,0.815636653230338,1.))
REPRESENTATION_ITEM('')
);
#88=(
BOUNDED_CURVE()
B_SPLINE_CURVE(3,(#1864,#1865,#1866,#1867),.UNSPECIFIED.,.F.,.F.)
B_SPLINE_CURVE_WITH_KNOTS((4,4),(0.,1.),.UNSPECIFIED.)
CURVE()
GEOMETRIC_REPRESENTATION_ITEM()
RATIONAL_B_SPLINE_CURVE((1.,0.923044337179504,0.923044337179504,1.))
REPRESENTATION_ITEM('')
);
#89=(
BOUNDED_CURVE()
B_SPLINE_CURVE(3,(#1868,#1869,#1870,#1871),.UNSPECIFIED.,.F.,.F.)
B_SPLINE_CURVE_WITH_KNOTS((4,4),(0.,1.),.UNSPECIFIED.)
CURVE()
GEOMETRIC_REPRESENTATION_ITEM()
RATIONAL_B_SPLINE_CURVE((1.,0.983685981819421,0.983685981819421,1.))
REPRESENTATION_ITEM('')
);
#90=(
BOUNDED_CURVE()
B_SPLINE_CURVE(3,(#1872,#1873,#1874,#1875),.UNSPECIFIED.,.F.,.F.)
B_SPLINE_CURVE_WITH_KNOTS((4,4),(0.,1.),.UNSPECIFIED.)
CURVE()
GEOMETRIC_REPRESENTATION_ITEM()
RATIONAL_B_SPLINE_CURVE((1.,0.815636653230338,0.815636653230338,1.))
REPRESENTATION_ITEM('')
);
#91=(
BOUNDED_CURVE()
B_SPLINE_CURVE(3,(#1876,#1877,#1878,#1879),.UNSPECIFIED.,.F.,.F.)
B_SPLINE_CURVE_WITH_KNOTS((4,4),(0.,1.),.UNSPECIFIED.)
CURVE()
GEOMETRIC_REPRESENTATION_ITEM()
RATIONAL_B_SPLINE_CURVE((1.,0.815636653230338,0.815636653230338,1.))
REPRESENTATION_ITEM('')
);
#92=(
BOUNDED_CURVE()
B_SPLINE_CURVE(3,(#1883,#1884,#1885,#1886),.UNSPECIFIED.,.F.,.F.)
B_SPLINE_CURVE_WITH_KNOTS((4,4),(0.,1.),.UNSPECIFIED.)
CURVE()
GEOMETRIC_REPRESENTATION_ITEM()
RATIONAL_B_SPLINE_CURVE((1.,0.983685981819421,0.983685981819421,1.))
REPRESENTATION_ITEM('')
);
#93=(
BOUNDED_CURVE()
B_SPLINE_CURVE(3,(#1953,#1954,#1955,#1956),.UNSPECIFIED.,.F.,.F.)
B_SPLINE_CURVE_WITH_KNOTS((4,4),(0.,1.),.UNSPECIFIED.)
CURVE()
GEOMETRIC_REPRESENTATION_ITEM()
RATIONAL_B_SPLINE_CURVE((1.,0.815636653230338,0.815636653230338,1.))
REPRESENTATION_ITEM('')
);
#94=(
BOUNDED_CURVE()
B_SPLINE_CURVE(3,(#1982,#1983,#1984,#1985),.UNSPECIFIED.,.F.,.F.)
B_SPLINE_CURVE_WITH_KNOTS((4,4),(0.,1.),.UNSPECIFIED.)
CURVE()
GEOMETRIC_REPRESENTATION_ITEM()
RATIONAL_B_SPLINE_CURVE((1.,0.815636653230338,0.815636653230338,1.))
REPRESENTATION_ITEM('')
);
#95=(
BOUNDED_CURVE()
B_SPLINE_CURVE(3,(#2001,#2002,#2003,#2004),.UNSPECIFIED.,.F.,.F.)
B_SPLINE_CURVE_WITH_KNOTS((4,4),(0.,1.),.UNSPECIFIED.)
CURVE()
GEOMETRIC_REPRESENTATION_ITEM()
RATIONAL_B_SPLINE_CURVE((1.,0.983685981819421,0.983685981819421,1.))
REPRESENTATION_ITEM('')
);
#96=(
BOUNDED_CURVE()
B_SPLINE_CURVE(3,(#2006,#2007,#2008,#2009),.UNSPECIFIED.,.F.,.F.)
B_SPLINE_CURVE_WITH_KNOTS((4,4),(0.,1.),.UNSPECIFIED.)
CURVE()
GEOMETRIC_REPRESENTATION_ITEM()
RATIONAL_B_SPLINE_CURVE((1.,0.923044337179504,0.923044337179504,1.))
REPRESENTATION_ITEM('')
);
#97=(
BOUNDED_CURVE()
B_SPLINE_CURVE(3,(#2017,#2018,#2019,#2020),.UNSPECIFIED.,.F.,.F.)
B_SPLINE_CURVE_WITH_KNOTS((4,4),(0.,1.),.UNSPECIFIED.)
CURVE()
GEOMETRIC_REPRESENTATION_ITEM()
RATIONAL_B_SPLINE_CURVE((1.,0.923044337179504,0.923044337179504,1.))
REPRESENTATION_ITEM('')
);
#98=(
BOUNDED_CURVE()
B_SPLINE_CURVE(3,(#2024,#2025,#2026,#2027),.UNSPECIFIED.,.F.,.F.)
B_SPLINE_CURVE_WITH_KNOTS((4,4),(0.,1.),.UNSPECIFIED.)
CURVE()
GEOMETRIC_REPRESENTATION_ITEM()
RATIONAL_B_SPLINE_CURVE((1.,0.815636653230338,0.815636653230338,1.))
REPRESENTATION_ITEM('')
);
#99=(
BOUNDED_CURVE()
B_SPLINE_CURVE(3,(#2028,#2029,#2030,#2031),.UNSPECIFIED.,.F.,.F.)
B_SPLINE_CURVE_WITH_KNOTS((4,4),(0.,1.),.UNSPECIFIED.)
CURVE()
GEOMETRIC_REPRESENTATION_ITEM()
RATIONAL_B_SPLINE_CURVE((1.,0.815636653230338,0.815636653230338,1.))
REPRESENTATION_ITEM('')
);
#100=B_SPLINE_CURVE_WITH_KNOTS('',3,(#1662,#1663,#1664,#1665),
 .UNSPECIFIED.,.F.,.F.,(4,4),(0.,1.),.UNSPECIFIED.);
#101=B_SPLINE_CURVE_WITH_KNOTS('',3,(#1679,#1680,#1681,#1682),
 .UNSPECIFIED.,.F.,.F.,(4,4),(0.,1.),.UNSPECIFIED.);
#102=B_SPLINE_CURVE_WITH_KNOTS('',3,(#1686,#1687,#1688,#1689),
 .UNSPECIFIED.,.F.,.F.,(4,4),(0.,1.),.UNSPECIFIED.);
#103=B_SPLINE_CURVE_WITH_KNOTS('',3,(#1703,#1704,#1705,#1706),
 .UNSPECIFIED.,.F.,.F.,(4,4),(0.,1.),.UNSPECIFIED.);
#104=ADVANCED_FACE('NONE',(#208),#164,.F.);
#105=ADVANCED_FACE('NONE',(#209),#165,.T.);
#106=ADVANCED_FACE('NONE',(#210),#166,.T.);
#107=ADVANCED_FACE('NONE',(#211),#167,.T.);
#108=ADVANCED_FACE('NONE',(#212),#168,.F.);
#109=ADVANCED_FACE('NONE',(#213),#169,.F.);
#110=ADVANCED_FACE('NONE',(#214),#170,.F.);
#111=ADVANCED_FACE('NONE',(#215),#171,.T.);
#112=ADVANCED_FACE('NONE',(#216),#172,.T.);
#113=ADVANCED_FACE('NONE',(#217),#173,.T.);
#114=ADVANCED_FACE('NONE',(#218),#174,.T.);
#115=ADVANCED_FACE('NONE',(#219),#175,.T.);
#116=ADVANCED_FACE('NONE',(#220),#176,.T.);
#117=ADVANCED_FACE('NONE',(#221),#177,.T.);
#118=ADVANCED_FACE('NONE',(#222),#178,.T.);
#119=ADVANCED_FACE('NONE',(#223),#179,.T.);
#120=ADVANCED_FACE('NONE',(#224),#180,.T.);
#121=ADVANCED_FACE('NONE',(#225),#181,.T.);
#122=ADVANCED_FACE('NONE',(#226),#182,.T.);
#123=ADVANCED_FACE('NONE',(#227),#183,.T.);
#124=ADVANCED_FACE('NONE',(#228),#44,.T.);
#125=ADVANCED_FACE('NONE',(#229),#45,.T.);
#126=ADVANCED_FACE('NONE',(#230),#46,.T.);
#127=ADVANCED_FACE('NONE',(#231),#47,.T.);
#128=ADVANCED_FACE('NONE',(#232),#48,.T.);
#129=ADVANCED_FACE('NONE',(#233),#49,.T.);
#130=ADVANCED_FACE('NONE',(#234),#50,.T.);
#131=ADVANCED_FACE('NONE',(#235),#51,.T.);
#132=ADVANCED_FACE('NONE',(#236),#40,.F.);
#133=ADVANCED_FACE('NONE',(#237),#41,.F.);
#134=ADVANCED_FACE('NONE',(#238),#184,.F.);
#135=ADVANCED_FACE('NONE',(#239),#185,.T.);
#136=ADVANCED_FACE('NONE',(#240),#186,.T.);
#137=ADVANCED_FACE('NONE',(#241),#187,.F.);
#138=ADVANCED_FACE('NONE',(#34,#35,#36),#188,.F.);
#139=ADVANCED_FACE('NONE',(#242),#189,.T.);
#140=ADVANCED_FACE('NONE',(#243),#52,.F.);
#141=ADVANCED_FACE('NONE',(#244),#53,.F.);
#142=ADVANCED_FACE('NONE',(#245),#190,.F.);
#143=ADVANCED_FACE('NONE',(#246),#191,.T.);
#144=ADVANCED_FACE('NONE',(#247),#192,.T.);
#145=ADVANCED_FACE('NONE',(#248),#193,.F.);
#146=ADVANCED_FACE('NONE',(#249),#194,.F.);
#147=ADVANCED_FACE('NONE',(#250),#195,.F.);
#148=ADVANCED_FACE('NONE',(#251),#196,.T.);
#149=ADVANCED_FACE('NONE',(#252),#197,.F.);
#150=ADVANCED_FACE('NONE',(#253),#198,.F.);
#151=ADVANCED_FACE('NONE',(#254),#199,.T.);
#152=ADVANCED_FACE('NONE',(#255),#200,.T.);
#153=ADVANCED_FACE('NONE',(#256),#201,.F.);
#154=ADVANCED_FACE('NONE',(#257),#202,.T.);
#155=ADVANCED_FACE('NONE',(#258),#203,.F.);
#156=ADVANCED_FACE('NONE',(#259),#204,.F.);
#157=ADVANCED_FACE('NONE',(#260),#205,.T.);
#158=ADVANCED_FACE('NONE',(#37,#38,#39),#206,.T.);
#159=ADVANCED_FACE('NONE',(#261),#207,.T.);
#160=ADVANCED_FACE('NONE',(#262),#54,.F.);
#161=ADVANCED_FACE('NONE',(#263),#55,.F.);
#162=ADVANCED_FACE('NONE',(#264),#42,.F.);
#163=ADVANCED_FACE('NONE',(#265),#43,.F.);
#164=PLANE('',#1233);
#165=PLANE('',#1234);
#166=PLANE('',#1235);
#167=PLANE('',#1236);
#168=PLANE('',#1237);
#169=PLANE('',#1238);
#170=PLANE('',#1239);
#171=PLANE('',#1240);
#172=PLANE('',#1241);
#173=PLANE('',#1242);
#174=PLANE('',#1243);
#175=PLANE('',#1244);
#176=PLANE('',#1245);
#177=PLANE('',#1246);
#178=PLANE('',#1247);
#179=PLANE('',#1248);
#180=PLANE('',#1249);
#181=PLANE('',#1250);
#182=PLANE('',#1251);
#183=PLANE('',#1252);
#184=PLANE('',#1277);
#185=PLANE('',#1278);
#186=PLANE('',#1279);
#187=PLANE('',#1280);
#188=PLANE('',#1285);
#189=PLANE('',#1286);
#190=PLANE('',#1291);
#191=PLANE('',#1292);
#192=PLANE('',#1293);
#193=PLANE('',#1294);
#194=PLANE('',#1295);
#195=PLANE('',#1296);
#196=PLANE('',#1297);
#197=PLANE('',#1298);
#198=PLANE('',#1299);
#199=PLANE('',#1300);
#200=PLANE('',#1301);
#201=PLANE('',#1302);
#202=PLANE('',#1303);
#203=PLANE('',#1304);
#204=PLANE('',#1305);
#205=PLANE('',#1306);
#206=PLANE('',#1309);
#207=PLANE('',#1310);
#208=FACE_OUTER_BOUND('',#266,.T.);
#209=FACE_OUTER_BOUND('',#267,.T.);
#210=FACE_OUTER_BOUND('',#268,.T.);
#211=FACE_OUTER_BOUND('',#269,.T.);
#212=FACE_OUTER_BOUND('',#270,.T.);
#213=FACE_OUTER_BOUND('',#271,.T.);
#214=FACE_OUTER_BOUND('',#272,.T.);
#215=FACE_OUTER_BOUND('',#273,.T.);
#216=FACE_OUTER_BOUND('',#274,.T.);
#217=FACE_OUTER_BOUND('',#275,.T.);
#218=FACE_OUTER_BOUND('',#276,.T.);
#219=FACE_OUTER_BOUND('',#277,.T.);
#220=FACE_OUTER_BOUND('',#278,.T.);
#221=FACE_OUTER_BOUND('',#279,.T.);
#222=FACE_OUTER_BOUND('',#280,.T.);
#223=FACE_OUTER_BOUND('',#281,.T.);
#224=FACE_OUTER_BOUND('',#282,.T.);
#225=FACE_OUTER_BOUND('',#283,.T.);
#226=FACE_OUTER_BOUND('',#284,.T.);
#227=FACE_OUTER_BOUND('',#285,.T.);
#228=FACE_OUTER_BOUND('',#286,.T.);
#229=FACE_OUTER_BOUND('',#287,.T.);
#230=FACE_OUTER_BOUND('',#288,.T.);
#231=FACE_OUTER_BOUND('',#289,.T.);
#232=FACE_OUTER_BOUND('',#290,.T.);
#233=FACE_OUTER_BOUND('',#291,.T.);
#234=FACE_OUTER_BOUND('',#292,.T.);
#235=FACE_OUTER_BOUND('',#293,.T.);
#236=FACE_OUTER_BOUND('',#294,.T.);
#237=FACE_OUTER_BOUND('',#295,.T.);
#238=FACE_OUTER_BOUND('',#296,.T.);
#239=FACE_OUTER_BOUND('',#297,.T.);
#240=FACE_OUTER_BOUND('',#298,.T.);
#241=FACE_OUTER_BOUND('',#299,.T.);
#242=FACE_OUTER_BOUND('',#303,.T.);
#243=FACE_OUTER_BOUND('',#304,.T.);
#244=FACE_OUTER_BOUND('',#305,.T.);
#245=FACE_OUTER_BOUND('',#306,.T.);
#246=FACE_OUTER_BOUND('',#307,.T.);
#247=FACE_OUTER_BOUND('',#308,.T.);
#248=FACE_OUTER_BOUND('',#309,.T.);
#249=FACE_OUTER_BOUND('',#310,.T.);
#250=FACE_OUTER_BOUND('',#311,.T.);
#251=FACE_OUTER_BOUND('',#312,.T.);
#252=FACE_OUTER_BOUND('',#313,.T.);
#253=FACE_OUTER_BOUND('',#314,.T.);
#254=FACE_OUTER_BOUND('',#315,.T.);
#255=FACE_OUTER_BOUND('',#316,.T.);
#256=FACE_OUTER_BOUND('',#317,.T.);
#257=FACE_OUTER_BOUND('',#318,.T.);
#258=FACE_OUTER_BOUND('',#319,.T.);
#259=FACE_OUTER_BOUND('',#320,.T.);
#260=FACE_OUTER_BOUND('',#321,.T.);
#261=FACE_OUTER_BOUND('',#325,.T.);
#262=FACE_OUTER_BOUND('',#326,.T.);
#263=FACE_OUTER_BOUND('',#327,.T.);
#264=FACE_OUTER_BOUND('',#328,.T.);
#265=FACE_OUTER_BOUND('',#329,.T.);
#266=EDGE_LOOP('',(#330,#331,#332));
#267=EDGE_LOOP('',(#333,#334,#335,#336));
#268=EDGE_LOOP('',(#337,#338,#339));
#269=EDGE_LOOP('',(#340,#341,#342,#343));
#270=EDGE_LOOP('',(#344,#345,#346));
#271=EDGE_LOOP('',(#347,#348,#349,#350));
#272=EDGE_LOOP('',(#351,#352,#353));
#273=EDGE_LOOP('',(#354,#355,#356,#357));
#274=EDGE_LOOP('',(#358,#359,#360,#361));
#275=EDGE_LOOP('',(#362,#363,#364,#365));
#276=EDGE_LOOP('',(#366,#367,#368,#369));
#277=EDGE_LOOP('',(#370,#371,#372,#373));
#278=EDGE_LOOP('',(#374,#375,#376,#377));
#279=EDGE_LOOP('',(#378,#379,#380,#381));
#280=EDGE_LOOP('',(#382,#383,#384,#385));
#281=EDGE_LOOP('',(#386,#387,#388,#389));
#282=EDGE_LOOP('',(#390,#391,#392,#393));
#283=EDGE_LOOP('',(#394,#395,#396,#397));
#284=EDGE_LOOP('',(#398,#399,#400,#401));
#285=EDGE_LOOP('',(#402,#403,#404,#405));
#286=EDGE_LOOP('',(#406,#407,#408,#409));
#287=EDGE_LOOP('',(#410,#411,#412,#413));
#288=EDGE_LOOP('',(#414,#415,#416,#417));
#289=EDGE_LOOP('',(#418,#419,#420,#421));
#290=EDGE_LOOP('',(#422,#423,#424,#425));
#291=EDGE_LOOP('',(#426,#427,#428,#429));
#292=EDGE_LOOP('',(#430,#431,#432,#433));
#293=EDGE_LOOP('',(#434,#435,#436,#437));
#294=EDGE_LOOP('',(#438,#439,#440,#441,#442,#443,#444,#445));
#295=EDGE_LOOP('',(#446,#447,#448,#449,#450,#451,#452,#453));
#296=EDGE_LOOP('',(#454,#455,#456,#457));
#297=EDGE_LOOP('',(#458,#459,#460,#461,#462,#463));
#298=EDGE_LOOP('',(#464,#465,#466,#467));
#299=EDGE_LOOP('',(#468,#469,#470,#471,#472,#473));
#300=EDGE_LOOP('',(#474,#475,#476,#477,#478,#479,#480,#481,#482,#483,#484,
#485));
#301=EDGE_LOOP('',(#486,#487));
#302=EDGE_LOOP('',(#488,#489));
#303=EDGE_LOOP('',(#490,#491,#492,#493));
#304=EDGE_LOOP('',(#494,#495,#496,#497));
#305=EDGE_LOOP('',(#498,#499,#500,#501));
#306=EDGE_LOOP('',(#502,#503,#504,#505,#506,#507,#508,#509,#510,#511,#512));
#307=EDGE_LOOP('',(#513,#514,#515,#516,#517,#518,#519,#520,#521,#522,#523));
#308=EDGE_LOOP('',(#524,#525,#526,#527,#528,#529,#530,#531,#532,#533,#534));
#309=EDGE_LOOP('',(#535,#536,#537,#538));
#310=EDGE_LOOP('',(#539,#540,#541,#542));
#311=EDGE_LOOP('',(#543,#544,#545,#546));
#312=EDGE_LOOP('',(#547,#548,#549,#550,#551,#552,#553,#554,#555,#556,#557));
#313=EDGE_LOOP('',(#558,#559,#560,#561,#562,#563,#564,#565,#566,#567,#568));
#314=EDGE_LOOP('',(#569,#570,#571,#572,#573,#574,#575,#576,#577,#578,#579));
#315=EDGE_LOOP('',(#580,#581,#582,#583));
#316=EDGE_LOOP('',(#584,#585,#586,#587));
#317=EDGE_LOOP('',(#588,#589,#590,#591));
#318=EDGE_LOOP('',(#592,#593,#594,#595));
#319=EDGE_LOOP('',(#596,#597,#598,#599,#600,#601));
#320=EDGE_LOOP('',(#602,#603,#604,#605,#606,#607,#608,#609,#610,#611,#612));
#321=EDGE_LOOP('',(#613,#614,#615,#616,#617,#618));
#322=EDGE_LOOP('',(#619,#620));
#323=EDGE_LOOP('',(#621,#622));
#324=EDGE_LOOP('',(#623,#624,#625,#626,#627,#628,#629,#630,#631,#632,#633,
#634,#635,#636,#637,#638,#639,#640,#641,#642));
#325=EDGE_LOOP('',(#643,#644,#645,#646,#647,#648,#649,#650,#651,#652,#653));
#326=EDGE_LOOP('',(#654,#655,#656,#657));
#327=EDGE_LOOP('',(#658,#659,#660,#661));
#328=EDGE_LOOP('',(#662,#663,#664,#665,#666,#667,#668,#669));
#329=EDGE_LOOP('',(#670,#671,#672,#673,#674,#675,#676,#677));
#330=ORIENTED_EDGE('',*,*,#794,.F.);
#331=ORIENTED_EDGE('',*,*,#795,.F.);
#332=ORIENTED_EDGE('',*,*,#796,.F.);
#333=ORIENTED_EDGE('',*,*,#797,.F.);
#334=ORIENTED_EDGE('',*,*,#798,.F.);
#335=ORIENTED_EDGE('',*,*,#794,.T.);
#336=ORIENTED_EDGE('',*,*,#799,.T.);
#337=ORIENTED_EDGE('',*,*,#800,.F.);
#338=ORIENTED_EDGE('',*,*,#801,.F.);
#339=ORIENTED_EDGE('',*,*,#802,.F.);
#340=ORIENTED_EDGE('',*,*,#803,.F.);
#341=ORIENTED_EDGE('',*,*,#804,.F.);
#342=ORIENTED_EDGE('',*,*,#802,.T.);
#343=ORIENTED_EDGE('',*,*,#805,.T.);
#344=ORIENTED_EDGE('',*,*,#806,.T.);
#345=ORIENTED_EDGE('',*,*,#807,.T.);
#346=ORIENTED_EDGE('',*,*,#808,.T.);
#347=ORIENTED_EDGE('',*,*,#809,.T.);
#348=ORIENTED_EDGE('',*,*,#810,.F.);
#349=ORIENTED_EDGE('',*,*,#806,.F.);
#350=ORIENTED_EDGE('',*,*,#811,.T.);
#351=ORIENTED_EDGE('',*,*,#812,.F.);
#352=ORIENTED_EDGE('',*,*,#813,.F.);
#353=ORIENTED_EDGE('',*,*,#814,.F.);
#354=ORIENTED_EDGE('',*,*,#815,.F.);
#355=ORIENTED_EDGE('',*,*,#816,.F.);
#356=ORIENTED_EDGE('',*,*,#812,.T.);
#357=ORIENTED_EDGE('',*,*,#817,.T.);
#358=ORIENTED_EDGE('',*,*,#818,.F.);
#359=ORIENTED_EDGE('',*,*,#819,.T.);
#360=ORIENTED_EDGE('',*,*,#820,.F.);
#361=ORIENTED_EDGE('',*,*,#821,.F.);
#362=ORIENTED_EDGE('',*,*,#822,.F.);
#363=ORIENTED_EDGE('',*,*,#823,.T.);
#364=ORIENTED_EDGE('',*,*,#824,.F.);
#365=ORIENTED_EDGE('',*,*,#825,.F.);
#366=ORIENTED_EDGE('',*,*,#826,.F.);
#367=ORIENTED_EDGE('',*,*,#827,.T.);
#368=ORIENTED_EDGE('',*,*,#828,.F.);
#369=ORIENTED_EDGE('',*,*,#829,.F.);
#370=ORIENTED_EDGE('',*,*,#830,.F.);
#371=ORIENTED_EDGE('',*,*,#831,.T.);
#372=ORIENTED_EDGE('',*,*,#832,.F.);
#373=ORIENTED_EDGE('',*,*,#833,.F.);
#374=ORIENTED_EDGE('',*,*,#834,.T.);
#375=ORIENTED_EDGE('',*,*,#821,.T.);
#376=ORIENTED_EDGE('',*,*,#835,.T.);
#377=ORIENTED_EDGE('',*,*,#836,.F.);
#378=ORIENTED_EDGE('',*,*,#837,.F.);
#379=ORIENTED_EDGE('',*,*,#838,.F.);
#380=ORIENTED_EDGE('',*,*,#836,.T.);
#381=ORIENTED_EDGE('',*,*,#839,.T.);
#382=ORIENTED_EDGE('',*,*,#840,.T.);
#383=ORIENTED_EDGE('',*,*,#825,.T.);
#384=ORIENTED_EDGE('',*,*,#841,.T.);
#385=ORIENTED_EDGE('',*,*,#842,.F.);
#386=ORIENTED_EDGE('',*,*,#843,.F.);
#387=ORIENTED_EDGE('',*,*,#844,.F.);
#388=ORIENTED_EDGE('',*,*,#842,.T.);
#389=ORIENTED_EDGE('',*,*,#845,.T.);
#390=ORIENTED_EDGE('',*,*,#846,.T.);
#391=ORIENTED_EDGE('',*,*,#829,.T.);
#392=ORIENTED_EDGE('',*,*,#847,.T.);
#393=ORIENTED_EDGE('',*,*,#848,.F.);
#394=ORIENTED_EDGE('',*,*,#849,.F.);
#395=ORIENTED_EDGE('',*,*,#850,.F.);
#396=ORIENTED_EDGE('',*,*,#848,.T.);
#397=ORIENTED_EDGE('',*,*,#851,.T.);
#398=ORIENTED_EDGE('',*,*,#852,.T.);
#399=ORIENTED_EDGE('',*,*,#833,.T.);
#400=ORIENTED_EDGE('',*,*,#853,.T.);
#401=ORIENTED_EDGE('',*,*,#854,.F.);
#402=ORIENTED_EDGE('',*,*,#855,.F.);
#403=ORIENTED_EDGE('',*,*,#856,.F.);
#404=ORIENTED_EDGE('',*,*,#854,.T.);
#405=ORIENTED_EDGE('',*,*,#857,.T.);
#406=ORIENTED_EDGE('',*,*,#858,.F.);
#407=ORIENTED_EDGE('',*,*,#859,.F.);
#408=ORIENTED_EDGE('',*,*,#860,.F.);
#409=ORIENTED_EDGE('',*,*,#861,.F.);
#410=ORIENTED_EDGE('',*,*,#862,.F.);
#411=ORIENTED_EDGE('',*,*,#863,.F.);
#412=ORIENTED_EDGE('',*,*,#864,.F.);
#413=ORIENTED_EDGE('',*,*,#865,.F.);
#414=ORIENTED_EDGE('',*,*,#866,.F.);
#415=ORIENTED_EDGE('',*,*,#867,.F.);
#416=ORIENTED_EDGE('',*,*,#868,.F.);
#417=ORIENTED_EDGE('',*,*,#869,.F.);
#418=ORIENTED_EDGE('',*,*,#870,.F.);
#419=ORIENTED_EDGE('',*,*,#871,.F.);
#420=ORIENTED_EDGE('',*,*,#872,.F.);
#421=ORIENTED_EDGE('',*,*,#873,.F.);
#422=ORIENTED_EDGE('',*,*,#874,.F.);
#423=ORIENTED_EDGE('',*,*,#875,.F.);
#424=ORIENTED_EDGE('',*,*,#876,.F.);
#425=ORIENTED_EDGE('',*,*,#877,.F.);
#426=ORIENTED_EDGE('',*,*,#878,.F.);
#427=ORIENTED_EDGE('',*,*,#879,.F.);
#428=ORIENTED_EDGE('',*,*,#880,.F.);
#429=ORIENTED_EDGE('',*,*,#881,.F.);
#430=ORIENTED_EDGE('',*,*,#882,.F.);
#431=ORIENTED_EDGE('',*,*,#883,.F.);
#432=ORIENTED_EDGE('',*,*,#884,.F.);
#433=ORIENTED_EDGE('',*,*,#885,.F.);
#434=ORIENTED_EDGE('',*,*,#886,.F.);
#435=ORIENTED_EDGE('',*,*,#887,.F.);
#436=ORIENTED_EDGE('',*,*,#888,.F.);
#437=ORIENTED_EDGE('',*,*,#889,.F.);
#438=ORIENTED_EDGE('',*,*,#890,.F.);
#439=ORIENTED_EDGE('',*,*,#891,.F.);
#440=ORIENTED_EDGE('',*,*,#869,.T.);
#441=ORIENTED_EDGE('',*,*,#892,.F.);
#442=ORIENTED_EDGE('',*,*,#857,.F.);
#443=ORIENTED_EDGE('',*,*,#853,.F.);
#444=ORIENTED_EDGE('',*,*,#832,.T.);
#445=ORIENTED_EDGE('',*,*,#893,.F.);
#446=ORIENTED_EDGE('',*,*,#894,.F.);
#447=ORIENTED_EDGE('',*,*,#895,.T.);
#448=ORIENTED_EDGE('',*,*,#818,.T.);
#449=ORIENTED_EDGE('',*,*,#834,.F.);
#450=ORIENTED_EDGE('',*,*,#838,.T.);
#451=ORIENTED_EDGE('',*,*,#896,.T.);
#452=ORIENTED_EDGE('',*,*,#883,.T.);
#453=ORIENTED_EDGE('',*,*,#897,.T.);
#454=ORIENTED_EDGE('',*,*,#898,.F.);
#455=ORIENTED_EDGE('',*,*,#887,.T.);
#456=ORIENTED_EDGE('',*,*,#899,.T.);
#457=ORIENTED_EDGE('',*,*,#885,.T.);
#458=ORIENTED_EDGE('',*,*,#843,.T.);
#459=ORIENTED_EDGE('',*,*,#900,.F.);
#460=ORIENTED_EDGE('',*,*,#878,.T.);
#461=ORIENTED_EDGE('',*,*,#901,.T.);
#462=ORIENTED_EDGE('',*,*,#860,.T.);
#463=ORIENTED_EDGE('',*,*,#902,.T.);
#464=ORIENTED_EDGE('',*,*,#903,.T.);
#465=ORIENTED_EDGE('',*,*,#877,.T.);
#466=ORIENTED_EDGE('',*,*,#904,.T.);
#467=ORIENTED_EDGE('',*,*,#873,.T.);
#468=ORIENTED_EDGE('',*,*,#905,.T.);
#469=ORIENTED_EDGE('',*,*,#855,.T.);
#470=ORIENTED_EDGE('',*,*,#892,.T.);
#471=ORIENTED_EDGE('',*,*,#868,.T.);
#472=ORIENTED_EDGE('',*,*,#906,.F.);
#473=ORIENTED_EDGE('',*,*,#864,.T.);
#474=ORIENTED_EDGE('',*,*,#907,.T.);
#475=ORIENTED_EDGE('',*,*,#908,.T.);
#476=ORIENTED_EDGE('',*,*,#909,.F.);
#477=ORIENTED_EDGE('',*,*,#910,.T.);
#478=ORIENTED_EDGE('',*,*,#911,.T.);
#479=ORIENTED_EDGE('',*,*,#912,.F.);
#480=ORIENTED_EDGE('',*,*,#913,.F.);
#481=ORIENTED_EDGE('',*,*,#914,.F.);
#482=ORIENTED_EDGE('',*,*,#915,.T.);
#483=ORIENTED_EDGE('',*,*,#916,.F.);
#484=ORIENTED_EDGE('',*,*,#917,.F.);
#485=ORIENTED_EDGE('',*,*,#918,.T.);
#486=ORIENTED_EDGE('',*,*,#919,.T.);
#487=ORIENTED_EDGE('',*,*,#920,.T.);
#488=ORIENTED_EDGE('',*,*,#921,.T.);
#489=ORIENTED_EDGE('',*,*,#922,.T.);
#490=ORIENTED_EDGE('',*,*,#908,.F.);
#491=ORIENTED_EDGE('',*,*,#923,.F.);
#492=ORIENTED_EDGE('',*,*,#924,.T.);
#493=ORIENTED_EDGE('',*,*,#925,.T.);
#494=ORIENTED_EDGE('',*,*,#926,.F.);
#495=ORIENTED_EDGE('',*,*,#927,.T.);
#496=ORIENTED_EDGE('',*,*,#928,.T.);
#497=ORIENTED_EDGE('',*,*,#922,.F.);
#498=ORIENTED_EDGE('',*,*,#929,.F.);
#499=ORIENTED_EDGE('',*,*,#930,.T.);
#500=ORIENTED_EDGE('',*,*,#931,.T.);
#501=ORIENTED_EDGE('',*,*,#920,.F.);
#502=ORIENTED_EDGE('',*,*,#932,.F.);
#503=ORIENTED_EDGE('',*,*,#803,.T.);
#504=ORIENTED_EDGE('',*,*,#933,.F.);
#505=ORIENTED_EDGE('',*,*,#822,.T.);
#506=ORIENTED_EDGE('',*,*,#840,.F.);
#507=ORIENTED_EDGE('',*,*,#844,.T.);
#508=ORIENTED_EDGE('',*,*,#902,.F.);
#509=ORIENTED_EDGE('',*,*,#859,.T.);
#510=ORIENTED_EDGE('',*,*,#934,.T.);
#511=ORIENTED_EDGE('',*,*,#909,.T.);
#512=ORIENTED_EDGE('',*,*,#925,.F.);
#513=ORIENTED_EDGE('',*,*,#899,.F.);
#514=ORIENTED_EDGE('',*,*,#886,.T.);
#515=ORIENTED_EDGE('',*,*,#935,.T.);
#516=ORIENTED_EDGE('',*,*,#910,.F.);
#517=ORIENTED_EDGE('',*,*,#934,.F.);
#518=ORIENTED_EDGE('',*,*,#858,.T.);
#519=ORIENTED_EDGE('',*,*,#936,.F.);
#520=ORIENTED_EDGE('',*,*,#880,.T.);
#521=ORIENTED_EDGE('',*,*,#937,.F.);
#522=ORIENTED_EDGE('',*,*,#897,.F.);
#523=ORIENTED_EDGE('',*,*,#882,.T.);
#524=ORIENTED_EDGE('',*,*,#835,.F.);
#525=ORIENTED_EDGE('',*,*,#820,.T.);
#526=ORIENTED_EDGE('',*,*,#938,.T.);
#527=ORIENTED_EDGE('',*,*,#809,.F.);
#528=ORIENTED_EDGE('',*,*,#939,.T.);
#529=ORIENTED_EDGE('',*,*,#940,.T.);
#530=ORIENTED_EDGE('',*,*,#911,.F.);
#531=ORIENTED_EDGE('',*,*,#935,.F.);
#532=ORIENTED_EDGE('',*,*,#889,.T.);
#533=ORIENTED_EDGE('',*,*,#941,.T.);
#534=ORIENTED_EDGE('',*,*,#839,.F.);
#535=ORIENTED_EDGE('',*,*,#912,.T.);
#536=ORIENTED_EDGE('',*,*,#940,.F.);
#537=ORIENTED_EDGE('',*,*,#942,.F.);
#538=ORIENTED_EDGE('',*,*,#943,.T.);
#539=ORIENTED_EDGE('',*,*,#913,.T.);
#540=ORIENTED_EDGE('',*,*,#943,.F.);
#541=ORIENTED_EDGE('',*,*,#944,.F.);
#542=ORIENTED_EDGE('',*,*,#945,.T.);
#543=ORIENTED_EDGE('',*,*,#914,.T.);
#544=ORIENTED_EDGE('',*,*,#945,.F.);
#545=ORIENTED_EDGE('',*,*,#946,.F.);
#546=ORIENTED_EDGE('',*,*,#947,.T.);
#547=ORIENTED_EDGE('',*,*,#948,.F.);
#548=ORIENTED_EDGE('',*,*,#830,.T.);
#549=ORIENTED_EDGE('',*,*,#852,.F.);
#550=ORIENTED_EDGE('',*,*,#856,.T.);
#551=ORIENTED_EDGE('',*,*,#905,.F.);
#552=ORIENTED_EDGE('',*,*,#863,.T.);
#553=ORIENTED_EDGE('',*,*,#949,.T.);
#554=ORIENTED_EDGE('',*,*,#915,.F.);
#555=ORIENTED_EDGE('',*,*,#947,.F.);
#556=ORIENTED_EDGE('',*,*,#950,.T.);
#557=ORIENTED_EDGE('',*,*,#815,.T.);
#558=ORIENTED_EDGE('',*,*,#904,.F.);
#559=ORIENTED_EDGE('',*,*,#876,.T.);
#560=ORIENTED_EDGE('',*,*,#951,.T.);
#561=ORIENTED_EDGE('',*,*,#916,.T.);
#562=ORIENTED_EDGE('',*,*,#949,.F.);
#563=ORIENTED_EDGE('',*,*,#862,.T.);
#564=ORIENTED_EDGE('',*,*,#952,.F.);
#565=ORIENTED_EDGE('',*,*,#866,.T.);
#566=ORIENTED_EDGE('',*,*,#891,.T.);
#567=ORIENTED_EDGE('',*,*,#953,.T.);
#568=ORIENTED_EDGE('',*,*,#870,.T.);
#569=ORIENTED_EDGE('',*,*,#954,.T.);
#570=ORIENTED_EDGE('',*,*,#797,.T.);
#571=ORIENTED_EDGE('',*,*,#955,.F.);
#572=ORIENTED_EDGE('',*,*,#956,.T.);
#573=ORIENTED_EDGE('',*,*,#917,.T.);
#574=ORIENTED_EDGE('',*,*,#951,.F.);
#575=ORIENTED_EDGE('',*,*,#875,.T.);
#576=ORIENTED_EDGE('',*,*,#957,.T.);
#577=ORIENTED_EDGE('',*,*,#851,.F.);
#578=ORIENTED_EDGE('',*,*,#847,.F.);
#579=ORIENTED_EDGE('',*,*,#828,.T.);
#580=ORIENTED_EDGE('',*,*,#918,.F.);
#581=ORIENTED_EDGE('',*,*,#956,.F.);
#582=ORIENTED_EDGE('',*,*,#958,.T.);
#583=ORIENTED_EDGE('',*,*,#959,.T.);
#584=ORIENTED_EDGE('',*,*,#907,.F.);
#585=ORIENTED_EDGE('',*,*,#959,.F.);
#586=ORIENTED_EDGE('',*,*,#960,.T.);
#587=ORIENTED_EDGE('',*,*,#923,.T.);
#588=ORIENTED_EDGE('',*,*,#901,.F.);
#589=ORIENTED_EDGE('',*,*,#881,.T.);
#590=ORIENTED_EDGE('',*,*,#936,.T.);
#591=ORIENTED_EDGE('',*,*,#861,.T.);
#592=ORIENTED_EDGE('',*,*,#906,.T.);
#593=ORIENTED_EDGE('',*,*,#867,.T.);
#594=ORIENTED_EDGE('',*,*,#952,.T.);
#595=ORIENTED_EDGE('',*,*,#865,.T.);
#596=ORIENTED_EDGE('',*,*,#961,.T.);
#597=ORIENTED_EDGE('',*,*,#849,.T.);
#598=ORIENTED_EDGE('',*,*,#957,.F.);
#599=ORIENTED_EDGE('',*,*,#874,.T.);
#600=ORIENTED_EDGE('',*,*,#903,.F.);
#601=ORIENTED_EDGE('',*,*,#872,.T.);
#602=ORIENTED_EDGE('',*,*,#795,.T.);
#603=ORIENTED_EDGE('',*,*,#798,.T.);
#604=ORIENTED_EDGE('',*,*,#954,.F.);
#605=ORIENTED_EDGE('',*,*,#827,.F.);
#606=ORIENTED_EDGE('',*,*,#962,.T.);
#607=ORIENTED_EDGE('',*,*,#893,.T.);
#608=ORIENTED_EDGE('',*,*,#831,.F.);
#609=ORIENTED_EDGE('',*,*,#948,.T.);
#610=ORIENTED_EDGE('',*,*,#817,.F.);
#611=ORIENTED_EDGE('',*,*,#814,.T.);
#612=ORIENTED_EDGE('',*,*,#963,.T.);
#613=ORIENTED_EDGE('',*,*,#837,.T.);
#614=ORIENTED_EDGE('',*,*,#941,.F.);
#615=ORIENTED_EDGE('',*,*,#888,.T.);
#616=ORIENTED_EDGE('',*,*,#898,.T.);
#617=ORIENTED_EDGE('',*,*,#884,.T.);
#618=ORIENTED_EDGE('',*,*,#896,.F.);
#619=ORIENTED_EDGE('',*,*,#964,.F.);
#620=ORIENTED_EDGE('',*,*,#930,.F.);
#621=ORIENTED_EDGE('',*,*,#965,.F.);
#622=ORIENTED_EDGE('',*,*,#927,.F.);
#623=ORIENTED_EDGE('',*,*,#799,.F.);
#624=ORIENTED_EDGE('',*,*,#796,.T.);
#625=ORIENTED_EDGE('',*,*,#963,.F.);
#626=ORIENTED_EDGE('',*,*,#813,.T.);
#627=ORIENTED_EDGE('',*,*,#816,.T.);
#628=ORIENTED_EDGE('',*,*,#950,.F.);
#629=ORIENTED_EDGE('',*,*,#946,.T.);
#630=ORIENTED_EDGE('',*,*,#944,.T.);
#631=ORIENTED_EDGE('',*,*,#942,.T.);
#632=ORIENTED_EDGE('',*,*,#939,.F.);
#633=ORIENTED_EDGE('',*,*,#811,.F.);
#634=ORIENTED_EDGE('',*,*,#808,.F.);
#635=ORIENTED_EDGE('',*,*,#966,.T.);
#636=ORIENTED_EDGE('',*,*,#800,.T.);
#637=ORIENTED_EDGE('',*,*,#804,.T.);
#638=ORIENTED_EDGE('',*,*,#932,.T.);
#639=ORIENTED_EDGE('',*,*,#924,.F.);
#640=ORIENTED_EDGE('',*,*,#960,.F.);
#641=ORIENTED_EDGE('',*,*,#958,.F.);
#642=ORIENTED_EDGE('',*,*,#955,.T.);
#643=ORIENTED_EDGE('',*,*,#805,.F.);
#644=ORIENTED_EDGE('',*,*,#801,.T.);
#645=ORIENTED_EDGE('',*,*,#966,.F.);
#646=ORIENTED_EDGE('',*,*,#807,.F.);
#647=ORIENTED_EDGE('',*,*,#810,.T.);
#648=ORIENTED_EDGE('',*,*,#938,.F.);
#649=ORIENTED_EDGE('',*,*,#819,.F.);
#650=ORIENTED_EDGE('',*,*,#895,.F.);
#651=ORIENTED_EDGE('',*,*,#967,.F.);
#652=ORIENTED_EDGE('',*,*,#823,.F.);
#653=ORIENTED_EDGE('',*,*,#933,.T.);
#654=ORIENTED_EDGE('',*,*,#964,.T.);
#655=ORIENTED_EDGE('',*,*,#929,.T.);
#656=ORIENTED_EDGE('',*,*,#919,.F.);
#657=ORIENTED_EDGE('',*,*,#931,.F.);
#658=ORIENTED_EDGE('',*,*,#965,.T.);
#659=ORIENTED_EDGE('',*,*,#926,.T.);
#660=ORIENTED_EDGE('',*,*,#921,.F.);
#661=ORIENTED_EDGE('',*,*,#928,.F.);
#662=ORIENTED_EDGE('',*,*,#967,.T.);
#663=ORIENTED_EDGE('',*,*,#894,.T.);
#664=ORIENTED_EDGE('',*,*,#937,.T.);
#665=ORIENTED_EDGE('',*,*,#879,.T.);
#666=ORIENTED_EDGE('',*,*,#900,.T.);
#667=ORIENTED_EDGE('',*,*,#845,.F.);
#668=ORIENTED_EDGE('',*,*,#841,.F.);
#669=ORIENTED_EDGE('',*,*,#824,.T.);
#670=ORIENTED_EDGE('',*,*,#953,.F.);
#671=ORIENTED_EDGE('',*,*,#890,.T.);
#672=ORIENTED_EDGE('',*,*,#962,.F.);
#673=ORIENTED_EDGE('',*,*,#826,.T.);
#674=ORIENTED_EDGE('',*,*,#846,.F.);
#675=ORIENTED_EDGE('',*,*,#850,.T.);
#676=ORIENTED_EDGE('',*,*,#961,.F.);
#677=ORIENTED_EDGE('',*,*,#871,.T.);
#678=VERTEX_POINT('',#1611);
#679=VERTEX_POINT('',#1612);
#680=VERTEX_POINT('',#1614);
#681=VERTEX_POINT('',#1618);
#682=VERTEX_POINT('',#1619);
#683=VERTEX_POINT('',#1624);
#684=VERTEX_POINT('',#1625);
#685=VERTEX_POINT('',#1627);
#686=VERTEX_POINT('',#1631);
#687=VERTEX_POINT('',#1632);
#688=VERTEX_POINT('',#1637);
#689=VERTEX_POINT('',#1638);
#690=VERTEX_POINT('',#1640);
#691=VERTEX_POINT('',#1644);
#692=VERTEX_POINT('',#1645);
#693=VERTEX_POINT('',#1650);
#694=VERTEX_POINT('',#1651);
#695=VERTEX_POINT('',#1653);
#696=VERTEX_POINT('',#1657);
#697=VERTEX_POINT('',#1658);
#698=VERTEX_POINT('',#1666);
#699=VERTEX_POINT('',#1667);
#700=VERTEX_POINT('',#1669);
#701=VERTEX_POINT('',#1671);
#702=VERTEX_POINT('',#1675);
#703=VERTEX_POINT('',#1676);
#704=VERTEX_POINT('',#1678);
#705=VERTEX_POINT('',#1683);
#706=VERTEX_POINT('',#1690);
#707=VERTEX_POINT('',#1691);
#708=VERTEX_POINT('',#1693);
#709=VERTEX_POINT('',#1695);
#710=VERTEX_POINT('',#1699);
#711=VERTEX_POINT('',#1700);
#712=VERTEX_POINT('',#1702);
#713=VERTEX_POINT('',#1707);
#714=VERTEX_POINT('',#1714);
#715=VERTEX_POINT('',#1716);
#716=VERTEX_POINT('',#1720);
#717=VERTEX_POINT('',#1721);
#718=VERTEX_POINT('',#1726);
#719=VERTEX_POINT('',#1731);
#720=VERTEX_POINT('',#1735);
#721=VERTEX_POINT('',#1736);
#722=VERTEX_POINT('',#1744);
#723=VERTEX_POINT('',#1746);
#724=VERTEX_POINT('',#1750);
#725=VERTEX_POINT('',#1751);
#726=VERTEX_POINT('',#1756);
#727=VERTEX_POINT('',#1761);
#728=VERTEX_POINT('',#1765);
#729=VERTEX_POINT('',#1766);
#730=VERTEX_POINT('',#1771);
#731=VERTEX_POINT('',#1772);
#732=VERTEX_POINT('',#1774);
#733=VERTEX_POINT('',#1776);
#734=VERTEX_POINT('',#1780);
#735=VERTEX_POINT('',#1781);
#736=VERTEX_POINT('',#1783);
#737=VERTEX_POINT('',#1785);
#738=VERTEX_POINT('',#1789);
#739=VERTEX_POINT('',#1790);
#740=VERTEX_POINT('',#1792);
#741=VERTEX_POINT('',#1794);
#742=VERTEX_POINT('',#1798);
#743=VERTEX_POINT('',#1799);
#744=VERTEX_POINT('',#1801);
#745=VERTEX_POINT('',#1803);
#746=VERTEX_POINT('',#1807);
#747=VERTEX_POINT('',#1808);
#748=VERTEX_POINT('',#1810);
#749=VERTEX_POINT('',#1812);
#750=VERTEX_POINT('',#1816);
#751=VERTEX_POINT('',#1817);
#752=VERTEX_POINT('',#1819);
#753=VERTEX_POINT('',#1821);
#754=VERTEX_POINT('',#1825);
#755=VERTEX_POINT('',#1826);
#756=VERTEX_POINT('',#1828);
#757=VERTEX_POINT('',#1830);
#758=VERTEX_POINT('',#1834);
#759=VERTEX_POINT('',#1835);
#760=VERTEX_POINT('',#1837);
#761=VERTEX_POINT('',#1839);
#762=VERTEX_POINT('',#1843);
#763=VERTEX_POINT('',#1844);
#764=VERTEX_POINT('',#1862);
#765=VERTEX_POINT('',#1863);
#766=VERTEX_POINT('',#1897);
#767=VERTEX_POINT('',#1898);
#768=VERTEX_POINT('',#1900);
#769=VERTEX_POINT('',#1902);
#770=VERTEX_POINT('',#1904);
#771=VERTEX_POINT('',#1906);
#772=VERTEX_POINT('',#1908);
#773=VERTEX_POINT('',#1910);
#774=VERTEX_POINT('',#1912);
#775=VERTEX_POINT('',#1914);
#776=VERTEX_POINT('',#1916);
#777=VERTEX_POINT('',#1918);
#778=VERTEX_POINT('',#1921);
#779=VERTEX_POINT('',#1922);
#780=VERTEX_POINT('',#1925);
#781=VERTEX_POINT('',#1926);
#782=VERTEX_POINT('',#1930);
#783=VERTEX_POINT('',#1932);
#784=VERTEX_POINT('',#1936);
#785=VERTEX_POINT('',#1938);
#786=VERTEX_POINT('',#1942);
#787=VERTEX_POINT('',#1944);
#788=VERTEX_POINT('',#1960);
#789=VERTEX_POINT('',#1965);
#790=VERTEX_POINT('',#1969);
#791=VERTEX_POINT('',#1973);
#792=VERTEX_POINT('',#1989);
#793=VERTEX_POINT('',#1994);
#794=EDGE_CURVE('NONE',#678,#679,#968,.T.);
#795=EDGE_CURVE('NONE',#680,#678,#969,.T.);
#796=EDGE_CURVE('NONE',#679,#680,#970,.T.);
#797=EDGE_CURVE('NONE',#681,#682,#971,.T.);
#798=EDGE_CURVE('NONE',#678,#681,#972,.T.);
#799=EDGE_CURVE('NONE',#679,#682,#973,.T.);
#800=EDGE_CURVE('NONE',#683,#684,#974,.T.);
#801=EDGE_CURVE('NONE',#685,#683,#975,.T.);
#802=EDGE_CURVE('NONE',#684,#685,#976,.T.);
#803=EDGE_CURVE('NONE',#686,#687,#977,.T.);
#804=EDGE_CURVE('NONE',#684,#686,#978,.T.);
#805=EDGE_CURVE('NONE',#685,#687,#979,.T.);
#806=EDGE_CURVE('NONE',#688,#689,#980,.T.);
#807=EDGE_CURVE('NONE',#689,#690,#981,.T.);
#808=EDGE_CURVE('NONE',#690,#688,#982,.T.);
#809=EDGE_CURVE('NONE',#691,#692,#983,.T.);
#810=EDGE_CURVE('NONE',#689,#692,#984,.T.);
#811=EDGE_CURVE('NONE',#688,#691,#985,.T.);
#812=EDGE_CURVE('NONE',#693,#694,#986,.T.);
#813=EDGE_CURVE('NONE',#695,#693,#987,.T.);
#814=EDGE_CURVE('NONE',#694,#695,#988,.T.);
#815=EDGE_CURVE('NONE',#696,#697,#989,.T.);
#816=EDGE_CURVE('NONE',#693,#696,#990,.T.);
#817=EDGE_CURVE('NONE',#694,#697,#991,.T.);
#818=EDGE_CURVE('NONE',#698,#699,#100,.T.);
#819=EDGE_CURVE('NONE',#698,#700,#992,.T.);
#820=EDGE_CURVE('NONE',#701,#700,#993,.T.);
#821=EDGE_CURVE('NONE',#699,#701,#994,.T.);
#822=EDGE_CURVE('NONE',#702,#703,#995,.T.);
#823=EDGE_CURVE('NONE',#702,#704,#996,.T.);
#824=EDGE_CURVE('NONE',#705,#704,#101,.T.);
#825=EDGE_CURVE('NONE',#703,#705,#997,.T.);
#826=EDGE_CURVE('NONE',#706,#707,#102,.T.);
#827=EDGE_CURVE('NONE',#706,#708,#998,.T.);
#828=EDGE_CURVE('NONE',#709,#708,#999,.T.);
#829=EDGE_CURVE('NONE',#707,#709,#1000,.T.);
#830=EDGE_CURVE('NONE',#710,#711,#1001,.T.);
#831=EDGE_CURVE('NONE',#710,#712,#1002,.T.);
#832=EDGE_CURVE('NONE',#713,#712,#103,.T.);
#833=EDGE_CURVE('NONE',#711,#713,#1003,.T.);
#834=EDGE_CURVE('NONE',#714,#699,#80,.T.);
#835=EDGE_CURVE('NONE',#701,#715,#1004,.T.);
#836=EDGE_CURVE('NONE',#714,#715,#1005,.T.);
#837=EDGE_CURVE('NONE',#716,#717,#1006,.T.);
#838=EDGE_CURVE('NONE',#714,#716,#1007,.T.);
#839=EDGE_CURVE('NONE',#715,#717,#1008,.T.);
#840=EDGE_CURVE('NONE',#718,#703,#1009,.T.);
#841=EDGE_CURVE('NONE',#705,#719,#81,.T.);
#842=EDGE_CURVE('NONE',#718,#719,#1010,.T.);
#843=EDGE_CURVE('NONE',#720,#721,#1011,.T.);
#844=EDGE_CURVE('NONE',#718,#720,#1012,.T.);
#845=EDGE_CURVE('NONE',#719,#721,#1013,.T.);
#846=EDGE_CURVE('NONE',#722,#707,#82,.T.);
#847=EDGE_CURVE('NONE',#709,#723,#1014,.T.);
#848=EDGE_CURVE('NONE',#722,#723,#1015,.T.);
#849=EDGE_CURVE('NONE',#724,#725,#1016,.T.);
#850=EDGE_CURVE('NONE',#722,#724,#1017,.T.);
#851=EDGE_CURVE('NONE',#723,#725,#1018,.T.);
#852=EDGE_CURVE('NONE',#726,#711,#1019,.T.);
#853=EDGE_CURVE('NONE',#713,#727,#83,.T.);
#854=EDGE_CURVE('NONE',#726,#727,#1020,.T.);
#855=EDGE_CURVE('NONE',#728,#729,#1021,.T.);
#856=EDGE_CURVE('NONE',#726,#728,#1022,.T.);
#857=EDGE_CURVE('NONE',#727,#729,#1023,.T.);
#858=EDGE_CURVE('NONE',#730,#731,#56,.T.);
#859=EDGE_CURVE('NONE',#732,#730,#1024,.T.);
#860=EDGE_CURVE('NONE',#733,#732,#57,.T.);
#861=EDGE_CURVE('NONE',#731,#733,#1025,.T.);
#862=EDGE_CURVE('NONE',#734,#735,#58,.T.);
#863=EDGE_CURVE('NONE',#736,#734,#1026,.T.);
#864=EDGE_CURVE('NONE',#737,#736,#59,.T.);
#865=EDGE_CURVE('NONE',#735,#737,#1027,.T.);
#866=EDGE_CURVE('NONE',#738,#739,#60,.T.);
#867=EDGE_CURVE('NONE',#740,#738,#1028,.T.);
#868=EDGE_CURVE('NONE',#741,#740,#61,.T.);
#869=EDGE_CURVE('NONE',#739,#741,#1029,.T.);
#870=EDGE_CURVE('NONE',#742,#743,#62,.T.);
#871=EDGE_CURVE('NONE',#744,#742,#1030,.T.);
#872=EDGE_CURVE('NONE',#745,#744,#63,.T.);
#873=EDGE_CURVE('NONE',#743,#745,#1031,.T.);
#874=EDGE_CURVE('NONE',#746,#747,#64,.T.);
#875=EDGE_CURVE('NONE',#748,#746,#1032,.T.);
#876=EDGE_CURVE('NONE',#749,#748,#65,.T.);
#877=EDGE_CURVE('NONE',#747,#749,#1033,.T.);
#878=EDGE_CURVE('NONE',#750,#751,#66,.T.);
#879=EDGE_CURVE('NONE',#752,#750,#1034,.T.);
#880=EDGE_CURVE('NONE',#753,#752,#67,.T.);
#881=EDGE_CURVE('NONE',#751,#753,#1035,.T.);
#882=EDGE_CURVE('NONE',#754,#755,#68,.T.);
#883=EDGE_CURVE('NONE',#756,#754,#1036,.T.);
#884=EDGE_CURVE('NONE',#757,#756,#69,.T.);
#885=EDGE_CURVE('NONE',#755,#757,#1037,.T.);
#886=EDGE_CURVE('NONE',#758,#759,#70,.T.);
#887=EDGE_CURVE('NONE',#760,#758,#1038,.T.);
#888=EDGE_CURVE('NONE',#761,#760,#71,.T.);
#889=EDGE_CURVE('NONE',#759,#761,#1039,.T.);
#890=EDGE_CURVE('NONE',#762,#763,#1040,.T.);
#891=EDGE_CURVE('NONE',#739,#762,#84,.T.);
#892=EDGE_CURVE('NONE',#729,#741,#85,.T.);
#893=EDGE_CURVE('NONE',#763,#712,#86,.T.);
#894=EDGE_CURVE('NONE',#764,#765,#1041,.T.);
#895=EDGE_CURVE('NONE',#764,#698,#88,.T.);
#896=EDGE_CURVE('NONE',#716,#756,#89,.T.);
#897=EDGE_CURVE('NONE',#754,#765,#90,.T.);
#898=EDGE_CURVE('NONE',#760,#757,#1042,.T.);
#899=EDGE_CURVE('NONE',#758,#755,#1043,.T.);
#900=EDGE_CURVE('NONE',#750,#721,#92,.T.);
#901=EDGE_CURVE('NONE',#751,#733,#1044,.T.);
#902=EDGE_CURVE('NONE',#732,#720,#1045,.T.);
#903=EDGE_CURVE('NONE',#745,#747,#1046,.T.);
#904=EDGE_CURVE('NONE',#749,#743,#1047,.T.);
#905=EDGE_CURVE('NONE',#736,#728,#1048,.T.);
#906=EDGE_CURVE('NONE',#737,#740,#1049,.T.);
#907=EDGE_CURVE('NONE',#766,#767,#1050,.T.);
#908=EDGE_CURVE('NONE',#767,#768,#1051,.T.);
#909=EDGE_CURVE('NONE',#769,#768,#1052,.T.);
#910=EDGE_CURVE('NONE',#769,#770,#1053,.T.);
#911=EDGE_CURVE('NONE',#770,#771,#1054,.T.);
#912=EDGE_CURVE('NONE',#772,#771,#1055,.T.);
#913=EDGE_CURVE('NONE',#773,#772,#1056,.T.);
#914=EDGE_CURVE('NONE',#774,#773,#1057,.T.);
#915=EDGE_CURVE('NONE',#774,#775,#1058,.T.);
#916=EDGE_CURVE('NONE',#776,#775,#1059,.T.);
#917=EDGE_CURVE('NONE',#777,#776,#1060,.T.);
#918=EDGE_CURVE('NONE',#777,#766,#1061,.T.);
#919=EDGE_CURVE('NONE',#778,#779,#72,.T.);
#920=EDGE_CURVE('NONE',#779,#778,#73,.T.);
#921=EDGE_CURVE('NONE',#780,#781,#74,.T.);
#922=EDGE_CURVE('NONE',#781,#780,#75,.T.);
#923=EDGE_CURVE('NONE',#782,#767,#1062,.T.);
#924=EDGE_CURVE('NONE',#782,#783,#1063,.T.);
#925=EDGE_CURVE('NONE',#783,#768,#1064,.T.);
#926=EDGE_CURVE('NONE',#784,#781,#1065,.T.);
#927=EDGE_CURVE('NONE',#784,#785,#76,.T.);
#928=EDGE_CURVE('NONE',#785,#780,#1066,.T.);
#929=EDGE_CURVE('NONE',#786,#779,#1067,.T.);
#930=EDGE_CURVE('NONE',#786,#787,#77,.T.);
#931=EDGE_CURVE('NONE',#787,#778,#1068,.T.);
#932=EDGE_CURVE('NONE',#686,#783,#1069,.T.);
#933=EDGE_CURVE('NONE',#702,#687,#1070,.T.);
#934=EDGE_CURVE('NONE',#730,#769,#1071,.T.);
#935=EDGE_CURVE('NONE',#759,#770,#1072,.T.);
#936=EDGE_CURVE('NONE',#753,#731,#1073,.T.);
#937=EDGE_CURVE('NONE',#765,#752,#93,.T.);
#938=EDGE_CURVE('NONE',#700,#692,#1074,.T.);
#939=EDGE_CURVE('NONE',#691,#788,#1075,.T.);
#940=EDGE_CURVE('NONE',#788,#771,#1076,.T.);
#941=EDGE_CURVE('NONE',#761,#717,#1077,.T.);
#942=EDGE_CURVE('NONE',#789,#788,#1078,.T.);
#943=EDGE_CURVE('NONE',#789,#772,#1079,.T.);
#944=EDGE_CURVE('NONE',#790,#789,#1080,.T.);
#945=EDGE_CURVE('NONE',#790,#773,#1081,.T.);
#946=EDGE_CURVE('NONE',#791,#790,#1082,.T.);
#947=EDGE_CURVE('NONE',#791,#774,#1083,.T.);
#948=EDGE_CURVE('NONE',#710,#697,#1084,.T.);
#949=EDGE_CURVE('NONE',#734,#775,#1085,.T.);
#950=EDGE_CURVE('NONE',#791,#696,#1086,.T.);
#951=EDGE_CURVE('NONE',#748,#776,#1087,.T.);
#952=EDGE_CURVE('NONE',#738,#735,#1088,.T.);
#953=EDGE_CURVE('NONE',#762,#742,#94,.T.);
#954=EDGE_CURVE('NONE',#708,#681,#1089,.T.);
#955=EDGE_CURVE('NONE',#792,#682,#1090,.T.);
#956=EDGE_CURVE('NONE',#792,#777,#1091,.T.);
#957=EDGE_CURVE('NONE',#746,#725,#1092,.T.);
#958=EDGE_CURVE('NONE',#792,#793,#1093,.T.);
#959=EDGE_CURVE('NONE',#793,#766,#1094,.T.);
#960=EDGE_CURVE('NONE',#793,#782,#1095,.T.);
#961=EDGE_CURVE('NONE',#744,#724,#95,.T.);
#962=EDGE_CURVE('NONE',#706,#763,#96,.T.);
#963=EDGE_CURVE('NONE',#695,#680,#1096,.T.);
#964=EDGE_CURVE('NONE',#787,#786,#78,.T.);
#965=EDGE_CURVE('NONE',#785,#784,#79,.T.);
#966=EDGE_CURVE('NONE',#690,#683,#1097,.T.);
#967=EDGE_CURVE('NONE',#704,#764,#97,.T.);
#968=LINE('',#1610,#1098);
#969=LINE('',#1613,#1099);
#970=LINE('',#1615,#1100);
#971=LINE('',#1617,#1101);
#972=LINE('',#1620,#1102);
#973=LINE('',#1621,#1103);
#974=LINE('',#1623,#1104);
#975=LINE('',#1626,#1105);
#976=LINE('',#1628,#1106);
#977=LINE('',#1630,#1107);
#978=LINE('',#1633,#1108);
#979=LINE('',#1634,#1109);
#980=LINE('',#1636,#1110);
#981=LINE('',#1639,#1111);
#982=LINE('',#1641,#1112);
#983=LINE('',#1643,#1113);
#984=LINE('',#1646,#1114);
#985=LINE('',#1647,#1115);
#986=LINE('',#1649,#1116);
#987=LINE('',#1652,#1117);
#988=LINE('',#1654,#1118);
#989=LINE('',#1656,#1119);
#990=LINE('',#1659,#1120);
#991=LINE('',#1660,#1121);
#992=LINE('',#1668,#1122);
#993=LINE('',#1670,#1123);
#994=LINE('',#1672,#1124);
#995=LINE('',#1674,#1125);
#996=LINE('',#1677,#1126);
#997=LINE('',#1684,#1127);
#998=LINE('',#1692,#1128);
#999=LINE('',#1694,#1129);
#1000=LINE('',#1696,#1130);
#1001=LINE('',#1698,#1131);
#1002=LINE('',#1701,#1132);
#1003=LINE('',#1708,#1133);
#1004=LINE('',#1715,#1134);
#1005=LINE('',#1717,#1135);
#1006=LINE('',#1719,#1136);
#1007=LINE('',#1722,#1137);
#1008=LINE('',#1723,#1138);
#1009=LINE('',#1725,#1139);
#1010=LINE('',#1732,#1140);
#1011=LINE('',#1734,#1141);
#1012=LINE('',#1737,#1142);
#1013=LINE('',#1738,#1143);
#1014=LINE('',#1745,#1144);
#1015=LINE('',#1747,#1145);
#1016=LINE('',#1749,#1146);
#1017=LINE('',#1752,#1147);
#1018=LINE('',#1753,#1148);
#1019=LINE('',#1755,#1149);
#1020=LINE('',#1762,#1150);
#1021=LINE('',#1764,#1151);
#1022=LINE('',#1767,#1152);
#1023=LINE('',#1768,#1153);
#1024=LINE('',#1773,#1154);
#1025=LINE('',#1777,#1155);
#1026=LINE('',#1782,#1156);
#1027=LINE('',#1786,#1157);
#1028=LINE('',#1791,#1158);
#1029=LINE('',#1795,#1159);
#1030=LINE('',#1800,#1160);
#1031=LINE('',#1804,#1161);
#1032=LINE('',#1809,#1162);
#1033=LINE('',#1813,#1163);
#1034=LINE('',#1818,#1164);
#1035=LINE('',#1822,#1165);
#1036=LINE('',#1827,#1166);
#1037=LINE('',#1831,#1167);
#1038=LINE('',#1836,#1168);
#1039=LINE('',#1840,#1169);
#1040=LINE('',#1842,#1170);
#1041=LINE('',#1861,#1172);
#1042=LINE('',#1880,#1174);
#1043=LINE('',#1881,#1175);
#1044=LINE('',#1887,#1176);
#1045=LINE('',#1888,#1177);
#1046=LINE('',#1890,#1178);
#1047=LINE('',#1891,#1179);
#1048=LINE('',#1893,#1180);
#1049=LINE('',#1894,#1181);
#1050=LINE('',#1896,#1182);
#1051=LINE('',#1899,#1183);
#1052=LINE('',#1901,#1184);
#1053=LINE('',#1903,#1185);
#1054=LINE('',#1905,#1186);
#1055=LINE('',#1907,#1187);
#1056=LINE('',#1909,#1188);
#1057=LINE('',#1911,#1189);
#1058=LINE('',#1913,#1190);
#1059=LINE('',#1915,#1191);
#1060=LINE('',#1917,#1192);
#1061=LINE('',#1919,#1193);
#1062=LINE('',#1929,#1194);
#1063=LINE('',#1931,#1195);
#1064=LINE('',#1933,#1196);
#1065=LINE('',#1935,#1197);
#1066=LINE('',#1939,#1198);
#1067=LINE('',#1941,#1199);
#1068=LINE('',#1945,#1200);
#1069=LINE('',#1947,#1201);
#1070=LINE('',#1948,#1202);
#1071=LINE('',#1949,#1203);
#1072=LINE('',#1951,#1204);
#1073=LINE('',#1952,#1205);
#1074=LINE('',#1958,#1206);
#1075=LINE('',#1959,#1207);
#1076=LINE('',#1961,#1208);
#1077=LINE('',#1962,#1209);
#1078=LINE('',#1964,#1210);
#1079=LINE('',#1966,#1211);
#1080=LINE('',#1968,#1212);
#1081=LINE('',#1970,#1213);
#1082=LINE('',#1972,#1214);
#1083=LINE('',#1974,#1215);
#1084=LINE('',#1976,#1216);
#1085=LINE('',#1977,#1217);
#1086=LINE('',#1978,#1218);
#1087=LINE('',#1980,#1219);
#1088=LINE('',#1981,#1220);
#1089=LINE('',#1987,#1221);
#1090=LINE('',#1988,#1222);
#1091=LINE('',#1990,#1223);
#1092=LINE('',#1991,#1224);
#1093=LINE('',#1993,#1225);
#1094=LINE('',#1995,#1226);
#1095=LINE('',#1997,#1227);
#1096=LINE('',#2010,#1228);
#1097=LINE('',#2015,#1229);
#1098=VECTOR('',#1315,1.);
#1099=VECTOR('',#1316,1.);
#1100=VECTOR('',#1317,1.);
#1101=VECTOR('',#1320,1.);
#1102=VECTOR('',#1321,1.);
#1103=VECTOR('',#1322,1.);
#1104=VECTOR('',#1325,1.);
#1105=VECTOR('',#1326,1.);
#1106=VECTOR('',#1327,1.);
#1107=VECTOR('',#1330,1.);
#1108=VECTOR('',#1331,1.);
#1109=VECTOR('',#1332,1.);
#1110=VECTOR('',#1335,1.);
#1111=VECTOR('',#1336,1.);
#1112=VECTOR('',#1337,1.);
#1113=VECTOR('',#1340,1.);
#1114=VECTOR('',#1341,1.);
#1115=VECTOR('',#1342,1.);
#1116=VECTOR('',#1345,1.);
#1117=VECTOR('',#1346,1.);
#1118=VECTOR('',#1347,1.);
#1119=VECTOR('',#1350,1.);
#1120=VECTOR('',#1351,1.);
#1121=VECTOR('',#1352,1.);
#1122=VECTOR('',#1355,1.);
#1123=VECTOR('',#1356,1.);
#1124=VECTOR('',#1357,1.);
#1125=VECTOR('',#1360,1.);
#1126=VECTOR('',#1361,1.);
#1127=VECTOR('',#1362,1.);
#1128=VECTOR('',#1365,1.);
#1129=VECTOR('',#1366,1.);
#1130=VECTOR('',#1367,1.);
#1131=VECTOR('',#1370,1.);
#1132=VECTOR('',#1371,1.);
#1133=VECTOR('',#1372,1.);
#1134=VECTOR('',#1375,1.);
#1135=VECTOR('',#1376,1.);
#1136=VECTOR('',#1379,1.);
#1137=VECTOR('',#1380,1.);
#1138=VECTOR('',#1381,1.);
#1139=VECTOR('',#1384,1.);
#1140=VECTOR('',#1385,1.);
#1141=VECTOR('',#1388,1.);
#1142=VECTOR('',#1389,1.);
#1143=VECTOR('',#1390,1.);
#1144=VECTOR('',#1393,1.);
#1145=VECTOR('',#1394,1.);
#1146=VECTOR('',#1397,1.);
#1147=VECTOR('',#1398,1.);
#1148=VECTOR('',#1399,1.);
#1149=VECTOR('',#1402,1.);
#1150=VECTOR('',#1403,1.);
#1151=VECTOR('',#1406,1.);
#1152=VECTOR('',#1407,1.);
#1153=VECTOR('',#1408,1.);
#1154=VECTOR('',#1413,1.);
#1155=VECTOR('',#1416,1.);
#1156=VECTOR('',#1421,1.);
#1157=VECTOR('',#1424,1.);
#1158=VECTOR('',#1429,1.);
#1159=VECTOR('',#1432,1.);
#1160=VECTOR('',#1437,1.);
#1161=VECTOR('',#1440,1.);
#1162=VECTOR('',#1445,1.);
#1163=VECTOR('',#1448,1.);
#1164=VECTOR('',#1453,1.);
#1165=VECTOR('',#1456,1.);
#1166=VECTOR('',#1461,1.);
#1167=VECTOR('',#1464,1.);
#1168=VECTOR('',#1469,1.);
#1169=VECTOR('',#1472,1.);
#1170=VECTOR('',#1475,1.);
#1171=VECTOR('',#1476,1.);
#1172=VECTOR('',#1477,1.);
#1173=VECTOR('',#1478,1.);
#1174=VECTOR('',#1479,1.);
#1175=VECTOR('',#1480,1.);
#1176=VECTOR('',#1483,1.);
#1177=VECTOR('',#1484,1.);
#1178=VECTOR('',#1487,1.);
#1179=VECTOR('',#1488,1.);
#1180=VECTOR('',#1491,1.);
#1181=VECTOR('',#1492,1.);
#1182=VECTOR('',#1495,1.);
#1183=VECTOR('',#1496,1.);
#1184=VECTOR('',#1497,1.);
#1185=VECTOR('',#1498,1.);
#1186=VECTOR('',#1499,1.);
#1187=VECTOR('',#1500,1.);
#1188=VECTOR('',#1501,1.);
#1189=VECTOR('',#1502,1.);
#1190=VECTOR('',#1503,1.);
#1191=VECTOR('',#1504,1.);
#1192=VECTOR('',#1505,1.);
#1193=VECTOR('',#1506,1.);
#1194=VECTOR('',#1517,1.);
#1195=VECTOR('',#1518,1.);
#1196=VECTOR('',#1519,1.);
#1197=VECTOR('',#1522,1.);
#1198=VECTOR('',#1525,1.);
#1199=VECTOR('',#1528,1.);
#1200=VECTOR('',#1531,1.);
#1201=VECTOR('',#1534,1.);
#1202=VECTOR('',#1535,1.);
#1203=VECTOR('',#1536,1.);
#1204=VECTOR('',#1539,1.);
#1205=VECTOR('',#1540,1.);
#1206=VECTOR('',#1543,1.);
#1207=VECTOR('',#1544,1.);
#1208=VECTOR('',#1545,1.);
#1209=VECTOR('',#1546,1.);
#1210=VECTOR('',#1549,1.);
#1211=VECTOR('',#1550,1.);
#1212=VECTOR('',#1553,1.);
#1213=VECTOR('',#1554,1.);
#1214=VECTOR('',#1557,1.);
#1215=VECTOR('',#1558,1.);
#1216=VECTOR('',#1561,1.);
#1217=VECTOR('',#1562,1.);
#1218=VECTOR('',#1563,1.);
#1219=VECTOR('',#1566,1.);
#1220=VECTOR('',#1567,1.);
#1221=VECTOR('',#1570,1.);
#1222=VECTOR('',#1571,1.);
#1223=VECTOR('',#1572,1.);
#1224=VECTOR('',#1573,1.);
#1225=VECTOR('',#1576,1.);
#1226=VECTOR('',#1577,1.);
#1227=VECTOR('',#1580,1.);
#1228=VECTOR('',#1589,1.);
#1229=VECTOR('',#1598,1.);
#1230=VECTOR('',#1607,1.);
#1231=VECTOR('',#1608,1.);
#1232=AXIS2_PLACEMENT_3D('',#1609,#1313,#1314);
#1233=AXIS2_PLACEMENT_3D('',#1616,#1318,#1319);
#1234=AXIS2_PLACEMENT_3D('',#1622,#1323,#1324);
#1235=AXIS2_PLACEMENT_3D('',#1629,#1328,#1329);
#1236=AXIS2_PLACEMENT_3D('',#1635,#1333,#1334);
#1237=AXIS2_PLACEMENT_3D('',#1642,#1338,#1339);
#1238=AXIS2_PLACEMENT_3D('',#1648,#1343,#1344);
#1239=AXIS2_PLACEMENT_3D('',#1655,#1348,#1349);
#1240=AXIS2_PLACEMENT_3D('',#1661,#1353,#1354);
#1241=AXIS2_PLACEMENT_3D('',#1673,#1358,#1359);
#1242=AXIS2_PLACEMENT_3D('',#1685,#1363,#1364);
#1243=AXIS2_PLACEMENT_3D('',#1697,#1368,#1369);
#1244=AXIS2_PLACEMENT_3D('',#1709,#1373,#1374);
#1245=AXIS2_PLACEMENT_3D('',#1718,#1377,#1378);
#1246=AXIS2_PLACEMENT_3D('',#1724,#1382,#1383);
#1247=AXIS2_PLACEMENT_3D('',#1733,#1386,#1387);
#1248=AXIS2_PLACEMENT_3D('',#1739,#1391,#1392);
#1249=AXIS2_PLACEMENT_3D('',#1748,#1395,#1396);
#1250=AXIS2_PLACEMENT_3D('',#1754,#1400,#1401);
#1251=AXIS2_PLACEMENT_3D('',#1763,#1404,#1405);
#1252=AXIS2_PLACEMENT_3D('',#1769,#1409,#1410);
#1253=AXIS2_PLACEMENT_3D('',#1770,#1411,#1412);
#1254=AXIS2_PLACEMENT_3D('',#1775,#1414,#1415);
#1255=AXIS2_PLACEMENT_3D('',#1778,#1417,#1418);
#1256=AXIS2_PLACEMENT_3D('',#1779,#1419,#1420);
#1257=AXIS2_PLACEMENT_3D('',#1784,#1422,#1423);
#1258=AXIS2_PLACEMENT_3D('',#1787,#1425,#1426);
#1259=AXIS2_PLACEMENT_3D('',#1788,#1427,#1428);
#1260=AXIS2_PLACEMENT_3D('',#1793,#1430,#1431);
#1261=AXIS2_PLACEMENT_3D('',#1796,#1433,#1434);
#1262=AXIS2_PLACEMENT_3D('',#1797,#1435,#1436);
#1263=AXIS2_PLACEMENT_3D('',#1802,#1438,#1439);
#1264=AXIS2_PLACEMENT_3D('',#1805,#1441,#1442);
#1265=AXIS2_PLACEMENT_3D('',#1806,#1443,#1444);
#1266=AXIS2_PLACEMENT_3D('',#1811,#1446,#1447);
#1267=AXIS2_PLACEMENT_3D('',#1814,#1449,#1450);
#1268=AXIS2_PLACEMENT_3D('',#1815,#1451,#1452);
#1269=AXIS2_PLACEMENT_3D('',#1820,#1454,#1455);
#1270=AXIS2_PLACEMENT_3D('',#1823,#1457,#1458);
#1271=AXIS2_PLACEMENT_3D('',#1824,#1459,#1460);
#1272=AXIS2_PLACEMENT_3D('',#1829,#1462,#1463);
#1273=AXIS2_PLACEMENT_3D('',#1832,#1465,#1466);
#1274=AXIS2_PLACEMENT_3D('',#1833,#1467,#1468);
#1275=AXIS2_PLACEMENT_3D('',#1838,#1470,#1471);
#1276=AXIS2_PLACEMENT_3D('',#1841,#1473,#1474);
#1277=AXIS2_PLACEMENT_3D('',#1882,#1481,#1482);
#1278=AXIS2_PLACEMENT_3D('',#1889,#1485,#1486);
#1279=AXIS2_PLACEMENT_3D('',#1892,#1489,#1490);
#1280=AXIS2_PLACEMENT_3D('',#1895,#1493,#1494);
#1281=AXIS2_PLACEMENT_3D('',#1920,#1507,#1508);
#1282=AXIS2_PLACEMENT_3D('',#1923,#1509,#1510);
#1283=AXIS2_PLACEMENT_3D('',#1924,#1511,#1512);
#1284=AXIS2_PLACEMENT_3D('',#1927,#1513,#1514);
#1285=AXIS2_PLACEMENT_3D('',#1928,#1515,#1516);
#1286=AXIS2_PLACEMENT_3D('',#1934,#1520,#1521);
#1287=AXIS2_PLACEMENT_3D('',#1937,#1523,#1524);
#1288=AXIS2_PLACEMENT_3D('',#1940,#1526,#1527);
#1289=AXIS2_PLACEMENT_3D('',#1943,#1529,#1530);
#1290=AXIS2_PLACEMENT_3D('',#1946,#1532,#1533);
#1291=AXIS2_PLACEMENT_3D('',#1950,#1537,#1538);
#1292=AXIS2_PLACEMENT_3D('',#1957,#1541,#1542);
#1293=AXIS2_PLACEMENT_3D('',#1963,#1547,#1548);
#1294=AXIS2_PLACEMENT_3D('',#1967,#1551,#1552);
#1295=AXIS2_PLACEMENT_3D('',#1971,#1555,#1556);
#1296=AXIS2_PLACEMENT_3D('',#1975,#1559,#1560);
#1297=AXIS2_PLACEMENT_3D('',#1979,#1564,#1565);
#1298=AXIS2_PLACEMENT_3D('',#1986,#1568,#1569);
#1299=AXIS2_PLACEMENT_3D('',#1992,#1574,#1575);
#1300=AXIS2_PLACEMENT_3D('',#1996,#1578,#1579);
#1301=AXIS2_PLACEMENT_3D('',#1998,#1581,#1582);
#1302=AXIS2_PLACEMENT_3D('',#1999,#1583,#1584);
#1303=AXIS2_PLACEMENT_3D('',#2000,#1585,#1586);
#1304=AXIS2_PLACEMENT_3D('',#2005,#1587,#1588);
#1305=AXIS2_PLACEMENT_3D('',#2011,#1590,#1591);
#1306=AXIS2_PLACEMENT_3D('',#2012,#1592,#1593);
#1307=AXIS2_PLACEMENT_3D('',#2013,#1594,#1595);
#1308=AXIS2_PLACEMENT_3D('',#2014,#1596,#1597);
#1309=AXIS2_PLACEMENT_3D('',#2016,#1599,#1600);
#1310=AXIS2_PLACEMENT_3D('',#2021,#1601,#1602);
#1311=AXIS2_PLACEMENT_3D('',#2022,#1603,#1604);
#1312=AXIS2_PLACEMENT_3D('',#2023,#1605,#1606);
#1313=DIRECTION('',(0.,0.,1.));
#1314=DIRECTION('',(1.,0.,0.));
#1315=DIRECTION('',(0.,-0.707106781186548,0.707106781186547));
#1316=DIRECTION('',(0.,1.,4.95635278850516E-16));
#1317=DIRECTION('',(0.,-1.85863229568944E-16,-1.));
#1318=DIRECTION('',(1.,0.,0.));
#1319=DIRECTION('',(0.,0.,-1.));
#1320=DIRECTION('',(0.,-0.707106781186548,0.707106781186547));
#1321=DIRECTION('',(1.,0.,0.));
#1322=DIRECTION('',(1.,0.,0.));
#1323=DIRECTION('',(0.,0.707106781186547,0.707106781186548));
#1324=DIRECTION('',(0.,-0.707106781186548,0.707106781186547));
#1325=DIRECTION('',(0.,0.,-1.));
#1326=DIRECTION('',(0.,-1.,0.));
#1327=DIRECTION('',(0.,0.707106781186548,0.707106781186547));
#1328=DIRECTION('',(-1.,0.,0.));
#1329=DIRECTION('',(0.,0.,1.));
#1330=DIRECTION('',(0.,0.707106781186548,0.707106781186547));
#1331=DIRECTION('',(1.,0.,0.));
#1332=DIRECTION('',(1.,0.,0.));
#1333=DIRECTION('',(0.,0.707106781186547,-0.707106781186548));
#1334=DIRECTION('',(0.,0.707106781186548,0.707106781186547));
#1335=DIRECTION('',(0.,0.707106781186548,0.707106781186548));
#1336=DIRECTION('',(0.,-1.,0.));
#1337=DIRECTION('',(0.,0.,-1.));
#1338=DIRECTION('',(-1.,0.,0.));
#1339=DIRECTION('',(0.,0.,1.));
#1340=DIRECTION('',(0.,0.707106781186548,0.707106781186548));
#1341=DIRECTION('',(-1.,0.,0.));
#1342=DIRECTION('',(-1.,0.,0.));
#1343=DIRECTION('',(0.,-0.707106781186548,0.707106781186548));
#1344=DIRECTION('',(0.,-0.707106781186548,-0.707106781186548));
#1345=DIRECTION('',(0.,0.707106781186548,-0.707106781186548));
#1346=DIRECTION('',(0.,1.85863229568944E-16,1.));
#1347=DIRECTION('',(0.,-1.,0.));
#1348=DIRECTION('',(-1.,0.,0.));
#1349=DIRECTION('',(0.,0.,1.));
#1350=DIRECTION('',(0.,0.707106781186548,-0.707106781186548));
#1351=DIRECTION('',(-1.,0.,0.));
#1352=DIRECTION('',(-1.,0.,0.));
#1353=DIRECTION('',(0.,0.707106781186548,0.707106781186548));
#1354=DIRECTION('',(0.,-0.707106781186548,0.707106781186548));
#1355=DIRECTION('',(-1.,0.,0.));
#1356=DIRECTION('',(0.,-0.866025403784439,0.5));
#1357=DIRECTION('',(-1.,0.,0.));
#1358=DIRECTION('',(0.,-0.5,-0.866025403784439));
#1359=DIRECTION('',(1.,0.,0.));
#1360=DIRECTION('',(0.,0.866025403784439,-0.5));
#1361=DIRECTION('',(-1.,0.,0.));
#1362=DIRECTION('',(-1.,0.,0.));
#1363=DIRECTION('',(0.,-0.5,-0.866025403784439));
#1364=DIRECTION('',(1.,0.,0.));
#1365=DIRECTION('',(1.,0.,0.));
#1366=DIRECTION('',(0.,-0.866025403784439,-0.5));
#1367=DIRECTION('',(1.,0.,0.));
#1368=DIRECTION('',(0.,-0.5,0.866025403784439));
#1369=DIRECTION('',(-1.,0.,0.));
#1370=DIRECTION('',(0.,0.866025403784439,0.5));
#1371=DIRECTION('',(1.,0.,0.));
#1372=DIRECTION('',(1.,0.,0.));
#1373=DIRECTION('',(0.,-0.5,0.866025403784439));
#1374=DIRECTION('',(-1.,0.,0.));
#1375=DIRECTION('',(0.,1.,0.));
#1376=DIRECTION('',(-1.,0.,0.));
#1377=DIRECTION('',(0.,0.,-1.));
#1378=DIRECTION('',(-1.,0.,0.));
#1379=DIRECTION('',(-1.,0.,0.));
#1380=DIRECTION('',(0.,0.,1.));
#1381=DIRECTION('',(0.,0.,1.));
#1382=DIRECTION('',(0.,1.,0.));
#1383=DIRECTION('',(0.,0.,1.));
#1384=DIRECTION('',(0.,-1.,0.));
#1385=DIRECTION('',(-1.,0.,0.));
#1386=DIRECTION('',(0.,0.,-1.));
#1387=DIRECTION('',(-1.,0.,0.));
#1388=DIRECTION('',(-1.,0.,0.));
#1389=DIRECTION('',(0.,0.,1.));
#1390=DIRECTION('',(0.,0.,1.));
#1391=DIRECTION('',(0.,1.,0.));
#1392=DIRECTION('',(0.,0.,1.));
#1393=DIRECTION('',(0.,1.,0.));
#1394=DIRECTION('',(1.,0.,0.));
#1395=DIRECTION('',(0.,0.,1.));
#1396=DIRECTION('',(1.,0.,0.));
#1397=DIRECTION('',(1.,0.,0.));
#1398=DIRECTION('',(0.,0.,-1.));
#1399=DIRECTION('',(0.,0.,-1.));
#1400=DIRECTION('',(0.,1.,0.));
#1401=DIRECTION('',(0.,0.,1.));
#1402=DIRECTION('',(0.,-1.,0.));
#1403=DIRECTION('',(1.,0.,0.));
#1404=DIRECTION('',(0.,0.,1.));
#1405=DIRECTION('',(1.,0.,0.));
#1406=DIRECTION('',(1.,0.,0.));
#1407=DIRECTION('',(0.,0.,-1.));
#1408=DIRECTION('',(0.,0.,-1.));
#1409=DIRECTION('',(0.,1.,0.));
#1410=DIRECTION('',(0.,0.,1.));
#1411=DIRECTION('',(0.,0.,1.));
#1412=DIRECTION('',(1.,0.,0.));
#1413=DIRECTION('',(0.,0.,1.));
#1414=DIRECTION('',(0.,0.,-1.));
#1415=DIRECTION('',(-1.,0.,0.));
#1416=DIRECTION('',(0.,0.,-1.));
#1417=DIRECTION('',(0.,0.,-1.));
#1418=DIRECTION('',(-1.,0.,0.));
#1419=DIRECTION('',(0.,0.,-1.));
#1420=DIRECTION('',(1.,0.,0.));
#1421=DIRECTION('',(0.,0.,-1.));
#1422=DIRECTION('',(0.,0.,1.));
#1423=DIRECTION('',(-1.,0.,0.));
#1424=DIRECTION('',(0.,0.,1.));
#1425=DIRECTION('',(0.,0.,1.));
#1426=DIRECTION('',(1.,0.,0.));
#1427=DIRECTION('',(0.,0.,-1.));
#1428=DIRECTION('',(1.,0.,0.));
#1429=DIRECTION('',(0.,0.,-1.));
#1430=DIRECTION('',(0.,0.,1.));
#1431=DIRECTION('',(-1.,0.,0.));
#1432=DIRECTION('',(0.,0.,1.));
#1433=DIRECTION('',(0.,0.,1.));
#1434=DIRECTION('',(1.,0.,0.));
#1435=DIRECTION('',(0.,0.,-1.));
#1436=DIRECTION('',(1.,0.,0.));
#1437=DIRECTION('',(0.,0.,-1.));
#1438=DIRECTION('',(0.,0.,1.));
#1439=DIRECTION('',(-1.,0.,0.));
#1440=DIRECTION('',(0.,0.,1.));
#1441=DIRECTION('',(0.,0.,1.));
#1442=DIRECTION('',(1.,0.,0.));
#1443=DIRECTION('',(0.,0.,1.));
#1444=DIRECTION('',(-1.,0.,0.));
#1445=DIRECTION('',(0.,0.,1.));
#1446=DIRECTION('',(0.,0.,-1.));
#1447=DIRECTION('',(1.,0.,0.));
#1448=DIRECTION('',(0.,0.,-1.));
#1449=DIRECTION('',(0.,0.,1.));
#1450=DIRECTION('',(1.,0.,0.));
#1451=DIRECTION('',(0.,0.,-1.));
#1452=DIRECTION('',(-1.,0.,0.));
#1453=DIRECTION('',(0.,0.,-1.));
#1454=DIRECTION('',(0.,0.,1.));
#1455=DIRECTION('',(1.,0.,0.));
#1456=DIRECTION('',(0.,0.,1.));
#1457=DIRECTION('',(0.,0.,1.));
#1458=DIRECTION('',(1.,0.,0.));
#1459=DIRECTION('',(0.,0.,1.));
#1460=DIRECTION('',(1.,0.,0.));
#1461=DIRECTION('',(0.,0.,1.));
#1462=DIRECTION('',(0.,0.,-1.));
#1463=DIRECTION('',(-1.,0.,0.));
#1464=DIRECTION('',(0.,0.,-1.));
#1465=DIRECTION('',(0.,0.,1.));
#1466=DIRECTION('',(1.,0.,0.));
#1467=DIRECTION('',(0.,0.,1.));
#1468=DIRECTION('',(1.,0.,0.));
#1469=DIRECTION('',(0.,0.,1.));
#1470=DIRECTION('',(0.,0.,-1.));
#1471=DIRECTION('',(-1.,0.,0.));
#1472=DIRECTION('',(0.,0.,-1.));
#1473=DIRECTION('',(0.,0.,1.));
#1474=DIRECTION('',(1.,0.,0.));
#1475=DIRECTION('',(0.,0.,1.));
#1476=DIRECTION('',(0.,-5.75290948665778E-17,-1.));
#1477=DIRECTION('',(0.,0.,1.));
#1478=DIRECTION('',(0.,-5.75290948665826E-17,-1.));
#1479=DIRECTION('',(1.,0.,0.));
#1480=DIRECTION('',(1.,0.,0.));
#1481=DIRECTION('',(0.,-1.,0.));
#1482=DIRECTION('',(0.,0.,-1.));
#1483=DIRECTION('',(1.,0.,0.));
#1484=DIRECTION('',(0.,-1.,0.));
#1485=DIRECTION('',(0.,0.,-1.));
#1486=DIRECTION('',(-1.,0.,0.));
#1487=DIRECTION('',(1.,0.,0.));
#1488=DIRECTION('',(-1.,0.,0.));
#1489=DIRECTION('',(0.,1.,0.));
#1490=DIRECTION('',(0.,0.,1.));
#1491=DIRECTION('',(0.,-1.,0.));
#1492=DIRECTION('',(1.,0.,0.));
#1493=DIRECTION('',(0.,0.,-1.));
#1494=DIRECTION('',(-1.,0.,0.));
#1495=DIRECTION('',(-1.5770213417971E-16,0.,1.));
#1496=DIRECTION('',(1.,0.,4.33680868994201E-16));
#1497=DIRECTION('',(0.,0.,-1.));
#1498=DIRECTION('',(-1.,0.,0.));
#1499=DIRECTION('',(0.,0.,-1.));
#1500=DIRECTION('',(-1.,0.,4.33680868994201E-16));
#1501=DIRECTION('',(1.5770213417971E-16,0.,1.));
#1502=DIRECTION('',(1.,0.,0.));
#1503=DIRECTION('',(0.,0.,-1.));
#1504=DIRECTION('',(-1.,0.,0.));
#1505=DIRECTION('',(0.,0.,-1.));
#1506=DIRECTION('',(-1.,0.,0.));
#1507=DIRECTION('',(0.,1.,0.));
#1508=DIRECTION('',(0.,0.,1.));
#1509=DIRECTION('',(0.,1.,0.));
#1510=DIRECTION('',(0.,0.,1.));
#1511=DIRECTION('',(0.,1.,0.));
#1512=DIRECTION('',(0.,0.,1.));
#1513=DIRECTION('',(0.,1.,0.));
#1514=DIRECTION('',(0.,0.,1.));
#1515=DIRECTION('',(0.,1.,0.));
#1516=DIRECTION('',(0.,0.,1.));
#1517=DIRECTION('',(0.,-1.,0.));
#1518=DIRECTION('',(1.,0.,4.33680868994201E-16));
#1519=DIRECTION('',(0.,-1.,0.));
#1520=DIRECTION('',(4.33680868994201E-16,0.,-1.));
#1521=DIRECTION('',(-1.,0.,-4.33680868994202E-16));
#1522=DIRECTION('',(0.,-1.,0.));
#1523=DIRECTION('',(0.,1.,0.));
#1524=DIRECTION('',(0.,0.,1.));
#1525=DIRECTION('',(0.,-1.,0.));
#1526=DIRECTION('',(0.,-1.,0.));
#1527=DIRECTION('',(0.,0.,-1.));
#1528=DIRECTION('',(0.,-1.,0.));
#1529=DIRECTION('',(0.,1.,0.));
#1530=DIRECTION('',(0.,0.,1.));
#1531=DIRECTION('',(0.,-1.,0.));
#1532=DIRECTION('',(0.,-1.,0.));
#1533=DIRECTION('',(0.,0.,-1.));
#1534=DIRECTION('',(0.,0.,-1.));
#1535=DIRECTION('',(0.,-1.,0.));
#1536=DIRECTION('',(0.,-1.,0.));
#1537=DIRECTION('',(-1.,0.,0.));
#1538=DIRECTION('',(0.,0.,1.));
#1539=DIRECTION('',(0.,-1.,0.));
#1540=DIRECTION('',(1.,0.,0.));
#1541=DIRECTION('',(0.,0.,1.));
#1542=DIRECTION('',(1.,0.,0.));
#1543=DIRECTION('',(0.,-1.,0.));
#1544=DIRECTION('',(0.,0.,-1.));
#1545=DIRECTION('',(0.,-1.,0.));
#1546=DIRECTION('',(0.,-1.,0.));
#1547=DIRECTION('',(-1.,0.,0.));
#1548=DIRECTION('',(0.,0.,1.));
#1549=DIRECTION('',(-1.,0.,4.33680868994201E-16));
#1550=DIRECTION('',(0.,-1.,0.));
#1551=DIRECTION('',(4.33680868994201E-16,0.,1.));
#1552=DIRECTION('',(1.,0.,-4.33680868994202E-16));
#1553=DIRECTION('',(1.5770213417971E-16,0.,1.));
#1554=DIRECTION('',(0.,-1.,0.));
#1555=DIRECTION('',(1.,0.,-1.5770213417971E-16));
#1556=DIRECTION('',(-1.57859836313889E-16,0.,-1.));
#1557=DIRECTION('',(1.,0.,0.));
#1558=DIRECTION('',(0.,-1.,0.));
#1559=DIRECTION('',(0.,0.,-1.));
#1560=DIRECTION('',(-1.,0.,0.));
#1561=DIRECTION('',(0.,-1.,0.));
#1562=DIRECTION('',(0.,-1.,0.));
#1563=DIRECTION('',(0.,0.,-1.));
#1564=DIRECTION('',(-1.,0.,0.));
#1565=DIRECTION('',(0.,0.,1.));
#1566=DIRECTION('',(0.,-1.,0.));
#1567=DIRECTION('',(-1.,0.,0.));
#1568=DIRECTION('',(0.,0.,1.));
#1569=DIRECTION('',(1.,0.,0.));
#1570=DIRECTION('',(0.,-1.,0.));
#1571=DIRECTION('',(0.,0.,-1.));
#1572=DIRECTION('',(0.,-1.,0.));
#1573=DIRECTION('',(0.,-1.,0.));
#1574=DIRECTION('',(-1.,0.,0.));
#1575=DIRECTION('',(0.,0.,1.));
#1576=DIRECTION('',(-1.,0.,0.));
#1577=DIRECTION('',(0.,-1.,0.));
#1578=DIRECTION('',(0.,0.,1.));
#1579=DIRECTION('',(1.,0.,0.));
#1580=DIRECTION('',(-1.5770213417971E-16,0.,1.));
#1581=DIRECTION('',(1.,0.,1.5770213417971E-16));
#1582=DIRECTION('',(1.57859836313889E-16,0.,-1.));
#1583=DIRECTION('',(0.,-1.,0.));
#1584=DIRECTION('',(0.,0.,-1.));
#1585=DIRECTION('',(0.,1.,0.));
#1586=DIRECTION('',(0.,0.,1.));
#1587=DIRECTION('',(0.,0.,-1.));
#1588=DIRECTION('',(-1.,0.,0.));
#1589=DIRECTION('',(1.,0.,0.));
#1590=DIRECTION('',(0.,0.,-1.));
#1591=DIRECTION('',(-1.,0.,0.));
#1592=DIRECTION('',(0.,0.,-1.));
#1593=DIRECTION('',(-1.,0.,0.));
#1594=DIRECTION('',(0.,1.,0.));
#1595=DIRECTION('',(0.,0.,1.));
#1596=DIRECTION('',(0.,1.,0.));
#1597=DIRECTION('',(0.,0.,1.));
#1598=DIRECTION('',(1.,0.,0.));
#1599=DIRECTION('',(0.,1.,0.));
#1600=DIRECTION('',(0.,0.,1.));
#1601=DIRECTION('',(0.,0.,-1.));
#1602=DIRECTION('',(-1.,0.,0.));
#1603=DIRECTION('',(0.,-1.,0.));
#1604=DIRECTION('',(0.,0.,-1.));
#1605=DIRECTION('',(0.,-1.,0.));
#1606=DIRECTION('',(0.,0.,-1.));
#1607=DIRECTION('',(-1.73693613347182E-18,7.09820524353808E-17,-1.));
#1608=DIRECTION('',(-1.73693613347179E-18,7.09820524353805E-17,-1.));
#1609=CARTESIAN_POINT('',(0.,0.,0.));
#1610=CARTESIAN_POINT('',(8.,10.,-19.));
#1611=CARTESIAN_POINT('',(8.,10.,-19.));
#1612=CARTESIAN_POINT('',(8.,3.,-12.));
#1613=CARTESIAN_POINT('',(8.,3.,-19.));
#1614=CARTESIAN_POINT('',(8.,3.,-19.));
#1615=CARTESIAN_POINT('',(8.,3.,-12.));
#1616=CARTESIAN_POINT('',(8.,0.,0.));
#1617=CARTESIAN_POINT('',(10.,10.,-19.));
#1618=CARTESIAN_POINT('',(10.,10.,-19.));
#1619=CARTESIAN_POINT('',(10.,3.,-12.));
#1620=CARTESIAN_POINT('',(8.,10.,-19.));
#1621=CARTESIAN_POINT('',(8.,3.,-12.));
#1622=CARTESIAN_POINT('',(8.,10.,-19.));
#1623=CARTESIAN_POINT('',(8.,3.,19.));
#1624=CARTESIAN_POINT('',(8.,3.,19.));
#1625=CARTESIAN_POINT('',(8.,3.,12.));
#1626=CARTESIAN_POINT('',(8.,10.,19.));
#1627=CARTESIAN_POINT('',(8.,10.,19.));
#1628=CARTESIAN_POINT('',(8.,3.,12.));
#1629=CARTESIAN_POINT('',(8.,0.,0.));
#1630=CARTESIAN_POINT('',(10.,3.,12.));
#1631=CARTESIAN_POINT('',(10.,3.,12.));
#1632=CARTESIAN_POINT('',(10.,10.,19.));
#1633=CARTESIAN_POINT('',(8.,3.,12.));
#1634=CARTESIAN_POINT('',(8.,10.,19.));
#1635=CARTESIAN_POINT('',(8.,3.,12.));
#1636=CARTESIAN_POINT('',(-8.,-4.5,4.5));
#1637=CARTESIAN_POINT('',(-8.,3.,12.));
#1638=CARTESIAN_POINT('',(-8.,10.,19.));
#1639=CARTESIAN_POINT('',(-8.,0.,19.));
#1640=CARTESIAN_POINT('',(-8.,3.,19.));
#1641=CARTESIAN_POINT('',(-8.,3.,0.));
#1642=CARTESIAN_POINT('',(-8.,0.,0.));
#1643=CARTESIAN_POINT('',(-10.,-4.5,4.5));
#1644=CARTESIAN_POINT('',(-10.,3.,12.));
#1645=CARTESIAN_POINT('',(-10.,10.,19.));
#1646=CARTESIAN_POINT('',(-8.,10.,19.));
#1647=CARTESIAN_POINT('',(-8.,3.,12.));
#1648=CARTESIAN_POINT('',(-8.,-4.5,4.5));
#1649=CARTESIAN_POINT('',(-8.,-4.5,-4.5));
#1650=CARTESIAN_POINT('',(-8.,3.,-12.));
#1651=CARTESIAN_POINT('',(-8.,10.,-19.));
#1652=CARTESIAN_POINT('',(-8.,3.,-5.57589688706832E-16));
#1653=CARTESIAN_POINT('',(-8.,3.,-19.));
#1654=CARTESIAN_POINT('',(-8.,0.,-19.));
#1655=CARTESIAN_POINT('',(-8.,0.,0.));
#1656=CARTESIAN_POINT('',(-10.,-4.5,-4.5));
#1657=CARTESIAN_POINT('',(-10.,3.,-12.));
#1658=CARTESIAN_POINT('',(-10.,10.,-19.));
#1659=CARTESIAN_POINT('',(-8.,3.,-12.));
#1660=CARTESIAN_POINT('',(-8.,10.,-19.));
#1661=CARTESIAN_POINT('',(-8.,-4.5,-4.5));
#1662=CARTESIAN_POINT('',(-2.40218712244828,16.,19.));
#1663=CARTESIAN_POINT('',(-2.45632639737184,16.5770104478501,18.6668628626085));
#1664=CARTESIAN_POINT('',(-2.50480035028014,17.1543798619331,18.3335184759658));
#1665=CARTESIAN_POINT('',(-2.54851543400408,17.7320508075689,18.));
#1666=CARTESIAN_POINT('',(-2.40218712244828,16.,19.));
#1667=CARTESIAN_POINT('',(-2.54851543400408,17.7320508075689,18.));
#1668=CARTESIAN_POINT('',(0.,16.,19.));
#1669=CARTESIAN_POINT('',(-10.,16.,19.));
#1670=CARTESIAN_POINT('',(-10.,14.4772413359522,19.8791651245988));
#1671=CARTESIAN_POINT('',(-10.,17.7320508075689,18.));
#1672=CARTESIAN_POINT('',(-10.,17.7320508075689,18.));
#1673=CARTESIAN_POINT('',(0.,17.7320508075689,18.));
#1674=CARTESIAN_POINT('',(10.,17.7320508075689,18.));
#1675=CARTESIAN_POINT('',(10.,16.,19.));
#1676=CARTESIAN_POINT('',(10.,17.7320508075689,18.));
#1677=CARTESIAN_POINT('',(0.,16.,19.));
#1678=CARTESIAN_POINT('',(2.40218712244829,16.,19.));
#1679=CARTESIAN_POINT('',(2.54851543400409,17.7320508075689,18.));
#1680=CARTESIAN_POINT('',(2.50480035028014,17.1543798619331,18.3335184759658));
#1681=CARTESIAN_POINT('',(2.45632639737185,16.5770104478501,18.6668628626085));
#1682=CARTESIAN_POINT('',(2.40218712244829,16.,19.));
#1683=CARTESIAN_POINT('',(2.54851543400409,17.7320508075689,18.));
#1684=CARTESIAN_POINT('',(2.40218712244829,17.7320508075689,18.));
#1685=CARTESIAN_POINT('',(0.,17.7320508075689,18.));
#1686=CARTESIAN_POINT('',(2.40218712244829,16.,-19.));
#1687=CARTESIAN_POINT('',(2.45632639737185,16.5770104478501,-18.6668628626085));
#1688=CARTESIAN_POINT('',(2.50480035028014,17.1543798619331,-18.3335184759658));
#1689=CARTESIAN_POINT('',(2.54851543400409,17.7320508075689,-18.));
#1690=CARTESIAN_POINT('',(2.40218712244829,16.,-19.));
#1691=CARTESIAN_POINT('',(2.54851543400409,17.7320508075689,-18.));
#1692=CARTESIAN_POINT('',(0.,16.,-19.));
#1693=CARTESIAN_POINT('',(10.,16.,-19.));
#1694=CARTESIAN_POINT('',(10.,17.7320508075689,-18.));
#1695=CARTESIAN_POINT('',(10.,17.7320508075689,-18.));
#1696=CARTESIAN_POINT('',(10.,17.7320508075689,-18.));
#1697=CARTESIAN_POINT('',(0.,17.7320508075689,-18.));
#1698=CARTESIAN_POINT('',(-10.,14.4772413359522,-19.8791651245988));
#1699=CARTESIAN_POINT('',(-10.,16.,-19.));
#1700=CARTESIAN_POINT('',(-10.,17.7320508075689,-18.));
#1701=CARTESIAN_POINT('',(0.,16.,-19.));
#1702=CARTESIAN_POINT('',(-2.40218712244828,16.,-19.));
#1703=CARTESIAN_POINT('',(-2.54851543400408,17.7320508075689,-18.));
#1704=CARTESIAN_POINT('',(-2.50480035028014,17.1543798619331,-18.3335184759658));
#1705=CARTESIAN_POINT('',(-2.45632639737184,16.5770104478501,-18.6668628626085));
#1706=CARTESIAN_POINT('',(-2.40218712244828,16.,-19.));
#1707=CARTESIAN_POINT('',(-2.54851543400408,17.7320508075689,-18.));
#1708=CARTESIAN_POINT('',(-2.40218712244828,17.7320508075689,-18.));
#1709=CARTESIAN_POINT('',(0.,17.7320508075689,-18.));
#1710=CARTESIAN_POINT('',(-2.568449878278,18.,18.));
#1711=CARTESIAN_POINT('',(-2.56189296651757,17.9103364173527,18.));
#1712=CARTESIAN_POINT('',(-2.55524803768561,17.8210184865481,18.));
#1713=CARTESIAN_POINT('',(-2.54851543400408,17.7320508075689,18.));
#1714=CARTESIAN_POINT('',(-2.568449878278,18.,18.));
#1715=CARTESIAN_POINT('',(-10.,0.,18.));
#1716=CARTESIAN_POINT('',(-10.,18.,18.));
#1717=CARTESIAN_POINT('',(0.,18.,18.));
#1718=CARTESIAN_POINT('',(0.,0.,18.));
#1719=CARTESIAN_POINT('',(0.,18.,19.));
#1720=CARTESIAN_POINT('',(-2.568449878278,18.,19.));
#1721=CARTESIAN_POINT('',(-10.,18.,19.));
#1722=CARTESIAN_POINT('',(-2.568449878278,18.,18.));
#1723=CARTESIAN_POINT('',(-10.,18.,18.));
#1724=CARTESIAN_POINT('',(0.,18.,18.));
#1725=CARTESIAN_POINT('',(10.,0.,18.));
#1726=CARTESIAN_POINT('',(10.,18.,18.));
#1727=CARTESIAN_POINT('',(2.54851543400409,17.7320508075689,18.));
#1728=CARTESIAN_POINT('',(2.55524803768562,17.8210184865481,18.));
#1729=CARTESIAN_POINT('',(2.56189296651758,17.9103364173527,18.));
#1730=CARTESIAN_POINT('',(2.568449878278,18.,18.));
#1731=CARTESIAN_POINT('',(2.568449878278,18.,18.));
#1732=CARTESIAN_POINT('',(0.,18.,18.));
#1733=CARTESIAN_POINT('',(0.,0.,18.));
#1734=CARTESIAN_POINT('',(0.,18.,19.));
#1735=CARTESIAN_POINT('',(10.,18.,19.));
#1736=CARTESIAN_POINT('',(2.568449878278,18.,19.));
#1737=CARTESIAN_POINT('',(10.,18.,18.));
#1738=CARTESIAN_POINT('',(2.568449878278,18.,18.));
#1739=CARTESIAN_POINT('',(0.,18.,18.));
#1740=CARTESIAN_POINT('',(2.568449878278,18.,-18.));
#1741=CARTESIAN_POINT('',(2.56189296651758,17.9103364173527,-18.));
#1742=CARTESIAN_POINT('',(2.55524803768562,17.8210184865481,-18.));
#1743=CARTESIAN_POINT('',(2.54851543400409,17.7320508075689,-18.));
#1744=CARTESIAN_POINT('',(2.568449878278,18.,-18.));
#1745=CARTESIAN_POINT('',(10.,0.,-18.));
#1746=CARTESIAN_POINT('',(10.,18.,-18.));
#1747=CARTESIAN_POINT('',(0.,18.,-18.));
#1748=CARTESIAN_POINT('',(0.,0.,-18.));
#1749=CARTESIAN_POINT('',(0.,18.,-19.));
#1750=CARTESIAN_POINT('',(2.568449878278,18.,-19.));
#1751=CARTESIAN_POINT('',(10.,18.,-19.));
#1752=CARTESIAN_POINT('',(2.568449878278,18.,-18.));
#1753=CARTESIAN_POINT('',(10.,18.,-18.));
#1754=CARTESIAN_POINT('',(0.,18.,-18.));
#1755=CARTESIAN_POINT('',(-10.,0.,-18.));
#1756=CARTESIAN_POINT('',(-10.,18.,-18.));
#1757=CARTESIAN_POINT('',(-2.54851543400408,17.7320508075689,-18.));
#1758=CARTESIAN_POINT('',(-2.55524803768561,17.8210184865481,-18.));
#1759=CARTESIAN_POINT('',(-2.56189296651757,17.9103364173527,-18.));
#1760=CARTESIAN_POINT('',(-2.568449878278,18.,-18.));
#1761=CARTESIAN_POINT('',(-2.568449878278,18.,-18.));
#1762=CARTESIAN_POINT('',(0.,18.,-18.));
#1763=CARTESIAN_POINT('',(0.,0.,-18.));
#1764=CARTESIAN_POINT('',(0.,18.,-19.));
#1765=CARTESIAN_POINT('',(-10.,18.,-19.));
#1766=CARTESIAN_POINT('',(-2.568449878278,18.,-19.));
#1767=CARTESIAN_POINT('',(-10.,18.,-18.));
#1768=CARTESIAN_POINT('',(-2.568449878278,18.,-18.));
#1769=CARTESIAN_POINT('',(0.,18.,-18.));
#1770=CARTESIAN_POINT('',(9.,27.,21.5));
#1771=CARTESIAN_POINT('',(10.,27.,21.5));
#1772=CARTESIAN_POINT('',(9.,28.,21.5));
#1773=CARTESIAN_POINT('',(10.,27.,0.));
#1774=CARTESIAN_POINT('',(10.,27.,19.));
#1775=CARTESIAN_POINT('',(9.,27.,19.));
#1776=CARTESIAN_POINT('',(9.,28.,19.));
#1777=CARTESIAN_POINT('',(9.,28.,0.));
#1778=CARTESIAN_POINT('',(9.,27.,0.));
#1779=CARTESIAN_POINT('',(-9.,27.,-21.5));
#1780=CARTESIAN_POINT('',(-10.,27.,-21.5));
#1781=CARTESIAN_POINT('',(-9.,28.,-21.5));
#1782=CARTESIAN_POINT('',(-10.,27.,0.));
#1783=CARTESIAN_POINT('',(-10.,27.,-19.));
#1784=CARTESIAN_POINT('',(-9.,27.,-19.));
#1785=CARTESIAN_POINT('',(-9.,28.,-19.));
#1786=CARTESIAN_POINT('',(-9.,28.,0.));
#1787=CARTESIAN_POINT('',(-9.,27.,0.));
#1788=CARTESIAN_POINT('',(-3.90801081066802,27.,-21.5));
#1789=CARTESIAN_POINT('',(-3.90801081066802,28.,-21.5));
#1790=CARTESIAN_POINT('',(-2.90803140156036,27.0064172705015,-21.5));
#1791=CARTESIAN_POINT('',(-3.90801081066802,28.,-21.5));
#1792=CARTESIAN_POINT('',(-3.90801081066802,28.,-19.));
#1793=CARTESIAN_POINT('',(-3.90801081066802,27.,-19.));
#1794=CARTESIAN_POINT('',(-2.90803140156036,27.0064172705015,-19.));
#1795=CARTESIAN_POINT('',(-2.90803140156036,27.0064172705015,-21.5));
#1796=CARTESIAN_POINT('',(-3.90801081066802,27.,-20.25));
#1797=CARTESIAN_POINT('',(3.90801081066803,27.,-21.5));
#1798=CARTESIAN_POINT('',(2.90803140156036,27.0064172705015,-21.5));
#1799=CARTESIAN_POINT('',(3.90801081066803,28.,-21.5));
#1800=CARTESIAN_POINT('',(2.90803140156036,27.0064172705015,-19.));
#1801=CARTESIAN_POINT('',(2.90803140156036,27.0064172705015,-19.));
#1802=CARTESIAN_POINT('',(3.90801081066803,27.,-19.));
#1803=CARTESIAN_POINT('',(3.90801081066803,28.,-19.));
#1804=CARTESIAN_POINT('',(3.90801081066803,28.,-19.));
#1805=CARTESIAN_POINT('',(3.90801081066803,27.,-20.25));
#1806=CARTESIAN_POINT('',(9.,27.,-19.));
#1807=CARTESIAN_POINT('',(10.,27.,-19.));
#1808=CARTESIAN_POINT('',(9.,28.,-19.));
#1809=CARTESIAN_POINT('',(10.,27.,-19.));
#1810=CARTESIAN_POINT('',(10.,27.,-21.5));
#1811=CARTESIAN_POINT('',(9.,27.,-21.5));
#1812=CARTESIAN_POINT('',(9.,28.,-21.5));
#1813=CARTESIAN_POINT('',(9.,28.,-21.5));
#1814=CARTESIAN_POINT('',(9.,27.,0.));
#1815=CARTESIAN_POINT('',(3.90801081066803,27.,19.));
#1816=CARTESIAN_POINT('',(2.90803140156036,27.0064172705015,19.));
#1817=CARTESIAN_POINT('',(3.90801081066803,28.,19.));
#1818=CARTESIAN_POINT('',(2.90803140156036,27.0064172705015,21.5));
#1819=CARTESIAN_POINT('',(2.90803140156036,27.0064172705015,21.5));
#1820=CARTESIAN_POINT('',(3.90801081066803,27.,21.5));
#1821=CARTESIAN_POINT('',(3.90801081066803,28.,21.5));
#1822=CARTESIAN_POINT('',(3.90801081066803,28.,0.));
#1823=CARTESIAN_POINT('',(3.90801081066803,27.,20.25));
#1824=CARTESIAN_POINT('',(-3.90801081066802,27.,21.5));
#1825=CARTESIAN_POINT('',(-2.90803140156036,27.0064172705015,21.5));
#1826=CARTESIAN_POINT('',(-3.90801081066802,28.,21.5));
#1827=CARTESIAN_POINT('',(-2.90803140156036,27.0064172705015,19.));
#1828=CARTESIAN_POINT('',(-2.90803140156036,27.0064172705015,19.));
#1829=CARTESIAN_POINT('',(-3.90801081066802,27.,19.));
#1830=CARTESIAN_POINT('',(-3.90801081066802,28.,19.));
#1831=CARTESIAN_POINT('',(-3.90801081066802,28.,0.));
#1832=CARTESIAN_POINT('',(-3.90801081066802,27.,20.25));
#1833=CARTESIAN_POINT('',(-9.,27.,21.5));
#1834=CARTESIAN_POINT('',(-9.,28.,21.5));
#1835=CARTESIAN_POINT('',(-10.,27.,21.5));
#1836=CARTESIAN_POINT('',(-9.,28.,21.5));
#1837=CARTESIAN_POINT('',(-9.,28.,19.));
#1838=CARTESIAN_POINT('',(-9.,27.,19.));
#1839=CARTESIAN_POINT('',(-10.,27.,19.));
#1840=CARTESIAN_POINT('',(-10.,27.,19.));
#1841=CARTESIAN_POINT('',(-9.,27.,0.));
#1842=CARTESIAN_POINT('',(3.46944695195361E-15,6.75789654480535,-21.5));
#1843=CARTESIAN_POINT('',(3.46944695195361E-15,6.75789654480535,-21.5));
#1844=CARTESIAN_POINT('',(3.46944695195361E-15,6.75789654480535,-19.));
#1845=CARTESIAN_POINT('',(-2.90803140156036,27.0064172705015,-21.5));
#1846=CARTESIAN_POINT('',(-2.8311933918516,15.0330358262904,-21.5));
#1847=CARTESIAN_POINT('',(-1.64274287693049,6.75789654480535,-21.5));
#1848=CARTESIAN_POINT('',(3.46944695195361E-15,6.75789654480535,-21.5));
#1849=CARTESIAN_POINT('',(-2.568449878278,18.,-19.));
#1850=CARTESIAN_POINT('',(-2.77266939022192,20.7926337514402,-19.));
#1851=CARTESIAN_POINT('',(-2.88774050355095,23.8445620554447,-19.));
#1852=CARTESIAN_POINT('',(-2.90803140156036,27.0064172705015,-19.));
#1853=CARTESIAN_POINT('',(3.46944695195361E-15,6.75789654480535,-19.));
#1854=CARTESIAN_POINT('',(-0.980691761134007,6.75789654480535,-19.));
#1855=CARTESIAN_POINT('',(-1.84817884551702,10.0954406124555,-19.));
#1856=CARTESIAN_POINT('',(-2.40218712244828,16.,-19.));
#1857=CARTESIAN_POINT('',(3.46944695195361E-15,6.75789654480535,-19.75));
#1858=CARTESIAN_POINT('',(-1.64274287693049,6.75789654480535,-19.75));
#1859=CARTESIAN_POINT('',(-2.8311933918516,15.0330358262904,-19.75));
#1860=CARTESIAN_POINT('',(-2.90803140156036,27.0064172705015,-19.75));
#1861=CARTESIAN_POINT('',(3.46944695195361E-15,6.75789654480535,-21.5));
#1862=CARTESIAN_POINT('',(3.46944695195361E-15,6.75789654480535,19.));
#1863=CARTESIAN_POINT('',(3.46944695195361E-15,6.75789654480535,21.5));
#1864=CARTESIAN_POINT('',(3.46944695195361E-15,6.75789654480535,19.));
#1865=CARTESIAN_POINT('',(-0.980691761134006,6.75789654480535,19.));
#1866=CARTESIAN_POINT('',(-1.84817884551702,10.0954406124555,19.));
#1867=CARTESIAN_POINT('',(-2.40218712244828,16.,19.));
#1868=CARTESIAN_POINT('',(-2.568449878278,18.,19.));
#1869=CARTESIAN_POINT('',(-2.77266939022192,20.7926337514402,19.));
#1870=CARTESIAN_POINT('',(-2.88774050355095,23.8445620554447,19.));
#1871=CARTESIAN_POINT('',(-2.90803140156036,27.0064172705015,19.));
#1872=CARTESIAN_POINT('',(-2.90803140156036,27.0064172705015,21.5));
#1873=CARTESIAN_POINT('',(-2.8311933918516,15.0330358262904,21.5));
#1874=CARTESIAN_POINT('',(-1.64274287693049,6.75789654480535,21.5));
#1875=CARTESIAN_POINT('',(3.46944695195361E-15,6.75789654480535,21.5));
#1876=CARTESIAN_POINT('',(3.46944695195361E-15,6.75789654480535,19.75));
#1877=CARTESIAN_POINT('',(-1.64274287693049,6.75789654480535,19.75));
#1878=CARTESIAN_POINT('',(-2.8311933918516,15.0330358262904,19.75));
#1879=CARTESIAN_POINT('',(-2.90803140156036,27.0064172705015,19.75));
#1880=CARTESIAN_POINT('',(-10.,28.,19.));
#1881=CARTESIAN_POINT('',(-10.,28.,21.5));
#1882=CARTESIAN_POINT('',(0.,28.,0.));
#1883=CARTESIAN_POINT('',(2.90803140156036,27.0064172705015,19.));
#1884=CARTESIAN_POINT('',(2.88774050355096,23.8445620554447,19.));
#1885=CARTESIAN_POINT('',(2.77266939022193,20.7926337514402,19.));
#1886=CARTESIAN_POINT('',(2.568449878278,18.,19.));
#1887=CARTESIAN_POINT('',(-10.,28.,19.));
#1888=CARTESIAN_POINT('',(10.,28.,19.));
#1889=CARTESIAN_POINT('',(-10.,28.,19.));
#1890=CARTESIAN_POINT('',(0.,28.,-19.));
#1891=CARTESIAN_POINT('',(0.,28.,-21.5));
#1892=CARTESIAN_POINT('',(0.,28.,0.));
#1893=CARTESIAN_POINT('',(-10.,28.,-19.));
#1894=CARTESIAN_POINT('',(0.,28.,-19.));
#1895=CARTESIAN_POINT('',(0.,28.,-19.));
#1896=CARTESIAN_POINT('',(5.99999999999999,0.,9.46212805078258E-16));
#1897=CARTESIAN_POINT('',(5.99999999999999,0.,-11.));
#1898=CARTESIAN_POINT('',(5.99999999999999,0.,11.));
#1899=CARTESIAN_POINT('',(-4.77048955893621E-15,0.,11.));
#1900=CARTESIAN_POINT('',(10.,0.,11.));
#1901=CARTESIAN_POINT('',(10.,0.,0.));
#1902=CARTESIAN_POINT('',(10.,0.,21.5));
#1903=CARTESIAN_POINT('',(0.,0.,21.5));
#1904=CARTESIAN_POINT('',(-10.,0.,21.5));
#1905=CARTESIAN_POINT('',(-10.,0.,0.));
#1906=CARTESIAN_POINT('',(-10.,0.,11.));
#1907=CARTESIAN_POINT('',(4.77048955893621E-15,0.,11.));
#1908=CARTESIAN_POINT('',(-5.99999999999999,0.,11.));
#1909=CARTESIAN_POINT('',(-6.,0.,9.46212805078258E-16));
#1910=CARTESIAN_POINT('',(-6.,0.,-11.));
#1911=CARTESIAN_POINT('',(0.,0.,-11.));
#1912=CARTESIAN_POINT('',(-10.,0.,-11.));
#1913=CARTESIAN_POINT('',(-10.,0.,0.));
#1914=CARTESIAN_POINT('',(-10.,0.,-21.5));
#1915=CARTESIAN_POINT('',(0.,0.,-21.5));
#1916=CARTESIAN_POINT('',(10.,0.,-21.5));
#1917=CARTESIAN_POINT('',(10.,0.,0.));
#1918=CARTESIAN_POINT('',(10.,0.,-11.));
#1919=CARTESIAN_POINT('',(0.,0.,-11.));
#1920=CARTESIAN_POINT('',(-1.73472347597681E-15,0.,7.5));
#1921=CARTESIAN_POINT('',(-1.73472347597681E-15,0.,5.9));
#1922=CARTESIAN_POINT('',(-1.53877998811323E-15,0.,9.1));
#1923=CARTESIAN_POINT('',(-1.73472347597681E-15,0.,7.5));
#1924=CARTESIAN_POINT('',(-1.73472347597681E-15,0.,-7.5));
#1925=CARTESIAN_POINT('',(-1.73472347597681E-15,0.,-9.1));
#1926=CARTESIAN_POINT('',(-1.53877998811323E-15,0.,-5.9));
#1927=CARTESIAN_POINT('',(-1.73472347597681E-15,0.,-7.5));
#1928=CARTESIAN_POINT('',(0.,0.,0.));
#1929=CARTESIAN_POINT('',(5.99999999999999,3.,11.));
#1930=CARTESIAN_POINT('',(5.99999999999999,3.,11.));
#1931=CARTESIAN_POINT('',(-4.77048955893621E-15,3.,11.));
#1932=CARTESIAN_POINT('',(10.,3.,11.));
#1933=CARTESIAN_POINT('',(10.,3.,11.));
#1934=CARTESIAN_POINT('',(-4.77048955893621E-15,3.,11.));
#1935=CARTESIAN_POINT('',(-1.53877998811323E-15,3.,-5.9));
#1936=CARTESIAN_POINT('',(-1.53877998811323E-15,3.,-5.9));
#1937=CARTESIAN_POINT('',(-1.73472347597681E-15,3.,-7.5));
#1938=CARTESIAN_POINT('',(-1.73472347597681E-15,3.,-9.1));
#1939=CARTESIAN_POINT('',(-1.73472347597681E-15,3.,-9.1));
#1940=CARTESIAN_POINT('',(-1.73472347597681E-15,3.,-7.5));
#1941=CARTESIAN_POINT('',(-1.53877998811323E-15,3.,9.1));
#1942=CARTESIAN_POINT('',(-1.53877998811323E-15,3.,9.1));
#1943=CARTESIAN_POINT('',(-1.73472347597681E-15,3.,7.5));
#1944=CARTESIAN_POINT('',(-1.73472347597681E-15,3.,5.9));
#1945=CARTESIAN_POINT('',(-1.73472347597681E-15,3.,5.9));
#1946=CARTESIAN_POINT('',(-1.73472347597681E-15,3.,7.5));
#1947=CARTESIAN_POINT('',(10.,3.,0.));
#1948=CARTESIAN_POINT('',(10.,28.,19.));
#1949=CARTESIAN_POINT('',(10.,3.,21.5));
#1950=CARTESIAN_POINT('',(10.,3.,0.));
#1951=CARTESIAN_POINT('',(-10.,3.,21.5));
#1952=CARTESIAN_POINT('',(-10.,28.,21.5));
#1953=CARTESIAN_POINT('',(3.46944695195361E-15,6.75789654480535,21.5));
#1954=CARTESIAN_POINT('',(1.6427428769305,6.75789654480535,21.5));
#1955=CARTESIAN_POINT('',(2.8311933918516,15.0330358262904,21.5));
#1956=CARTESIAN_POINT('',(2.90803140156036,27.0064172705015,21.5));
#1957=CARTESIAN_POINT('',(0.,3.,21.5));
#1958=CARTESIAN_POINT('',(-10.,28.,19.));
#1959=CARTESIAN_POINT('',(-10.,3.,0.));
#1960=CARTESIAN_POINT('',(-10.,3.,11.));
#1961=CARTESIAN_POINT('',(-10.,3.,11.));
#1962=CARTESIAN_POINT('',(-10.,28.,19.));
#1963=CARTESIAN_POINT('',(-10.,3.,0.));
#1964=CARTESIAN_POINT('',(4.77048955893621E-15,3.,11.));
#1965=CARTESIAN_POINT('',(-5.99999999999999,3.,11.));
#1966=CARTESIAN_POINT('',(-5.99999999999999,3.,11.));
#1967=CARTESIAN_POINT('',(4.77048955893621E-15,3.,11.));
#1968=CARTESIAN_POINT('',(-6.,3.,9.46212805078258E-16));
#1969=CARTESIAN_POINT('',(-6.,3.,-11.));
#1970=CARTESIAN_POINT('',(-6.,3.,-11.));
#1971=CARTESIAN_POINT('',(-6.,3.,9.46212805078258E-16));
#1972=CARTESIAN_POINT('',(0.,3.,-11.));
#1973=CARTESIAN_POINT('',(-10.,3.,-11.));
#1974=CARTESIAN_POINT('',(-10.,3.,-11.));
#1975=CARTESIAN_POINT('',(0.,3.,-11.));
#1976=CARTESIAN_POINT('',(-10.,28.,-19.));
#1977=CARTESIAN_POINT('',(-10.,3.,-21.5));
#1978=CARTESIAN_POINT('',(-10.,3.,0.));
#1979=CARTESIAN_POINT('',(-10.,3.,0.));
#1980=CARTESIAN_POINT('',(10.,3.,-21.5));
#1981=CARTESIAN_POINT('',(0.,28.,-21.5));
#1982=CARTESIAN_POINT('',(3.46944695195361E-15,6.75789654480535,-21.5));
#1983=CARTESIAN_POINT('',(1.6427428769305,6.75789654480535,-21.5));
#1984=CARTESIAN_POINT('',(2.8311933918516,15.0330358262904,-21.5));
#1985=CARTESIAN_POINT('',(2.90803140156036,27.0064172705015,-21.5));
#1986=CARTESIAN_POINT('',(0.,3.,-21.5));
#1987=CARTESIAN_POINT('',(10.,28.,-19.));
#1988=CARTESIAN_POINT('',(10.,3.,0.));
#1989=CARTESIAN_POINT('',(10.,3.,-11.));
#1990=CARTESIAN_POINT('',(10.,3.,-11.));
#1991=CARTESIAN_POINT('',(10.,28.,-19.));
#1992=CARTESIAN_POINT('',(10.,3.,0.));
#1993=CARTESIAN_POINT('',(0.,3.,-11.));
#1994=CARTESIAN_POINT('',(5.99999999999999,3.,-11.));
#1995=CARTESIAN_POINT('',(5.99999999999999,3.,-11.));
#1996=CARTESIAN_POINT('',(0.,3.,-11.));
#1997=CARTESIAN_POINT('',(5.99999999999999,3.,9.46212805078258E-16));
#1998=CARTESIAN_POINT('',(5.99999999999999,3.,9.46212805078258E-16));
#1999=CARTESIAN_POINT('',(0.,28.,0.));
#2000=CARTESIAN_POINT('',(0.,28.,0.));
#2001=CARTESIAN_POINT('',(2.90803140156036,27.0064172705015,-19.));
#2002=CARTESIAN_POINT('',(2.88774050355096,23.8445620554447,-19.));
#2003=CARTESIAN_POINT('',(2.77266939022193,20.7926337514402,-19.));
#2004=CARTESIAN_POINT('',(2.568449878278,18.,-19.));
#2005=CARTESIAN_POINT('',(0.,28.,-19.));
#2006=CARTESIAN_POINT('',(2.40218712244829,16.,-19.));
#2007=CARTESIAN_POINT('',(1.84817884551702,10.0954406124555,-19.));
#2008=CARTESIAN_POINT('',(0.980691761134012,6.75789654480535,-19.));
#2009=CARTESIAN_POINT('',(3.46944695195361E-15,6.75789654480535,-19.));
#2010=CARTESIAN_POINT('',(0.,3.,-19.));
#2011=CARTESIAN_POINT('',(0.,28.,-19.));
#2012=CARTESIAN_POINT('',(-10.,28.,19.));
#2013=CARTESIAN_POINT('',(-1.73472347597681E-15,3.,7.5));
#2014=CARTESIAN_POINT('',(-1.73472347597681E-15,3.,-7.5));
#2015=CARTESIAN_POINT('',(-10.,3.,19.));
#2016=CARTESIAN_POINT('',(0.,3.,0.));
#2017=CARTESIAN_POINT('',(2.40218712244829,16.,19.));
#2018=CARTESIAN_POINT('',(1.84817884551702,10.0954406124555,19.));
#2019=CARTESIAN_POINT('',(0.980691761134012,6.75789654480535,19.));
#2020=CARTESIAN_POINT('',(3.46944695195361E-15,6.75789654480535,19.));
#2021=CARTESIAN_POINT('',(-10.,28.,19.));
#2022=CARTESIAN_POINT('',(-1.73472347597681E-15,3.,7.5));
#2023=CARTESIAN_POINT('',(-1.73472347597681E-15,3.,-7.5));
#2024=CARTESIAN_POINT('',(2.90803140156036,27.0064172705015,19.75));
#2025=CARTESIAN_POINT('',(2.8311933918516,15.0330358262904,19.75));
#2026=CARTESIAN_POINT('',(1.6427428769305,6.75789654480535,19.75));
#2027=CARTESIAN_POINT('',(3.46944695195361E-15,6.75789654480535,19.75));
#2028=CARTESIAN_POINT('',(2.90803140156036,27.0064172705015,-19.75));
#2029=CARTESIAN_POINT('',(2.8311933918516,15.0330358262904,-19.75));
#2030=CARTESIAN_POINT('',(1.6427428769305,6.75789654480535,-19.75));
#2031=CARTESIAN_POINT('',(3.46944695195361E-15,6.75789654480535,-19.75));
#2032=MECHANICAL_DESIGN_GEOMETRIC_PRESENTATION_REPRESENTATION('',(#24),
#2033);
#2033=(
GEOMETRIC_REPRESENTATION_CONTEXT(3)
GLOBAL_UNCERTAINTY_ASSIGNED_CONTEXT((#2034))
GLOBAL_UNIT_ASSIGNED_CONTEXT((#2040,#2036,#2035))
REPRESENTATION_CONTEXT('A10_Sensor-St\X\FCtze',
'TOP_LEVEL_ASSEMBLY_PART')
);
#2034=UNCERTAINTY_MEASURE_WITH_UNIT(LENGTH_MEASURE(0.001),#2040,
'DISTANCE_ACCURACY_VALUE','Maximum Tolerance applied to model');
#2035=(
NAMED_UNIT(*)
SI_UNIT($,.STERADIAN.)
SOLID_ANGLE_UNIT()
);
#2036=(
CONVERSION_BASED_UNIT('DEGREE',#2038)
NAMED_UNIT(#2037)
PLANE_ANGLE_UNIT()
);
#2037=DIMENSIONAL_EXPONENTS(0.,0.,0.,0.,0.,0.,0.);
#2038=PLANE_ANGLE_MEASURE_WITH_UNIT(PLANE_ANGLE_MEASURE(0.0174532925),#2039);
#2039=(
NAMED_UNIT(*)
PLANE_ANGLE_UNIT()
SI_UNIT($,.RADIAN.)
);
#2040=(
LENGTH_UNIT()
NAMED_UNIT(*)
SI_UNIT(.MILLI.,.METRE.)
);
ENDSEC;
END-ISO-10303-21;
