ISO-10303-21;
HEADER;
/* Generated by software containing ST-Developer
 * from STEP Tools, Inc. (www.steptools.com) 
 */
/* OPTION: using custom schema-name function */

FILE_DESCRIPTION(
/* description */ (''),
/* implementation_level */ '2;1');

FILE_NAME(
/* name */ 'A11_Motorshield-St\X\FCtze.stp',
/* time_stamp */ '2026-09-06T09:25:27+02:00',
/* author */ (''),
/* organization */ (''),
/* preprocessor_version */ 'ST-DEVELOPER v20',
/* originating_system */ 'SIEMENS PLM Software NX2406.3002',
/* authorisation */ '');

FILE_SCHEMA (('AUTOMOTIVE_DESIGN { 1 0 10303 214 3 1 1 1 }'));
ENDSEC;

DATA;
#10=SHAPE_REPRESENTATION_RELATIONSHIP('None',
'relationship between A11_Motorshield-St\X\FCtze-None and A11_Motorshi
eld-St\X\FCtze-None',#22,#11);
#11=ADVANCED_BREP_SHAPE_REPRESENTATION('A11_Motorshield-St\X\FCtze-Non
e',(#32),#2021);
#12=SHAPE_DEFINITION_REPRESENTATION(#13,#22);
#13=PRODUCT_DEFINITION_SHAPE('','',#14);
#14=PRODUCT_DEFINITION(' ','',#16,#15);
#15=PRODUCT_DEFINITION_CONTEXT('part definition',#21,'design');
#16=PRODUCT_DEFINITION_FORMATION_WITH_SPECIFIED_SOURCE(' ',' ',#18,
 .NOT_KNOWN.);
#17=PRODUCT_RELATED_PRODUCT_CATEGORY('part','',(#18));
#18=PRODUCT('A11_Motorshield-St\X\FCtze','A11_Motorshield-St\X\FCtze',
' ',(#19));
#19=PRODUCT_CONTEXT(' ',#21,'mechanical');
#20=APPLICATION_PROTOCOL_DEFINITION('international standard',
'automotive_design',2010,#21);
#21=APPLICATION_CONTEXT(
'core data for automotive mechanical design processes');
#22=SHAPE_REPRESENTATION('A11_Motorshield-St\X\FCtze-None',(#1256),#2021);
#23=PRESENTATION_LAYER_ASSIGNMENT('1','Layer 1',(#32));
#24=STYLED_ITEM('',(#25),#32);
#25=PRESENTATION_STYLE_ASSIGNMENT((#26));
#26=SURFACE_STYLE_USAGE(.BOTH.,#27);
#27=SURFACE_SIDE_STYLE('',(#28));
#28=SURFACE_STYLE_FILL_AREA(#29);
#29=FILL_AREA_STYLE('',(#30));
#30=FILL_AREA_STYLE_COLOUR('',#31);
#31=COLOUR_RGB('medium steel',0.596078431372549,0.666666666666667,0.686274509803922);
#32=MANIFOLD_SOLID_BREP('',#33);
#33=CLOSED_SHELL('',(#90,#91,#92,#93,#94,#95,#96,#97,#98,#99,#100,#101,
#102,#103,#104,#105,#106,#107,#108,#109,#110,#111,#112,#113,#114,#115,#116,
#117,#118,#119,#120,#121,#122,#123,#124,#125,#126,#127,#128,#129,#130,#131,
#132,#133,#134,#135,#136,#137,#138,#139,#140,#141,#142,#143,#144,#145,#146,
#147,#148,#149));
#34=CYLINDRICAL_SURFACE('',#1331,0.7);
#35=CYLINDRICAL_SURFACE('',#1332,0.7);
#36=CYLINDRICAL_SURFACE('',#1333,0.7);
#37=CYLINDRICAL_SURFACE('',#1334,0.7);
#38=CYLINDRICAL_SURFACE('',#1335,0.7);
#39=CYLINDRICAL_SURFACE('',#1336,0.7);
#40=CYLINDRICAL_SURFACE('',#1337,0.7);
#41=CYLINDRICAL_SURFACE('',#1338,0.7);
#42=CYLINDRICAL_SURFACE('',#1339,0.7);
#43=CYLINDRICAL_SURFACE('',#1340,0.7);
#44=CYLINDRICAL_SURFACE('',#1341,0.7);
#45=CYLINDRICAL_SURFACE('',#1342,0.7);
#46=CYLINDRICAL_SURFACE('',#1343,0.7);
#47=CYLINDRICAL_SURFACE('',#1344,0.7);
#48=FACE_BOUND('',#298,.T.);
#49=FACE_BOUND('',#299,.T.);
#50=FACE_BOUND('',#300,.T.);
#51=FACE_BOUND('',#301,.T.);
#52=FACE_BOUND('',#302,.T.);
#53=FACE_BOUND('',#303,.T.);
#54=FACE_BOUND('',#304,.T.);
#55=FACE_BOUND('',#305,.T.);
#56=FACE_BOUND('',#306,.T.);
#57=FACE_BOUND('',#307,.T.);
#58=FACE_BOUND('',#308,.T.);
#59=FACE_BOUND('',#309,.T.);
#60=FACE_BOUND('',#310,.T.);
#61=FACE_BOUND('',#311,.T.);
#62=CIRCLE('',#1301,0.7);
#63=CIRCLE('',#1302,0.7);
#64=CIRCLE('',#1303,0.7);
#65=CIRCLE('',#1304,0.7);
#66=CIRCLE('',#1305,0.7);
#67=CIRCLE('',#1306,0.7);
#68=CIRCLE('',#1307,0.7);
#69=CIRCLE('',#1308,0.7);
#70=CIRCLE('',#1309,0.7);
#71=CIRCLE('',#1310,0.7);
#72=CIRCLE('',#1311,0.7);
#73=CIRCLE('',#1312,0.7);
#74=CIRCLE('',#1313,0.7);
#75=CIRCLE('',#1314,0.7);
#76=CIRCLE('',#1316,0.7);
#77=CIRCLE('',#1317,0.7);
#78=CIRCLE('',#1318,0.7);
#79=CIRCLE('',#1319,0.7);
#80=CIRCLE('',#1320,0.7);
#81=CIRCLE('',#1321,0.7);
#82=CIRCLE('',#1322,0.7);
#83=CIRCLE('',#1323,0.7);
#84=CIRCLE('',#1324,0.7);
#85=CIRCLE('',#1325,0.7);
#86=CIRCLE('',#1326,0.7);
#87=CIRCLE('',#1327,0.7);
#88=CIRCLE('',#1328,0.7);
#89=CIRCLE('',#1329,0.7);
#90=ADVANCED_FACE('',(#196),#150,.F.);
#91=ADVANCED_FACE('',(#197),#151,.F.);
#92=ADVANCED_FACE('',(#198),#152,.F.);
#93=ADVANCED_FACE('',(#199),#153,.F.);
#94=ADVANCED_FACE('',(#200),#154,.F.);
#95=ADVANCED_FACE('',(#201),#155,.F.);
#96=ADVANCED_FACE('',(#202),#156,.F.);
#97=ADVANCED_FACE('',(#203),#157,.F.);
#98=ADVANCED_FACE('',(#204),#158,.F.);
#99=ADVANCED_FACE('',(#205),#159,.F.);
#100=ADVANCED_FACE('',(#206),#160,.F.);
#101=ADVANCED_FACE('',(#207),#161,.F.);
#102=ADVANCED_FACE('',(#208),#162,.F.);
#103=ADVANCED_FACE('',(#209),#163,.F.);
#104=ADVANCED_FACE('',(#210),#164,.F.);
#105=ADVANCED_FACE('',(#211),#165,.F.);
#106=ADVANCED_FACE('',(#212),#166,.F.);
#107=ADVANCED_FACE('',(#213),#167,.F.);
#108=ADVANCED_FACE('',(#214),#168,.F.);
#109=ADVANCED_FACE('',(#215),#169,.F.);
#110=ADVANCED_FACE('',(#216),#170,.F.);
#111=ADVANCED_FACE('',(#217),#171,.F.);
#112=ADVANCED_FACE('',(#218),#172,.F.);
#113=ADVANCED_FACE('',(#219),#173,.F.);
#114=ADVANCED_FACE('',(#220),#174,.F.);
#115=ADVANCED_FACE('',(#221),#175,.F.);
#116=ADVANCED_FACE('',(#222),#176,.F.);
#117=ADVANCED_FACE('',(#223),#177,.F.);
#118=ADVANCED_FACE('',(#224),#178,.F.);
#119=ADVANCED_FACE('',(#225),#179,.F.);
#120=ADVANCED_FACE('',(#226),#180,.F.);
#121=ADVANCED_FACE('',(#227),#181,.F.);
#122=ADVANCED_FACE('',(#228),#182,.F.);
#123=ADVANCED_FACE('',(#229),#183,.F.);
#124=ADVANCED_FACE('',(#230),#184,.F.);
#125=ADVANCED_FACE('',(#231),#185,.F.);
#126=ADVANCED_FACE('',(#232),#186,.F.);
#127=ADVANCED_FACE('',(#233),#187,.F.);
#128=ADVANCED_FACE('',(#234),#188,.F.);
#129=ADVANCED_FACE('',(#235),#189,.F.);
#130=ADVANCED_FACE('',(#236),#190,.F.);
#131=ADVANCED_FACE('',(#237),#191,.F.);
#132=ADVANCED_FACE('',(#238),#192,.F.);
#133=ADVANCED_FACE('',(#239),#193,.F.);
#134=ADVANCED_FACE('',(#48,#49,#50,#51,#52,#53,#54),#194,.T.);
#135=ADVANCED_FACE('',(#55,#56,#57,#58,#59,#60,#61),#195,.F.);
#136=ADVANCED_FACE('',(#240),#34,.F.);
#137=ADVANCED_FACE('',(#241),#35,.F.);
#138=ADVANCED_FACE('',(#242),#36,.T.);
#139=ADVANCED_FACE('',(#243),#37,.T.);
#140=ADVANCED_FACE('',(#244),#38,.T.);
#141=ADVANCED_FACE('',(#245),#39,.T.);
#142=ADVANCED_FACE('',(#246),#40,.T.);
#143=ADVANCED_FACE('',(#247),#41,.T.);
#144=ADVANCED_FACE('',(#248),#42,.T.);
#145=ADVANCED_FACE('',(#249),#43,.T.);
#146=ADVANCED_FACE('',(#250),#44,.T.);
#147=ADVANCED_FACE('',(#251),#45,.T.);
#148=ADVANCED_FACE('',(#252),#46,.T.);
#149=ADVANCED_FACE('',(#253),#47,.T.);
#150=PLANE('',#1257);
#151=PLANE('',#1258);
#152=PLANE('',#1259);
#153=PLANE('',#1260);
#154=PLANE('',#1261);
#155=PLANE('',#1262);
#156=PLANE('',#1263);
#157=PLANE('',#1264);
#158=PLANE('',#1265);
#159=PLANE('',#1266);
#160=PLANE('',#1267);
#161=PLANE('',#1268);
#162=PLANE('',#1269);
#163=PLANE('',#1270);
#164=PLANE('',#1271);
#165=PLANE('',#1272);
#166=PLANE('',#1273);
#167=PLANE('',#1274);
#168=PLANE('',#1275);
#169=PLANE('',#1276);
#170=PLANE('',#1277);
#171=PLANE('',#1278);
#172=PLANE('',#1279);
#173=PLANE('',#1280);
#174=PLANE('',#1281);
#175=PLANE('',#1282);
#176=PLANE('',#1283);
#177=PLANE('',#1284);
#178=PLANE('',#1285);
#179=PLANE('',#1286);
#180=PLANE('',#1287);
#181=PLANE('',#1288);
#182=PLANE('',#1289);
#183=PLANE('',#1290);
#184=PLANE('',#1291);
#185=PLANE('',#1292);
#186=PLANE('',#1293);
#187=PLANE('',#1294);
#188=PLANE('',#1295);
#189=PLANE('',#1296);
#190=PLANE('',#1297);
#191=PLANE('',#1298);
#192=PLANE('',#1299);
#193=PLANE('',#1300);
#194=PLANE('',#1315);
#195=PLANE('',#1330);
#196=FACE_OUTER_BOUND('',#254,.T.);
#197=FACE_OUTER_BOUND('',#255,.T.);
#198=FACE_OUTER_BOUND('',#256,.T.);
#199=FACE_OUTER_BOUND('',#257,.T.);
#200=FACE_OUTER_BOUND('',#258,.T.);
#201=FACE_OUTER_BOUND('',#259,.T.);
#202=FACE_OUTER_BOUND('',#260,.T.);
#203=FACE_OUTER_BOUND('',#261,.T.);
#204=FACE_OUTER_BOUND('',#262,.T.);
#205=FACE_OUTER_BOUND('',#263,.T.);
#206=FACE_OUTER_BOUND('',#264,.T.);
#207=FACE_OUTER_BOUND('',#265,.T.);
#208=FACE_OUTER_BOUND('',#266,.T.);
#209=FACE_OUTER_BOUND('',#267,.T.);
#210=FACE_OUTER_BOUND('',#268,.T.);
#211=FACE_OUTER_BOUND('',#269,.T.);
#212=FACE_OUTER_BOUND('',#270,.T.);
#213=FACE_OUTER_BOUND('',#271,.T.);
#214=FACE_OUTER_BOUND('',#272,.T.);
#215=FACE_OUTER_BOUND('',#273,.T.);
#216=FACE_OUTER_BOUND('',#274,.T.);
#217=FACE_OUTER_BOUND('',#275,.T.);
#218=FACE_OUTER_BOUND('',#276,.T.);
#219=FACE_OUTER_BOUND('',#277,.T.);
#220=FACE_OUTER_BOUND('',#278,.T.);
#221=FACE_OUTER_BOUND('',#279,.T.);
#222=FACE_OUTER_BOUND('',#280,.T.);
#223=FACE_OUTER_BOUND('',#281,.T.);
#224=FACE_OUTER_BOUND('',#282,.T.);
#225=FACE_OUTER_BOUND('',#283,.T.);
#226=FACE_OUTER_BOUND('',#284,.T.);
#227=FACE_OUTER_BOUND('',#285,.T.);
#228=FACE_OUTER_BOUND('',#286,.T.);
#229=FACE_OUTER_BOUND('',#287,.T.);
#230=FACE_OUTER_BOUND('',#288,.T.);
#231=FACE_OUTER_BOUND('',#289,.T.);
#232=FACE_OUTER_BOUND('',#290,.T.);
#233=FACE_OUTER_BOUND('',#291,.T.);
#234=FACE_OUTER_BOUND('',#292,.T.);
#235=FACE_OUTER_BOUND('',#293,.T.);
#236=FACE_OUTER_BOUND('',#294,.T.);
#237=FACE_OUTER_BOUND('',#295,.T.);
#238=FACE_OUTER_BOUND('',#296,.T.);
#239=FACE_OUTER_BOUND('',#297,.T.);
#240=FACE_OUTER_BOUND('',#312,.T.);
#241=FACE_OUTER_BOUND('',#313,.T.);
#242=FACE_OUTER_BOUND('',#314,.T.);
#243=FACE_OUTER_BOUND('',#315,.T.);
#244=FACE_OUTER_BOUND('',#316,.T.);
#245=FACE_OUTER_BOUND('',#317,.T.);
#246=FACE_OUTER_BOUND('',#318,.T.);
#247=FACE_OUTER_BOUND('',#319,.T.);
#248=FACE_OUTER_BOUND('',#320,.T.);
#249=FACE_OUTER_BOUND('',#321,.T.);
#250=FACE_OUTER_BOUND('',#322,.T.);
#251=FACE_OUTER_BOUND('',#323,.T.);
#252=FACE_OUTER_BOUND('',#324,.T.);
#253=FACE_OUTER_BOUND('',#325,.T.);
#254=EDGE_LOOP('',(#326,#327,#328,#329));
#255=EDGE_LOOP('',(#330,#331,#332,#333));
#256=EDGE_LOOP('',(#334,#335,#336,#337));
#257=EDGE_LOOP('',(#338,#339,#340,#341));
#258=EDGE_LOOP('',(#342,#343,#344,#345));
#259=EDGE_LOOP('',(#346,#347,#348,#349));
#260=EDGE_LOOP('',(#350,#351,#352,#353));
#261=EDGE_LOOP('',(#354,#355,#356,#357));
#262=EDGE_LOOP('',(#358,#359,#360,#361));
#263=EDGE_LOOP('',(#362,#363,#364,#365));
#264=EDGE_LOOP('',(#366,#367,#368,#369));
#265=EDGE_LOOP('',(#370,#371,#372,#373));
#266=EDGE_LOOP('',(#374,#375,#376,#377));
#267=EDGE_LOOP('',(#378,#379,#380,#381));
#268=EDGE_LOOP('',(#382,#383,#384,#385));
#269=EDGE_LOOP('',(#386,#387,#388,#389));
#270=EDGE_LOOP('',(#390,#391,#392,#393));
#271=EDGE_LOOP('',(#394,#395,#396,#397));
#272=EDGE_LOOP('',(#398,#399,#400,#401));
#273=EDGE_LOOP('',(#402,#403,#404,#405));
#274=EDGE_LOOP('',(#406,#407,#408,#409));
#275=EDGE_LOOP('',(#410,#411,#412,#413));
#276=EDGE_LOOP('',(#414,#415,#416,#417));
#277=EDGE_LOOP('',(#418,#419,#420,#421));
#278=EDGE_LOOP('',(#422,#423,#424,#425));
#279=EDGE_LOOP('',(#426,#427,#428,#429));
#280=EDGE_LOOP('',(#430,#431,#432,#433));
#281=EDGE_LOOP('',(#434,#435,#436,#437));
#282=EDGE_LOOP('',(#438,#439,#440,#441));
#283=EDGE_LOOP('',(#442,#443,#444,#445));
#284=EDGE_LOOP('',(#446,#447,#448,#449));
#285=EDGE_LOOP('',(#450,#451,#452,#453));
#286=EDGE_LOOP('',(#454,#455,#456,#457));
#287=EDGE_LOOP('',(#458,#459,#460,#461));
#288=EDGE_LOOP('',(#462,#463,#464,#465));
#289=EDGE_LOOP('',(#466,#467,#468,#469));
#290=EDGE_LOOP('',(#470,#471,#472,#473));
#291=EDGE_LOOP('',(#474,#475,#476,#477));
#292=EDGE_LOOP('',(#478,#479,#480,#481));
#293=EDGE_LOOP('',(#482,#483,#484,#485));
#294=EDGE_LOOP('',(#486,#487,#488,#489));
#295=EDGE_LOOP('',(#490,#491,#492,#493));
#296=EDGE_LOOP('',(#494,#495,#496,#497));
#297=EDGE_LOOP('',(#498,#499,#500,#501));
#298=EDGE_LOOP('',(#502,#503,#504,#505,#506,#507,#508,#509,#510,#511,#512,
#513,#514,#515,#516,#517,#518,#519,#520,#521,#522,#523,#524,#525,#526,#527,
#528,#529,#530,#531,#532,#533,#534,#535));
#299=EDGE_LOOP('',(#536,#537,#538,#539));
#300=EDGE_LOOP('',(#540,#541,#542,#543));
#301=EDGE_LOOP('',(#544,#545,#546,#547));
#302=EDGE_LOOP('',(#548,#549,#550,#551));
#303=EDGE_LOOP('',(#552,#553,#554,#555));
#304=EDGE_LOOP('',(#556,#557,#558,#559));
#305=EDGE_LOOP('',(#560,#561,#562,#563,#564,#565,#566,#567,#568,#569,#570,
#571,#572,#573,#574,#575,#576,#577,#578,#579,#580,#581,#582,#583,#584,#585,
#586,#587,#588,#589,#590,#591,#592,#593));
#306=EDGE_LOOP('',(#594,#595,#596,#597));
#307=EDGE_LOOP('',(#598,#599,#600,#601));
#308=EDGE_LOOP('',(#602,#603,#604,#605));
#309=EDGE_LOOP('',(#606,#607,#608,#609));
#310=EDGE_LOOP('',(#610,#611,#612,#613));
#311=EDGE_LOOP('',(#614,#615,#616,#617));
#312=EDGE_LOOP('',(#618,#619,#620,#621));
#313=EDGE_LOOP('',(#622,#623,#624,#625));
#314=EDGE_LOOP('',(#626,#627,#628,#629));
#315=EDGE_LOOP('',(#630,#631,#632,#633));
#316=EDGE_LOOP('',(#634,#635,#636,#637));
#317=EDGE_LOOP('',(#638,#639,#640,#641));
#318=EDGE_LOOP('',(#642,#643,#644,#645));
#319=EDGE_LOOP('',(#646,#647,#648,#649));
#320=EDGE_LOOP('',(#650,#651,#652,#653));
#321=EDGE_LOOP('',(#654,#655,#656,#657));
#322=EDGE_LOOP('',(#658,#659,#660,#661));
#323=EDGE_LOOP('',(#662,#663,#664,#665));
#324=EDGE_LOOP('',(#666,#667,#668,#669));
#325=EDGE_LOOP('',(#670,#671,#672,#673));
#326=ORIENTED_EDGE('',*,*,#790,.T.);
#327=ORIENTED_EDGE('',*,*,#791,.F.);
#328=ORIENTED_EDGE('',*,*,#792,.F.);
#329=ORIENTED_EDGE('',*,*,#793,.T.);
#330=ORIENTED_EDGE('',*,*,#794,.T.);
#331=ORIENTED_EDGE('',*,*,#795,.F.);
#332=ORIENTED_EDGE('',*,*,#796,.F.);
#333=ORIENTED_EDGE('',*,*,#791,.T.);
#334=ORIENTED_EDGE('',*,*,#797,.T.);
#335=ORIENTED_EDGE('',*,*,#798,.F.);
#336=ORIENTED_EDGE('',*,*,#799,.F.);
#337=ORIENTED_EDGE('',*,*,#795,.T.);
#338=ORIENTED_EDGE('',*,*,#800,.T.);
#339=ORIENTED_EDGE('',*,*,#801,.F.);
#340=ORIENTED_EDGE('',*,*,#802,.F.);
#341=ORIENTED_EDGE('',*,*,#803,.T.);
#342=ORIENTED_EDGE('',*,*,#804,.T.);
#343=ORIENTED_EDGE('',*,*,#805,.F.);
#344=ORIENTED_EDGE('',*,*,#806,.F.);
#345=ORIENTED_EDGE('',*,*,#801,.T.);
#346=ORIENTED_EDGE('',*,*,#807,.T.);
#347=ORIENTED_EDGE('',*,*,#808,.F.);
#348=ORIENTED_EDGE('',*,*,#809,.F.);
#349=ORIENTED_EDGE('',*,*,#805,.T.);
#350=ORIENTED_EDGE('',*,*,#810,.T.);
#351=ORIENTED_EDGE('',*,*,#811,.F.);
#352=ORIENTED_EDGE('',*,*,#812,.F.);
#353=ORIENTED_EDGE('',*,*,#813,.T.);
#354=ORIENTED_EDGE('',*,*,#814,.T.);
#355=ORIENTED_EDGE('',*,*,#815,.F.);
#356=ORIENTED_EDGE('',*,*,#816,.F.);
#357=ORIENTED_EDGE('',*,*,#811,.T.);
#358=ORIENTED_EDGE('',*,*,#817,.T.);
#359=ORIENTED_EDGE('',*,*,#818,.F.);
#360=ORIENTED_EDGE('',*,*,#819,.F.);
#361=ORIENTED_EDGE('',*,*,#815,.T.);
#362=ORIENTED_EDGE('',*,*,#820,.T.);
#363=ORIENTED_EDGE('',*,*,#821,.F.);
#364=ORIENTED_EDGE('',*,*,#822,.F.);
#365=ORIENTED_EDGE('',*,*,#823,.T.);
#366=ORIENTED_EDGE('',*,*,#824,.T.);
#367=ORIENTED_EDGE('',*,*,#825,.F.);
#368=ORIENTED_EDGE('',*,*,#826,.F.);
#369=ORIENTED_EDGE('',*,*,#821,.T.);
#370=ORIENTED_EDGE('',*,*,#827,.T.);
#371=ORIENTED_EDGE('',*,*,#828,.F.);
#372=ORIENTED_EDGE('',*,*,#829,.F.);
#373=ORIENTED_EDGE('',*,*,#825,.T.);
#374=ORIENTED_EDGE('',*,*,#830,.T.);
#375=ORIENTED_EDGE('',*,*,#831,.F.);
#376=ORIENTED_EDGE('',*,*,#832,.F.);
#377=ORIENTED_EDGE('',*,*,#833,.T.);
#378=ORIENTED_EDGE('',*,*,#834,.T.);
#379=ORIENTED_EDGE('',*,*,#835,.F.);
#380=ORIENTED_EDGE('',*,*,#836,.F.);
#381=ORIENTED_EDGE('',*,*,#831,.T.);
#382=ORIENTED_EDGE('',*,*,#837,.T.);
#383=ORIENTED_EDGE('',*,*,#838,.F.);
#384=ORIENTED_EDGE('',*,*,#839,.F.);
#385=ORIENTED_EDGE('',*,*,#835,.T.);
#386=ORIENTED_EDGE('',*,*,#840,.T.);
#387=ORIENTED_EDGE('',*,*,#841,.F.);
#388=ORIENTED_EDGE('',*,*,#842,.F.);
#389=ORIENTED_EDGE('',*,*,#843,.T.);
#390=ORIENTED_EDGE('',*,*,#844,.T.);
#391=ORIENTED_EDGE('',*,*,#845,.F.);
#392=ORIENTED_EDGE('',*,*,#846,.F.);
#393=ORIENTED_EDGE('',*,*,#841,.T.);
#394=ORIENTED_EDGE('',*,*,#847,.T.);
#395=ORIENTED_EDGE('',*,*,#848,.F.);
#396=ORIENTED_EDGE('',*,*,#849,.F.);
#397=ORIENTED_EDGE('',*,*,#845,.T.);
#398=ORIENTED_EDGE('',*,*,#850,.T.);
#399=ORIENTED_EDGE('',*,*,#851,.T.);
#400=ORIENTED_EDGE('',*,*,#852,.F.);
#401=ORIENTED_EDGE('',*,*,#853,.T.);
#402=ORIENTED_EDGE('',*,*,#854,.F.);
#403=ORIENTED_EDGE('',*,*,#855,.T.);
#404=ORIENTED_EDGE('',*,*,#856,.T.);
#405=ORIENTED_EDGE('',*,*,#857,.T.);
#406=ORIENTED_EDGE('',*,*,#858,.F.);
#407=ORIENTED_EDGE('',*,*,#859,.T.);
#408=ORIENTED_EDGE('',*,*,#860,.T.);
#409=ORIENTED_EDGE('',*,*,#861,.T.);
#410=ORIENTED_EDGE('',*,*,#862,.F.);
#411=ORIENTED_EDGE('',*,*,#863,.T.);
#412=ORIENTED_EDGE('',*,*,#864,.T.);
#413=ORIENTED_EDGE('',*,*,#865,.T.);
#414=ORIENTED_EDGE('',*,*,#866,.F.);
#415=ORIENTED_EDGE('',*,*,#867,.T.);
#416=ORIENTED_EDGE('',*,*,#868,.T.);
#417=ORIENTED_EDGE('',*,*,#869,.F.);
#418=ORIENTED_EDGE('',*,*,#870,.T.);
#419=ORIENTED_EDGE('',*,*,#871,.F.);
#420=ORIENTED_EDGE('',*,*,#872,.F.);
#421=ORIENTED_EDGE('',*,*,#869,.T.);
#422=ORIENTED_EDGE('',*,*,#873,.T.);
#423=ORIENTED_EDGE('',*,*,#874,.T.);
#424=ORIENTED_EDGE('',*,*,#875,.F.);
#425=ORIENTED_EDGE('',*,*,#871,.T.);
#426=ORIENTED_EDGE('',*,*,#876,.F.);
#427=ORIENTED_EDGE('',*,*,#877,.T.);
#428=ORIENTED_EDGE('',*,*,#878,.T.);
#429=ORIENTED_EDGE('',*,*,#879,.T.);
#430=ORIENTED_EDGE('',*,*,#880,.F.);
#431=ORIENTED_EDGE('',*,*,#881,.T.);
#432=ORIENTED_EDGE('',*,*,#882,.T.);
#433=ORIENTED_EDGE('',*,*,#883,.F.);
#434=ORIENTED_EDGE('',*,*,#884,.T.);
#435=ORIENTED_EDGE('',*,*,#885,.F.);
#436=ORIENTED_EDGE('',*,*,#886,.F.);
#437=ORIENTED_EDGE('',*,*,#883,.T.);
#438=ORIENTED_EDGE('',*,*,#887,.T.);
#439=ORIENTED_EDGE('',*,*,#888,.T.);
#440=ORIENTED_EDGE('',*,*,#889,.F.);
#441=ORIENTED_EDGE('',*,*,#885,.T.);
#442=ORIENTED_EDGE('',*,*,#890,.T.);
#443=ORIENTED_EDGE('',*,*,#891,.T.);
#444=ORIENTED_EDGE('',*,*,#892,.F.);
#445=ORIENTED_EDGE('',*,*,#893,.T.);
#446=ORIENTED_EDGE('',*,*,#894,.F.);
#447=ORIENTED_EDGE('',*,*,#895,.T.);
#448=ORIENTED_EDGE('',*,*,#896,.T.);
#449=ORIENTED_EDGE('',*,*,#897,.F.);
#450=ORIENTED_EDGE('',*,*,#898,.T.);
#451=ORIENTED_EDGE('',*,*,#899,.F.);
#452=ORIENTED_EDGE('',*,*,#900,.F.);
#453=ORIENTED_EDGE('',*,*,#897,.T.);
#454=ORIENTED_EDGE('',*,*,#901,.T.);
#455=ORIENTED_EDGE('',*,*,#902,.T.);
#456=ORIENTED_EDGE('',*,*,#903,.F.);
#457=ORIENTED_EDGE('',*,*,#899,.T.);
#458=ORIENTED_EDGE('',*,*,#904,.F.);
#459=ORIENTED_EDGE('',*,*,#905,.T.);
#460=ORIENTED_EDGE('',*,*,#906,.T.);
#461=ORIENTED_EDGE('',*,*,#907,.T.);
#462=ORIENTED_EDGE('',*,*,#908,.T.);
#463=ORIENTED_EDGE('',*,*,#909,.T.);
#464=ORIENTED_EDGE('',*,*,#910,.F.);
#465=ORIENTED_EDGE('',*,*,#911,.T.);
#466=ORIENTED_EDGE('',*,*,#912,.T.);
#467=ORIENTED_EDGE('',*,*,#913,.T.);
#468=ORIENTED_EDGE('',*,*,#914,.F.);
#469=ORIENTED_EDGE('',*,*,#915,.T.);
#470=ORIENTED_EDGE('',*,*,#916,.F.);
#471=ORIENTED_EDGE('',*,*,#917,.T.);
#472=ORIENTED_EDGE('',*,*,#918,.T.);
#473=ORIENTED_EDGE('',*,*,#919,.T.);
#474=ORIENTED_EDGE('',*,*,#920,.T.);
#475=ORIENTED_EDGE('',*,*,#803,.F.);
#476=ORIENTED_EDGE('',*,*,#921,.F.);
#477=ORIENTED_EDGE('',*,*,#808,.T.);
#478=ORIENTED_EDGE('',*,*,#922,.T.);
#479=ORIENTED_EDGE('',*,*,#813,.F.);
#480=ORIENTED_EDGE('',*,*,#923,.F.);
#481=ORIENTED_EDGE('',*,*,#818,.T.);
#482=ORIENTED_EDGE('',*,*,#924,.T.);
#483=ORIENTED_EDGE('',*,*,#823,.F.);
#484=ORIENTED_EDGE('',*,*,#925,.F.);
#485=ORIENTED_EDGE('',*,*,#828,.T.);
#486=ORIENTED_EDGE('',*,*,#926,.T.);
#487=ORIENTED_EDGE('',*,*,#833,.F.);
#488=ORIENTED_EDGE('',*,*,#927,.F.);
#489=ORIENTED_EDGE('',*,*,#838,.T.);
#490=ORIENTED_EDGE('',*,*,#928,.T.);
#491=ORIENTED_EDGE('',*,*,#843,.F.);
#492=ORIENTED_EDGE('',*,*,#929,.F.);
#493=ORIENTED_EDGE('',*,*,#848,.T.);
#494=ORIENTED_EDGE('',*,*,#930,.F.);
#495=ORIENTED_EDGE('',*,*,#931,.T.);
#496=ORIENTED_EDGE('',*,*,#932,.T.);
#497=ORIENTED_EDGE('',*,*,#933,.T.);
#498=ORIENTED_EDGE('',*,*,#934,.T.);
#499=ORIENTED_EDGE('',*,*,#793,.F.);
#500=ORIENTED_EDGE('',*,*,#935,.F.);
#501=ORIENTED_EDGE('',*,*,#798,.T.);
#502=ORIENTED_EDGE('',*,*,#854,.T.);
#503=ORIENTED_EDGE('',*,*,#936,.T.);
#504=ORIENTED_EDGE('',*,*,#858,.T.);
#505=ORIENTED_EDGE('',*,*,#937,.T.);
#506=ORIENTED_EDGE('',*,*,#862,.T.);
#507=ORIENTED_EDGE('',*,*,#938,.T.);
#508=ORIENTED_EDGE('',*,*,#866,.T.);
#509=ORIENTED_EDGE('',*,*,#872,.T.);
#510=ORIENTED_EDGE('',*,*,#875,.T.);
#511=ORIENTED_EDGE('',*,*,#939,.T.);
#512=ORIENTED_EDGE('',*,*,#876,.T.);
#513=ORIENTED_EDGE('',*,*,#940,.T.);
#514=ORIENTED_EDGE('',*,*,#880,.T.);
#515=ORIENTED_EDGE('',*,*,#886,.T.);
#516=ORIENTED_EDGE('',*,*,#889,.T.);
#517=ORIENTED_EDGE('',*,*,#941,.T.);
#518=ORIENTED_EDGE('',*,*,#892,.T.);
#519=ORIENTED_EDGE('',*,*,#942,.T.);
#520=ORIENTED_EDGE('',*,*,#894,.T.);
#521=ORIENTED_EDGE('',*,*,#900,.T.);
#522=ORIENTED_EDGE('',*,*,#903,.T.);
#523=ORIENTED_EDGE('',*,*,#943,.T.);
#524=ORIENTED_EDGE('',*,*,#904,.T.);
#525=ORIENTED_EDGE('',*,*,#944,.T.);
#526=ORIENTED_EDGE('',*,*,#910,.T.);
#527=ORIENTED_EDGE('',*,*,#945,.T.);
#528=ORIENTED_EDGE('',*,*,#914,.T.);
#529=ORIENTED_EDGE('',*,*,#946,.T.);
#530=ORIENTED_EDGE('',*,*,#916,.T.);
#531=ORIENTED_EDGE('',*,*,#947,.T.);
#532=ORIENTED_EDGE('',*,*,#930,.T.);
#533=ORIENTED_EDGE('',*,*,#948,.T.);
#534=ORIENTED_EDGE('',*,*,#852,.T.);
#535=ORIENTED_EDGE('',*,*,#949,.T.);
#536=ORIENTED_EDGE('',*,*,#842,.T.);
#537=ORIENTED_EDGE('',*,*,#846,.T.);
#538=ORIENTED_EDGE('',*,*,#849,.T.);
#539=ORIENTED_EDGE('',*,*,#929,.T.);
#540=ORIENTED_EDGE('',*,*,#832,.T.);
#541=ORIENTED_EDGE('',*,*,#836,.T.);
#542=ORIENTED_EDGE('',*,*,#839,.T.);
#543=ORIENTED_EDGE('',*,*,#927,.T.);
#544=ORIENTED_EDGE('',*,*,#822,.T.);
#545=ORIENTED_EDGE('',*,*,#826,.T.);
#546=ORIENTED_EDGE('',*,*,#829,.T.);
#547=ORIENTED_EDGE('',*,*,#925,.T.);
#548=ORIENTED_EDGE('',*,*,#812,.T.);
#549=ORIENTED_EDGE('',*,*,#816,.T.);
#550=ORIENTED_EDGE('',*,*,#819,.T.);
#551=ORIENTED_EDGE('',*,*,#923,.T.);
#552=ORIENTED_EDGE('',*,*,#802,.T.);
#553=ORIENTED_EDGE('',*,*,#806,.T.);
#554=ORIENTED_EDGE('',*,*,#809,.T.);
#555=ORIENTED_EDGE('',*,*,#921,.T.);
#556=ORIENTED_EDGE('',*,*,#792,.T.);
#557=ORIENTED_EDGE('',*,*,#796,.T.);
#558=ORIENTED_EDGE('',*,*,#799,.T.);
#559=ORIENTED_EDGE('',*,*,#935,.T.);
#560=ORIENTED_EDGE('',*,*,#860,.F.);
#561=ORIENTED_EDGE('',*,*,#950,.T.);
#562=ORIENTED_EDGE('',*,*,#856,.F.);
#563=ORIENTED_EDGE('',*,*,#951,.T.);
#564=ORIENTED_EDGE('',*,*,#850,.F.);
#565=ORIENTED_EDGE('',*,*,#952,.T.);
#566=ORIENTED_EDGE('',*,*,#932,.F.);
#567=ORIENTED_EDGE('',*,*,#953,.T.);
#568=ORIENTED_EDGE('',*,*,#918,.F.);
#569=ORIENTED_EDGE('',*,*,#954,.T.);
#570=ORIENTED_EDGE('',*,*,#912,.F.);
#571=ORIENTED_EDGE('',*,*,#955,.T.);
#572=ORIENTED_EDGE('',*,*,#908,.F.);
#573=ORIENTED_EDGE('',*,*,#956,.T.);
#574=ORIENTED_EDGE('',*,*,#906,.F.);
#575=ORIENTED_EDGE('',*,*,#957,.T.);
#576=ORIENTED_EDGE('',*,*,#901,.F.);
#577=ORIENTED_EDGE('',*,*,#898,.F.);
#578=ORIENTED_EDGE('',*,*,#896,.F.);
#579=ORIENTED_EDGE('',*,*,#958,.T.);
#580=ORIENTED_EDGE('',*,*,#890,.F.);
#581=ORIENTED_EDGE('',*,*,#959,.T.);
#582=ORIENTED_EDGE('',*,*,#887,.F.);
#583=ORIENTED_EDGE('',*,*,#884,.F.);
#584=ORIENTED_EDGE('',*,*,#882,.F.);
#585=ORIENTED_EDGE('',*,*,#960,.T.);
#586=ORIENTED_EDGE('',*,*,#878,.F.);
#587=ORIENTED_EDGE('',*,*,#961,.T.);
#588=ORIENTED_EDGE('',*,*,#873,.F.);
#589=ORIENTED_EDGE('',*,*,#870,.F.);
#590=ORIENTED_EDGE('',*,*,#868,.F.);
#591=ORIENTED_EDGE('',*,*,#962,.T.);
#592=ORIENTED_EDGE('',*,*,#864,.F.);
#593=ORIENTED_EDGE('',*,*,#963,.T.);
#594=ORIENTED_EDGE('',*,*,#840,.F.);
#595=ORIENTED_EDGE('',*,*,#928,.F.);
#596=ORIENTED_EDGE('',*,*,#847,.F.);
#597=ORIENTED_EDGE('',*,*,#844,.F.);
#598=ORIENTED_EDGE('',*,*,#830,.F.);
#599=ORIENTED_EDGE('',*,*,#926,.F.);
#600=ORIENTED_EDGE('',*,*,#837,.F.);
#601=ORIENTED_EDGE('',*,*,#834,.F.);
#602=ORIENTED_EDGE('',*,*,#820,.F.);
#603=ORIENTED_EDGE('',*,*,#924,.F.);
#604=ORIENTED_EDGE('',*,*,#827,.F.);
#605=ORIENTED_EDGE('',*,*,#824,.F.);
#606=ORIENTED_EDGE('',*,*,#810,.F.);
#607=ORIENTED_EDGE('',*,*,#922,.F.);
#608=ORIENTED_EDGE('',*,*,#817,.F.);
#609=ORIENTED_EDGE('',*,*,#814,.F.);
#610=ORIENTED_EDGE('',*,*,#800,.F.);
#611=ORIENTED_EDGE('',*,*,#920,.F.);
#612=ORIENTED_EDGE('',*,*,#807,.F.);
#613=ORIENTED_EDGE('',*,*,#804,.F.);
#614=ORIENTED_EDGE('',*,*,#790,.F.);
#615=ORIENTED_EDGE('',*,*,#934,.F.);
#616=ORIENTED_EDGE('',*,*,#797,.F.);
#617=ORIENTED_EDGE('',*,*,#794,.F.);
#618=ORIENTED_EDGE('',*,*,#949,.F.);
#619=ORIENTED_EDGE('',*,*,#851,.F.);
#620=ORIENTED_EDGE('',*,*,#951,.F.);
#621=ORIENTED_EDGE('',*,*,#855,.F.);
#622=ORIENTED_EDGE('',*,*,#946,.F.);
#623=ORIENTED_EDGE('',*,*,#913,.F.);
#624=ORIENTED_EDGE('',*,*,#954,.F.);
#625=ORIENTED_EDGE('',*,*,#917,.F.);
#626=ORIENTED_EDGE('',*,*,#936,.F.);
#627=ORIENTED_EDGE('',*,*,#857,.F.);
#628=ORIENTED_EDGE('',*,*,#950,.F.);
#629=ORIENTED_EDGE('',*,*,#859,.F.);
#630=ORIENTED_EDGE('',*,*,#945,.F.);
#631=ORIENTED_EDGE('',*,*,#909,.F.);
#632=ORIENTED_EDGE('',*,*,#955,.F.);
#633=ORIENTED_EDGE('',*,*,#915,.F.);
#634=ORIENTED_EDGE('',*,*,#943,.F.);
#635=ORIENTED_EDGE('',*,*,#902,.F.);
#636=ORIENTED_EDGE('',*,*,#957,.F.);
#637=ORIENTED_EDGE('',*,*,#905,.F.);
#638=ORIENTED_EDGE('',*,*,#944,.F.);
#639=ORIENTED_EDGE('',*,*,#907,.F.);
#640=ORIENTED_EDGE('',*,*,#956,.F.);
#641=ORIENTED_EDGE('',*,*,#911,.F.);
#642=ORIENTED_EDGE('',*,*,#937,.F.);
#643=ORIENTED_EDGE('',*,*,#861,.F.);
#644=ORIENTED_EDGE('',*,*,#963,.F.);
#645=ORIENTED_EDGE('',*,*,#863,.F.);
#646=ORIENTED_EDGE('',*,*,#938,.F.);
#647=ORIENTED_EDGE('',*,*,#865,.F.);
#648=ORIENTED_EDGE('',*,*,#962,.F.);
#649=ORIENTED_EDGE('',*,*,#867,.F.);
#650=ORIENTED_EDGE('',*,*,#942,.F.);
#651=ORIENTED_EDGE('',*,*,#891,.F.);
#652=ORIENTED_EDGE('',*,*,#958,.F.);
#653=ORIENTED_EDGE('',*,*,#895,.F.);
#654=ORIENTED_EDGE('',*,*,#939,.F.);
#655=ORIENTED_EDGE('',*,*,#874,.F.);
#656=ORIENTED_EDGE('',*,*,#961,.F.);
#657=ORIENTED_EDGE('',*,*,#877,.F.);
#658=ORIENTED_EDGE('',*,*,#941,.F.);
#659=ORIENTED_EDGE('',*,*,#888,.F.);
#660=ORIENTED_EDGE('',*,*,#959,.F.);
#661=ORIENTED_EDGE('',*,*,#893,.F.);
#662=ORIENTED_EDGE('',*,*,#940,.F.);
#663=ORIENTED_EDGE('',*,*,#879,.F.);
#664=ORIENTED_EDGE('',*,*,#960,.F.);
#665=ORIENTED_EDGE('',*,*,#881,.F.);
#666=ORIENTED_EDGE('',*,*,#947,.F.);
#667=ORIENTED_EDGE('',*,*,#919,.F.);
#668=ORIENTED_EDGE('',*,*,#953,.F.);
#669=ORIENTED_EDGE('',*,*,#931,.F.);
#670=ORIENTED_EDGE('',*,*,#948,.F.);
#671=ORIENTED_EDGE('',*,*,#933,.F.);
#672=ORIENTED_EDGE('',*,*,#952,.F.);
#673=ORIENTED_EDGE('',*,*,#853,.F.);
#674=VERTEX_POINT('',#1671);
#675=VERTEX_POINT('',#1672);
#676=VERTEX_POINT('',#1674);
#677=VERTEX_POINT('',#1676);
#678=VERTEX_POINT('',#1680);
#679=VERTEX_POINT('',#1682);
#680=VERTEX_POINT('',#1686);
#681=VERTEX_POINT('',#1688);
#682=VERTEX_POINT('',#1692);
#683=VERTEX_POINT('',#1693);
#684=VERTEX_POINT('',#1695);
#685=VERTEX_POINT('',#1697);
#686=VERTEX_POINT('',#1701);
#687=VERTEX_POINT('',#1703);
#688=VERTEX_POINT('',#1707);
#689=VERTEX_POINT('',#1709);
#690=VERTEX_POINT('',#1713);
#691=VERTEX_POINT('',#1714);
#692=VERTEX_POINT('',#1716);
#693=VERTEX_POINT('',#1718);
#694=VERTEX_POINT('',#1722);
#695=VERTEX_POINT('',#1724);
#696=VERTEX_POINT('',#1728);
#697=VERTEX_POINT('',#1730);
#698=VERTEX_POINT('',#1734);
#699=VERTEX_POINT('',#1735);
#700=VERTEX_POINT('',#1737);
#701=VERTEX_POINT('',#1739);
#702=VERTEX_POINT('',#1743);
#703=VERTEX_POINT('',#1745);
#704=VERTEX_POINT('',#1749);
#705=VERTEX_POINT('',#1751);
#706=VERTEX_POINT('',#1755);
#707=VERTEX_POINT('',#1756);
#708=VERTEX_POINT('',#1758);
#709=VERTEX_POINT('',#1760);
#710=VERTEX_POINT('',#1764);
#711=VERTEX_POINT('',#1766);
#712=VERTEX_POINT('',#1770);
#713=VERTEX_POINT('',#1772);
#714=VERTEX_POINT('',#1776);
#715=VERTEX_POINT('',#1777);
#716=VERTEX_POINT('',#1779);
#717=VERTEX_POINT('',#1781);
#718=VERTEX_POINT('',#1785);
#719=VERTEX_POINT('',#1787);
#720=VERTEX_POINT('',#1791);
#721=VERTEX_POINT('',#1793);
#722=VERTEX_POINT('',#1797);
#723=VERTEX_POINT('',#1798);
#724=VERTEX_POINT('',#1800);
#725=VERTEX_POINT('',#1802);
#726=VERTEX_POINT('',#1806);
#727=VERTEX_POINT('',#1807);
#728=VERTEX_POINT('',#1809);
#729=VERTEX_POINT('',#1811);
#730=VERTEX_POINT('',#1815);
#731=VERTEX_POINT('',#1816);
#732=VERTEX_POINT('',#1818);
#733=VERTEX_POINT('',#1820);
#734=VERTEX_POINT('',#1824);
#735=VERTEX_POINT('',#1825);
#736=VERTEX_POINT('',#1827);
#737=VERTEX_POINT('',#1829);
#738=VERTEX_POINT('',#1833);
#739=VERTEX_POINT('',#1834);
#740=VERTEX_POINT('',#1836);
#741=VERTEX_POINT('',#1838);
#742=VERTEX_POINT('',#1842);
#743=VERTEX_POINT('',#1844);
#744=VERTEX_POINT('',#1848);
#745=VERTEX_POINT('',#1850);
#746=VERTEX_POINT('',#1854);
#747=VERTEX_POINT('',#1855);
#748=VERTEX_POINT('',#1857);
#749=VERTEX_POINT('',#1859);
#750=VERTEX_POINT('',#1863);
#751=VERTEX_POINT('',#1864);
#752=VERTEX_POINT('',#1866);
#753=VERTEX_POINT('',#1868);
#754=VERTEX_POINT('',#1872);
#755=VERTEX_POINT('',#1874);
#756=VERTEX_POINT('',#1878);
#757=VERTEX_POINT('',#1880);
#758=VERTEX_POINT('',#1884);
#759=VERTEX_POINT('',#1885);
#760=VERTEX_POINT('',#1887);
#761=VERTEX_POINT('',#1889);
#762=VERTEX_POINT('',#1893);
#763=VERTEX_POINT('',#1894);
#764=VERTEX_POINT('',#1896);
#765=VERTEX_POINT('',#1898);
#766=VERTEX_POINT('',#1902);
#767=VERTEX_POINT('',#1904);
#768=VERTEX_POINT('',#1908);
#769=VERTEX_POINT('',#1910);
#770=VERTEX_POINT('',#1914);
#771=VERTEX_POINT('',#1915);
#772=VERTEX_POINT('',#1917);
#773=VERTEX_POINT('',#1919);
#774=VERTEX_POINT('',#1923);
#775=VERTEX_POINT('',#1924);
#776=VERTEX_POINT('',#1926);
#777=VERTEX_POINT('',#1928);
#778=VERTEX_POINT('',#1932);
#779=VERTEX_POINT('',#1933);
#780=VERTEX_POINT('',#1935);
#781=VERTEX_POINT('',#1937);
#782=VERTEX_POINT('',#1941);
#783=VERTEX_POINT('',#1942);
#784=VERTEX_POINT('',#1944);
#785=VERTEX_POINT('',#1946);
#786=VERTEX_POINT('',#1965);
#787=VERTEX_POINT('',#1966);
#788=VERTEX_POINT('',#1968);
#789=VERTEX_POINT('',#1970);
#790=EDGE_CURVE('',#674,#675,#964,.T.);
#791=EDGE_CURVE('',#676,#675,#965,.T.);
#792=EDGE_CURVE('',#677,#676,#966,.T.);
#793=EDGE_CURVE('',#677,#674,#967,.T.);
#794=EDGE_CURVE('',#675,#678,#968,.T.);
#795=EDGE_CURVE('',#679,#678,#969,.T.);
#796=EDGE_CURVE('',#676,#679,#970,.T.);
#797=EDGE_CURVE('',#678,#680,#971,.T.);
#798=EDGE_CURVE('',#681,#680,#972,.T.);
#799=EDGE_CURVE('',#679,#681,#973,.T.);
#800=EDGE_CURVE('',#682,#683,#974,.T.);
#801=EDGE_CURVE('',#684,#683,#975,.T.);
#802=EDGE_CURVE('',#685,#684,#976,.T.);
#803=EDGE_CURVE('',#685,#682,#977,.T.);
#804=EDGE_CURVE('',#683,#686,#978,.T.);
#805=EDGE_CURVE('',#687,#686,#979,.T.);
#806=EDGE_CURVE('',#684,#687,#980,.T.);
#807=EDGE_CURVE('',#686,#688,#981,.T.);
#808=EDGE_CURVE('',#689,#688,#982,.T.);
#809=EDGE_CURVE('',#687,#689,#983,.T.);
#810=EDGE_CURVE('',#690,#691,#984,.T.);
#811=EDGE_CURVE('',#692,#691,#985,.T.);
#812=EDGE_CURVE('',#693,#692,#986,.T.);
#813=EDGE_CURVE('',#693,#690,#987,.T.);
#814=EDGE_CURVE('',#691,#694,#988,.T.);
#815=EDGE_CURVE('',#695,#694,#989,.T.);
#816=EDGE_CURVE('',#692,#695,#990,.T.);
#817=EDGE_CURVE('',#694,#696,#991,.T.);
#818=EDGE_CURVE('',#697,#696,#992,.T.);
#819=EDGE_CURVE('',#695,#697,#993,.T.);
#820=EDGE_CURVE('',#698,#699,#994,.T.);
#821=EDGE_CURVE('',#700,#699,#995,.T.);
#822=EDGE_CURVE('',#701,#700,#996,.T.);
#823=EDGE_CURVE('',#701,#698,#997,.T.);
#824=EDGE_CURVE('',#699,#702,#998,.T.);
#825=EDGE_CURVE('',#703,#702,#999,.T.);
#826=EDGE_CURVE('',#700,#703,#1000,.T.);
#827=EDGE_CURVE('',#702,#704,#1001,.T.);
#828=EDGE_CURVE('',#705,#704,#1002,.T.);
#829=EDGE_CURVE('',#703,#705,#1003,.T.);
#830=EDGE_CURVE('',#706,#707,#1004,.T.);
#831=EDGE_CURVE('',#708,#707,#1005,.T.);
#832=EDGE_CURVE('',#709,#708,#1006,.T.);
#833=EDGE_CURVE('',#709,#706,#1007,.T.);
#834=EDGE_CURVE('',#707,#710,#1008,.T.);
#835=EDGE_CURVE('',#711,#710,#1009,.T.);
#836=EDGE_CURVE('',#708,#711,#1010,.T.);
#837=EDGE_CURVE('',#710,#712,#1011,.T.);
#838=EDGE_CURVE('',#713,#712,#1012,.T.);
#839=EDGE_CURVE('',#711,#713,#1013,.T.);
#840=EDGE_CURVE('',#714,#715,#1014,.T.);
#841=EDGE_CURVE('',#716,#715,#1015,.T.);
#842=EDGE_CURVE('',#717,#716,#1016,.T.);
#843=EDGE_CURVE('',#717,#714,#1017,.T.);
#844=EDGE_CURVE('',#715,#718,#1018,.T.);
#845=EDGE_CURVE('',#719,#718,#1019,.T.);
#846=EDGE_CURVE('',#716,#719,#1020,.T.);
#847=EDGE_CURVE('',#718,#720,#1021,.T.);
#848=EDGE_CURVE('',#721,#720,#1022,.T.);
#849=EDGE_CURVE('',#719,#721,#1023,.T.);
#850=EDGE_CURVE('',#722,#723,#1024,.T.);
#851=EDGE_CURVE('',#723,#724,#1025,.T.);
#852=EDGE_CURVE('',#725,#724,#1026,.T.);
#853=EDGE_CURVE('',#725,#722,#1027,.T.);
#854=EDGE_CURVE('',#726,#727,#1028,.T.);
#855=EDGE_CURVE('',#726,#728,#1029,.T.);
#856=EDGE_CURVE('',#728,#729,#1030,.T.);
#857=EDGE_CURVE('',#729,#727,#1031,.T.);
#858=EDGE_CURVE('',#730,#731,#1032,.T.);
#859=EDGE_CURVE('',#730,#732,#1033,.T.);
#860=EDGE_CURVE('',#732,#733,#1034,.T.);
#861=EDGE_CURVE('',#733,#731,#1035,.T.);
#862=EDGE_CURVE('',#734,#735,#1036,.T.);
#863=EDGE_CURVE('',#734,#736,#1037,.T.);
#864=EDGE_CURVE('',#736,#737,#1038,.T.);
#865=EDGE_CURVE('',#737,#735,#1039,.T.);
#866=EDGE_CURVE('',#738,#739,#1040,.T.);
#867=EDGE_CURVE('',#738,#740,#1041,.T.);
#868=EDGE_CURVE('',#740,#741,#1042,.T.);
#869=EDGE_CURVE('',#739,#741,#1043,.T.);
#870=EDGE_CURVE('',#741,#742,#1044,.T.);
#871=EDGE_CURVE('',#743,#742,#1045,.T.);
#872=EDGE_CURVE('',#739,#743,#1046,.T.);
#873=EDGE_CURVE('',#742,#744,#1047,.T.);
#874=EDGE_CURVE('',#744,#745,#1048,.T.);
#875=EDGE_CURVE('',#743,#745,#1049,.T.);
#876=EDGE_CURVE('',#746,#747,#1050,.T.);
#877=EDGE_CURVE('',#746,#748,#1051,.T.);
#878=EDGE_CURVE('',#748,#749,#1052,.T.);
#879=EDGE_CURVE('',#749,#747,#1053,.T.);
#880=EDGE_CURVE('',#750,#751,#1054,.T.);
#881=EDGE_CURVE('',#750,#752,#1055,.T.);
#882=EDGE_CURVE('',#752,#753,#1056,.T.);
#883=EDGE_CURVE('',#751,#753,#1057,.T.);
#884=EDGE_CURVE('',#753,#754,#1058,.T.);
#885=EDGE_CURVE('',#755,#754,#1059,.T.);
#886=EDGE_CURVE('',#751,#755,#1060,.T.);
#887=EDGE_CURVE('',#754,#756,#1061,.T.);
#888=EDGE_CURVE('',#756,#757,#1062,.T.);
#889=EDGE_CURVE('',#755,#757,#1063,.T.);
#890=EDGE_CURVE('',#758,#759,#1064,.T.);
#891=EDGE_CURVE('',#759,#760,#1065,.T.);
#892=EDGE_CURVE('',#761,#760,#1066,.T.);
#893=EDGE_CURVE('',#761,#758,#1067,.T.);
#894=EDGE_CURVE('',#762,#763,#1068,.T.);
#895=EDGE_CURVE('',#762,#764,#1069,.T.);
#896=EDGE_CURVE('',#764,#765,#1070,.T.);
#897=EDGE_CURVE('',#763,#765,#1071,.T.);
#898=EDGE_CURVE('',#765,#766,#1072,.T.);
#899=EDGE_CURVE('',#767,#766,#1073,.T.);
#900=EDGE_CURVE('',#763,#767,#1074,.T.);
#901=EDGE_CURVE('',#766,#768,#1075,.T.);
#902=EDGE_CURVE('',#768,#769,#1076,.T.);
#903=EDGE_CURVE('',#767,#769,#1077,.T.);
#904=EDGE_CURVE('',#770,#771,#1078,.T.);
#905=EDGE_CURVE('',#770,#772,#1079,.T.);
#906=EDGE_CURVE('',#772,#773,#1080,.T.);
#907=EDGE_CURVE('',#773,#771,#1081,.T.);
#908=EDGE_CURVE('',#774,#775,#1082,.T.);
#909=EDGE_CURVE('',#775,#776,#1083,.T.);
#910=EDGE_CURVE('',#777,#776,#1084,.T.);
#911=EDGE_CURVE('',#777,#774,#1085,.T.);
#912=EDGE_CURVE('',#778,#779,#1086,.T.);
#913=EDGE_CURVE('',#779,#780,#1087,.T.);
#914=EDGE_CURVE('',#781,#780,#1088,.T.);
#915=EDGE_CURVE('',#781,#778,#1089,.T.);
#916=EDGE_CURVE('',#782,#783,#1090,.T.);
#917=EDGE_CURVE('',#782,#784,#1091,.T.);
#918=EDGE_CURVE('',#784,#785,#1092,.T.);
#919=EDGE_CURVE('',#785,#783,#1093,.T.);
#920=EDGE_CURVE('',#688,#682,#1094,.T.);
#921=EDGE_CURVE('',#689,#685,#1095,.T.);
#922=EDGE_CURVE('',#696,#690,#1096,.T.);
#923=EDGE_CURVE('',#697,#693,#1097,.T.);
#924=EDGE_CURVE('',#704,#698,#1098,.T.);
#925=EDGE_CURVE('',#705,#701,#1099,.T.);
#926=EDGE_CURVE('',#712,#706,#1100,.T.);
#927=EDGE_CURVE('',#713,#709,#1101,.T.);
#928=EDGE_CURVE('',#720,#714,#1102,.T.);
#929=EDGE_CURVE('',#721,#717,#1103,.T.);
#930=EDGE_CURVE('',#786,#787,#1104,.T.);
#931=EDGE_CURVE('',#786,#788,#1105,.T.);
#932=EDGE_CURVE('',#788,#789,#1106,.T.);
#933=EDGE_CURVE('',#789,#787,#1107,.T.);
#934=EDGE_CURVE('',#680,#674,#1108,.T.);
#935=EDGE_CURVE('',#681,#677,#1109,.T.);
#936=EDGE_CURVE('',#727,#730,#62,.T.);
#937=EDGE_CURVE('',#731,#734,#63,.T.);
#938=EDGE_CURVE('',#735,#738,#64,.T.);
#939=EDGE_CURVE('',#745,#746,#65,.T.);
#940=EDGE_CURVE('',#747,#750,#66,.T.);
#941=EDGE_CURVE('',#757,#761,#67,.T.);
#942=EDGE_CURVE('',#760,#762,#68,.T.);
#943=EDGE_CURVE('',#769,#770,#69,.T.);
#944=EDGE_CURVE('',#771,#777,#70,.T.);
#945=EDGE_CURVE('',#776,#781,#71,.T.);
#946=EDGE_CURVE('',#780,#782,#72,.T.);
#947=EDGE_CURVE('',#783,#786,#73,.T.);
#948=EDGE_CURVE('',#787,#725,#74,.T.);
#949=EDGE_CURVE('',#724,#726,#75,.T.);
#950=EDGE_CURVE('',#732,#729,#76,.T.);
#951=EDGE_CURVE('',#728,#723,#77,.T.);
#952=EDGE_CURVE('',#722,#789,#78,.T.);
#953=EDGE_CURVE('',#788,#785,#79,.T.);
#954=EDGE_CURVE('',#784,#779,#80,.T.);
#955=EDGE_CURVE('',#778,#775,#81,.T.);
#956=EDGE_CURVE('',#774,#773,#82,.T.);
#957=EDGE_CURVE('',#772,#768,#83,.T.);
#958=EDGE_CURVE('',#764,#759,#84,.T.);
#959=EDGE_CURVE('',#758,#756,#85,.T.);
#960=EDGE_CURVE('',#752,#749,#86,.T.);
#961=EDGE_CURVE('',#748,#744,#87,.T.);
#962=EDGE_CURVE('',#740,#737,#88,.T.);
#963=EDGE_CURVE('',#736,#733,#89,.T.);
#964=LINE('',#1670,#1110);
#965=LINE('',#1673,#1111);
#966=LINE('',#1675,#1112);
#967=LINE('',#1677,#1113);
#968=LINE('',#1679,#1114);
#969=LINE('',#1681,#1115);
#970=LINE('',#1683,#1116);
#971=LINE('',#1685,#1117);
#972=LINE('',#1687,#1118);
#973=LINE('',#1689,#1119);
#974=LINE('',#1691,#1120);
#975=LINE('',#1694,#1121);
#976=LINE('',#1696,#1122);
#977=LINE('',#1698,#1123);
#978=LINE('',#1700,#1124);
#979=LINE('',#1702,#1125);
#980=LINE('',#1704,#1126);
#981=LINE('',#1706,#1127);
#982=LINE('',#1708,#1128);
#983=LINE('',#1710,#1129);
#984=LINE('',#1712,#1130);
#985=LINE('',#1715,#1131);
#986=LINE('',#1717,#1132);
#987=LINE('',#1719,#1133);
#988=LINE('',#1721,#1134);
#989=LINE('',#1723,#1135);
#990=LINE('',#1725,#1136);
#991=LINE('',#1727,#1137);
#992=LINE('',#1729,#1138);
#993=LINE('',#1731,#1139);
#994=LINE('',#1733,#1140);
#995=LINE('',#1736,#1141);
#996=LINE('',#1738,#1142);
#997=LINE('',#1740,#1143);
#998=LINE('',#1742,#1144);
#999=LINE('',#1744,#1145);
#1000=LINE('',#1746,#1146);
#1001=LINE('',#1748,#1147);
#1002=LINE('',#1750,#1148);
#1003=LINE('',#1752,#1149);
#1004=LINE('',#1754,#1150);
#1005=LINE('',#1757,#1151);
#1006=LINE('',#1759,#1152);
#1007=LINE('',#1761,#1153);
#1008=LINE('',#1763,#1154);
#1009=LINE('',#1765,#1155);
#1010=LINE('',#1767,#1156);
#1011=LINE('',#1769,#1157);
#1012=LINE('',#1771,#1158);
#1013=LINE('',#1773,#1159);
#1014=LINE('',#1775,#1160);
#1015=LINE('',#1778,#1161);
#1016=LINE('',#1780,#1162);
#1017=LINE('',#1782,#1163);
#1018=LINE('',#1784,#1164);
#1019=LINE('',#1786,#1165);
#1020=LINE('',#1788,#1166);
#1021=LINE('',#1790,#1167);
#1022=LINE('',#1792,#1168);
#1023=LINE('',#1794,#1169);
#1024=LINE('',#1796,#1170);
#1025=LINE('',#1799,#1171);
#1026=LINE('',#1801,#1172);
#1027=LINE('',#1803,#1173);
#1028=LINE('',#1805,#1174);
#1029=LINE('',#1808,#1175);
#1030=LINE('',#1810,#1176);
#1031=LINE('',#1812,#1177);
#1032=LINE('',#1814,#1178);
#1033=LINE('',#1817,#1179);
#1034=LINE('',#1819,#1180);
#1035=LINE('',#1821,#1181);
#1036=LINE('',#1823,#1182);
#1037=LINE('',#1826,#1183);
#1038=LINE('',#1828,#1184);
#1039=LINE('',#1830,#1185);
#1040=LINE('',#1832,#1186);
#1041=LINE('',#1835,#1187);
#1042=LINE('',#1837,#1188);
#1043=LINE('',#1839,#1189);
#1044=LINE('',#1841,#1190);
#1045=LINE('',#1843,#1191);
#1046=LINE('',#1845,#1192);
#1047=LINE('',#1847,#1193);
#1048=LINE('',#1849,#1194);
#1049=LINE('',#1851,#1195);
#1050=LINE('',#1853,#1196);
#1051=LINE('',#1856,#1197);
#1052=LINE('',#1858,#1198);
#1053=LINE('',#1860,#1199);
#1054=LINE('',#1862,#1200);
#1055=LINE('',#1865,#1201);
#1056=LINE('',#1867,#1202);
#1057=LINE('',#1869,#1203);
#1058=LINE('',#1871,#1204);
#1059=LINE('',#1873,#1205);
#1060=LINE('',#1875,#1206);
#1061=LINE('',#1877,#1207);
#1062=LINE('',#1879,#1208);
#1063=LINE('',#1881,#1209);
#1064=LINE('',#1883,#1210);
#1065=LINE('',#1886,#1211);
#1066=LINE('',#1888,#1212);
#1067=LINE('',#1890,#1213);
#1068=LINE('',#1892,#1214);
#1069=LINE('',#1895,#1215);
#1070=LINE('',#1897,#1216);
#1071=LINE('',#1899,#1217);
#1072=LINE('',#1901,#1218);
#1073=LINE('',#1903,#1219);
#1074=LINE('',#1905,#1220);
#1075=LINE('',#1907,#1221);
#1076=LINE('',#1909,#1222);
#1077=LINE('',#1911,#1223);
#1078=LINE('',#1913,#1224);
#1079=LINE('',#1916,#1225);
#1080=LINE('',#1918,#1226);
#1081=LINE('',#1920,#1227);
#1082=LINE('',#1922,#1228);
#1083=LINE('',#1925,#1229);
#1084=LINE('',#1927,#1230);
#1085=LINE('',#1929,#1231);
#1086=LINE('',#1931,#1232);
#1087=LINE('',#1934,#1233);
#1088=LINE('',#1936,#1234);
#1089=LINE('',#1938,#1235);
#1090=LINE('',#1940,#1236);
#1091=LINE('',#1943,#1237);
#1092=LINE('',#1945,#1238);
#1093=LINE('',#1947,#1239);
#1094=LINE('',#1949,#1240);
#1095=LINE('',#1950,#1241);
#1096=LINE('',#1952,#1242);
#1097=LINE('',#1953,#1243);
#1098=LINE('',#1955,#1244);
#1099=LINE('',#1956,#1245);
#1100=LINE('',#1958,#1246);
#1101=LINE('',#1959,#1247);
#1102=LINE('',#1961,#1248);
#1103=LINE('',#1962,#1249);
#1104=LINE('',#1964,#1250);
#1105=LINE('',#1967,#1251);
#1106=LINE('',#1969,#1252);
#1107=LINE('',#1971,#1253);
#1108=LINE('',#1973,#1254);
#1109=LINE('',#1974,#1255);
#1110=VECTOR('',#1347,1.);
#1111=VECTOR('',#1348,1.);
#1112=VECTOR('',#1349,1.);
#1113=VECTOR('',#1350,1.);
#1114=VECTOR('',#1353,1.);
#1115=VECTOR('',#1354,1.);
#1116=VECTOR('',#1355,1.);
#1117=VECTOR('',#1358,1.);
#1118=VECTOR('',#1359,1.);
#1119=VECTOR('',#1360,1.);
#1120=VECTOR('',#1363,1.);
#1121=VECTOR('',#1364,1.);
#1122=VECTOR('',#1365,1.);
#1123=VECTOR('',#1366,1.);
#1124=VECTOR('',#1369,1.);
#1125=VECTOR('',#1370,1.);
#1126=VECTOR('',#1371,1.);
#1127=VECTOR('',#1374,1.);
#1128=VECTOR('',#1375,1.);
#1129=VECTOR('',#1376,1.);
#1130=VECTOR('',#1379,1.);
#1131=VECTOR('',#1380,1.);
#1132=VECTOR('',#1381,1.);
#1133=VECTOR('',#1382,1.);
#1134=VECTOR('',#1385,1.);
#1135=VECTOR('',#1386,1.);
#1136=VECTOR('',#1387,1.);
#1137=VECTOR('',#1390,1.);
#1138=VECTOR('',#1391,1.);
#1139=VECTOR('',#1392,1.);
#1140=VECTOR('',#1395,1.);
#1141=VECTOR('',#1396,1.);
#1142=VECTOR('',#1397,1.);
#1143=VECTOR('',#1398,1.);
#1144=VECTOR('',#1401,1.);
#1145=VECTOR('',#1402,1.);
#1146=VECTOR('',#1403,1.);
#1147=VECTOR('',#1406,1.);
#1148=VECTOR('',#1407,1.);
#1149=VECTOR('',#1408,1.);
#1150=VECTOR('',#1411,1.);
#1151=VECTOR('',#1412,1.);
#1152=VECTOR('',#1413,1.);
#1153=VECTOR('',#1414,1.);
#1154=VECTOR('',#1417,1.);
#1155=VECTOR('',#1418,1.);
#1156=VECTOR('',#1419,1.);
#1157=VECTOR('',#1422,1.);
#1158=VECTOR('',#1423,1.);
#1159=VECTOR('',#1424,1.);
#1160=VECTOR('',#1427,1.);
#1161=VECTOR('',#1428,1.);
#1162=VECTOR('',#1429,1.);
#1163=VECTOR('',#1430,1.);
#1164=VECTOR('',#1433,1.);
#1165=VECTOR('',#1434,1.);
#1166=VECTOR('',#1435,1.);
#1167=VECTOR('',#1438,1.);
#1168=VECTOR('',#1439,1.);
#1169=VECTOR('',#1440,1.);
#1170=VECTOR('',#1443,1.);
#1171=VECTOR('',#1444,1.);
#1172=VECTOR('',#1445,1.);
#1173=VECTOR('',#1446,1.);
#1174=VECTOR('',#1449,1.);
#1175=VECTOR('',#1450,1.);
#1176=VECTOR('',#1451,1.);
#1177=VECTOR('',#1452,1.);
#1178=VECTOR('',#1455,1.);
#1179=VECTOR('',#1456,1.);
#1180=VECTOR('',#1457,1.);
#1181=VECTOR('',#1458,1.);
#1182=VECTOR('',#1461,1.);
#1183=VECTOR('',#1462,1.);
#1184=VECTOR('',#1463,1.);
#1185=VECTOR('',#1464,1.);
#1186=VECTOR('',#1467,1.);
#1187=VECTOR('',#1468,1.);
#1188=VECTOR('',#1469,1.);
#1189=VECTOR('',#1470,1.);
#1190=VECTOR('',#1473,1.);
#1191=VECTOR('',#1474,1.);
#1192=VECTOR('',#1475,1.);
#1193=VECTOR('',#1478,1.);
#1194=VECTOR('',#1479,1.);
#1195=VECTOR('',#1480,1.);
#1196=VECTOR('',#1483,1.);
#1197=VECTOR('',#1484,1.);
#1198=VECTOR('',#1485,1.);
#1199=VECTOR('',#1486,1.);
#1200=VECTOR('',#1489,1.);
#1201=VECTOR('',#1490,1.);
#1202=VECTOR('',#1491,1.);
#1203=VECTOR('',#1492,1.);
#1204=VECTOR('',#1495,1.);
#1205=VECTOR('',#1496,1.);
#1206=VECTOR('',#1497,1.);
#1207=VECTOR('',#1500,1.);
#1208=VECTOR('',#1501,1.);
#1209=VECTOR('',#1502,1.);
#1210=VECTOR('',#1505,1.);
#1211=VECTOR('',#1506,1.);
#1212=VECTOR('',#1507,1.);
#1213=VECTOR('',#1508,1.);
#1214=VECTOR('',#1511,1.);
#1215=VECTOR('',#1512,1.);
#1216=VECTOR('',#1513,1.);
#1217=VECTOR('',#1514,1.);
#1218=VECTOR('',#1517,1.);
#1219=VECTOR('',#1518,1.);
#1220=VECTOR('',#1519,1.);
#1221=VECTOR('',#1522,1.);
#1222=VECTOR('',#1523,1.);
#1223=VECTOR('',#1524,1.);
#1224=VECTOR('',#1527,1.);
#1225=VECTOR('',#1528,1.);
#1226=VECTOR('',#1529,1.);
#1227=VECTOR('',#1530,1.);
#1228=VECTOR('',#1533,1.);
#1229=VECTOR('',#1534,1.);
#1230=VECTOR('',#1535,1.);
#1231=VECTOR('',#1536,1.);
#1232=VECTOR('',#1539,1.);
#1233=VECTOR('',#1540,1.);
#1234=VECTOR('',#1541,1.);
#1235=VECTOR('',#1542,1.);
#1236=VECTOR('',#1545,1.);
#1237=VECTOR('',#1546,1.);
#1238=VECTOR('',#1547,1.);
#1239=VECTOR('',#1548,1.);
#1240=VECTOR('',#1551,1.);
#1241=VECTOR('',#1552,1.);
#1242=VECTOR('',#1555,1.);
#1243=VECTOR('',#1556,1.);
#1244=VECTOR('',#1559,1.);
#1245=VECTOR('',#1560,1.);
#1246=VECTOR('',#1563,1.);
#1247=VECTOR('',#1564,1.);
#1248=VECTOR('',#1567,1.);
#1249=VECTOR('',#1568,1.);
#1250=VECTOR('',#1571,1.);
#1251=VECTOR('',#1572,1.);
#1252=VECTOR('',#1573,1.);
#1253=VECTOR('',#1574,1.);
#1254=VECTOR('',#1577,1.);
#1255=VECTOR('',#1578,1.);
#1256=AXIS2_PLACEMENT_3D('',#1669,#1345,#1346);
#1257=AXIS2_PLACEMENT_3D('',#1678,#1351,#1352);
#1258=AXIS2_PLACEMENT_3D('',#1684,#1356,#1357);
#1259=AXIS2_PLACEMENT_3D('',#1690,#1361,#1362);
#1260=AXIS2_PLACEMENT_3D('',#1699,#1367,#1368);
#1261=AXIS2_PLACEMENT_3D('',#1705,#1372,#1373);
#1262=AXIS2_PLACEMENT_3D('',#1711,#1377,#1378);
#1263=AXIS2_PLACEMENT_3D('',#1720,#1383,#1384);
#1264=AXIS2_PLACEMENT_3D('',#1726,#1388,#1389);
#1265=AXIS2_PLACEMENT_3D('',#1732,#1393,#1394);
#1266=AXIS2_PLACEMENT_3D('',#1741,#1399,#1400);
#1267=AXIS2_PLACEMENT_3D('',#1747,#1404,#1405);
#1268=AXIS2_PLACEMENT_3D('',#1753,#1409,#1410);
#1269=AXIS2_PLACEMENT_3D('',#1762,#1415,#1416);
#1270=AXIS2_PLACEMENT_3D('',#1768,#1420,#1421);
#1271=AXIS2_PLACEMENT_3D('',#1774,#1425,#1426);
#1272=AXIS2_PLACEMENT_3D('',#1783,#1431,#1432);
#1273=AXIS2_PLACEMENT_3D('',#1789,#1436,#1437);
#1274=AXIS2_PLACEMENT_3D('',#1795,#1441,#1442);
#1275=AXIS2_PLACEMENT_3D('',#1804,#1447,#1448);
#1276=AXIS2_PLACEMENT_3D('',#1813,#1453,#1454);
#1277=AXIS2_PLACEMENT_3D('',#1822,#1459,#1460);
#1278=AXIS2_PLACEMENT_3D('',#1831,#1465,#1466);
#1279=AXIS2_PLACEMENT_3D('',#1840,#1471,#1472);
#1280=AXIS2_PLACEMENT_3D('',#1846,#1476,#1477);
#1281=AXIS2_PLACEMENT_3D('',#1852,#1481,#1482);
#1282=AXIS2_PLACEMENT_3D('',#1861,#1487,#1488);
#1283=AXIS2_PLACEMENT_3D('',#1870,#1493,#1494);
#1284=AXIS2_PLACEMENT_3D('',#1876,#1498,#1499);
#1285=AXIS2_PLACEMENT_3D('',#1882,#1503,#1504);
#1286=AXIS2_PLACEMENT_3D('',#1891,#1509,#1510);
#1287=AXIS2_PLACEMENT_3D('',#1900,#1515,#1516);
#1288=AXIS2_PLACEMENT_3D('',#1906,#1520,#1521);
#1289=AXIS2_PLACEMENT_3D('',#1912,#1525,#1526);
#1290=AXIS2_PLACEMENT_3D('',#1921,#1531,#1532);
#1291=AXIS2_PLACEMENT_3D('',#1930,#1537,#1538);
#1292=AXIS2_PLACEMENT_3D('',#1939,#1543,#1544);
#1293=AXIS2_PLACEMENT_3D('',#1948,#1549,#1550);
#1294=AXIS2_PLACEMENT_3D('',#1951,#1553,#1554);
#1295=AXIS2_PLACEMENT_3D('',#1954,#1557,#1558);
#1296=AXIS2_PLACEMENT_3D('',#1957,#1561,#1562);
#1297=AXIS2_PLACEMENT_3D('',#1960,#1565,#1566);
#1298=AXIS2_PLACEMENT_3D('',#1963,#1569,#1570);
#1299=AXIS2_PLACEMENT_3D('',#1972,#1575,#1576);
#1300=AXIS2_PLACEMENT_3D('',#1975,#1579,#1580);
#1301=AXIS2_PLACEMENT_3D('',#1976,#1581,#1582);
#1302=AXIS2_PLACEMENT_3D('',#1977,#1583,#1584);
#1303=AXIS2_PLACEMENT_3D('',#1978,#1585,#1586);
#1304=AXIS2_PLACEMENT_3D('',#1979,#1587,#1588);
#1305=AXIS2_PLACEMENT_3D('',#1980,#1589,#1590);
#1306=AXIS2_PLACEMENT_3D('',#1981,#1591,#1592);
#1307=AXIS2_PLACEMENT_3D('',#1982,#1593,#1594);
#1308=AXIS2_PLACEMENT_3D('',#1983,#1595,#1596);
#1309=AXIS2_PLACEMENT_3D('',#1984,#1597,#1598);
#1310=AXIS2_PLACEMENT_3D('',#1985,#1599,#1600);
#1311=AXIS2_PLACEMENT_3D('',#1986,#1601,#1602);
#1312=AXIS2_PLACEMENT_3D('',#1987,#1603,#1604);
#1313=AXIS2_PLACEMENT_3D('',#1988,#1605,#1606);
#1314=AXIS2_PLACEMENT_3D('',#1989,#1607,#1608);
#1315=AXIS2_PLACEMENT_3D('',#1990,#1609,#1610);
#1316=AXIS2_PLACEMENT_3D('',#1991,#1611,#1612);
#1317=AXIS2_PLACEMENT_3D('',#1992,#1613,#1614);
#1318=AXIS2_PLACEMENT_3D('',#1993,#1615,#1616);
#1319=AXIS2_PLACEMENT_3D('',#1994,#1617,#1618);
#1320=AXIS2_PLACEMENT_3D('',#1995,#1619,#1620);
#1321=AXIS2_PLACEMENT_3D('',#1996,#1621,#1622);
#1322=AXIS2_PLACEMENT_3D('',#1997,#1623,#1624);
#1323=AXIS2_PLACEMENT_3D('',#1998,#1625,#1626);
#1324=AXIS2_PLACEMENT_3D('',#1999,#1627,#1628);
#1325=AXIS2_PLACEMENT_3D('',#2000,#1629,#1630);
#1326=AXIS2_PLACEMENT_3D('',#2001,#1631,#1632);
#1327=AXIS2_PLACEMENT_3D('',#2002,#1633,#1634);
#1328=AXIS2_PLACEMENT_3D('',#2003,#1635,#1636);
#1329=AXIS2_PLACEMENT_3D('',#2004,#1637,#1638);
#1330=AXIS2_PLACEMENT_3D('',#2005,#1639,#1640);
#1331=AXIS2_PLACEMENT_3D('',#2006,#1641,#1642);
#1332=AXIS2_PLACEMENT_3D('',#2007,#1643,#1644);
#1333=AXIS2_PLACEMENT_3D('',#2008,#1645,#1646);
#1334=AXIS2_PLACEMENT_3D('',#2009,#1647,#1648);
#1335=AXIS2_PLACEMENT_3D('',#2010,#1649,#1650);
#1336=AXIS2_PLACEMENT_3D('',#2011,#1651,#1652);
#1337=AXIS2_PLACEMENT_3D('',#2012,#1653,#1654);
#1338=AXIS2_PLACEMENT_3D('',#2013,#1655,#1656);
#1339=AXIS2_PLACEMENT_3D('',#2014,#1657,#1658);
#1340=AXIS2_PLACEMENT_3D('',#2015,#1659,#1660);
#1341=AXIS2_PLACEMENT_3D('',#2016,#1661,#1662);
#1342=AXIS2_PLACEMENT_3D('',#2017,#1663,#1664);
#1343=AXIS2_PLACEMENT_3D('',#2018,#1665,#1666);
#1344=AXIS2_PLACEMENT_3D('',#2019,#1667,#1668);
#1345=DIRECTION('',(0.,0.,1.));
#1346=DIRECTION('',(1.,0.,0.));
#1347=DIRECTION('',(0.,0.,1.));
#1348=DIRECTION('',(0.,1.,0.));
#1349=DIRECTION('',(0.,0.,1.));
#1350=DIRECTION('',(0.,1.,0.));
#1351=DIRECTION('',(-1.,0.,0.));
#1352=DIRECTION('',(0.,0.,1.));
#1353=DIRECTION('',(1.,0.,0.));
#1354=DIRECTION('',(0.,1.,0.));
#1355=DIRECTION('',(1.,0.,0.));
#1356=DIRECTION('',(0.,0.,1.));
#1357=DIRECTION('',(1.,0.,0.));
#1358=DIRECTION('',(2.47817639425258E-16,0.,-1.));
#1359=DIRECTION('',(0.,1.,0.));
#1360=DIRECTION('',(2.47817639425258E-16,0.,-1.));
#1361=DIRECTION('',(1.,0.,2.47817639425258E-16));
#1362=DIRECTION('',(2.47848616630186E-16,0.,-1.));
#1363=DIRECTION('',(2.47817639425258E-16,0.,1.));
#1364=DIRECTION('',(0.,1.,0.));
#1365=DIRECTION('',(2.47817639425258E-16,0.,1.));
#1366=DIRECTION('',(0.,1.,0.));
#1367=DIRECTION('',(-1.,0.,2.47817639425258E-16));
#1368=DIRECTION('',(2.47848616630186E-16,0.,1.));
#1369=DIRECTION('',(1.,0.,0.));
#1370=DIRECTION('',(0.,1.,0.));
#1371=DIRECTION('',(1.,0.,0.));
#1372=DIRECTION('',(0.,0.,1.));
#1373=DIRECTION('',(1.,0.,0.));
#1374=DIRECTION('',(4.95635278850516E-16,0.,-1.));
#1375=DIRECTION('',(0.,1.,0.));
#1376=DIRECTION('',(4.95635278850516E-16,0.,-1.));
#1377=DIRECTION('',(1.,0.,4.95635278850516E-16));
#1378=DIRECTION('',(4.95697233260373E-16,0.,-1.));
#1379=DIRECTION('',(5.57589688706831E-16,0.,1.));
#1380=DIRECTION('',(0.,1.,0.));
#1381=DIRECTION('',(5.57589688706831E-16,0.,1.));
#1382=DIRECTION('',(0.,1.,0.));
#1383=DIRECTION('',(-1.,0.,5.57589688706831E-16));
#1384=DIRECTION('',(5.57496757092046E-16,0.,1.));
#1385=DIRECTION('',(1.,0.,0.));
#1386=DIRECTION('',(0.,1.,0.));
#1387=DIRECTION('',(1.,0.,0.));
#1388=DIRECTION('',(0.,0.,1.));
#1389=DIRECTION('',(1.,0.,0.));
#1390=DIRECTION('',(8.05407328132089E-16,0.,-1.));
#1391=DIRECTION('',(0.,1.,0.));
#1392=DIRECTION('',(8.05407328132089E-16,0.,-1.));
#1393=DIRECTION('',(1.,0.,8.05407328132089E-16));
#1394=DIRECTION('',(8.05345373722233E-16,0.,-1.));
#1395=DIRECTION('',(8.05407328132089E-16,0.,1.));
#1396=DIRECTION('',(0.,1.,0.));
#1397=DIRECTION('',(8.05407328132089E-16,0.,1.));
#1398=DIRECTION('',(0.,1.,0.));
#1399=DIRECTION('',(-1.,0.,8.05407328132089E-16));
#1400=DIRECTION('',(8.05345373722233E-16,0.,1.));
#1401=DIRECTION('',(1.,0.,0.));
#1402=DIRECTION('',(0.,1.,0.));
#1403=DIRECTION('',(1.,0.,0.));
#1404=DIRECTION('',(0.,0.,1.));
#1405=DIRECTION('',(1.,0.,0.));
#1406=DIRECTION('',(1.0842021724855E-15,0.,-1.));
#1407=DIRECTION('',(0.,1.,0.));
#1408=DIRECTION('',(1.0842021724855E-15,0.,-1.));
#1409=DIRECTION('',(1.,0.,1.0842021724855E-15));
#1410=DIRECTION('',(1.0842021724855E-15,0.,-1.));
#1411=DIRECTION('',(1.02224776262919E-15,0.,1.));
#1412=DIRECTION('',(0.,1.,0.));
#1413=DIRECTION('',(1.02224776262919E-15,0.,1.));
#1414=DIRECTION('',(0.,1.,0.));
#1415=DIRECTION('',(-1.,0.,1.02224776262919E-15));
#1416=DIRECTION('',(1.02218580821933E-15,0.,1.));
#1417=DIRECTION('',(1.,0.,0.));
#1418=DIRECTION('',(0.,1.,0.));
#1419=DIRECTION('',(1.,0.,0.));
#1420=DIRECTION('',(0.,0.,1.));
#1421=DIRECTION('',(1.,0.,0.));
#1422=DIRECTION('',(1.27006540205445E-15,0.,-1.));
#1423=DIRECTION('',(0.,1.,0.));
#1424=DIRECTION('',(1.27006540205445E-15,0.,-1.));
#1425=DIRECTION('',(1.,0.,1.27006540205445E-15));
#1426=DIRECTION('',(1.27003442484952E-15,0.,-1.));
#1427=DIRECTION('',(0.,0.,1.));
#1428=DIRECTION('',(0.,1.,0.));
#1429=DIRECTION('',(0.,0.,1.));
#1430=DIRECTION('',(0.,1.,0.));
#1431=DIRECTION('',(-1.,0.,0.));
#1432=DIRECTION('',(0.,0.,1.));
#1433=DIRECTION('',(1.,0.,0.));
#1434=DIRECTION('',(0.,1.,0.));
#1435=DIRECTION('',(1.,0.,0.));
#1436=DIRECTION('',(0.,0.,1.));
#1437=DIRECTION('',(1.,0.,0.));
#1438=DIRECTION('',(2.47817639425258E-16,0.,-1.));
#1439=DIRECTION('',(0.,1.,0.));
#1440=DIRECTION('',(2.47817639425258E-16,0.,-1.));
#1441=DIRECTION('',(1.,0.,2.47817639425258E-16));
#1442=DIRECTION('',(2.47848616630186E-16,0.,-1.));
#1443=DIRECTION('',(2.60657931623458E-16,0.,-1.));
#1444=DIRECTION('',(0.,-1.,0.));
#1445=DIRECTION('',(2.60657931623458E-16,0.,-1.));
#1446=DIRECTION('',(0.,1.,0.));
#1447=DIRECTION('',(1.,0.,2.60657931623458E-16));
#1448=DIRECTION('',(2.61075883134509E-16,0.,-1.));
#1449=DIRECTION('',(-0.913811548620257,0.,-0.406138466053448));
#1450=DIRECTION('',(0.,1.,0.));
#1451=DIRECTION('',(-0.913811548620257,0.,-0.406138466053448));
#1452=DIRECTION('',(0.,-1.,0.));
#1453=DIRECTION('',(0.406138466053448,0.,-0.913811548620257));
#1454=DIRECTION('',(-0.913811548620257,0.,-0.406138466053448));
#1455=DIRECTION('',(0.,0.,-1.));
#1456=DIRECTION('',(0.,1.,0.));
#1457=DIRECTION('',(0.,0.,-1.));
#1458=DIRECTION('',(0.,-1.,0.));
#1459=DIRECTION('',(1.,0.,0.));
#1460=DIRECTION('',(0.,0.,-1.));
#1461=DIRECTION('',(1.,0.,1.23908819712629E-16));
#1462=DIRECTION('',(0.,1.,0.));
#1463=DIRECTION('',(1.,0.,1.23908819712629E-16));
#1464=DIRECTION('',(0.,-1.,0.));
#1465=DIRECTION('',(-1.23908819712629E-16,0.,1.));
#1466=DIRECTION('',(1.,0.,1.24032728532342E-16));
#1467=DIRECTION('',(0.,0.,1.));
#1468=DIRECTION('',(0.,1.,0.));
#1469=DIRECTION('',(0.,0.,1.));
#1470=DIRECTION('',(0.,1.,0.));
#1471=DIRECTION('',(-1.,0.,0.));
#1472=DIRECTION('',(0.,0.,1.));
#1473=DIRECTION('',(1.,0.,-2.89120579329469E-16));
#1474=DIRECTION('',(0.,1.,0.));
#1475=DIRECTION('',(1.,0.,1.33440267382831E-16));
#1476=DIRECTION('',(2.89120579329469E-16,0.,1.));
#1477=DIRECTION('',(1.,0.,-2.89265139619133E-16));
#1478=DIRECTION('',(1.44560289664734E-16,0.,-1.));
#1479=DIRECTION('',(0.,-1.,0.));
#1480=DIRECTION('',(1.44560289664734E-16,0.,-1.));
#1481=DIRECTION('',(1.,0.,1.44560289664734E-16));
#1482=DIRECTION('',(1.44415729375069E-16,0.,-1.));
#1483=DIRECTION('',(1.,0.,0.));
#1484=DIRECTION('',(0.,1.,0.));
#1485=DIRECTION('',(1.,0.,0.));
#1486=DIRECTION('',(0.,-1.,0.));
#1487=DIRECTION('',(0.,0.,1.));
#1488=DIRECTION('',(1.,0.,0.));
#1489=DIRECTION('',(0.,0.,1.));
#1490=DIRECTION('',(0.,1.,0.));
#1491=DIRECTION('',(0.,0.,1.));
#1492=DIRECTION('',(0.,1.,0.));
#1493=DIRECTION('',(-1.,0.,0.));
#1494=DIRECTION('',(0.,0.,1.));
#1495=DIRECTION('',(1.,0.,1.22464679914735E-16));
#1496=DIRECTION('',(0.,1.,0.));
#1497=DIRECTION('',(1.,0.,1.22464679914735E-16));
#1498=DIRECTION('',(-1.22464679914735E-16,0.,1.));
#1499=DIRECTION('',(1.,0.,1.22464679914735E-16));
#1500=DIRECTION('',(3.03576608295941E-16,0.,-1.));
#1501=DIRECTION('',(0.,-1.,0.));
#1502=DIRECTION('',(3.03576608295941E-16,0.,-1.));
#1503=DIRECTION('',(1.,0.,3.03576608295941E-16));
#1504=DIRECTION('',(3.03576608295941E-16,0.,-1.));
#1505=DIRECTION('',(1.,0.,4.23103286823611E-16));
#1506=DIRECTION('',(0.,-1.,0.));
#1507=DIRECTION('',(1.,0.,4.23103286823611E-16));
#1508=DIRECTION('',(0.,1.,0.));
#1509=DIRECTION('',(-4.23103286823611E-16,0.,1.));
#1510=DIRECTION('',(1.,0.,4.23272528138341E-16));
#1511=DIRECTION('',(1.44560289664734E-16,0.,1.));
#1512=DIRECTION('',(0.,1.,0.));
#1513=DIRECTION('',(1.44560289664734E-16,0.,1.));
#1514=DIRECTION('',(0.,1.,0.));
#1515=DIRECTION('',(-1.,0.,1.44560289664734E-16));
#1516=DIRECTION('',(1.44415729375069E-16,0.,1.));
#1517=DIRECTION('',(1.,0.,-1.33440267382831E-16));
#1518=DIRECTION('',(0.,1.,0.));
#1519=DIRECTION('',(1.,0.,5.78241158658938E-16));
#1520=DIRECTION('',(1.33440267382831E-16,0.,1.));
#1521=DIRECTION('',(1.,0.,-1.33573707650214E-16));
#1522=DIRECTION('',(0.,0.,-1.));
#1523=DIRECTION('',(0.,-1.,0.));
#1524=DIRECTION('',(0.,0.,-1.));
#1525=DIRECTION('',(1.,0.,0.));
#1526=DIRECTION('',(0.,0.,-1.));
#1527=DIRECTION('',(1.,0.,-1.23908819712629E-16));
#1528=DIRECTION('',(0.,1.,0.));
#1529=DIRECTION('',(1.,0.,-1.23908819712629E-16));
#1530=DIRECTION('',(0.,-1.,0.));
#1531=DIRECTION('',(1.23908819712629E-16,0.,1.));
#1532=DIRECTION('',(1.,0.,-1.24032728532342E-16));
#1533=DIRECTION('',(0.,0.,1.));
#1534=DIRECTION('',(0.,-1.,0.));
#1535=DIRECTION('',(0.,0.,1.));
#1536=DIRECTION('',(0.,1.,0.));
#1537=DIRECTION('',(-1.,0.,0.));
#1538=DIRECTION('',(0.,0.,1.));
#1539=DIRECTION('',(-0.913811548620257,0.,0.406138466053448));
#1540=DIRECTION('',(0.,-1.,0.));
#1541=DIRECTION('',(-0.913811548620257,0.,0.406138466053448));
#1542=DIRECTION('',(0.,1.,0.));
#1543=DIRECTION('',(-0.406138466053448,0.,-0.913811548620257));
#1544=DIRECTION('',(-0.913811548620257,0.,0.406138466053448));
#1545=DIRECTION('',(1.79764090774799E-17,0.,1.));
#1546=DIRECTION('',(0.,1.,0.));
#1547=DIRECTION('',(1.79764090774799E-17,0.,1.));
#1548=DIRECTION('',(0.,-1.,0.));
#1549=DIRECTION('',(-1.,0.,1.79764090774799E-17));
#1550=DIRECTION('',(1.82145964977565E-17,0.,1.));
#1551=DIRECTION('',(-1.,0.,0.));
#1552=DIRECTION('',(-1.,0.,0.));
#1553=DIRECTION('',(0.,0.,-1.));
#1554=DIRECTION('',(-1.,0.,0.));
#1555=DIRECTION('',(-1.,0.,0.));
#1556=DIRECTION('',(-1.,0.,0.));
#1557=DIRECTION('',(0.,0.,-1.));
#1558=DIRECTION('',(-1.,0.,0.));
#1559=DIRECTION('',(-1.,0.,0.));
#1560=DIRECTION('',(-1.,0.,0.));
#1561=DIRECTION('',(0.,0.,-1.));
#1562=DIRECTION('',(-1.,0.,0.));
#1563=DIRECTION('',(-1.,0.,0.));
#1564=DIRECTION('',(-1.,0.,0.));
#1565=DIRECTION('',(0.,0.,-1.));
#1566=DIRECTION('',(-1.,0.,0.));
#1567=DIRECTION('',(-1.,0.,0.));
#1568=DIRECTION('',(-1.,0.,0.));
#1569=DIRECTION('',(0.,0.,-1.));
#1570=DIRECTION('',(-1.,0.,0.));
#1571=DIRECTION('',(-1.,0.,0.));
#1572=DIRECTION('',(0.,1.,0.));
#1573=DIRECTION('',(-1.,0.,0.));
#1574=DIRECTION('',(0.,-1.,0.));
#1575=DIRECTION('',(0.,0.,-1.));
#1576=DIRECTION('',(-1.,0.,0.));
#1577=DIRECTION('',(-1.,0.,0.));
#1578=DIRECTION('',(-1.,0.,0.));
#1579=DIRECTION('',(0.,0.,-1.));
#1580=DIRECTION('',(-1.,0.,0.));
#1581=DIRECTION('',(0.,-1.,0.));
#1582=DIRECTION('',(0.,0.,-1.));
#1583=DIRECTION('',(0.,-1.,0.));
#1584=DIRECTION('',(0.,0.,-1.));
#1585=DIRECTION('',(0.,-1.,0.));
#1586=DIRECTION('',(0.,0.,-1.));
#1587=DIRECTION('',(0.,-1.,0.));
#1588=DIRECTION('',(0.,0.,-1.));
#1589=DIRECTION('',(0.,-1.,0.));
#1590=DIRECTION('',(0.,0.,-1.));
#1591=DIRECTION('',(0.,-1.,0.));
#1592=DIRECTION('',(0.,0.,-1.));
#1593=DIRECTION('',(0.,-1.,0.));
#1594=DIRECTION('',(0.,0.,-1.));
#1595=DIRECTION('',(0.,-1.,0.));
#1596=DIRECTION('',(0.,0.,-1.));
#1597=DIRECTION('',(0.,-1.,0.));
#1598=DIRECTION('',(0.,0.,-1.));
#1599=DIRECTION('',(0.,-1.,0.));
#1600=DIRECTION('',(0.,0.,-1.));
#1601=DIRECTION('',(0.,1.,0.));
#1602=DIRECTION('',(0.,0.,-1.));
#1603=DIRECTION('',(0.,-1.,0.));
#1604=DIRECTION('',(0.,0.,-1.00000000000001));
#1605=DIRECTION('',(0.,-1.,0.));
#1606=DIRECTION('',(0.,0.,-1.00000000000001));
#1607=DIRECTION('',(0.,1.,0.));
#1608=DIRECTION('',(0.,0.,-1.));
#1609=DIRECTION('',(0.,-1.,0.));
#1610=DIRECTION('',(0.,0.,-1.));
#1611=DIRECTION('',(0.,1.,0.));
#1612=DIRECTION('',(0.,0.,-1.));
#1613=DIRECTION('',(0.,-1.,0.));
#1614=DIRECTION('',(0.,0.,-1.));
#1615=DIRECTION('',(0.,1.,0.));
#1616=DIRECTION('',(0.,0.,-1.00000000000001));
#1617=DIRECTION('',(0.,1.,0.));
#1618=DIRECTION('',(0.,0.,-1.00000000000001));
#1619=DIRECTION('',(0.,-1.,0.));
#1620=DIRECTION('',(0.,0.,-1.));
#1621=DIRECTION('',(0.,1.,0.));
#1622=DIRECTION('',(0.,0.,-1.));
#1623=DIRECTION('',(0.,1.,0.));
#1624=DIRECTION('',(0.,0.,-1.));
#1625=DIRECTION('',(0.,1.,0.));
#1626=DIRECTION('',(0.,0.,-1.));
#1627=DIRECTION('',(0.,1.,0.));
#1628=DIRECTION('',(0.,0.,-1.));
#1629=DIRECTION('',(0.,1.,0.));
#1630=DIRECTION('',(0.,0.,-1.));
#1631=DIRECTION('',(0.,1.,0.));
#1632=DIRECTION('',(0.,0.,-1.));
#1633=DIRECTION('',(0.,1.,0.));
#1634=DIRECTION('',(0.,0.,-1.));
#1635=DIRECTION('',(0.,1.,0.));
#1636=DIRECTION('',(0.,0.,-1.));
#1637=DIRECTION('',(0.,1.,0.));
#1638=DIRECTION('',(0.,0.,-1.));
#1639=DIRECTION('',(0.,-1.,0.));
#1640=DIRECTION('',(0.,0.,-1.));
#1641=DIRECTION('',(0.,-1.,0.));
#1642=DIRECTION('',(0.,0.,-1.));
#1643=DIRECTION('',(0.,-1.,0.));
#1644=DIRECTION('',(0.,0.,-1.));
#1645=DIRECTION('',(0.,1.,0.));
#1646=DIRECTION('',(0.,0.,1.));
#1647=DIRECTION('',(0.,1.,0.));
#1648=DIRECTION('',(0.,0.,1.));
#1649=DIRECTION('',(0.,1.,0.));
#1650=DIRECTION('',(0.,0.,1.));
#1651=DIRECTION('',(0.,1.,0.));
#1652=DIRECTION('',(0.,0.,1.));
#1653=DIRECTION('',(0.,1.,0.));
#1654=DIRECTION('',(0.,0.,1.));
#1655=DIRECTION('',(0.,1.,0.));
#1656=DIRECTION('',(0.,0.,1.));
#1657=DIRECTION('',(0.,1.,0.));
#1658=DIRECTION('',(0.,0.,1.));
#1659=DIRECTION('',(0.,1.,0.));
#1660=DIRECTION('',(0.,0.,1.));
#1661=DIRECTION('',(0.,1.,0.));
#1662=DIRECTION('',(0.,0.,1.));
#1663=DIRECTION('',(0.,1.,0.));
#1664=DIRECTION('',(0.,0.,1.));
#1665=DIRECTION('',(0.,1.,0.));
#1666=DIRECTION('',(0.,0.,1.00000000000001));
#1667=DIRECTION('',(0.,1.,0.));
#1668=DIRECTION('',(0.,0.,1.00000000000001));
#1669=CARTESIAN_POINT('',(0.,0.,0.));
#1670=CARTESIAN_POINT('',(-1.45,0.,8.));
#1671=CARTESIAN_POINT('',(-1.45,0.,8.));
#1672=CARTESIAN_POINT('',(-1.45,0.,15.));
#1673=CARTESIAN_POINT('',(-1.45,-3.,15.));
#1674=CARTESIAN_POINT('',(-1.45,-3.,15.));
#1675=CARTESIAN_POINT('',(-1.45,-3.,8.));
#1676=CARTESIAN_POINT('',(-1.45,-3.,8.));
#1677=CARTESIAN_POINT('',(-1.45,-3.,8.));
#1678=CARTESIAN_POINT('',(-1.45,-3.,8.));
#1679=CARTESIAN_POINT('',(-1.45,0.,15.));
#1680=CARTESIAN_POINT('',(1.45,0.,15.));
#1681=CARTESIAN_POINT('',(1.45,-3.,15.));
#1682=CARTESIAN_POINT('',(1.45,-3.,15.));
#1683=CARTESIAN_POINT('',(-1.45,-3.,15.));
#1684=CARTESIAN_POINT('',(-1.45,-3.,15.));
#1685=CARTESIAN_POINT('',(1.45,0.,15.));
#1686=CARTESIAN_POINT('',(1.45,0.,8.));
#1687=CARTESIAN_POINT('',(1.45,-3.,8.));
#1688=CARTESIAN_POINT('',(1.45,-3.,8.));
#1689=CARTESIAN_POINT('',(1.45,-3.,15.));
#1690=CARTESIAN_POINT('',(1.45,-3.,15.));
#1691=CARTESIAN_POINT('',(-1.45,0.,23.));
#1692=CARTESIAN_POINT('',(-1.45,0.,23.));
#1693=CARTESIAN_POINT('',(-1.45,0.,30.));
#1694=CARTESIAN_POINT('',(-1.45,-3.,30.));
#1695=CARTESIAN_POINT('',(-1.45,-3.,30.));
#1696=CARTESIAN_POINT('',(-1.45,-3.,23.));
#1697=CARTESIAN_POINT('',(-1.45,-3.,23.));
#1698=CARTESIAN_POINT('',(-1.45,-3.,23.));
#1699=CARTESIAN_POINT('',(-1.45,-3.,23.));
#1700=CARTESIAN_POINT('',(-1.45,0.,30.));
#1701=CARTESIAN_POINT('',(1.45,0.,30.));
#1702=CARTESIAN_POINT('',(1.45,-3.,30.));
#1703=CARTESIAN_POINT('',(1.45,-3.,30.));
#1704=CARTESIAN_POINT('',(-1.45,-3.,30.));
#1705=CARTESIAN_POINT('',(-1.45,-3.,30.));
#1706=CARTESIAN_POINT('',(1.45,0.,30.));
#1707=CARTESIAN_POINT('',(1.45,0.,23.));
#1708=CARTESIAN_POINT('',(1.45,-3.,23.));
#1709=CARTESIAN_POINT('',(1.45,-3.,23.));
#1710=CARTESIAN_POINT('',(1.45,-3.,30.));
#1711=CARTESIAN_POINT('',(1.45,-3.,30.));
#1712=CARTESIAN_POINT('',(-1.45000000000001,0.,38.));
#1713=CARTESIAN_POINT('',(-1.45000000000001,0.,38.));
#1714=CARTESIAN_POINT('',(-1.45,0.,45.));
#1715=CARTESIAN_POINT('',(-1.45,-3.,45.));
#1716=CARTESIAN_POINT('',(-1.45,-3.,45.));
#1717=CARTESIAN_POINT('',(-1.45000000000001,-3.,38.));
#1718=CARTESIAN_POINT('',(-1.45000000000001,-3.,38.));
#1719=CARTESIAN_POINT('',(-1.45000000000001,-3.,38.));
#1720=CARTESIAN_POINT('',(-1.45000000000001,-3.,38.));
#1721=CARTESIAN_POINT('',(-1.45,0.,45.));
#1722=CARTESIAN_POINT('',(1.44999999999999,0.,45.));
#1723=CARTESIAN_POINT('',(1.44999999999999,-3.,45.));
#1724=CARTESIAN_POINT('',(1.44999999999999,-3.,45.));
#1725=CARTESIAN_POINT('',(-1.45,-3.,45.));
#1726=CARTESIAN_POINT('',(-1.45,-3.,45.));
#1727=CARTESIAN_POINT('',(1.44999999999999,0.,45.));
#1728=CARTESIAN_POINT('',(1.45,0.,38.));
#1729=CARTESIAN_POINT('',(1.45,-3.,38.));
#1730=CARTESIAN_POINT('',(1.45,-3.,38.));
#1731=CARTESIAN_POINT('',(1.44999999999999,-3.,45.));
#1732=CARTESIAN_POINT('',(1.44999999999999,-3.,45.));
#1733=CARTESIAN_POINT('',(-1.45000000000001,0.,53.));
#1734=CARTESIAN_POINT('',(-1.45000000000001,0.,53.));
#1735=CARTESIAN_POINT('',(-1.45,0.,60.));
#1736=CARTESIAN_POINT('',(-1.45,-3.,60.));
#1737=CARTESIAN_POINT('',(-1.45,-3.,60.));
#1738=CARTESIAN_POINT('',(-1.45000000000001,-3.,53.));
#1739=CARTESIAN_POINT('',(-1.45000000000001,-3.,53.));
#1740=CARTESIAN_POINT('',(-1.45000000000001,-3.,53.));
#1741=CARTESIAN_POINT('',(-1.45000000000001,-3.,53.));
#1742=CARTESIAN_POINT('',(-1.45,0.,60.));
#1743=CARTESIAN_POINT('',(1.44999999999999,0.,60.));
#1744=CARTESIAN_POINT('',(1.44999999999999,-3.,60.));
#1745=CARTESIAN_POINT('',(1.44999999999999,-3.,60.));
#1746=CARTESIAN_POINT('',(-1.45,-3.,60.));
#1747=CARTESIAN_POINT('',(-1.45,-3.,60.));
#1748=CARTESIAN_POINT('',(1.44999999999999,0.,60.));
#1749=CARTESIAN_POINT('',(1.45,0.,53.));
#1750=CARTESIAN_POINT('',(1.45,-3.,53.));
#1751=CARTESIAN_POINT('',(1.45,-3.,53.));
#1752=CARTESIAN_POINT('',(1.44999999999999,-3.,60.));
#1753=CARTESIAN_POINT('',(1.44999999999999,-3.,60.));
#1754=CARTESIAN_POINT('',(-1.45000000000001,0.,68.));
#1755=CARTESIAN_POINT('',(-1.45000000000001,0.,68.));
#1756=CARTESIAN_POINT('',(-1.45,0.,75.));
#1757=CARTESIAN_POINT('',(-1.45,-3.,75.));
#1758=CARTESIAN_POINT('',(-1.45,-3.,75.));
#1759=CARTESIAN_POINT('',(-1.45000000000001,-3.,68.));
#1760=CARTESIAN_POINT('',(-1.45000000000001,-3.,68.));
#1761=CARTESIAN_POINT('',(-1.45000000000001,-3.,68.));
#1762=CARTESIAN_POINT('',(-1.45000000000001,-3.,68.));
#1763=CARTESIAN_POINT('',(-1.45,0.,75.));
#1764=CARTESIAN_POINT('',(1.44999999999999,0.,75.));
#1765=CARTESIAN_POINT('',(1.44999999999999,-3.,75.));
#1766=CARTESIAN_POINT('',(1.44999999999999,-3.,75.));
#1767=CARTESIAN_POINT('',(-1.45,-3.,75.));
#1768=CARTESIAN_POINT('',(-1.45,-3.,75.));
#1769=CARTESIAN_POINT('',(1.44999999999999,0.,75.));
#1770=CARTESIAN_POINT('',(1.45,0.,68.));
#1771=CARTESIAN_POINT('',(1.45,-3.,68.));
#1772=CARTESIAN_POINT('',(1.45,-3.,68.));
#1773=CARTESIAN_POINT('',(1.44999999999999,-3.,75.));
#1774=CARTESIAN_POINT('',(1.44999999999999,-3.,75.));
#1775=CARTESIAN_POINT('',(-1.44999999999999,0.,83.));
#1776=CARTESIAN_POINT('',(-1.44999999999999,0.,83.));
#1777=CARTESIAN_POINT('',(-1.44999999999999,0.,90.));
#1778=CARTESIAN_POINT('',(-1.44999999999999,-3.,90.));
#1779=CARTESIAN_POINT('',(-1.44999999999999,-3.,90.));
#1780=CARTESIAN_POINT('',(-1.44999999999999,-3.,83.));
#1781=CARTESIAN_POINT('',(-1.44999999999999,-3.,83.));
#1782=CARTESIAN_POINT('',(-1.44999999999999,-3.,83.));
#1783=CARTESIAN_POINT('',(-1.44999999999999,-3.,83.));
#1784=CARTESIAN_POINT('',(-1.44999999999999,0.,90.));
#1785=CARTESIAN_POINT('',(1.45000000000001,0.,90.));
#1786=CARTESIAN_POINT('',(1.45000000000001,-3.,90.));
#1787=CARTESIAN_POINT('',(1.45000000000001,-3.,90.));
#1788=CARTESIAN_POINT('',(-1.44999999999999,-3.,90.));
#1789=CARTESIAN_POINT('',(-1.44999999999999,-3.,90.));
#1790=CARTESIAN_POINT('',(1.45000000000001,0.,90.));
#1791=CARTESIAN_POINT('',(1.45000000000001,0.,83.));
#1792=CARTESIAN_POINT('',(1.45000000000001,-3.,83.));
#1793=CARTESIAN_POINT('',(1.45000000000001,-3.,83.));
#1794=CARTESIAN_POINT('',(1.45000000000001,-3.,90.));
#1795=CARTESIAN_POINT('',(1.45000000000001,-3.,90.));
#1796=CARTESIAN_POINT('',(-5.00000000000002,0.,101.5));
#1797=CARTESIAN_POINT('',(-5.00000000000002,0.,100.8));
#1798=CARTESIAN_POINT('',(-5.,0.,5.45491116236192));
#1799=CARTESIAN_POINT('',(-5.,-3.,5.45491116236192));
#1800=CARTESIAN_POINT('',(-5.,-3.,5.45491116236192));
#1801=CARTESIAN_POINT('',(-5.00000000000002,-3.,101.5));
#1802=CARTESIAN_POINT('',(-5.00000000000002,-3.,100.8));
#1803=CARTESIAN_POINT('',(-5.00000000000002,-3.,100.8));
#1804=CARTESIAN_POINT('',(-5.00000000000002,-3.,101.5));
#1805=CARTESIAN_POINT('',(-5.,-3.,5.00000000000001));
#1806=CARTESIAN_POINT('',(-5.41570307376259,-3.,4.81524307832774));
#1807=CARTESIAN_POINT('',(-18.0842969262374,-3.,-0.815243078327739));
#1808=CARTESIAN_POINT('',(-5.41570307376259,0.,4.81524307832774));
#1809=CARTESIAN_POINT('',(-5.41570307376259,0.,4.81524307832774));
#1810=CARTESIAN_POINT('',(-5.,0.,5.00000000000001));
#1811=CARTESIAN_POINT('',(-18.0842969262374,0.,-0.815243078327739));
#1812=CARTESIAN_POINT('',(-18.0842969262374,-3.,-0.81524307832774));
#1813=CARTESIAN_POINT('',(-5.,-3.,5.00000000000001));
#1814=CARTESIAN_POINT('',(-18.5,-3.,-1.));
#1815=CARTESIAN_POINT('',(-18.5,-3.,-1.45491116236192));
#1816=CARTESIAN_POINT('',(-18.5,-3.,-4.3));
#1817=CARTESIAN_POINT('',(-18.5,-3.,-1.45491116236192));
#1818=CARTESIAN_POINT('',(-18.5,0.,-1.45491116236192));
#1819=CARTESIAN_POINT('',(-18.5,0.,-1.));
#1820=CARTESIAN_POINT('',(-18.5,0.,-4.3));
#1821=CARTESIAN_POINT('',(-18.5,-3.,-4.3));
#1822=CARTESIAN_POINT('',(-18.5,-3.,-1.));
#1823=CARTESIAN_POINT('',(-18.5,-3.,-5.));
#1824=CARTESIAN_POINT('',(-17.8,-3.,-5.));
#1825=CARTESIAN_POINT('',(-12.2,-3.,-5.));
#1826=CARTESIAN_POINT('',(-17.8,-3.,-5.));
#1827=CARTESIAN_POINT('',(-17.8,0.,-5.));
#1828=CARTESIAN_POINT('',(-18.5,0.,-5.));
#1829=CARTESIAN_POINT('',(-12.2,0.,-5.));
#1830=CARTESIAN_POINT('',(-12.2,-3.,-5.));
#1831=CARTESIAN_POINT('',(-18.5,-3.,-5.));
#1832=CARTESIAN_POINT('',(-11.5,-3.,-5.));
#1833=CARTESIAN_POINT('',(-11.5,-3.,-4.3));
#1834=CARTESIAN_POINT('',(-11.5,-3.,-2.));
#1835=CARTESIAN_POINT('',(-11.5,-3.,-4.3));
#1836=CARTESIAN_POINT('',(-11.5,0.,-4.3));
#1837=CARTESIAN_POINT('',(-11.5,0.,-5.));
#1838=CARTESIAN_POINT('',(-11.5,0.,-2.));
#1839=CARTESIAN_POINT('',(-11.5,-3.,-2.));
#1840=CARTESIAN_POINT('',(-11.5,-3.,-5.));
#1841=CARTESIAN_POINT('',(-5.,0.,-2.));
#1842=CARTESIAN_POINT('',(-3.5,0.,-2.));
#1843=CARTESIAN_POINT('',(-3.5,-3.,-2.));
#1844=CARTESIAN_POINT('',(-3.5,-3.,-2.));
#1845=CARTESIAN_POINT('',(-11.5,-3.,-2.));
#1846=CARTESIAN_POINT('',(-5.,-3.,-2.));
#1847=CARTESIAN_POINT('',(-3.5,0.,-2.));
#1848=CARTESIAN_POINT('',(-3.5,0.,-4.3));
#1849=CARTESIAN_POINT('',(-3.5,-3.,-4.3));
#1850=CARTESIAN_POINT('',(-3.5,-3.,-4.3));
#1851=CARTESIAN_POINT('',(-3.5,-3.,-2.));
#1852=CARTESIAN_POINT('',(-3.5,-3.,-2.));
#1853=CARTESIAN_POINT('',(-3.5,-3.,-5.));
#1854=CARTESIAN_POINT('',(-2.8,-3.,-5.));
#1855=CARTESIAN_POINT('',(-2.15,-3.,-5.));
#1856=CARTESIAN_POINT('',(-2.8,-3.,-5.));
#1857=CARTESIAN_POINT('',(-2.8,0.,-5.));
#1858=CARTESIAN_POINT('',(-3.5,0.,-5.));
#1859=CARTESIAN_POINT('',(-2.15,0.,-5.));
#1860=CARTESIAN_POINT('',(-2.15,-3.,-5.));
#1861=CARTESIAN_POINT('',(-3.5,-3.,-5.));
#1862=CARTESIAN_POINT('',(-1.45,-3.,-5.));
#1863=CARTESIAN_POINT('',(-1.45,-3.,-4.3));
#1864=CARTESIAN_POINT('',(-1.45,-3.,0.));
#1865=CARTESIAN_POINT('',(-1.45,-3.,-4.3));
#1866=CARTESIAN_POINT('',(-1.45,0.,-4.3));
#1867=CARTESIAN_POINT('',(-1.45,0.,-5.));
#1868=CARTESIAN_POINT('',(-1.45,0.,0.));
#1869=CARTESIAN_POINT('',(-1.45,-3.,0.));
#1870=CARTESIAN_POINT('',(-1.45,-3.,-5.));
#1871=CARTESIAN_POINT('',(-1.45,0.,0.));
#1872=CARTESIAN_POINT('',(1.45,0.,3.55147571752732E-16));
#1873=CARTESIAN_POINT('',(1.45,-3.,3.55147571752732E-16));
#1874=CARTESIAN_POINT('',(1.45,-3.,3.55147571752732E-16));
#1875=CARTESIAN_POINT('',(-1.45,-3.,0.));
#1876=CARTESIAN_POINT('',(-1.45,-3.,0.));
#1877=CARTESIAN_POINT('',(1.45,0.,0.));
#1878=CARTESIAN_POINT('',(1.45,0.,-4.3));
#1879=CARTESIAN_POINT('',(1.45,-3.,-4.3));
#1880=CARTESIAN_POINT('',(1.45,-3.,-4.3));
#1881=CARTESIAN_POINT('',(1.45,-3.,0.));
#1882=CARTESIAN_POINT('',(1.45,-3.,0.));
#1883=CARTESIAN_POINT('',(1.45,0.,-5.));
#1884=CARTESIAN_POINT('',(2.15,0.,-5.));
#1885=CARTESIAN_POINT('',(2.80000000000001,0.,-5.));
#1886=CARTESIAN_POINT('',(2.80000000000001,-3.,-5.));
#1887=CARTESIAN_POINT('',(2.80000000000001,-3.,-5.));
#1888=CARTESIAN_POINT('',(1.45,-3.,-5.));
#1889=CARTESIAN_POINT('',(2.15,-3.,-5.));
#1890=CARTESIAN_POINT('',(2.15,-3.,-5.));
#1891=CARTESIAN_POINT('',(1.45,-3.,-5.));
#1892=CARTESIAN_POINT('',(3.5,-3.,-5.));
#1893=CARTESIAN_POINT('',(3.5,-3.,-4.3));
#1894=CARTESIAN_POINT('',(3.50000000000001,-3.,-2.));
#1895=CARTESIAN_POINT('',(3.5,-3.,-4.3));
#1896=CARTESIAN_POINT('',(3.5,0.,-4.3));
#1897=CARTESIAN_POINT('',(3.5,0.,-5.));
#1898=CARTESIAN_POINT('',(3.50000000000001,0.,-2.));
#1899=CARTESIAN_POINT('',(3.50000000000001,-3.,-2.));
#1900=CARTESIAN_POINT('',(3.5,-3.,-5.));
#1901=CARTESIAN_POINT('',(5.,0.,-2.));
#1902=CARTESIAN_POINT('',(11.5,0.,-2.));
#1903=CARTESIAN_POINT('',(11.5,-3.,-2.));
#1904=CARTESIAN_POINT('',(11.5,-3.,-2.));
#1905=CARTESIAN_POINT('',(3.50000000000001,-3.,-2.));
#1906=CARTESIAN_POINT('',(5.,-3.,-2.));
#1907=CARTESIAN_POINT('',(11.5,0.,-2.));
#1908=CARTESIAN_POINT('',(11.5,0.,-4.3));
#1909=CARTESIAN_POINT('',(11.5,-3.,-4.3));
#1910=CARTESIAN_POINT('',(11.5,-3.,-4.3));
#1911=CARTESIAN_POINT('',(11.5,-3.,-2.));
#1912=CARTESIAN_POINT('',(11.5,-3.,-2.));
#1913=CARTESIAN_POINT('',(11.5,-3.,-5.));
#1914=CARTESIAN_POINT('',(12.2,-3.,-5.));
#1915=CARTESIAN_POINT('',(17.8,-3.,-5.));
#1916=CARTESIAN_POINT('',(12.2,-3.,-5.));
#1917=CARTESIAN_POINT('',(12.2,0.,-5.));
#1918=CARTESIAN_POINT('',(11.5,0.,-5.));
#1919=CARTESIAN_POINT('',(17.8,0.,-5.));
#1920=CARTESIAN_POINT('',(17.8,-3.,-5.));
#1921=CARTESIAN_POINT('',(11.5,-3.,-5.));
#1922=CARTESIAN_POINT('',(18.5,0.,-5.));
#1923=CARTESIAN_POINT('',(18.5,0.,-4.3));
#1924=CARTESIAN_POINT('',(18.5,0.,-1.45491116236192));
#1925=CARTESIAN_POINT('',(18.5,-3.,-1.45491116236192));
#1926=CARTESIAN_POINT('',(18.5,-3.,-1.45491116236192));
#1927=CARTESIAN_POINT('',(18.5,-3.,-5.));
#1928=CARTESIAN_POINT('',(18.5,-3.,-4.3));
#1929=CARTESIAN_POINT('',(18.5,-3.,-4.3));
#1930=CARTESIAN_POINT('',(18.5,-3.,-5.));
#1931=CARTESIAN_POINT('',(18.5,0.,-1.));
#1932=CARTESIAN_POINT('',(18.0842969262374,0.,-0.81524307832774));
#1933=CARTESIAN_POINT('',(5.41570307376259,0.,4.81524307832774));
#1934=CARTESIAN_POINT('',(5.41570307376259,-3.,4.81524307832774));
#1935=CARTESIAN_POINT('',(5.41570307376259,-3.,4.81524307832774));
#1936=CARTESIAN_POINT('',(18.5,-3.,-1.));
#1937=CARTESIAN_POINT('',(18.0842969262374,-3.,-0.81524307832774));
#1938=CARTESIAN_POINT('',(18.0842969262374,-3.,-0.81524307832774));
#1939=CARTESIAN_POINT('',(18.5,-3.,-1.));
#1940=CARTESIAN_POINT('',(5.,-3.,5.00000000000001));
#1941=CARTESIAN_POINT('',(5.,-3.,5.45491116236192));
#1942=CARTESIAN_POINT('',(5.,-3.,100.8));
#1943=CARTESIAN_POINT('',(5.,0.,5.45491116236192));
#1944=CARTESIAN_POINT('',(5.,0.,5.45491116236192));
#1945=CARTESIAN_POINT('',(5.,0.,5.00000000000001));
#1946=CARTESIAN_POINT('',(5.,0.,100.8));
#1947=CARTESIAN_POINT('',(5.,-3.,100.8));
#1948=CARTESIAN_POINT('',(5.,-3.,5.00000000000001));
#1949=CARTESIAN_POINT('',(1.45,0.,23.));
#1950=CARTESIAN_POINT('',(1.45,-3.,23.));
#1951=CARTESIAN_POINT('',(1.45,-3.,23.));
#1952=CARTESIAN_POINT('',(1.45,0.,38.));
#1953=CARTESIAN_POINT('',(1.45,-3.,38.));
#1954=CARTESIAN_POINT('',(1.45,-3.,38.));
#1955=CARTESIAN_POINT('',(1.45,0.,53.));
#1956=CARTESIAN_POINT('',(1.45,-3.,53.));
#1957=CARTESIAN_POINT('',(1.45,-3.,53.));
#1958=CARTESIAN_POINT('',(1.45,0.,68.));
#1959=CARTESIAN_POINT('',(1.45,-3.,68.));
#1960=CARTESIAN_POINT('',(1.45,-3.,68.));
#1961=CARTESIAN_POINT('',(1.45000000000001,0.,83.));
#1962=CARTESIAN_POINT('',(1.45000000000001,-3.,83.));
#1963=CARTESIAN_POINT('',(1.45000000000001,-3.,83.));
#1964=CARTESIAN_POINT('',(5.,-3.,101.5));
#1965=CARTESIAN_POINT('',(4.3,-3.,101.5));
#1966=CARTESIAN_POINT('',(-4.30000000000003,-3.,101.5));
#1967=CARTESIAN_POINT('',(4.3,-3.,101.5));
#1968=CARTESIAN_POINT('',(4.3,0.,101.5));
#1969=CARTESIAN_POINT('',(5.,0.,101.5));
#1970=CARTESIAN_POINT('',(-4.30000000000003,0.,101.5));
#1971=CARTESIAN_POINT('',(-4.30000000000003,-3.,101.5));
#1972=CARTESIAN_POINT('',(5.,-3.,101.5));
#1973=CARTESIAN_POINT('',(1.45,0.,8.));
#1974=CARTESIAN_POINT('',(1.45,-3.,8.));
#1975=CARTESIAN_POINT('',(1.45,-3.,8.));
#1976=CARTESIAN_POINT('',(-17.8,-3.,-1.45491116236192));
#1977=CARTESIAN_POINT('',(-17.8,-3.,-4.3));
#1978=CARTESIAN_POINT('',(-12.2,-3.,-4.3));
#1979=CARTESIAN_POINT('',(-2.8,-3.,-4.3));
#1980=CARTESIAN_POINT('',(-2.15,-3.,-4.3));
#1981=CARTESIAN_POINT('',(2.15,-3.,-4.3));
#1982=CARTESIAN_POINT('',(2.8,-3.,-4.3));
#1983=CARTESIAN_POINT('',(12.2,-3.,-4.3));
#1984=CARTESIAN_POINT('',(17.8,-3.,-4.3));
#1985=CARTESIAN_POINT('',(17.8,-3.,-1.45491116236192));
#1986=CARTESIAN_POINT('',(5.7,-3.,5.45491116236192));
#1987=CARTESIAN_POINT('',(4.3,-3.,100.8));
#1988=CARTESIAN_POINT('',(-4.30000000000003,-3.,100.8));
#1989=CARTESIAN_POINT('',(-5.7,-3.,5.45491116236192));
#1990=CARTESIAN_POINT('',(0.,-3.,0.));
#1991=CARTESIAN_POINT('',(-17.8,0.,-1.45491116236192));
#1992=CARTESIAN_POINT('',(-5.7,0.,5.45491116236192));
#1993=CARTESIAN_POINT('',(-4.30000000000003,0.,100.8));
#1994=CARTESIAN_POINT('',(4.3,0.,100.8));
#1995=CARTESIAN_POINT('',(5.7,0.,5.45491116236192));
#1996=CARTESIAN_POINT('',(17.8,0.,-1.45491116236192));
#1997=CARTESIAN_POINT('',(17.8,0.,-4.3));
#1998=CARTESIAN_POINT('',(12.2,0.,-4.3));
#1999=CARTESIAN_POINT('',(2.8,0.,-4.3));
#2000=CARTESIAN_POINT('',(2.15,0.,-4.3));
#2001=CARTESIAN_POINT('',(-2.15,0.,-4.3));
#2002=CARTESIAN_POINT('',(-2.8,0.,-4.3));
#2003=CARTESIAN_POINT('',(-12.2,0.,-4.3));
#2004=CARTESIAN_POINT('',(-17.8,0.,-4.3));
#2005=CARTESIAN_POINT('',(0.,0.,0.));
#2006=CARTESIAN_POINT('',(-5.7,-3.,5.45491116236192));
#2007=CARTESIAN_POINT('',(5.7,-3.,5.45491116236192));
#2008=CARTESIAN_POINT('',(-17.8,-3.,-1.45491116236192));
#2009=CARTESIAN_POINT('',(17.8,-3.,-1.45491116236192));
#2010=CARTESIAN_POINT('',(12.2,-3.,-4.3));
#2011=CARTESIAN_POINT('',(17.8,-3.,-4.3));
#2012=CARTESIAN_POINT('',(-17.8,-3.,-4.3));
#2013=CARTESIAN_POINT('',(-12.2,-3.,-4.3));
#2014=CARTESIAN_POINT('',(2.8,-3.,-4.3));
#2015=CARTESIAN_POINT('',(-2.8,-3.,-4.3));
#2016=CARTESIAN_POINT('',(2.15,-3.,-4.3));
#2017=CARTESIAN_POINT('',(-2.15,-3.,-4.3));
#2018=CARTESIAN_POINT('',(4.3,-3.,100.8));
#2019=CARTESIAN_POINT('',(-4.30000000000003,-3.,100.8));
#2020=MECHANICAL_DESIGN_GEOMETRIC_PRESENTATION_REPRESENTATION('',(#24),
#2021);
#2021=(
GEOMETRIC_REPRESENTATION_CONTEXT(3)
GLOBAL_UNCERTAINTY_ASSIGNED_CONTEXT((#2022))
GLOBAL_UNIT_ASSIGNED_CONTEXT((#2028,#2024,#2023))
REPRESENTATION_CONTEXT('A11_Motorshield-St\X\FCtze',
'TOP_LEVEL_ASSEMBLY_PART')
);
#2022=UNCERTAINTY_MEASURE_WITH_UNIT(LENGTH_MEASURE(2.E-5),#2028,
'DISTANCE_ACCURACY_VALUE','Maximum Tolerance applied to model');
#2023=(
NAMED_UNIT(*)
SI_UNIT($,.STERADIAN.)
SOLID_ANGLE_UNIT()
);
#2024=(
CONVERSION_BASED_UNIT('DEGREE',#2026)
NAMED_UNIT(#2025)
PLANE_ANGLE_UNIT()
);
#2025=DIMENSIONAL_EXPONENTS(0.,0.,0.,0.,0.,0.,0.);
#2026=PLANE_ANGLE_MEASURE_WITH_UNIT(PLANE_ANGLE_MEASURE(0.0174532925),#2027);
#2027=(
NAMED_UNIT(*)
PLANE_ANGLE_UNIT()
SI_UNIT($,.RADIAN.)
);
#2028=(
LENGTH_UNIT()
NAMED_UNIT(*)
SI_UNIT(.MILLI.,.METRE.)
);
ENDSEC;
END-ISO-10303-21;
